<?xml version="1.0" encoding="utf-8" standalone="no"?>
<!DOCTYPE svg PUBLIC "-//W3C//DTD SVG 1.1//EN"
  "http://www.w3.org/Graphics/SVG/1.1/DTD/svg11.dtd">
<svg height="288pt" version="1.1" viewBox="0 0 432 288" width="432pt" xmlns="http://www.w3.org/2000/svg" xmlns:xlink="http://www.w3.org/1999/xlink">
 <metadata>
  <rdf:RDF xmlns:cc="http://creativecommons.org/ns#" xmlns:dc="http://purl.org/dc/elements/1.1/" xmlns:rdf="http://www.w3.org/1999/02/22-rdf-syntax-ns#">
   <cc:Work>
    <dc:type rdf:resource="http://purl.org/dc/dcmitype/StillImage"/>
    <dc:date>2022-09-28T20:52:08.114047</dc:date>
    <dc:format>image/svg+xml</dc:format>
    <dc:creator>
     <cc:Agent>
      <dc:title>Matplotlib v3.4.3, https://matplotlib.org/</dc:title>
     </cc:Agent>
    </dc:creator>
   </cc:Work>
  </rdf:RDF>
 </metadata>
 <defs>
  <style type="text/css">*{stroke-linecap:butt;stroke-linejoin:round;}</style>
 </defs>
 <g id="figure_1">
  <g id="patch_1">
   <path d="M 0 288 
L 432 288 
L 432 0 
L 0 0 
z
" style="fill:none;"/>
  </g>
  <g id="axes_1">
   <g id="patch_2">
    <path d="M 47.120313 235.2 
L 409.7625 235.2 
L 409.7625 11.461969 
L 47.120313 11.461969 
z
" style="fill:#ffffff;"/>
   </g>
   <g id="matplotlib.axis_1">
    <g id="xtick_1">
     <g id="line2d_1">
      <defs>
       <path d="M 0 0 
L 0 3.5 
" id="mf7e3a58884" style="stroke:#000000;stroke-width:0.8;"/>
      </defs>
      <g>
       <use style="stroke:#000000;stroke-width:0.8;" x="47.120313" xlink:href="#mf7e3a58884" y="235.2"/>
      </g>
     </g>
     <g id="text_1">
      <!-- 0 -->
      <g transform="translate(43.302813 251.318125)scale(0.12 -0.12)">
       <defs>
        <path d="M 2034 4250 
Q 1547 4250 1301 3770 
Q 1056 3291 1056 2328 
Q 1056 1369 1301 889 
Q 1547 409 2034 409 
Q 2525 409 2770 889 
Q 3016 1369 3016 2328 
Q 3016 3291 2770 3770 
Q 2525 4250 2034 4250 
z
M 2034 4750 
Q 2819 4750 3233 4129 
Q 3647 3509 3647 2328 
Q 3647 1150 3233 529 
Q 2819 -91 2034 -91 
Q 1250 -91 836 529 
Q 422 1150 422 2328 
Q 422 3509 836 4129 
Q 1250 4750 2034 4750 
z
" id="DejaVuSans-30" transform="scale(0.015625)"/>
       </defs>
       <use xlink:href="#DejaVuSans-30"/>
      </g>
     </g>
    </g>
    <g id="xtick_2">
     <g id="line2d_2">
      <g>
       <use style="stroke:#000000;stroke-width:0.8;" x="92.450586" xlink:href="#mf7e3a58884" y="235.2"/>
      </g>
     </g>
     <g id="text_2">
      <!-- 100 -->
      <g transform="translate(80.998086 251.318125)scale(0.12 -0.12)">
       <defs>
        <path d="M 794 531 
L 1825 531 
L 1825 4091 
L 703 3866 
L 703 4441 
L 1819 4666 
L 2450 4666 
L 2450 531 
L 3481 531 
L 3481 0 
L 794 0 
L 794 531 
z
" id="DejaVuSans-31" transform="scale(0.015625)"/>
       </defs>
       <use xlink:href="#DejaVuSans-31"/>
       <use x="63.623047" xlink:href="#DejaVuSans-30"/>
       <use x="127.246094" xlink:href="#DejaVuSans-30"/>
      </g>
     </g>
    </g>
    <g id="xtick_3">
     <g id="line2d_3">
      <g>
       <use style="stroke:#000000;stroke-width:0.8;" x="137.780859" xlink:href="#mf7e3a58884" y="235.2"/>
      </g>
     </g>
     <g id="text_3">
      <!-- 200 -->
      <g transform="translate(126.328359 251.318125)scale(0.12 -0.12)">
       <defs>
        <path d="M 1228 531 
L 3431 531 
L 3431 0 
L 469 0 
L 469 531 
Q 828 903 1448 1529 
Q 2069 2156 2228 2338 
Q 2531 2678 2651 2914 
Q 2772 3150 2772 3378 
Q 2772 3750 2511 3984 
Q 2250 4219 1831 4219 
Q 1534 4219 1204 4116 
Q 875 4013 500 3803 
L 500 4441 
Q 881 4594 1212 4672 
Q 1544 4750 1819 4750 
Q 2544 4750 2975 4387 
Q 3406 4025 3406 3419 
Q 3406 3131 3298 2873 
Q 3191 2616 2906 2266 
Q 2828 2175 2409 1742 
Q 1991 1309 1228 531 
z
" id="DejaVuSans-32" transform="scale(0.015625)"/>
       </defs>
       <use xlink:href="#DejaVuSans-32"/>
       <use x="63.623047" xlink:href="#DejaVuSans-30"/>
       <use x="127.246094" xlink:href="#DejaVuSans-30"/>
      </g>
     </g>
    </g>
    <g id="xtick_4">
     <g id="line2d_4">
      <g>
       <use style="stroke:#000000;stroke-width:0.8;" x="183.111133" xlink:href="#mf7e3a58884" y="235.2"/>
      </g>
     </g>
     <g id="text_4">
      <!-- 300 -->
      <g transform="translate(171.658633 251.318125)scale(0.12 -0.12)">
       <defs>
        <path d="M 2597 2516 
Q 3050 2419 3304 2112 
Q 3559 1806 3559 1356 
Q 3559 666 3084 287 
Q 2609 -91 1734 -91 
Q 1441 -91 1130 -33 
Q 819 25 488 141 
L 488 750 
Q 750 597 1062 519 
Q 1375 441 1716 441 
Q 2309 441 2620 675 
Q 2931 909 2931 1356 
Q 2931 1769 2642 2001 
Q 2353 2234 1838 2234 
L 1294 2234 
L 1294 2753 
L 1863 2753 
Q 2328 2753 2575 2939 
Q 2822 3125 2822 3475 
Q 2822 3834 2567 4026 
Q 2313 4219 1838 4219 
Q 1578 4219 1281 4162 
Q 984 4106 628 3988 
L 628 4550 
Q 988 4650 1302 4700 
Q 1616 4750 1894 4750 
Q 2613 4750 3031 4423 
Q 3450 4097 3450 3541 
Q 3450 3153 3228 2886 
Q 3006 2619 2597 2516 
z
" id="DejaVuSans-33" transform="scale(0.015625)"/>
       </defs>
       <use xlink:href="#DejaVuSans-33"/>
       <use x="63.623047" xlink:href="#DejaVuSans-30"/>
       <use x="127.246094" xlink:href="#DejaVuSans-30"/>
      </g>
     </g>
    </g>
    <g id="xtick_5">
     <g id="line2d_5">
      <g>
       <use style="stroke:#000000;stroke-width:0.8;" x="228.441406" xlink:href="#mf7e3a58884" y="235.2"/>
      </g>
     </g>
     <g id="text_5">
      <!-- 400 -->
      <g transform="translate(216.988906 251.318125)scale(0.12 -0.12)">
       <defs>
        <path d="M 2419 4116 
L 825 1625 
L 2419 1625 
L 2419 4116 
z
M 2253 4666 
L 3047 4666 
L 3047 1625 
L 3713 1625 
L 3713 1100 
L 3047 1100 
L 3047 0 
L 2419 0 
L 2419 1100 
L 313 1100 
L 313 1709 
L 2253 4666 
z
" id="DejaVuSans-34" transform="scale(0.015625)"/>
       </defs>
       <use xlink:href="#DejaVuSans-34"/>
       <use x="63.623047" xlink:href="#DejaVuSans-30"/>
       <use x="127.246094" xlink:href="#DejaVuSans-30"/>
      </g>
     </g>
    </g>
    <g id="xtick_6">
     <g id="line2d_6">
      <g>
       <use style="stroke:#000000;stroke-width:0.8;" x="273.77168" xlink:href="#mf7e3a58884" y="235.2"/>
      </g>
     </g>
     <g id="text_6">
      <!-- 500 -->
      <g transform="translate(262.31918 251.318125)scale(0.12 -0.12)">
       <defs>
        <path d="M 691 4666 
L 3169 4666 
L 3169 4134 
L 1269 4134 
L 1269 2991 
Q 1406 3038 1543 3061 
Q 1681 3084 1819 3084 
Q 2600 3084 3056 2656 
Q 3513 2228 3513 1497 
Q 3513 744 3044 326 
Q 2575 -91 1722 -91 
Q 1428 -91 1123 -41 
Q 819 9 494 109 
L 494 744 
Q 775 591 1075 516 
Q 1375 441 1709 441 
Q 2250 441 2565 725 
Q 2881 1009 2881 1497 
Q 2881 1984 2565 2268 
Q 2250 2553 1709 2553 
Q 1456 2553 1204 2497 
Q 953 2441 691 2322 
L 691 4666 
z
" id="DejaVuSans-35" transform="scale(0.015625)"/>
       </defs>
       <use xlink:href="#DejaVuSans-35"/>
       <use x="63.623047" xlink:href="#DejaVuSans-30"/>
       <use x="127.246094" xlink:href="#DejaVuSans-30"/>
      </g>
     </g>
    </g>
    <g id="xtick_7">
     <g id="line2d_7">
      <g>
       <use style="stroke:#000000;stroke-width:0.8;" x="319.101953" xlink:href="#mf7e3a58884" y="235.2"/>
      </g>
     </g>
     <g id="text_7">
      <!-- 600 -->
      <g transform="translate(307.649453 251.318125)scale(0.12 -0.12)">
       <defs>
        <path d="M 2113 2584 
Q 1688 2584 1439 2293 
Q 1191 2003 1191 1497 
Q 1191 994 1439 701 
Q 1688 409 2113 409 
Q 2538 409 2786 701 
Q 3034 994 3034 1497 
Q 3034 2003 2786 2293 
Q 2538 2584 2113 2584 
z
M 3366 4563 
L 3366 3988 
Q 3128 4100 2886 4159 
Q 2644 4219 2406 4219 
Q 1781 4219 1451 3797 
Q 1122 3375 1075 2522 
Q 1259 2794 1537 2939 
Q 1816 3084 2150 3084 
Q 2853 3084 3261 2657 
Q 3669 2231 3669 1497 
Q 3669 778 3244 343 
Q 2819 -91 2113 -91 
Q 1303 -91 875 529 
Q 447 1150 447 2328 
Q 447 3434 972 4092 
Q 1497 4750 2381 4750 
Q 2619 4750 2861 4703 
Q 3103 4656 3366 4563 
z
" id="DejaVuSans-36" transform="scale(0.015625)"/>
       </defs>
       <use xlink:href="#DejaVuSans-36"/>
       <use x="63.623047" xlink:href="#DejaVuSans-30"/>
       <use x="127.246094" xlink:href="#DejaVuSans-30"/>
      </g>
     </g>
    </g>
    <g id="xtick_8">
     <g id="line2d_8">
      <g>
       <use style="stroke:#000000;stroke-width:0.8;" x="364.432227" xlink:href="#mf7e3a58884" y="235.2"/>
      </g>
     </g>
     <g id="text_8">
      <!-- 700 -->
      <g transform="translate(352.979727 251.318125)scale(0.12 -0.12)">
       <defs>
        <path d="M 525 4666 
L 3525 4666 
L 3525 4397 
L 1831 0 
L 1172 0 
L 2766 4134 
L 525 4134 
L 525 4666 
z
" id="DejaVuSans-37" transform="scale(0.015625)"/>
       </defs>
       <use xlink:href="#DejaVuSans-37"/>
       <use x="63.623047" xlink:href="#DejaVuSans-30"/>
       <use x="127.246094" xlink:href="#DejaVuSans-30"/>
      </g>
     </g>
    </g>
    <g id="xtick_9">
     <g id="line2d_9">
      <g>
       <use style="stroke:#000000;stroke-width:0.8;" x="409.7625" xlink:href="#mf7e3a58884" y="235.2"/>
      </g>
     </g>
     <g id="text_9">
      <!-- 800 -->
      <g transform="translate(398.31 251.318125)scale(0.12 -0.12)">
       <defs>
        <path d="M 2034 2216 
Q 1584 2216 1326 1975 
Q 1069 1734 1069 1313 
Q 1069 891 1326 650 
Q 1584 409 2034 409 
Q 2484 409 2743 651 
Q 3003 894 3003 1313 
Q 3003 1734 2745 1975 
Q 2488 2216 2034 2216 
z
M 1403 2484 
Q 997 2584 770 2862 
Q 544 3141 544 3541 
Q 544 4100 942 4425 
Q 1341 4750 2034 4750 
Q 2731 4750 3128 4425 
Q 3525 4100 3525 3541 
Q 3525 3141 3298 2862 
Q 3072 2584 2669 2484 
Q 3125 2378 3379 2068 
Q 3634 1759 3634 1313 
Q 3634 634 3220 271 
Q 2806 -91 2034 -91 
Q 1263 -91 848 271 
Q 434 634 434 1313 
Q 434 1759 690 2068 
Q 947 2378 1403 2484 
z
M 1172 3481 
Q 1172 3119 1398 2916 
Q 1625 2713 2034 2713 
Q 2441 2713 2670 2916 
Q 2900 3119 2900 3481 
Q 2900 3844 2670 4047 
Q 2441 4250 2034 4250 
Q 1625 4250 1398 4047 
Q 1172 3844 1172 3481 
z
" id="DejaVuSans-38" transform="scale(0.015625)"/>
       </defs>
       <use xlink:href="#DejaVuSans-38"/>
       <use x="63.623047" xlink:href="#DejaVuSans-30"/>
       <use x="127.246094" xlink:href="#DejaVuSans-30"/>
      </g>
     </g>
    </g>
    <g id="text_10">
     <!-- $t$ -->
     <g transform="translate(224.841406 271.490937)scale(0.18 -0.18)">
      <defs>
       <path d="M 2706 3500 
L 2619 3053 
L 1472 3053 
L 1100 1153 
Q 1081 1047 1072 975 
Q 1063 903 1063 863 
Q 1063 663 1183 572 
Q 1303 481 1569 481 
L 2150 481 
L 2053 0 
L 1503 0 
Q 991 0 739 200 
Q 488 400 488 806 
Q 488 878 497 964 
Q 506 1050 525 1153 
L 897 3053 
L 409 3053 
L 500 3500 
L 978 3500 
L 1172 4494 
L 1747 4494 
L 1556 3500 
L 2706 3500 
z
" id="DejaVuSans-Oblique-74" transform="scale(0.015625)"/>
      </defs>
      <use transform="translate(0 0.78125)" xlink:href="#DejaVuSans-Oblique-74"/>
     </g>
    </g>
   </g>
   <g id="matplotlib.axis_2">
    <g id="ytick_1">
     <g id="line2d_10">
      <defs>
       <path d="M 0 0 
L -3.5 0 
" id="mf5de65029e" style="stroke:#000000;stroke-width:0.8;"/>
      </defs>
      <g>
       <use style="stroke:#000000;stroke-width:0.8;" x="47.120313" xlink:href="#mf5de65029e" y="223.117194"/>
      </g>
     </g>
     <g id="text_11">
      <!-- 0.2 -->
      <g transform="translate(21.036563 227.676256)scale(0.12 -0.12)">
       <defs>
        <path d="M 684 794 
L 1344 794 
L 1344 0 
L 684 0 
L 684 794 
z
" id="DejaVuSans-2e" transform="scale(0.015625)"/>
       </defs>
       <use xlink:href="#DejaVuSans-30"/>
       <use x="63.623047" xlink:href="#DejaVuSans-2e"/>
       <use x="95.410156" xlink:href="#DejaVuSans-32"/>
      </g>
     </g>
    </g>
    <g id="ytick_2">
     <g id="line2d_11">
      <g>
       <use style="stroke:#000000;stroke-width:0.8;" x="47.120313" xlink:href="#mf5de65029e" y="188.58527"/>
      </g>
     </g>
     <g id="text_12">
      <!-- 0.4 -->
      <g transform="translate(21.036563 193.144332)scale(0.12 -0.12)">
       <use xlink:href="#DejaVuSans-30"/>
       <use x="63.623047" xlink:href="#DejaVuSans-2e"/>
       <use x="95.410156" xlink:href="#DejaVuSans-34"/>
      </g>
     </g>
    </g>
    <g id="ytick_3">
     <g id="line2d_12">
      <g>
       <use style="stroke:#000000;stroke-width:0.8;" x="47.120313" xlink:href="#mf5de65029e" y="154.053345"/>
      </g>
     </g>
     <g id="text_13">
      <!-- 0.6 -->
      <g transform="translate(21.036563 158.612408)scale(0.12 -0.12)">
       <use xlink:href="#DejaVuSans-30"/>
       <use x="63.623047" xlink:href="#DejaVuSans-2e"/>
       <use x="95.410156" xlink:href="#DejaVuSans-36"/>
      </g>
     </g>
    </g>
    <g id="ytick_4">
     <g id="line2d_13">
      <g>
       <use style="stroke:#000000;stroke-width:0.8;" x="47.120313" xlink:href="#mf5de65029e" y="119.521421"/>
      </g>
     </g>
     <g id="text_14">
      <!-- 0.8 -->
      <g transform="translate(21.036563 124.080484)scale(0.12 -0.12)">
       <use xlink:href="#DejaVuSans-30"/>
       <use x="63.623047" xlink:href="#DejaVuSans-2e"/>
       <use x="95.410156" xlink:href="#DejaVuSans-38"/>
      </g>
     </g>
    </g>
    <g id="ytick_5">
     <g id="line2d_14">
      <g>
       <use style="stroke:#000000;stroke-width:0.8;" x="47.120313" xlink:href="#mf5de65029e" y="84.989497"/>
      </g>
     </g>
     <g id="text_15">
      <!-- 1.0 -->
      <g transform="translate(21.036563 89.54856)scale(0.12 -0.12)">
       <use xlink:href="#DejaVuSans-31"/>
       <use x="63.623047" xlink:href="#DejaVuSans-2e"/>
       <use x="95.410156" xlink:href="#DejaVuSans-30"/>
      </g>
     </g>
    </g>
    <g id="ytick_6">
     <g id="line2d_15">
      <g>
       <use style="stroke:#000000;stroke-width:0.8;" x="47.120313" xlink:href="#mf5de65029e" y="50.457573"/>
      </g>
     </g>
     <g id="text_16">
      <!-- 1.2 -->
      <g transform="translate(21.036563 55.016635)scale(0.12 -0.12)">
       <use xlink:href="#DejaVuSans-31"/>
       <use x="63.623047" xlink:href="#DejaVuSans-2e"/>
       <use x="95.410156" xlink:href="#DejaVuSans-32"/>
      </g>
     </g>
    </g>
    <g id="ytick_7">
     <g id="line2d_16">
      <g>
       <use style="stroke:#000000;stroke-width:0.8;" x="47.120313" xlink:href="#mf5de65029e" y="15.925649"/>
      </g>
     </g>
     <g id="text_17">
      <!-- 1.4 -->
      <g transform="translate(21.036563 20.484711)scale(0.12 -0.12)">
       <use xlink:href="#DejaVuSans-31"/>
       <use x="63.623047" xlink:href="#DejaVuSans-2e"/>
       <use x="95.410156" xlink:href="#DejaVuSans-34"/>
      </g>
     </g>
    </g>
    <g id="text_18">
     <!-- $p$ -->
     <g transform="translate(11.276563 119.550985)scale(0.18 -0.18)">
      <defs>
       <path d="M 3175 2156 
Q 3175 2616 2975 2859 
Q 2775 3103 2400 3103 
Q 2144 3103 1911 2972 
Q 1678 2841 1497 2591 
Q 1319 2344 1212 1994 
Q 1106 1644 1106 1300 
Q 1106 863 1306 627 
Q 1506 391 1875 391 
Q 2147 391 2380 519 
Q 2613 647 2778 891 
Q 2956 1147 3065 1494 
Q 3175 1841 3175 2156 
z
M 1394 2969 
Q 1625 3272 1939 3428 
Q 2253 3584 2638 3584 
Q 3175 3584 3472 3232 
Q 3769 2881 3769 2247 
Q 3769 1728 3584 1258 
Q 3400 788 3053 416 
Q 2822 169 2531 39 
Q 2241 -91 1919 -91 
Q 1547 -91 1294 64 
Q 1041 219 916 525 
L 556 -1331 
L -19 -1331 
L 922 3500 
L 1497 3500 
L 1394 2969 
z
" id="DejaVuSans-Oblique-70" transform="scale(0.015625)"/>
      </defs>
      <use xlink:href="#DejaVuSans-Oblique-70"/>
     </g>
    </g>
   </g>
   <g id="line2d_17">
    <path clip-path="url(#p218c9af11b)" d="M 47.120313 225.03009 
L 47.573615 224.6866 
L 48.026918 224.078446 
L 48.933523 222.274274 
L 50.293432 218.687261 
L 54.373156 207.098436 
L 56.186367 202.864187 
L 59.359486 196.306816 
L 60.266092 193.742908 
L 61.626 189.029568 
L 62.985908 183.467638 
L 65.705725 171.07399 
L 68.878844 156.884107 
L 70.692055 148.688587 
L 72.051963 141.719625 
L 73.411871 133.737888 
L 75.225082 121.494226 
L 77.491596 104.25811 
L 82.477926 63.840374 
L 85.197742 41.769789 
L 86.104348 35.729655 
L 87.010953 31.493117 
L 87.464256 30.35061 
L 87.917559 30.019431 
L 88.370861 30.604358 
L 88.824164 32.185435 
L 89.277467 34.810172 
L 89.73077 38.488993 
L 90.637375 48.862277 
L 91.54398 62.690616 
L 92.903889 87.719785 
L 95.623705 140.146293 
L 96.983613 162.322747 
L 97.890219 174.627766 
L 98.796824 184.637502 
L 99.70343 191.952829 
L 100.156732 194.366313 
L 100.610035 195.729286 
L 101.063338 195.782153 
L 101.516641 194.17384 
L 101.969943 190.481595 
L 102.423246 184.304697 
L 102.876549 175.463754 
L 103.783154 151.488244 
L 105.143062 115.201792 
L 106.049668 99.441969 
L 106.502971 94.502683 
L 106.956273 91.315384 
L 107.409576 89.663686 
L 107.862879 89.322173 
L 108.316182 90.069975 
L 108.769484 91.695194 
L 109.67609 96.771431 
L 111.489301 108.456121 
L 111.942604 110.252903 
L 112.395906 110.941866 
L 112.849209 110.135242 
L 113.302512 107.498631 
L 113.755814 102.876001 
L 114.66242 88.865307 
L 115.569025 74.780652 
L 116.022328 70.193024 
L 116.475631 67.536744 
L 116.928934 66.395424 
L 117.382236 66.183189 
L 118.288842 66.391537 
L 118.742145 66.012609 
L 119.195447 64.990654 
L 119.64875 63.243467 
L 120.555355 57.806216 
L 122.821869 41.101405 
L 123.275172 38.598644 
L 123.728475 36.908256 
L 124.181777 36.61328 
L 124.63508 38.465329 
L 125.088383 42.917387 
L 125.994988 57.828083 
L 127.354896 82.695493 
L 128.261502 96.114318 
L 134.60774 177.034031 
L 135.061043 180.908245 
L 135.514346 183.515324 
L 135.967648 184.368002 
L 136.420951 182.964814 
L 136.874254 178.95895 
L 137.327557 172.346631 
L 138.234162 153.161213 
L 140.500676 99.367468 
L 141.407281 84.041498 
L 141.860584 78.5543 
L 142.313887 74.571145 
L 142.767189 72.038531 
L 143.220492 70.84999 
L 143.673795 70.864701 
L 144.127098 71.919077 
L 144.5804 73.827687 
L 145.487006 79.299218 
L 146.393611 84.927077 
L 146.846914 86.808733 
L 147.300217 87.498337 
L 147.75352 86.657147 
L 148.206822 84.109086 
L 148.660125 79.903596 
L 150.473336 59.094904 
L 150.926639 58.048907 
L 151.379941 59.733644 
L 151.833244 63.620092 
L 152.73985 74.949737 
L 153.646455 86.762937 
L 154.553061 95.703839 
L 155.006363 98.466141 
L 155.459666 99.925775 
L 155.912969 100.104079 
L 156.366271 99.170288 
L 157.272877 95.404188 
L 157.72618 93.576742 
L 158.179482 92.564183 
L 158.632785 92.951783 
L 159.086088 95.183209 
L 159.539391 99.355937 
L 160.445996 111.679816 
L 161.352602 124.156628 
L 161.805904 128.689052 
L 162.259207 131.375958 
L 162.71251 131.870371 
L 163.165812 130.064268 
L 163.619115 126.154961 
L 164.525721 114.062312 
L 165.885629 93.772291 
L 166.792234 83.239997 
L 167.245537 79.439451 
L 167.69884 76.61111 
L 169.512051 67.911783 
L 170.418656 59.482019 
L 171.325262 50.328181 
L 172.231867 43.552729 
L 174.498381 31.138858 
L 174.951684 29.42171 
L 175.404986 28.956312 
L 175.858289 30.200213 
L 176.311592 33.287443 
L 176.764895 38.007634 
L 177.6715 50.542529 
L 179.938014 85.97668 
L 181.751225 120.341253 
L 183.111133 144.917208 
L 184.471041 165.815898 
L 185.377646 177.643556 
L 186.284252 187.143633 
L 186.737555 190.693433 
L 187.190857 193.203939 
L 187.64416 194.453591 
L 188.097463 194.203284 
L 188.550766 192.223804 
L 189.004068 188.31688 
L 189.457371 182.31761 
L 189.910674 174.115663 
L 190.817279 151.780082 
L 192.177188 115.596987 
L 193.083793 98.960108 
L 193.537096 93.534161 
L 193.990398 89.877252 
L 194.443701 87.802915 
L 194.897004 87.111942 
L 195.350307 87.601087 
L 195.803609 89.064358 
L 196.710215 94.062768 
L 198.523426 105.704314 
L 198.976729 107.366838 
L 199.430031 107.928753 
L 199.883334 107.087473 
L 200.336637 104.57119 
L 200.789939 100.216515 
L 201.696545 86.838329 
L 202.60315 73.11414 
L 203.056453 68.743378 
L 203.509756 66.444038 
L 203.963059 65.818903 
L 204.416361 66.25804 
L 205.322967 67.991232 
L 205.77627 68.379326 
L 206.229572 68.05541 
L 206.682875 66.890979 
L 207.136178 64.890071 
L 208.042783 58.948926 
L 209.855994 45.522108 
L 210.309297 43.050207 
L 210.7626 41.49663 
L 211.215902 41.440461 
L 211.669205 43.57477 
L 212.122508 48.270371 
L 213.029113 63.359047 
L 214.389021 87.466599 
L 215.295627 99.497074 
L 216.655535 112.846773 
L 217.562141 121.761414 
L 218.922049 138.015947 
L 221.188562 166.749778 
L 222.095168 174.9413 
L 222.548471 177.074648 
L 223.001773 177.184161 
L 223.455076 174.769322 
L 223.908379 169.619377 
L 224.814984 152.521091 
L 227.534801 91.798872 
L 228.441406 77.317546 
L 229.348012 67.817227 
L 229.801314 65.071624 
L 230.254617 63.609318 
L 230.70792 63.324887 
L 231.161223 64.073185 
L 231.614525 65.672244 
L 232.521131 70.453507 
L 233.427736 75.06294 
L 233.881039 76.223027 
L 234.334342 76.062411 
L 234.787645 74.329589 
L 235.240947 71.007577 
L 237.054158 52.89882 
L 237.507461 52.130737 
L 237.960764 54.236053 
L 238.414066 58.886343 
L 239.320672 72.944339 
L 240.68058 96.161489 
L 241.587186 108.364724 
L 242.040488 112.824792 
L 242.493791 116.059177 
L 242.947094 118.0905 
L 243.400396 119.08454 
L 243.853699 119.373779 
L 244.307002 119.441694 
L 244.760305 119.857174 
L 245.213607 121.16639 
L 245.66691 123.750725 
L 246.120213 127.687468 
L 248.386727 152.157933 
L 248.840029 153.871674 
L 249.293332 153.191564 
L 249.746635 149.760632 
L 250.199938 143.620947 
L 251.106543 125.688162 
L 252.466451 96.677755 
L 253.373057 80.654168 
L 254.279662 67.514931 
L 255.186268 56.768923 
L 256.092873 48.241714 
L 256.546176 45.027742 
L 256.999479 42.729016 
L 257.452781 41.430356 
L 257.906084 41.077101 
L 258.359387 41.471942 
L 259.265992 43.136226 
L 259.719295 43.534166 
L 260.172598 43.072195 
L 260.6259 41.516749 
L 261.985809 33.942346 
L 262.439111 33.609761 
L 262.892414 35.854991 
L 263.345717 40.784411 
L 264.252322 56.943955 
L 267.878744 136.806088 
L 268.78535 151.196752 
L 269.691955 162.541952 
L 271.051863 176.293299 
L 272.411771 188.882199 
L 273.318377 195.121669 
L 273.77168 196.693629 
L 274.224982 196.575088 
L 274.678285 194.070441 
L 275.131588 188.4503 
L 275.584891 179.346769 
L 276.491496 153.546288 
L 277.398102 127.509546 
L 278.304707 108.615565 
L 278.75801 102.140737 
L 279.211312 97.38869 
L 279.664615 94.111308 
L 280.117918 92.081361 
L 280.571221 91.116007 
L 281.024523 91.080411 
L 281.477826 91.874957 
L 281.931129 93.410701 
L 282.837734 98.27026 
L 284.650945 109.919778 
L 285.104248 111.388865 
L 285.557551 111.313673 
L 286.010854 109.217911 
L 286.464156 104.888753 
L 287.370762 90.93266 
L 288.277367 76.301807 
L 288.73067 71.061934 
L 289.183973 67.544414 
L 289.637275 65.483408 
L 290.090578 64.455569 
L 290.543881 64.02484 
L 291.450486 63.464889 
L 291.903789 62.757623 
L 292.357092 61.506194 
L 292.810395 59.627933 
L 293.717 54.157178 
L 295.983514 38.375922 
L 296.436816 36.388663 
L 296.890119 35.638711 
L 297.343422 36.904374 
L 297.796725 40.755614 
L 298.250027 47.051165 
L 299.609936 72.593256 
L 300.969844 96.113043 
L 302.329752 114.645869 
L 304.596266 144.198482 
L 306.409477 168.144466 
L 307.316082 178.264002 
L 307.769385 182.27774 
L 308.222688 185.157614 
L 308.67599 186.44371 
L 309.129293 185.612862 
L 309.582596 182.206083 
L 310.035898 176.033242 
L 310.942504 156.751853 
L 313.209018 101.20048 
L 314.115623 85.94151 
L 314.568926 80.541394 
L 315.022229 76.639595 
L 315.475531 74.170286 
L 315.928834 73.024426 
L 316.382137 73.064552 
L 316.835439 74.134402 
L 317.288742 76.059495 
L 318.195348 81.631908 
L 319.101953 87.602717 
L 319.555256 89.791146 
L 320.008559 90.858035 
L 320.461861 90.406875 
L 320.915164 88.184189 
L 321.368467 84.165016 
L 323.181678 61.938442 
L 323.63498 60.071825 
L 324.088283 60.882547 
L 324.541586 63.912807 
L 325.448191 73.721202 
L 326.354797 84.280552 
L 327.261402 92.141328 
L 327.714705 94.399521 
L 328.168008 95.367966 
L 328.621311 95.059108 
L 329.074613 93.631045 
L 329.981219 88.768219 
L 330.434521 86.281141 
L 330.887824 84.508393 
L 331.341127 84.066476 
L 331.79443 85.5094 
L 332.247732 89.098833 
L 333.154338 101.238836 
L 334.060943 114.594543 
L 334.514246 119.835485 
L 334.967549 123.40493 
L 335.420852 124.970053 
L 335.874154 124.414085 
L 336.327457 121.882994 
L 336.78076 117.766993 
L 339.047273 91.727544 
L 339.500576 88.350089 
L 339.953879 86.15231 
L 340.407182 85.109696 
L 340.860484 84.982574 
L 341.313787 85.304762 
L 341.76709 85.413815 
L 342.220393 84.558646 
L 342.673695 82.140329 
L 343.126998 78.033934 
L 345.393512 51.913872 
L 346.75342 40.817149 
L 347.660025 35.53657 
L 348.113328 34.378364 
L 348.566631 34.606789 
L 349.019934 36.248471 
L 349.473236 39.064443 
L 351.73975 56.232156 
L 352.646355 61.990491 
L 353.099658 66.025554 
L 353.552961 71.490947 
L 354.459566 86.591219 
L 357.632686 147.894722 
L 358.539291 161.991733 
L 359.445896 173.09622 
L 360.352502 180.532699 
L 360.805805 182.795202 
L 361.259107 184.151838 
L 361.71241 184.705809 
L 362.165713 184.541852 
L 362.619016 183.644631 
L 363.072318 181.819216 
L 363.525621 178.652204 
L 363.978924 173.575488 
L 364.432227 166.098394 
L 365.338832 144.460364 
L 366.69874 110.056166 
L 367.605346 95.18145 
L 368.058648 90.630823 
L 368.511951 87.773271 
L 368.965254 86.358749 
L 369.418557 86.118334 
L 369.871859 86.78061 
L 370.325162 88.082589 
L 372.591676 96.731794 
L 373.044979 97.804531 
L 373.498281 98.307488 
L 373.951584 97.988179 
L 374.404887 96.517137 
L 374.858189 93.558631 
L 375.311492 88.931316 
L 377.124703 65.044295 
L 377.578006 62.485656 
L 378.031309 61.838188 
L 378.484611 62.530577 
L 379.84452 66.81918 
L 380.297822 67.641063 
L 380.751125 67.825462 
L 381.204428 67.347305 
L 381.65773 66.265011 
L 382.564336 62.768048 
L 383.924244 56.538541 
L 384.377547 55.004184 
L 384.83085 54.277906 
L 385.284152 54.878959 
L 385.737455 57.392738 
L 386.190758 62.169746 
L 387.097363 77.047165 
L 388.457271 100.857018 
L 389.363877 112.350146 
L 390.270482 120.117579 
L 392.990299 138.268663 
L 395.710115 160.19654 
L 396.163418 161.828768 
L 396.616721 161.593035 
L 397.070023 158.829806 
L 397.523326 153.204671 
L 398.429932 135.075981 
L 400.243143 94.85938 
L 401.149748 79.340578 
L 402.056354 67.33974 
L 402.962959 58.784298 
L 403.416262 55.81445 
L 403.869564 53.718021 
L 404.322867 52.472459 
L 404.77617 52.02467 
L 405.229473 52.281393 
L 405.682775 53.096547 
L 406.589381 55.432633 
L 407.042684 56.230489 
L 407.495986 56.186551 
L 407.949289 54.921616 
L 408.402592 52.317777 
L 409.7625 42.10175 
L 410.215803 41.457666 
L 410.215803 41.457666 
" style="fill:none;stroke:#1f77b4;stroke-linecap:square;stroke-width:1.5;"/>
   </g>
   <g id="patch_3">
    <path d="M 47.120313 235.2 
L 47.120313 11.461969 
" style="fill:none;stroke:#000000;stroke-linecap:square;stroke-linejoin:miter;stroke-width:0.8;"/>
   </g>
   <g id="patch_4">
    <path d="M 409.7625 235.2 
L 409.7625 11.461969 
" style="fill:none;stroke:#000000;stroke-linecap:square;stroke-linejoin:miter;stroke-width:0.8;"/>
   </g>
   <g id="patch_5">
    <path d="M 47.120313 235.2 
L 409.7625 235.2 
" style="fill:none;stroke:#000000;stroke-linecap:square;stroke-linejoin:miter;stroke-width:0.8;"/>
   </g>
   <g id="patch_6">
    <path d="M 47.120313 11.461969 
L 409.7625 11.461969 
" style="fill:none;stroke:#000000;stroke-linecap:square;stroke-linejoin:miter;stroke-width:0.8;"/>
   </g>
  </g>
 </g>
 <defs>
  <clipPath id="p218c9af11b">
   <rect height="223.738031" width="362.642187" x="47.120313" y="11.461969"/>
  </clipPath>
 </defs>
</svg>
