<?xml version="1.0" encoding="utf-8" standalone="no"?>
<!DOCTYPE svg PUBLIC "-//W3C//DTD SVG 1.1//EN"
  "http://www.w3.org/Graphics/SVG/1.1/DTD/svg11.dtd">
<svg xmlns:xlink="http://www.w3.org/1999/xlink" width="460.8pt" height="345.6pt" viewBox="0 0 460.8 345.6" xmlns="http://www.w3.org/2000/svg" version="1.1">
 <metadata>
  <rdf:RDF xmlns:dc="http://purl.org/dc/elements/1.1/" xmlns:cc="http://creativecommons.org/ns#" xmlns:rdf="http://www.w3.org/1999/02/22-rdf-syntax-ns#">
   <cc:Work>
    <dc:type rdf:resource="http://purl.org/dc/dcmitype/StillImage"/>
    <dc:date>2022-09-28T13:20:56.049389</dc:date>
    <dc:format>image/svg+xml</dc:format>
    <dc:creator>
     <cc:Agent>
      <dc:title>Matplotlib v3.5.3, https://matplotlib.org/</dc:title>
     </cc:Agent>
    </dc:creator>
   </cc:Work>
  </rdf:RDF>
 </metadata>
 <defs>
  <style type="text/css">*{stroke-linejoin: round; stroke-linecap: butt}</style>
 </defs>
 <g id="figure_1">
  <g id="patch_1">
   <path d="M 0 345.6 
L 460.8 345.6 
L 460.8 0 
L 0 0 
z
" style="fill: #ffffff"/>
  </g>
  <g id="axes_1">
   <g id="patch_2">
    <path d="M 46.926875 293.56 
L 438.66 293.56 
L 438.66 10.8 
L 46.926875 10.8 
z
" style="fill: #ffffff"/>
   </g>
   <g id="matplotlib.axis_1">
    <g id="xtick_1">
     <g id="line2d_1">
      <defs>
       <path id="m987dd6cd45" d="M 0 0 
L 0 3.5 
" style="stroke: #000000; stroke-width: 0.8"/>
      </defs>
      <g>
       <use xlink:href="#m987dd6cd45" x="46.926875" y="293.56" style="stroke: #000000; stroke-width: 0.8"/>
      </g>
     </g>
     <g id="text_1">
      <!-- 0 -->
      <g transform="translate(43.109375 309.678125)scale(0.12 -0.12)">
       <defs>
        <path id="DejaVuSans-30" d="M 2034 4250 
Q 1547 4250 1301 3770 
Q 1056 3291 1056 2328 
Q 1056 1369 1301 889 
Q 1547 409 2034 409 
Q 2525 409 2770 889 
Q 3016 1369 3016 2328 
Q 3016 3291 2770 3770 
Q 2525 4250 2034 4250 
z
M 2034 4750 
Q 2819 4750 3233 4129 
Q 3647 3509 3647 2328 
Q 3647 1150 3233 529 
Q 2819 -91 2034 -91 
Q 1250 -91 836 529 
Q 422 1150 422 2328 
Q 422 3509 836 4129 
Q 1250 4750 2034 4750 
z
" transform="scale(0.015625)"/>
       </defs>
       <use xlink:href="#DejaVuSans-30"/>
      </g>
     </g>
    </g>
    <g id="xtick_2">
     <g id="line2d_2">
      <g>
       <use xlink:href="#m987dd6cd45" x="95.893516" y="293.56" style="stroke: #000000; stroke-width: 0.8"/>
      </g>
     </g>
     <g id="text_2">
      <!-- 100 -->
      <g transform="translate(84.441016 309.678125)scale(0.12 -0.12)">
       <defs>
        <path id="DejaVuSans-31" d="M 794 531 
L 1825 531 
L 1825 4091 
L 703 3866 
L 703 4441 
L 1819 4666 
L 2450 4666 
L 2450 531 
L 3481 531 
L 3481 0 
L 794 0 
L 794 531 
z
" transform="scale(0.015625)"/>
       </defs>
       <use xlink:href="#DejaVuSans-31"/>
       <use xlink:href="#DejaVuSans-30" x="63.623047"/>
       <use xlink:href="#DejaVuSans-30" x="127.246094"/>
      </g>
     </g>
    </g>
    <g id="xtick_3">
     <g id="line2d_3">
      <g>
       <use xlink:href="#m987dd6cd45" x="144.860156" y="293.56" style="stroke: #000000; stroke-width: 0.8"/>
      </g>
     </g>
     <g id="text_3">
      <!-- 200 -->
      <g transform="translate(133.407656 309.678125)scale(0.12 -0.12)">
       <defs>
        <path id="DejaVuSans-32" d="M 1228 531 
L 3431 531 
L 3431 0 
L 469 0 
L 469 531 
Q 828 903 1448 1529 
Q 2069 2156 2228 2338 
Q 2531 2678 2651 2914 
Q 2772 3150 2772 3378 
Q 2772 3750 2511 3984 
Q 2250 4219 1831 4219 
Q 1534 4219 1204 4116 
Q 875 4013 500 3803 
L 500 4441 
Q 881 4594 1212 4672 
Q 1544 4750 1819 4750 
Q 2544 4750 2975 4387 
Q 3406 4025 3406 3419 
Q 3406 3131 3298 2873 
Q 3191 2616 2906 2266 
Q 2828 2175 2409 1742 
Q 1991 1309 1228 531 
z
" transform="scale(0.015625)"/>
       </defs>
       <use xlink:href="#DejaVuSans-32"/>
       <use xlink:href="#DejaVuSans-30" x="63.623047"/>
       <use xlink:href="#DejaVuSans-30" x="127.246094"/>
      </g>
     </g>
    </g>
    <g id="xtick_4">
     <g id="line2d_4">
      <g>
       <use xlink:href="#m987dd6cd45" x="193.826797" y="293.56" style="stroke: #000000; stroke-width: 0.8"/>
      </g>
     </g>
     <g id="text_4">
      <!-- 300 -->
      <g transform="translate(182.374297 309.678125)scale(0.12 -0.12)">
       <defs>
        <path id="DejaVuSans-33" d="M 2597 2516 
Q 3050 2419 3304 2112 
Q 3559 1806 3559 1356 
Q 3559 666 3084 287 
Q 2609 -91 1734 -91 
Q 1441 -91 1130 -33 
Q 819 25 488 141 
L 488 750 
Q 750 597 1062 519 
Q 1375 441 1716 441 
Q 2309 441 2620 675 
Q 2931 909 2931 1356 
Q 2931 1769 2642 2001 
Q 2353 2234 1838 2234 
L 1294 2234 
L 1294 2753 
L 1863 2753 
Q 2328 2753 2575 2939 
Q 2822 3125 2822 3475 
Q 2822 3834 2567 4026 
Q 2313 4219 1838 4219 
Q 1578 4219 1281 4162 
Q 984 4106 628 3988 
L 628 4550 
Q 988 4650 1302 4700 
Q 1616 4750 1894 4750 
Q 2613 4750 3031 4423 
Q 3450 4097 3450 3541 
Q 3450 3153 3228 2886 
Q 3006 2619 2597 2516 
z
" transform="scale(0.015625)"/>
       </defs>
       <use xlink:href="#DejaVuSans-33"/>
       <use xlink:href="#DejaVuSans-30" x="63.623047"/>
       <use xlink:href="#DejaVuSans-30" x="127.246094"/>
      </g>
     </g>
    </g>
    <g id="xtick_5">
     <g id="line2d_5">
      <g>
       <use xlink:href="#m987dd6cd45" x="242.793437" y="293.56" style="stroke: #000000; stroke-width: 0.8"/>
      </g>
     </g>
     <g id="text_5">
      <!-- 400 -->
      <g transform="translate(231.340937 309.678125)scale(0.12 -0.12)">
       <defs>
        <path id="DejaVuSans-34" d="M 2419 4116 
L 825 1625 
L 2419 1625 
L 2419 4116 
z
M 2253 4666 
L 3047 4666 
L 3047 1625 
L 3713 1625 
L 3713 1100 
L 3047 1100 
L 3047 0 
L 2419 0 
L 2419 1100 
L 313 1100 
L 313 1709 
L 2253 4666 
z
" transform="scale(0.015625)"/>
       </defs>
       <use xlink:href="#DejaVuSans-34"/>
       <use xlink:href="#DejaVuSans-30" x="63.623047"/>
       <use xlink:href="#DejaVuSans-30" x="127.246094"/>
      </g>
     </g>
    </g>
    <g id="xtick_6">
     <g id="line2d_6">
      <g>
       <use xlink:href="#m987dd6cd45" x="291.760078" y="293.56" style="stroke: #000000; stroke-width: 0.8"/>
      </g>
     </g>
     <g id="text_6">
      <!-- 500 -->
      <g transform="translate(280.307578 309.678125)scale(0.12 -0.12)">
       <defs>
        <path id="DejaVuSans-35" d="M 691 4666 
L 3169 4666 
L 3169 4134 
L 1269 4134 
L 1269 2991 
Q 1406 3038 1543 3061 
Q 1681 3084 1819 3084 
Q 2600 3084 3056 2656 
Q 3513 2228 3513 1497 
Q 3513 744 3044 326 
Q 2575 -91 1722 -91 
Q 1428 -91 1123 -41 
Q 819 9 494 109 
L 494 744 
Q 775 591 1075 516 
Q 1375 441 1709 441 
Q 2250 441 2565 725 
Q 2881 1009 2881 1497 
Q 2881 1984 2565 2268 
Q 2250 2553 1709 2553 
Q 1456 2553 1204 2497 
Q 953 2441 691 2322 
L 691 4666 
z
" transform="scale(0.015625)"/>
       </defs>
       <use xlink:href="#DejaVuSans-35"/>
       <use xlink:href="#DejaVuSans-30" x="63.623047"/>
       <use xlink:href="#DejaVuSans-30" x="127.246094"/>
      </g>
     </g>
    </g>
    <g id="xtick_7">
     <g id="line2d_7">
      <g>
       <use xlink:href="#m987dd6cd45" x="340.726719" y="293.56" style="stroke: #000000; stroke-width: 0.8"/>
      </g>
     </g>
     <g id="text_7">
      <!-- 600 -->
      <g transform="translate(329.274219 309.678125)scale(0.12 -0.12)">
       <defs>
        <path id="DejaVuSans-36" d="M 2113 2584 
Q 1688 2584 1439 2293 
Q 1191 2003 1191 1497 
Q 1191 994 1439 701 
Q 1688 409 2113 409 
Q 2538 409 2786 701 
Q 3034 994 3034 1497 
Q 3034 2003 2786 2293 
Q 2538 2584 2113 2584 
z
M 3366 4563 
L 3366 3988 
Q 3128 4100 2886 4159 
Q 2644 4219 2406 4219 
Q 1781 4219 1451 3797 
Q 1122 3375 1075 2522 
Q 1259 2794 1537 2939 
Q 1816 3084 2150 3084 
Q 2853 3084 3261 2657 
Q 3669 2231 3669 1497 
Q 3669 778 3244 343 
Q 2819 -91 2113 -91 
Q 1303 -91 875 529 
Q 447 1150 447 2328 
Q 447 3434 972 4092 
Q 1497 4750 2381 4750 
Q 2619 4750 2861 4703 
Q 3103 4656 3366 4563 
z
" transform="scale(0.015625)"/>
       </defs>
       <use xlink:href="#DejaVuSans-36"/>
       <use xlink:href="#DejaVuSans-30" x="63.623047"/>
       <use xlink:href="#DejaVuSans-30" x="127.246094"/>
      </g>
     </g>
    </g>
    <g id="xtick_8">
     <g id="line2d_8">
      <g>
       <use xlink:href="#m987dd6cd45" x="389.693359" y="293.56" style="stroke: #000000; stroke-width: 0.8"/>
      </g>
     </g>
     <g id="text_8">
      <!-- 700 -->
      <g transform="translate(378.240859 309.678125)scale(0.12 -0.12)">
       <defs>
        <path id="DejaVuSans-37" d="M 525 4666 
L 3525 4666 
L 3525 4397 
L 1831 0 
L 1172 0 
L 2766 4134 
L 525 4134 
L 525 4666 
z
" transform="scale(0.015625)"/>
       </defs>
       <use xlink:href="#DejaVuSans-37"/>
       <use xlink:href="#DejaVuSans-30" x="63.623047"/>
       <use xlink:href="#DejaVuSans-30" x="127.246094"/>
      </g>
     </g>
    </g>
    <g id="xtick_9">
     <g id="line2d_9">
      <g>
       <use xlink:href="#m987dd6cd45" x="438.66" y="293.56" style="stroke: #000000; stroke-width: 0.8"/>
      </g>
     </g>
     <g id="text_9">
      <!-- 800 -->
      <g transform="translate(427.2075 309.678125)scale(0.12 -0.12)">
       <defs>
        <path id="DejaVuSans-38" d="M 2034 2216 
Q 1584 2216 1326 1975 
Q 1069 1734 1069 1313 
Q 1069 891 1326 650 
Q 1584 409 2034 409 
Q 2484 409 2743 651 
Q 3003 894 3003 1313 
Q 3003 1734 2745 1975 
Q 2488 2216 2034 2216 
z
M 1403 2484 
Q 997 2584 770 2862 
Q 544 3141 544 3541 
Q 544 4100 942 4425 
Q 1341 4750 2034 4750 
Q 2731 4750 3128 4425 
Q 3525 4100 3525 3541 
Q 3525 3141 3298 2862 
Q 3072 2584 2669 2484 
Q 3125 2378 3379 2068 
Q 3634 1759 3634 1313 
Q 3634 634 3220 271 
Q 2806 -91 2034 -91 
Q 1263 -91 848 271 
Q 434 634 434 1313 
Q 434 1759 690 2068 
Q 947 2378 1403 2484 
z
M 1172 3481 
Q 1172 3119 1398 2916 
Q 1625 2713 2034 2713 
Q 2441 2713 2670 2916 
Q 2900 3119 2900 3481 
Q 2900 3844 2670 4047 
Q 2441 4250 2034 4250 
Q 1625 4250 1398 4047 
Q 1172 3844 1172 3481 
z
" transform="scale(0.015625)"/>
       </defs>
       <use xlink:href="#DejaVuSans-38"/>
       <use xlink:href="#DejaVuSans-30" x="63.623047"/>
       <use xlink:href="#DejaVuSans-30" x="127.246094"/>
      </g>
     </g>
    </g>
    <g id="text_10">
     <!-- $t$ -->
     <g transform="translate(239.193437 329.850937)scale(0.18 -0.18)">
      <defs>
       <path id="DejaVuSans-Oblique-74" d="M 2706 3500 
L 2619 3053 
L 1472 3053 
L 1100 1153 
Q 1081 1047 1072 975 
Q 1063 903 1063 863 
Q 1063 663 1183 572 
Q 1303 481 1569 481 
L 2150 481 
L 2053 0 
L 1503 0 
Q 991 0 739 200 
Q 488 400 488 806 
Q 488 878 497 964 
Q 506 1050 525 1153 
L 897 3053 
L 409 3053 
L 500 3500 
L 978 3500 
L 1172 4494 
L 1747 4494 
L 1556 3500 
L 2706 3500 
z
" transform="scale(0.015625)"/>
      </defs>
      <use xlink:href="#DejaVuSans-Oblique-74" transform="translate(0 0.78125)"/>
     </g>
    </g>
   </g>
   <g id="matplotlib.axis_2">
    <g id="ytick_1">
     <g id="line2d_10">
      <defs>
       <path id="m5c25739420" d="M 0 0 
L -3.5 0 
" style="stroke: #000000; stroke-width: 0.8"/>
      </defs>
      <g>
       <use xlink:href="#m5c25739420" x="46.926875" y="278.289756" style="stroke: #000000; stroke-width: 0.8"/>
      </g>
     </g>
     <g id="text_11">
      <!-- 0.2 -->
      <g transform="translate(20.843125 282.848819)scale(0.12 -0.12)">
       <defs>
        <path id="DejaVuSans-2e" d="M 684 794 
L 1344 794 
L 1344 0 
L 684 0 
L 684 794 
z
" transform="scale(0.015625)"/>
       </defs>
       <use xlink:href="#DejaVuSans-30"/>
       <use xlink:href="#DejaVuSans-2e" x="63.623047"/>
       <use xlink:href="#DejaVuSans-32" x="95.410156"/>
      </g>
     </g>
    </g>
    <g id="ytick_2">
     <g id="line2d_11">
      <g>
       <use xlink:href="#m5c25739420" x="46.926875" y="234.64833" style="stroke: #000000; stroke-width: 0.8"/>
      </g>
     </g>
     <g id="text_12">
      <!-- 0.4 -->
      <g transform="translate(20.843125 239.207392)scale(0.12 -0.12)">
       <use xlink:href="#DejaVuSans-30"/>
       <use xlink:href="#DejaVuSans-2e" x="63.623047"/>
       <use xlink:href="#DejaVuSans-34" x="95.410156"/>
      </g>
     </g>
    </g>
    <g id="ytick_3">
     <g id="line2d_12">
      <g>
       <use xlink:href="#m5c25739420" x="46.926875" y="191.006903" style="stroke: #000000; stroke-width: 0.8"/>
      </g>
     </g>
     <g id="text_13">
      <!-- 0.6 -->
      <g transform="translate(20.843125 195.565965)scale(0.12 -0.12)">
       <use xlink:href="#DejaVuSans-30"/>
       <use xlink:href="#DejaVuSans-2e" x="63.623047"/>
       <use xlink:href="#DejaVuSans-36" x="95.410156"/>
      </g>
     </g>
    </g>
    <g id="ytick_4">
     <g id="line2d_13">
      <g>
       <use xlink:href="#m5c25739420" x="46.926875" y="147.365476" style="stroke: #000000; stroke-width: 0.8"/>
      </g>
     </g>
     <g id="text_14">
      <!-- 0.8 -->
      <g transform="translate(20.843125 151.924539)scale(0.12 -0.12)">
       <use xlink:href="#DejaVuSans-30"/>
       <use xlink:href="#DejaVuSans-2e" x="63.623047"/>
       <use xlink:href="#DejaVuSans-38" x="95.410156"/>
      </g>
     </g>
    </g>
    <g id="ytick_5">
     <g id="line2d_14">
      <g>
       <use xlink:href="#m5c25739420" x="46.926875" y="103.724049" style="stroke: #000000; stroke-width: 0.8"/>
      </g>
     </g>
     <g id="text_15">
      <!-- 1.0 -->
      <g transform="translate(20.843125 108.283112)scale(0.12 -0.12)">
       <use xlink:href="#DejaVuSans-31"/>
       <use xlink:href="#DejaVuSans-2e" x="63.623047"/>
       <use xlink:href="#DejaVuSans-30" x="95.410156"/>
      </g>
     </g>
    </g>
    <g id="ytick_6">
     <g id="line2d_15">
      <g>
       <use xlink:href="#m5c25739420" x="46.926875" y="60.082623" style="stroke: #000000; stroke-width: 0.8"/>
      </g>
     </g>
     <g id="text_16">
      <!-- 1.2 -->
      <g transform="translate(20.843125 64.641685)scale(0.12 -0.12)">
       <use xlink:href="#DejaVuSans-31"/>
       <use xlink:href="#DejaVuSans-2e" x="63.623047"/>
       <use xlink:href="#DejaVuSans-32" x="95.410156"/>
      </g>
     </g>
    </g>
    <g id="ytick_7">
     <g id="line2d_16">
      <g>
       <use xlink:href="#m5c25739420" x="46.926875" y="16.441196" style="stroke: #000000; stroke-width: 0.8"/>
      </g>
     </g>
     <g id="text_17">
      <!-- 1.4 -->
      <g transform="translate(20.843125 21.000258)scale(0.12 -0.12)">
       <use xlink:href="#DejaVuSans-31"/>
       <use xlink:href="#DejaVuSans-2e" x="63.623047"/>
       <use xlink:href="#DejaVuSans-34" x="95.410156"/>
      </g>
     </g>
    </g>
    <g id="text_18">
     <!-- $p$ -->
     <g transform="translate(11.083125 148.4)scale(0.18 -0.18)">
      <defs>
       <path id="DejaVuSans-Oblique-70" d="M 3175 2156 
Q 3175 2616 2975 2859 
Q 2775 3103 2400 3103 
Q 2144 3103 1911 2972 
Q 1678 2841 1497 2591 
Q 1319 2344 1212 1994 
Q 1106 1644 1106 1300 
Q 1106 863 1306 627 
Q 1506 391 1875 391 
Q 2147 391 2380 519 
Q 2613 647 2778 891 
Q 2956 1147 3065 1494 
Q 3175 1841 3175 2156 
z
M 1394 2969 
Q 1625 3272 1939 3428 
Q 2253 3584 2638 3584 
Q 3175 3584 3472 3232 
Q 3769 2881 3769 2247 
Q 3769 1728 3584 1258 
Q 3400 788 3053 416 
Q 2822 169 2531 39 
Q 2241 -91 1919 -91 
Q 1547 -91 1294 64 
Q 1041 219 916 525 
L 556 -1331 
L -19 -1331 
L 922 3500 
L 1497 3500 
L 1394 2969 
z
" transform="scale(0.015625)"/>
      </defs>
      <use xlink:href="#DejaVuSans-Oblique-70"/>
     </g>
    </g>
   </g>
   <g id="line2d_17">
    <path d="M 46.926875 280.707273 
L 47.416541 280.27317 
L 47.906208 279.504586 
L 48.885541 277.224475 
L 50.35454 272.69121 
L 54.761538 258.045259 
L 56.230537 253.939242 
L 57.699536 250.38994 
L 59.168535 247.070438 
L 60.147868 244.406816 
L 61.127201 241.16655 
L 62.5962 235.209834 
L 64.065199 228.18067 
L 66.513531 215.17776 
L 69.941196 197.070346 
L 72.389528 184.226924 
L 73.858527 175.419554 
L 75.327527 165.332239 
L 77.286192 149.858706 
L 79.734524 128.075711 
L 84.631188 81.758369 
L 88.058853 49.103007 
L 89.038186 41.469488 
L 89.527852 38.433596 
L 90.017519 36.115354 
L 90.507185 34.671455 
L 90.996852 34.25291 
L 91.486518 34.99214 
L 91.976184 36.990305 
L 92.465851 40.307446 
L 92.955517 44.956738 
L 93.93485 58.066489 
L 94.914183 75.542735 
L 96.383182 107.174586 
L 99.32118 173.431178 
L 100.79018 201.457768 
L 101.769513 217.008844 
L 102.748845 229.659143 
L 103.728178 238.904249 
L 104.217845 241.954409 
L 104.707511 243.676933 
L 105.197177 243.743747 
L 105.686844 241.711162 
L 106.17651 237.044904 
L 106.666177 229.238545 
L 107.155843 218.065365 
L 108.135176 187.765129 
L 109.114509 155.576431 
L 110.093841 130.671975 
L 110.583508 121.989075 
L 111.073174 115.746808 
L 111.562841 111.718702 
L 112.052507 109.631287 
L 112.542173 109.199683 
L 113.03184 110.144754 
L 113.521506 112.198705 
L 114.500839 118.614051 
L 116.459505 133.381155 
L 116.949171 135.651928 
L 117.438838 136.522639 
L 117.928504 135.503228 
L 118.41817 132.17108 
L 118.907837 126.329003 
L 119.88717 108.622295 
L 120.866502 90.822116 
L 121.356169 85.024275 
L 121.845835 81.667269 
L 122.335502 80.22487 
L 122.825168 79.956647 
L 123.314834 80.149755 
L 123.804501 80.219958 
L 124.294167 79.741069 
L 124.783834 78.449522 
L 125.2735 76.241429 
L 125.763166 73.160541 
L 126.742499 65.110377 
L 128.701165 48.258303 
L 129.190831 45.095315 
L 129.680498 42.959003 
L 130.170164 42.586213 
L 130.65983 44.926831 
L 131.149497 50.55334 
L 132.12883 69.397469 
L 133.597829 100.824889 
L 134.577162 117.783592 
L 139.473826 192.317518 
L 140.942825 214.044963 
L 141.922158 224.94611 
L 142.411824 228.240935 
L 142.901491 229.318548 
L 143.391157 227.545201 
L 143.880823 222.482592 
L 144.37049 214.125947 
L 145.349823 189.879427 
L 147.798155 121.894921 
L 148.777488 102.525969 
L 149.267154 95.591251 
L 149.75682 90.557342 
L 150.246487 87.356626 
L 150.736153 85.854548 
L 151.22582 85.87314 
L 151.715486 87.205659 
L 152.205152 89.61776 
L 153.184485 96.532678 
L 154.163818 103.645163 
L 154.653484 106.023199 
L 155.143151 106.89472 
L 155.632817 105.831625 
L 156.122484 102.611387 
L 156.61215 97.296491 
L 158.570816 70.998477 
L 159.060482 69.676547 
L 159.550148 71.805716 
L 160.039815 76.717407 
L 161.019148 91.035806 
L 161.99848 105.965322 
L 162.977813 117.264829 
L 163.46748 120.755824 
L 163.957146 122.600509 
L 164.446813 122.82585 
L 164.936479 121.645725 
L 165.915812 116.886129 
L 166.405478 114.576605 
L 166.895145 113.296933 
L 167.384811 113.786781 
L 167.874477 116.606857 
L 168.364144 121.880348 
L 169.343477 137.455259 
L 170.322809 153.223448 
L 170.812476 158.951523 
L 171.302142 162.347233 
L 171.791809 162.972072 
L 172.281475 160.68952 
L 172.771141 155.748939 
L 173.750474 140.466256 
L 175.219473 114.823739 
L 176.198806 101.513032 
L 176.688473 96.709904 
L 177.178139 93.135448 
L 179.136805 82.141244 
L 180.116137 71.487712 
L 181.09547 59.919097 
L 182.074803 51.356285 
L 184.033469 38.668615 
L 184.523135 35.667642 
L 185.012802 33.497511 
L 185.502468 32.909341 
L 185.992134 34.481382 
L 186.481801 38.383022 
L 186.971467 44.348397 
L 187.9508 60.18999 
L 190.399132 104.97165 
L 191.868131 137.250777 
L 193.826797 179.460658 
L 195.295796 205.87241 
L 196.275129 220.820198 
L 197.254462 232.82639 
L 197.744128 237.312625 
L 198.233795 240.485401 
L 198.723461 242.06471 
L 199.213127 241.748372 
L 199.702794 239.246707 
L 200.19246 234.309138 
L 200.682127 226.727265 
L 201.171793 216.361649 
L 202.151126 188.133954 
L 203.620125 142.405778 
L 204.599458 121.3801 
L 205.089124 114.52279 
L 205.578791 109.901191 
L 206.068457 107.279645 
L 206.558123 106.406394 
L 207.04779 107.024575 
L 207.537456 108.873857 
L 208.027123 111.687992 
L 209.006455 119.090679 
L 209.985788 126.799339 
L 210.475455 129.903424 
L 210.965121 132.004521 
L 211.454788 132.714668 
L 211.944454 131.651459 
L 212.43412 128.471382 
L 212.923787 122.967946 
L 213.90312 106.060601 
L 214.882452 88.71598 
L 215.372119 83.192213 
L 215.861785 80.286308 
L 216.351452 79.496263 
L 216.841118 80.051244 
L 217.820451 82.241652 
L 218.310117 82.732124 
L 218.799784 82.322759 
L 219.28945 80.851152 
L 219.779116 78.322406 
L 220.758449 70.81399 
L 222.717115 53.845184 
L 223.206781 50.721198 
L 223.696448 48.757788 
L 224.186114 48.686802 
L 224.67578 51.38414 
L 225.165447 57.318438 
L 226.14478 76.387498 
L 227.613779 106.854609 
L 228.593112 122.058717 
L 229.572445 133.646622 
L 231.041444 150.196378 
L 232.510443 170.738848 
L 234.958775 207.052647 
L 235.938108 217.405088 
L 236.427774 220.101212 
L 236.917441 220.239614 
L 237.407107 217.187743 
L 237.896773 210.679245 
L 238.38644 201.032211 
L 239.365773 175.794897 
L 241.324438 123.430893 
L 242.303771 102.463952 
L 243.283104 87.183368 
L 243.77277 82.021744 
L 244.262437 78.551852 
L 244.752103 76.703791 
L 245.24177 76.344327 
L 245.731436 77.290026 
L 246.221102 79.310915 
L 247.200435 85.353473 
L 248.179768 91.178872 
L 248.669434 92.644989 
L 249.159101 92.442003 
L 249.648767 90.252063 
L 250.138434 86.053706 
L 252.097099 63.167869 
L 252.586766 62.197166 
L 253.076432 64.857864 
L 253.566098 70.734897 
L 254.545431 88.501385 
L 256.01443 117.843206 
L 256.993763 133.265648 
L 257.48343 138.902279 
L 257.973096 142.989893 
L 258.462762 145.557079 
L 258.952429 146.813346 
L 259.442095 147.178886 
L 259.931762 147.264716 
L 260.421428 147.789801 
L 260.911095 149.444386 
L 261.400761 152.710468 
L 261.890427 157.685722 
L 264.338759 188.611481 
L 264.828426 190.777306 
L 265.318092 189.917783 
L 265.807759 185.581774 
L 266.297425 177.822444 
L 267.276758 155.159 
L 268.745757 118.495664 
L 269.72509 98.245063 
L 270.704423 81.639703 
L 271.683755 68.058904 
L 272.663088 57.282221 
L 273.152755 53.220405 
L 273.642421 50.315276 
L 274.132088 48.674031 
L 274.621754 48.227587 
L 275.11142 48.726588 
L 276.090753 50.829908 
L 276.58042 51.332824 
L 277.070086 50.748986 
L 277.559752 48.783214 
L 279.028752 39.210688 
L 279.518418 38.790368 
L 280.008084 41.627888 
L 280.497751 47.857686 
L 280.987417 56.99431 
L 281.96675 80.950572 
L 284.904748 158.578756 
L 285.884081 178.820243 
L 286.863414 194.991178 
L 287.842747 207.838598 
L 289.801412 229.977403 
L 290.780745 239.45658 
L 291.270412 242.909027 
L 291.760078 244.89567 
L 292.249745 244.745857 
L 292.739411 241.580487 
L 293.229077 234.477755 
L 293.718744 222.972717 
L 294.698077 190.366084 
L 295.677409 157.460864 
L 296.656742 133.582662 
L 297.146409 125.399777 
L 297.636075 119.394143 
L 298.125741 115.252189 
L 298.615408 112.686743 
L 299.105074 111.466729 
L 299.594741 111.421743 
L 300.084407 112.425889 
L 300.574073 114.366762 
L 301.06374 117.115708 
L 302.043073 124.332986 
L 303.022405 132.107148 
L 303.512072 135.230925 
L 304.001738 137.087556 
L 304.491405 136.992529 
L 304.981071 134.343905 
L 305.470737 128.872718 
L 306.45007 111.235015 
L 307.429403 92.744551 
L 307.91907 86.122403 
L 308.408736 81.676963 
L 308.898402 79.072264 
L 309.388069 77.773282 
L 309.877735 77.228927 
L 310.367402 76.948118 
L 310.857068 76.521261 
L 311.346734 75.627419 
L 311.836401 74.045864 
L 312.326067 71.672119 
L 313.3054 64.758182 
L 315.753732 44.813839 
L 316.243398 42.302342 
L 316.733065 41.354554 
L 317.222731 42.954097 
L 317.712398 47.821292 
L 318.202064 55.777606 
L 319.671063 88.057687 
L 321.140062 117.781981 
L 322.609062 141.203756 
L 325.057394 178.552332 
L 327.016059 208.815253 
L 327.995392 221.604317 
L 328.485059 226.676877 
L 328.974725 230.31646 
L 329.464391 231.941827 
L 329.954058 230.891803 
L 330.443724 226.586317 
L 330.933391 218.785084 
L 331.912723 194.417275 
L 333.871389 136.427779 
L 334.850722 113.655461 
L 335.830055 98.102539 
L 336.319721 93.171447 
L 336.809387 90.050736 
L 337.299054 88.602599 
L 337.78872 88.65331 
L 338.278387 90.005386 
L 338.768053 92.438318 
L 339.747386 99.48073 
L 340.726719 107.026635 
L 341.216385 109.792371 
L 341.706052 111.140705 
L 342.195718 110.570528 
L 342.685384 107.761499 
L 343.175051 102.68207 
L 344.154384 87.7052 
L 344.64405 80.128979 
L 345.133716 74.592139 
L 345.623383 72.233109 
L 346.113049 73.257699 
L 346.602716 77.08734 
L 347.582048 89.483184 
L 348.561381 102.828084 
L 349.540714 112.76253 
L 350.03038 115.616433 
L 350.520047 116.840352 
L 351.009713 116.450018 
L 351.49938 114.645233 
L 352.478712 108.499595 
L 352.968379 105.356428 
L 353.458045 103.11603 
L 353.947712 102.557536 
L 354.437378 104.381102 
L 354.927045 108.917426 
L 355.906377 124.259955 
L 356.88571 141.138891 
L 357.375377 147.76239 
L 357.865043 152.273452 
L 358.354709 154.251454 
L 358.844376 153.548822 
L 359.334042 150.35003 
L 359.823709 145.14823 
L 362.272041 112.239589 
L 362.761707 107.971163 
L 363.251373 105.193612 
L 363.74104 103.875957 
L 364.230706 103.7153 
L 364.720373 104.12248 
L 365.210039 104.260302 
L 365.699705 103.17954 
L 366.189372 100.123272 
L 366.679038 94.933612 
L 369.12737 61.923092 
L 370.59637 47.89906 
L 371.086036 44.098222 
L 371.575702 41.225467 
L 372.065369 39.761727 
L 372.555035 40.050411 
L 373.044702 42.125167 
L 373.534368 45.683991 
L 375.9827 67.380538 
L 376.962033 74.657918 
L 377.451699 79.757428 
L 377.941366 86.66459 
L 378.920698 105.748304 
L 382.348363 183.223637 
L 383.327696 201.039433 
L 384.307029 215.073278 
L 384.796695 220.387264 
L 385.286362 224.471495 
L 385.776028 227.330845 
L 386.265695 229.045362 
L 386.755361 229.745469 
L 387.245027 229.53826 
L 387.734694 228.404353 
L 388.22436 226.097394 
L 388.714027 222.094926 
L 389.203693 215.678976 
L 389.693359 206.229429 
L 390.672692 178.883298 
L 392.141691 135.403292 
L 392.631358 124.748479 
L 393.121024 116.604633 
L 393.610691 110.853554 
L 394.100357 107.242182 
L 394.590023 105.454509 
L 395.07969 105.150673 
L 395.569356 105.987656 
L 396.059023 107.633097 
L 398.507355 118.563958 
L 398.997021 119.919682 
L 399.486687 120.555319 
L 399.976354 120.151776 
L 400.46602 118.292674 
L 400.955687 114.553716 
L 401.445353 108.705718 
L 403.404019 78.517314 
L 403.893685 75.283707 
L 404.383352 74.465437 
L 404.873018 75.340478 
L 406.342017 80.760413 
L 406.831684 81.799108 
L 407.32135 82.032152 
L 407.811016 81.427857 
L 408.300683 80.060054 
L 409.280016 75.640595 
L 410.749015 67.767747 
L 411.238681 65.828627 
L 411.728348 64.910757 
L 412.218014 65.670368 
L 412.70768 68.847281 
L 413.197347 74.88446 
L 414.17668 93.686535 
L 415.645679 123.777413 
L 416.625012 138.302422 
L 417.604345 148.118899 
L 420.542343 171.05823 
L 423.480341 198.770669 
L 423.970008 200.833477 
L 424.459674 200.535558 
L 424.949341 197.04339 
L 425.439007 189.934348 
L 426.41834 167.02332 
L 428.377005 116.197601 
L 429.356338 96.584948 
L 430.335671 81.418296 
L 431.315004 70.605933 
L 431.80467 66.852641 
L 432.294337 64.203175 
L 432.784003 62.629035 
L 433.27367 62.063119 
L 433.763336 62.387565 
L 434.253002 63.417756 
L 435.232335 66.370101 
L 435.722002 67.378431 
L 436.211668 67.322903 
L 436.701334 65.724278 
L 437.191001 62.433547 
L 438.66 49.522538 
L 439.149666 48.708546 
L 439.149666 48.708546 
" clip-path="url(#p52642d818c)" style="fill: none; stroke: #1f77b4; stroke-width: 1.5; stroke-linecap: square"/>
   </g>
   <g id="patch_3">
    <path d="M 46.926875 293.56 
L 46.926875 10.8 
" style="fill: none; stroke: #000000; stroke-width: 0.8; stroke-linejoin: miter; stroke-linecap: square"/>
   </g>
   <g id="patch_4">
    <path d="M 438.66 293.56 
L 438.66 10.8 
" style="fill: none; stroke: #000000; stroke-width: 0.8; stroke-linejoin: miter; stroke-linecap: square"/>
   </g>
   <g id="patch_5">
    <path d="M 46.926875 293.56 
L 438.66 293.56 
" style="fill: none; stroke: #000000; stroke-width: 0.8; stroke-linejoin: miter; stroke-linecap: square"/>
   </g>
   <g id="patch_6">
    <path d="M 46.926875 10.8 
L 438.66 10.8 
" style="fill: none; stroke: #000000; stroke-width: 0.8; stroke-linejoin: miter; stroke-linecap: square"/>
   </g>
  </g>
 </g>
 <defs>
  <clipPath id="p52642d818c">
   <rect x="46.926875" y="10.8" width="391.733125" height="282.76"/>
  </clipPath>
 </defs>
</svg>
