<?xml version="1.0" encoding="utf-8" standalone="no"?>
<!DOCTYPE svg PUBLIC "-//W3C//DTD SVG 1.1//EN"
  "http://www.w3.org/Graphics/SVG/1.1/DTD/svg11.dtd">
<svg xmlns:xlink="http://www.w3.org/1999/xlink" width="460.8pt" height="345.6pt" viewBox="0 0 460.8 345.6" xmlns="http://www.w3.org/2000/svg" version="1.1">
 <metadata>
  <rdf:RDF xmlns:dc="http://purl.org/dc/elements/1.1/" xmlns:cc="http://creativecommons.org/ns#" xmlns:rdf="http://www.w3.org/1999/02/22-rdf-syntax-ns#">
   <cc:Work>
    <dc:type rdf:resource="http://purl.org/dc/dcmitype/StillImage"/>
    <dc:date>2022-09-28T17:54:23.088316</dc:date>
    <dc:format>image/svg+xml</dc:format>
    <dc:creator>
     <cc:Agent>
      <dc:title>Matplotlib v3.5.3, https://matplotlib.org/</dc:title>
     </cc:Agent>
    </dc:creator>
   </cc:Work>
  </rdf:RDF>
 </metadata>
 <defs>
  <style type="text/css">*{stroke-linejoin: round; stroke-linecap: butt}</style>
 </defs>
 <g id="figure_1">
  <g id="patch_1">
   <path d="M 0 345.6 
L 460.8 345.6 
L 460.8 0 
L 0 0 
z
" style="fill: #ffffff"/>
  </g>
  <g id="axes_1">
   <g id="patch_2">
    <path d="M 46.926875 293.56 
L 450 293.56 
L 450 15.655838 
L 46.926875 15.655838 
z
" style="fill: #ffffff"/>
   </g>
   <g id="matplotlib.axis_1">
    <g id="xtick_1">
     <g id="line2d_1">
      <defs>
       <path id="ma692138d02" d="M 0 0 
L 0 3.5 
" style="stroke: #000000; stroke-width: 0.8"/>
      </defs>
      <g>
       <use xlink:href="#ma692138d02" x="89.70967" y="293.56" style="stroke: #000000; stroke-width: 0.8"/>
      </g>
     </g>
     <g id="text_1">
      <!-- 4300 -->
      <g transform="translate(74.43967 309.678125)scale(0.12 -0.12)">
       <defs>
        <path id="DejaVuSans-34" d="M 2419 4116 
L 825 1625 
L 2419 1625 
L 2419 4116 
z
M 2253 4666 
L 3047 4666 
L 3047 1625 
L 3713 1625 
L 3713 1100 
L 3047 1100 
L 3047 0 
L 2419 0 
L 2419 1100 
L 313 1100 
L 313 1709 
L 2253 4666 
z
" transform="scale(0.015625)"/>
        <path id="DejaVuSans-33" d="M 2597 2516 
Q 3050 2419 3304 2112 
Q 3559 1806 3559 1356 
Q 3559 666 3084 287 
Q 2609 -91 1734 -91 
Q 1441 -91 1130 -33 
Q 819 25 488 141 
L 488 750 
Q 750 597 1062 519 
Q 1375 441 1716 441 
Q 2309 441 2620 675 
Q 2931 909 2931 1356 
Q 2931 1769 2642 2001 
Q 2353 2234 1838 2234 
L 1294 2234 
L 1294 2753 
L 1863 2753 
Q 2328 2753 2575 2939 
Q 2822 3125 2822 3475 
Q 2822 3834 2567 4026 
Q 2313 4219 1838 4219 
Q 1578 4219 1281 4162 
Q 984 4106 628 3988 
L 628 4550 
Q 988 4650 1302 4700 
Q 1616 4750 1894 4750 
Q 2613 4750 3031 4423 
Q 3450 4097 3450 3541 
Q 3450 3153 3228 2886 
Q 3006 2619 2597 2516 
z
" transform="scale(0.015625)"/>
        <path id="DejaVuSans-30" d="M 2034 4250 
Q 1547 4250 1301 3770 
Q 1056 3291 1056 2328 
Q 1056 1369 1301 889 
Q 1547 409 2034 409 
Q 2525 409 2770 889 
Q 3016 1369 3016 2328 
Q 3016 3291 2770 3770 
Q 2525 4250 2034 4250 
z
M 2034 4750 
Q 2819 4750 3233 4129 
Q 3647 3509 3647 2328 
Q 3647 1150 3233 529 
Q 2819 -91 2034 -91 
Q 1250 -91 836 529 
Q 422 1150 422 2328 
Q 422 3509 836 4129 
Q 1250 4750 2034 4750 
z
" transform="scale(0.015625)"/>
       </defs>
       <use xlink:href="#DejaVuSans-34"/>
       <use xlink:href="#DejaVuSans-33" x="63.623047"/>
       <use xlink:href="#DejaVuSans-30" x="127.246094"/>
       <use xlink:href="#DejaVuSans-30" x="190.869141"/>
      </g>
     </g>
    </g>
    <g id="xtick_2">
     <g id="line2d_2">
      <g>
       <use xlink:href="#ma692138d02" x="138.632249" y="293.56" style="stroke: #000000; stroke-width: 0.8"/>
      </g>
     </g>
     <g id="text_2">
      <!-- 4400 -->
      <g transform="translate(123.362249 309.678125)scale(0.12 -0.12)">
       <use xlink:href="#DejaVuSans-34"/>
       <use xlink:href="#DejaVuSans-34" x="63.623047"/>
       <use xlink:href="#DejaVuSans-30" x="127.246094"/>
       <use xlink:href="#DejaVuSans-30" x="190.869141"/>
      </g>
     </g>
    </g>
    <g id="xtick_3">
     <g id="line2d_3">
      <g>
       <use xlink:href="#ma692138d02" x="187.554827" y="293.56" style="stroke: #000000; stroke-width: 0.8"/>
      </g>
     </g>
     <g id="text_3">
      <!-- 4500 -->
      <g transform="translate(172.284827 309.678125)scale(0.12 -0.12)">
       <defs>
        <path id="DejaVuSans-35" d="M 691 4666 
L 3169 4666 
L 3169 4134 
L 1269 4134 
L 1269 2991 
Q 1406 3038 1543 3061 
Q 1681 3084 1819 3084 
Q 2600 3084 3056 2656 
Q 3513 2228 3513 1497 
Q 3513 744 3044 326 
Q 2575 -91 1722 -91 
Q 1428 -91 1123 -41 
Q 819 9 494 109 
L 494 744 
Q 775 591 1075 516 
Q 1375 441 1709 441 
Q 2250 441 2565 725 
Q 2881 1009 2881 1497 
Q 2881 1984 2565 2268 
Q 2250 2553 1709 2553 
Q 1456 2553 1204 2497 
Q 953 2441 691 2322 
L 691 4666 
z
" transform="scale(0.015625)"/>
       </defs>
       <use xlink:href="#DejaVuSans-34"/>
       <use xlink:href="#DejaVuSans-35" x="63.623047"/>
       <use xlink:href="#DejaVuSans-30" x="127.246094"/>
       <use xlink:href="#DejaVuSans-30" x="190.869141"/>
      </g>
     </g>
    </g>
    <g id="xtick_4">
     <g id="line2d_4">
      <g>
       <use xlink:href="#ma692138d02" x="236.477406" y="293.56" style="stroke: #000000; stroke-width: 0.8"/>
      </g>
     </g>
     <g id="text_4">
      <!-- 4600 -->
      <g transform="translate(221.207406 309.678125)scale(0.12 -0.12)">
       <defs>
        <path id="DejaVuSans-36" d="M 2113 2584 
Q 1688 2584 1439 2293 
Q 1191 2003 1191 1497 
Q 1191 994 1439 701 
Q 1688 409 2113 409 
Q 2538 409 2786 701 
Q 3034 994 3034 1497 
Q 3034 2003 2786 2293 
Q 2538 2584 2113 2584 
z
M 3366 4563 
L 3366 3988 
Q 3128 4100 2886 4159 
Q 2644 4219 2406 4219 
Q 1781 4219 1451 3797 
Q 1122 3375 1075 2522 
Q 1259 2794 1537 2939 
Q 1816 3084 2150 3084 
Q 2853 3084 3261 2657 
Q 3669 2231 3669 1497 
Q 3669 778 3244 343 
Q 2819 -91 2113 -91 
Q 1303 -91 875 529 
Q 447 1150 447 2328 
Q 447 3434 972 4092 
Q 1497 4750 2381 4750 
Q 2619 4750 2861 4703 
Q 3103 4656 3366 4563 
z
" transform="scale(0.015625)"/>
       </defs>
       <use xlink:href="#DejaVuSans-34"/>
       <use xlink:href="#DejaVuSans-36" x="63.623047"/>
       <use xlink:href="#DejaVuSans-30" x="127.246094"/>
       <use xlink:href="#DejaVuSans-30" x="190.869141"/>
      </g>
     </g>
    </g>
    <g id="xtick_5">
     <g id="line2d_5">
      <g>
       <use xlink:href="#ma692138d02" x="285.399984" y="293.56" style="stroke: #000000; stroke-width: 0.8"/>
      </g>
     </g>
     <g id="text_5">
      <!-- 4700 -->
      <g transform="translate(270.129984 309.678125)scale(0.12 -0.12)">
       <defs>
        <path id="DejaVuSans-37" d="M 525 4666 
L 3525 4666 
L 3525 4397 
L 1831 0 
L 1172 0 
L 2766 4134 
L 525 4134 
L 525 4666 
z
" transform="scale(0.015625)"/>
       </defs>
       <use xlink:href="#DejaVuSans-34"/>
       <use xlink:href="#DejaVuSans-37" x="63.623047"/>
       <use xlink:href="#DejaVuSans-30" x="127.246094"/>
       <use xlink:href="#DejaVuSans-30" x="190.869141"/>
      </g>
     </g>
    </g>
    <g id="xtick_6">
     <g id="line2d_6">
      <g>
       <use xlink:href="#ma692138d02" x="334.322563" y="293.56" style="stroke: #000000; stroke-width: 0.8"/>
      </g>
     </g>
     <g id="text_6">
      <!-- 4800 -->
      <g transform="translate(319.052563 309.678125)scale(0.12 -0.12)">
       <defs>
        <path id="DejaVuSans-38" d="M 2034 2216 
Q 1584 2216 1326 1975 
Q 1069 1734 1069 1313 
Q 1069 891 1326 650 
Q 1584 409 2034 409 
Q 2484 409 2743 651 
Q 3003 894 3003 1313 
Q 3003 1734 2745 1975 
Q 2488 2216 2034 2216 
z
M 1403 2484 
Q 997 2584 770 2862 
Q 544 3141 544 3541 
Q 544 4100 942 4425 
Q 1341 4750 2034 4750 
Q 2731 4750 3128 4425 
Q 3525 4100 3525 3541 
Q 3525 3141 3298 2862 
Q 3072 2584 2669 2484 
Q 3125 2378 3379 2068 
Q 3634 1759 3634 1313 
Q 3634 634 3220 271 
Q 2806 -91 2034 -91 
Q 1263 -91 848 271 
Q 434 634 434 1313 
Q 434 1759 690 2068 
Q 947 2378 1403 2484 
z
M 1172 3481 
Q 1172 3119 1398 2916 
Q 1625 2713 2034 2713 
Q 2441 2713 2670 2916 
Q 2900 3119 2900 3481 
Q 2900 3844 2670 4047 
Q 2441 4250 2034 4250 
Q 1625 4250 1398 4047 
Q 1172 3844 1172 3481 
z
" transform="scale(0.015625)"/>
       </defs>
       <use xlink:href="#DejaVuSans-34"/>
       <use xlink:href="#DejaVuSans-38" x="63.623047"/>
       <use xlink:href="#DejaVuSans-30" x="127.246094"/>
       <use xlink:href="#DejaVuSans-30" x="190.869141"/>
      </g>
     </g>
    </g>
    <g id="xtick_7">
     <g id="line2d_7">
      <g>
       <use xlink:href="#ma692138d02" x="383.245142" y="293.56" style="stroke: #000000; stroke-width: 0.8"/>
      </g>
     </g>
     <g id="text_7">
      <!-- 4900 -->
      <g transform="translate(367.975142 309.678125)scale(0.12 -0.12)">
       <defs>
        <path id="DejaVuSans-39" d="M 703 97 
L 703 672 
Q 941 559 1184 500 
Q 1428 441 1663 441 
Q 2288 441 2617 861 
Q 2947 1281 2994 2138 
Q 2813 1869 2534 1725 
Q 2256 1581 1919 1581 
Q 1219 1581 811 2004 
Q 403 2428 403 3163 
Q 403 3881 828 4315 
Q 1253 4750 1959 4750 
Q 2769 4750 3195 4129 
Q 3622 3509 3622 2328 
Q 3622 1225 3098 567 
Q 2575 -91 1691 -91 
Q 1453 -91 1209 -44 
Q 966 3 703 97 
z
M 1959 2075 
Q 2384 2075 2632 2365 
Q 2881 2656 2881 3163 
Q 2881 3666 2632 3958 
Q 2384 4250 1959 4250 
Q 1534 4250 1286 3958 
Q 1038 3666 1038 3163 
Q 1038 2656 1286 2365 
Q 1534 2075 1959 2075 
z
" transform="scale(0.015625)"/>
       </defs>
       <use xlink:href="#DejaVuSans-34"/>
       <use xlink:href="#DejaVuSans-39" x="63.623047"/>
       <use xlink:href="#DejaVuSans-30" x="127.246094"/>
       <use xlink:href="#DejaVuSans-30" x="190.869141"/>
      </g>
     </g>
    </g>
    <g id="xtick_8">
     <g id="line2d_8">
      <g>
       <use xlink:href="#ma692138d02" x="432.16772" y="293.56" style="stroke: #000000; stroke-width: 0.8"/>
      </g>
     </g>
     <g id="text_8">
      <!-- 5000 -->
      <g transform="translate(416.89772 309.678125)scale(0.12 -0.12)">
       <use xlink:href="#DejaVuSans-35"/>
       <use xlink:href="#DejaVuSans-30" x="63.623047"/>
       <use xlink:href="#DejaVuSans-30" x="127.246094"/>
       <use xlink:href="#DejaVuSans-30" x="190.869141"/>
      </g>
     </g>
    </g>
    <g id="text_9">
     <!-- $t$ -->
     <g transform="translate(244.863438 329.850937)scale(0.18 -0.18)">
      <defs>
       <path id="DejaVuSans-Oblique-74" d="M 2706 3500 
L 2619 3053 
L 1472 3053 
L 1100 1153 
Q 1081 1047 1072 975 
Q 1063 903 1063 863 
Q 1063 663 1183 572 
Q 1303 481 1569 481 
L 2150 481 
L 2053 0 
L 1503 0 
Q 991 0 739 200 
Q 488 400 488 806 
Q 488 878 497 964 
Q 506 1050 525 1153 
L 897 3053 
L 409 3053 
L 500 3500 
L 978 3500 
L 1172 4494 
L 1747 4494 
L 1556 3500 
L 2706 3500 
z
" transform="scale(0.015625)"/>
      </defs>
      <use xlink:href="#DejaVuSans-Oblique-74" transform="translate(0 0.78125)"/>
     </g>
    </g>
   </g>
   <g id="matplotlib.axis_2">
    <g id="ytick_1">
     <g id="line2d_9">
      <defs>
       <path id="m17a01eaa31" d="M 0 0 
L -3.5 0 
" style="stroke: #000000; stroke-width: 0.8"/>
      </defs>
      <g>
       <use xlink:href="#m17a01eaa31" x="46.926875" y="261.268859" style="stroke: #000000; stroke-width: 0.8"/>
      </g>
     </g>
     <g id="text_10">
      <!-- 0.4 -->
      <g transform="translate(20.843125 265.827922)scale(0.12 -0.12)">
       <defs>
        <path id="DejaVuSans-2e" d="M 684 794 
L 1344 794 
L 1344 0 
L 684 0 
L 684 794 
z
" transform="scale(0.015625)"/>
       </defs>
       <use xlink:href="#DejaVuSans-30"/>
       <use xlink:href="#DejaVuSans-2e" x="63.623047"/>
       <use xlink:href="#DejaVuSans-34" x="95.410156"/>
      </g>
     </g>
    </g>
    <g id="ytick_2">
     <g id="line2d_10">
      <g>
       <use xlink:href="#m17a01eaa31" x="46.926875" y="212.18472" style="stroke: #000000; stroke-width: 0.8"/>
      </g>
     </g>
     <g id="text_11">
      <!-- 0.6 -->
      <g transform="translate(20.843125 216.743782)scale(0.12 -0.12)">
       <use xlink:href="#DejaVuSans-30"/>
       <use xlink:href="#DejaVuSans-2e" x="63.623047"/>
       <use xlink:href="#DejaVuSans-36" x="95.410156"/>
      </g>
     </g>
    </g>
    <g id="ytick_3">
     <g id="line2d_11">
      <g>
       <use xlink:href="#m17a01eaa31" x="46.926875" y="163.10058" style="stroke: #000000; stroke-width: 0.8"/>
      </g>
     </g>
     <g id="text_12">
      <!-- 0.8 -->
      <g transform="translate(20.843125 167.659642)scale(0.12 -0.12)">
       <use xlink:href="#DejaVuSans-30"/>
       <use xlink:href="#DejaVuSans-2e" x="63.623047"/>
       <use xlink:href="#DejaVuSans-38" x="95.410156"/>
      </g>
     </g>
    </g>
    <g id="ytick_4">
     <g id="line2d_12">
      <g>
       <use xlink:href="#m17a01eaa31" x="46.926875" y="114.01644" style="stroke: #000000; stroke-width: 0.8"/>
      </g>
     </g>
     <g id="text_13">
      <!-- 1.0 -->
      <g transform="translate(20.843125 118.575503)scale(0.12 -0.12)">
       <defs>
        <path id="DejaVuSans-31" d="M 794 531 
L 1825 531 
L 1825 4091 
L 703 3866 
L 703 4441 
L 1819 4666 
L 2450 4666 
L 2450 531 
L 3481 531 
L 3481 0 
L 794 0 
L 794 531 
z
" transform="scale(0.015625)"/>
       </defs>
       <use xlink:href="#DejaVuSans-31"/>
       <use xlink:href="#DejaVuSans-2e" x="63.623047"/>
       <use xlink:href="#DejaVuSans-30" x="95.410156"/>
      </g>
     </g>
    </g>
    <g id="ytick_5">
     <g id="line2d_13">
      <g>
       <use xlink:href="#m17a01eaa31" x="46.926875" y="64.9323" style="stroke: #000000; stroke-width: 0.8"/>
      </g>
     </g>
     <g id="text_14">
      <!-- 1.2 -->
      <g transform="translate(20.843125 69.491363)scale(0.12 -0.12)">
       <defs>
        <path id="DejaVuSans-32" d="M 1228 531 
L 3431 531 
L 3431 0 
L 469 0 
L 469 531 
Q 828 903 1448 1529 
Q 2069 2156 2228 2338 
Q 2531 2678 2651 2914 
Q 2772 3150 2772 3378 
Q 2772 3750 2511 3984 
Q 2250 4219 1831 4219 
Q 1534 4219 1204 4116 
Q 875 4013 500 3803 
L 500 4441 
Q 881 4594 1212 4672 
Q 1544 4750 1819 4750 
Q 2544 4750 2975 4387 
Q 3406 4025 3406 3419 
Q 3406 3131 3298 2873 
Q 3191 2616 2906 2266 
Q 2828 2175 2409 1742 
Q 1991 1309 1228 531 
z
" transform="scale(0.015625)"/>
       </defs>
       <use xlink:href="#DejaVuSans-31"/>
       <use xlink:href="#DejaVuSans-2e" x="63.623047"/>
       <use xlink:href="#DejaVuSans-32" x="95.410156"/>
      </g>
     </g>
    </g>
    <g id="ytick_6">
     <g id="line2d_14">
      <g>
       <use xlink:href="#m17a01eaa31" x="46.926875" y="15.848161" style="stroke: #000000; stroke-width: 0.8"/>
      </g>
     </g>
     <g id="text_15">
      <!-- 1.4 -->
      <g transform="translate(20.843125 20.407223)scale(0.12 -0.12)">
       <use xlink:href="#DejaVuSans-31"/>
       <use xlink:href="#DejaVuSans-2e" x="63.623047"/>
       <use xlink:href="#DejaVuSans-34" x="95.410156"/>
      </g>
     </g>
    </g>
    <g id="text_16">
     <!-- $p$ -->
     <g transform="translate(11.083125 150.827919)scale(0.18 -0.18)">
      <defs>
       <path id="DejaVuSans-Oblique-70" d="M 3175 2156 
Q 3175 2616 2975 2859 
Q 2775 3103 2400 3103 
Q 2144 3103 1911 2972 
Q 1678 2841 1497 2591 
Q 1319 2344 1212 1994 
Q 1106 1644 1106 1300 
Q 1106 863 1306 627 
Q 1506 391 1875 391 
Q 2147 391 2380 519 
Q 2613 647 2778 891 
Q 2956 1147 3065 1494 
Q 3175 1841 3175 2156 
z
M 1394 2969 
Q 1625 3272 1939 3428 
Q 2253 3584 2638 3584 
Q 3175 3584 3472 3232 
Q 3769 2881 3769 2247 
Q 3769 1728 3584 1258 
Q 3400 788 3053 416 
Q 2822 169 2531 39 
Q 2241 -91 1919 -91 
Q 1547 -91 1294 64 
Q 1041 219 916 525 
L 556 -1331 
L -19 -1331 
L 922 3500 
L 1497 3500 
L 1394 2969 
z
" transform="scale(0.015625)"/>
      </defs>
      <use xlink:href="#DejaVuSans-Oblique-70"/>
     </g>
    </g>
   </g>
   <g id="line2d_15">
    <path d="M 65.248381 111.213975 
L 65.737606 115.83439 
L 66.226832 119.170743 
L 66.716058 121.033718 
L 67.205284 121.378641 
L 67.69451 120.340978 
L 68.183735 118.263552 
L 69.162187 113.388725 
L 69.651413 112.24152 
L 70.140639 113.220208 
L 70.629864 117.053385 
L 71.11909 123.800945 
L 72.586767 152.573818 
L 73.565219 168.986302 
L 74.054445 174.427045 
L 74.543671 177.556793 
L 75.032896 178.225725 
L 75.522122 176.494059 
L 76.011348 172.656991 
L 76.9898 160.787596 
L 78.457477 141.748093 
L 78.946703 137.116822 
L 79.435928 133.804996 
L 79.925154 131.751108 
L 80.903606 129.572493 
L 81.392832 127.752294 
L 81.882057 124.130936 
L 82.371283 118.17821 
L 83.349735 101.138012 
L 84.328186 83.857018 
L 85.306638 70.487157 
L 86.774315 55.37823 
L 88.241993 42.594183 
L 88.731218 39.607384 
L 89.220444 37.730934 
L 89.70967 37.023127 
L 90.198896 37.312543 
L 90.688122 38.277947 
L 91.666573 41.083116 
L 92.155799 42.837032 
L 92.645025 45.276277 
L 93.13425 49.129804 
L 93.623476 55.220138 
L 94.112702 64.034088 
L 95.091154 88.658202 
L 98.515734 186.214952 
L 99.983411 219.683017 
L 100.961863 237.820662 
L 101.940315 252.443079 
L 102.918766 263.850749 
L 103.897218 272.200713 
L 104.386444 274.930854 
L 104.875669 276.194803 
L 105.364895 275.295638 
L 105.854121 271.279221 
L 106.343347 263.135815 
L 106.832572 250.320112 
L 107.811024 214.059768 
L 108.789476 176.623506 
L 109.767927 149.063674 
L 110.257153 139.79043 
L 110.746379 133.279604 
L 111.235605 129.202307 
L 111.72483 127.202728 
L 112.214056 126.933067 
L 112.703282 128.071103 
L 113.192508 130.329014 
L 114.170959 137.223369 
L 116.617088 157.446561 
L 117.106314 159.175213 
L 117.59554 158.741151 
L 118.084766 155.503208 
L 118.573991 149.145037 
L 119.552443 128.736336 
L 120.530894 106.755959 
L 121.02012 98.576707 
L 121.509346 92.785537 
L 121.998572 88.945203 
L 122.977023 84.392339 
L 123.955475 80.151368 
L 124.933927 73.729617 
L 125.912378 64.989923 
L 127.869281 46.398292 
L 128.847733 39.00846 
L 129.336959 36.183895 
L 129.826184 34.627747 
L 130.31541 35.442837 
L 130.804636 39.725039 
L 131.293862 47.68168 
L 132.272313 70.734509 
L 134.229216 119.677729 
L 136.675345 172.892836 
L 139.121474 222.763866 
L 140.589152 247.759135 
L 141.567603 260.999468 
L 142.056829 265.906043 
L 142.546055 269.080546 
L 143.035281 269.919104 
L 143.524506 267.751078 
L 144.013732 261.996775 
L 144.502958 252.401484 
L 145.48141 223.26105 
L 147.438313 154.785887 
L 148.416764 130.465713 
L 148.90599 122.116663 
L 149.395216 116.227439 
L 149.884442 112.601313 
L 150.373667 110.996262 
L 150.862893 111.155246 
L 151.352119 112.821215 
L 151.841345 115.737455 
L 152.819796 124.220787 
L 154.287474 138.246873 
L 154.7767 141.350639 
L 155.265925 142.694311 
L 155.755151 141.735936 
L 156.244377 138.104209 
L 156.733603 131.713965 
L 157.712054 112.622908 
L 158.690506 94.161041 
L 159.179732 88.980422 
L 159.668957 87.071962 
L 160.158183 87.804563 
L 160.647409 90.228138 
L 161.625861 96.545138 
L 162.115086 99.022109 
L 162.604312 100.375906 
L 163.093538 100.309388 
L 163.582764 98.702488 
L 164.071989 95.627819 
L 165.050441 86.240358 
L 166.518118 70.440761 
L 167.007344 66.439404 
L 167.49657 64.00254 
L 167.985796 64.02171 
L 168.475022 67.393131 
L 168.964247 74.384036 
L 169.942699 95.526296 
L 170.92115 117.352046 
L 171.899602 133.372719 
L 172.388828 138.684939 
L 172.878054 142.46811 
L 173.856505 147.390418 
L 174.345731 149.706182 
L 174.834957 152.668308 
L 175.324183 156.668498 
L 176.302634 168.264675 
L 177.770311 191.780274 
L 178.748763 207.536843 
L 179.237989 214.095103 
L 179.727215 218.88683 
L 180.21644 221.052802 
L 180.705666 219.753846 
L 181.194892 214.524887 
L 181.684118 205.613378 
L 182.662569 180.794725 
L 184.619472 129.355142 
L 186.08715 98.516518 
L 187.065601 81.61626 
L 188.044053 68.992487 
L 188.533279 64.853084 
L 189.022505 62.301464 
L 189.51173 61.276853 
L 190.000956 61.582141 
L 190.490182 62.883059 
L 191.468633 66.435173 
L 191.957859 67.403463 
L 192.447085 67.001117 
L 192.936311 64.873714 
L 193.425537 61.089304 
L 194.403988 51.423102 
L 194.893214 48.043347 
L 195.38244 47.387925 
L 195.871666 50.227419 
L 196.360891 56.66704 
L 196.850117 66.279619 
L 197.828569 92.057024 
L 200.274698 162.481737 
L 201.253149 184.502234 
L 202.231601 201.431482 
L 203.210052 214.339445 
L 205.166955 238.321815 
L 206.634633 255.891753 
L 207.123859 259.995063 
L 207.613084 262.344128 
L 208.10231 262.152985 
L 208.591536 258.430599 
L 209.080762 250.224643 
L 209.569988 237.224452 
L 212.016116 151.927984 
L 212.994568 130.660322 
L 213.483794 123.318379 
L 213.97302 117.789885 
L 214.462245 113.846106 
L 214.951471 111.335427 
L 215.440697 110.167008 
L 215.929923 110.271223 
L 216.419149 111.558426 
L 216.908374 113.892056 
L 217.886826 120.856167 
L 218.865277 128.767813 
L 219.354503 131.909754 
L 219.843729 133.624609 
L 220.332955 133.154872 
L 220.822181 129.891933 
L 221.311406 123.661571 
L 223.26831 88.277326 
L 223.757535 83.771792 
L 224.246761 82.108801 
L 224.735987 82.789712 
L 225.225213 85.140027 
L 227.182116 98.73648 
L 227.671342 100.707038 
L 228.160567 101.431101 
L 228.649793 100.780568 
L 229.139019 98.784786 
L 229.628245 95.638754 
L 231.585148 80.195757 
L 232.074374 78.805346 
L 232.563599 80.157243 
L 233.052825 84.939168 
L 233.542051 92.992988 
L 235.98818 144.612231 
L 236.477406 151.623689 
L 236.966632 156.802641 
L 237.455857 160.227713 
L 237.945083 162.153132 
L 238.434309 162.985145 
L 239.41276 163.447299 
L 239.901986 164.141498 
L 240.391212 165.724332 
L 240.880438 168.43224 
L 241.369664 172.292811 
L 242.348115 182.605105 
L 243.326567 193.319497 
L 243.815793 197.058914 
L 244.305018 198.423691 
L 244.794244 196.427455 
L 245.28347 190.508991 
L 245.772696 180.925571 
L 247.240373 141.901302 
L 248.218825 117.365383 
L 249.197276 96.9697 
L 250.175728 80.270018 
L 251.154179 66.622027 
L 252.132631 55.721386 
L 253.111082 47.989974 
L 253.600308 45.550249 
L 254.089534 44.075781 
L 254.57876 43.409288 
L 255.557211 42.998341 
L 256.046437 42.188482 
L 256.535663 40.364248 
L 257.514115 34.500813 
L 258.00334 32.592332 
L 258.492566 33.357456 
L 258.981792 37.751164 
L 259.471018 45.847662 
L 260.449469 70.524618 
L 264.363276 188.039089 
L 265.341727 210.471481 
L 266.320179 229.054677 
L 267.787856 251.507665 
L 269.255533 270.024306 
L 270.233985 278.733845 
L 270.723211 280.927993 
L 271.212437 280.803752 
L 271.701662 277.37763 
L 272.190888 269.554226 
L 272.680114 256.674976 
L 273.658565 219.327528 
L 274.637017 180.934843 
L 275.615469 153.030749 
L 276.104694 143.617054 
L 276.59392 136.894841 
L 277.083146 132.508354 
L 277.572372 130.10988 
L 278.061598 129.393216 
L 278.550823 130.104531 
L 279.040049 132.035629 
L 279.529275 135.002703 
L 280.507726 143.289069 
L 282.46463 161.818743 
L 282.953855 164.327712 
L 283.443081 164.623721 
L 283.932307 161.990377 
L 284.421533 156.050726 
L 284.910759 147.009139 
L 286.867662 103.210534 
L 287.356887 96.131353 
L 287.846113 91.014572 
L 288.824565 84.396987 
L 289.803016 78.969928 
L 290.781468 71.973806 
L 291.75992 62.894211 
L 293.227597 48.54295 
L 294.206048 40.641111 
L 295.1845 34.206544 
L 295.673726 31.931896 
L 296.162952 31.38031 
L 296.652177 33.835806 
L 297.141403 40.021973 
L 297.630629 49.524954 
L 299.098306 86.979657 
L 301.055209 135.912348 
L 303.990564 202.487179 
L 305.458242 231.357252 
L 306.925919 255.261205 
L 307.90437 267.39923 
L 308.393596 271.55925 
L 308.882822 273.826812 
L 309.372048 273.580358 
L 309.861274 270.140133 
L 310.350499 262.941061 
L 310.839725 251.789418 
L 311.818177 219.788331 
L 313.285854 166.107515 
L 314.264306 139.267122 
L 314.753531 129.85504 
L 315.242757 123.056966 
L 315.731983 118.662371 
L 316.221209 116.408696 
L 316.710435 116.020803 
L 317.19966 117.230561 
L 317.688886 119.779987 
L 318.667338 127.856325 
L 320.624241 146.719136 
L 321.113467 149.333771 
L 321.602692 149.947825 
L 322.091918 148.033818 
L 322.581144 143.271314 
L 323.07037 135.686976 
L 325.027273 96.440607 
L 325.516499 91.379958 
L 326.005725 89.178246 
L 326.49495 89.088875 
L 326.984176 90.206073 
L 327.962628 92.876658 
L 328.451853 93.23565 
L 328.941079 92.433146 
L 329.430305 90.312191 
L 329.919531 86.908381 
L 330.897982 77.24178 
L 332.36566 61.071872 
L 333.344111 52.77233 
L 333.833337 50.572341 
L 334.322563 50.834232 
L 334.811789 54.543297 
L 335.301014 61.944325 
L 336.279466 83.80808 
L 337.257918 106.521727 
L 338.236369 124.601655 
L 339.214821 137.822358 
L 340.682498 155.019464 
L 341.66095 169.132393 
L 343.128627 194.96549 
L 345.08553 229.100143 
L 346.063982 241.113621 
L 346.553208 244.138273 
L 347.042433 244.212594 
L 347.531659 240.741435 
L 348.020885 233.566362 
L 348.510111 223.124808 
L 349.488562 196.114822 
L 351.445465 138.889295 
L 352.423917 114.712378 
L 353.402369 96.40107 
L 353.891594 90.043748 
L 354.38082 85.669376 
L 354.870046 83.220311 
L 355.359272 82.548011 
L 355.848498 83.435193 
L 356.337723 85.602425 
L 357.316175 92.290804 
L 358.294626 98.730667 
L 358.783852 100.334029 
L 359.273078 100.11776 
L 359.762304 97.764418 
L 360.25153 93.258052 
L 361.229981 79.649876 
L 361.719207 72.635737 
L 362.208433 67.518208 
L 362.697659 65.750305 
L 363.186884 68.046932 
L 363.67611 74.163159 
L 364.654562 93.973138 
L 366.611465 137.704744 
L 367.589916 152.86511 
L 368.079142 157.881173 
L 368.568368 161.181332 
L 369.057594 163.00172 
L 369.54682 163.810687 
L 370.036045 164.277159 
L 370.525271 165.175972 
L 371.014497 167.242798 
L 371.503723 170.995083 
L 371.992948 176.562281 
L 372.9714 191.514515 
L 373.949852 206.515918 
L 374.439077 211.9835 
L 374.928303 214.988968 
L 375.417529 214.711348 
L 375.906755 210.531104 
L 376.395981 202.350165 
L 377.374432 177.106556 
L 378.842109 134.840016 
L 379.820561 111.302827 
L 380.799013 92.014162 
L 381.777464 76.277605 
L 382.755916 63.925182 
L 383.245142 59.338246 
L 383.734367 56.099973 
L 384.223593 54.323227 
L 384.712819 53.935532 
L 385.202045 54.671479 
L 386.669722 58.632344 
L 387.158948 58.440626 
L 387.648174 56.62562 
L 388.137399 53.199916 
L 389.115851 44.947347 
L 389.605077 43.189163 
L 390.094303 44.878411 
L 390.583528 50.45495 
L 391.072754 59.552732 
L 392.051206 85.041944 
L 394.98656 171.800935 
L 395.965012 194.606871 
L 396.943464 212.663057 
L 397.921915 226.723435 
L 400.368044 256.833124 
L 401.346496 266.440766 
L 401.835721 269.286917 
L 402.324947 269.954452 
L 402.814173 267.513988 
L 403.303399 260.917318 
L 403.792625 249.450864 
L 404.771076 214.580472 
L 405.749528 177.137249 
L 406.727979 148.868854 
L 407.217205 138.903122 
L 407.706431 131.404123 
L 408.195657 126.024908 
L 408.684882 122.437613 
L 409.174108 120.376137 
L 409.663334 119.650103 
L 410.15256 120.129498 
L 410.641786 121.709064 
L 411.131011 124.268403 
L 412.109463 131.618771 
L 413.57714 143.78666 
L 414.066366 146.250058 
L 414.555592 146.759839 
L 415.044818 144.595306 
L 415.534043 139.336418 
L 416.023269 131.135124 
L 417.490947 100.333847 
L 417.980172 92.861053 
L 418.469398 87.961989 
L 418.958624 85.340944 
L 419.44785 84.414392 
L 419.937075 84.547326 
L 420.915527 85.749752 
L 421.404753 85.907481 
L 421.893979 85.314256 
L 422.383204 83.766662 
L 422.87243 81.197912 
L 423.850882 73.445794 
L 425.807785 55.450382 
L 426.297011 52.47241 
L 426.786236 51.296355 
L 427.275462 52.97675 
L 427.764688 58.294876 
L 428.253914 67.070744 
L 429.721591 102.723976 
L 430.700043 124.979618 
L 431.678494 142.852804 
L 431.678494 142.852804 
" clip-path="url(#p34cf975950)" style="fill: none; stroke: #ff0000; stroke-width: 1.5; stroke-linecap: square"/>
   </g>
   <g id="line2d_16">
    <path d="M 65.248381 103.990995 
L 65.737606 108.601238 
L 66.226832 120.630395 
L 66.716058 115.442823 
L 67.205284 124.787455 
L 67.69451 117.274421 
L 68.183735 124.743845 
L 68.672961 116.63707 
L 69.162187 119.915325 
L 69.651413 112.121827 
L 70.140639 111.979371 
L 70.629864 107.532257 
L 71.11909 110.694336 
L 71.608316 112.471073 
L 72.097542 123.276922 
L 72.586767 131.299086 
L 73.075993 154.597569 
L 74.054445 186.56364 
L 74.543671 176.961672 
L 75.032896 172.334548 
L 75.522122 180.221339 
L 76.011348 172.50493 
L 76.500574 172.486575 
L 76.9898 172.259541 
L 77.479025 172.71387 
L 77.968251 162.147962 
L 78.457477 159.203608 
L 78.946703 145.146017 
L 79.435928 141.744694 
L 79.925154 132.728367 
L 80.41438 133.131447 
L 80.903606 128.95581 
L 81.392832 132.489504 
L 81.882057 132.718395 
L 82.371283 138.555765 
L 82.860509 137.239288 
L 83.349735 137.139867 
L 84.328186 116.209006 
L 84.817412 92.211704 
L 85.795864 60.501709 
L 86.285089 72.827415 
L 87.263541 60.546339 
L 87.752767 60.21645 
L 88.241993 57.452942 
L 88.731218 55.533645 
L 89.220444 54.832068 
L 89.70967 50.449755 
L 90.198896 50.127216 
L 90.688122 47.090055 
L 91.177347 51.399899 
L 91.666573 51.498918 
L 92.155799 59.350374 
L 92.645025 56.267552 
L 93.13425 60.467416 
L 93.623476 55.693174 
L 94.112702 57.955591 
L 94.601928 57.217629 
L 95.091154 62.509337 
L 95.580379 71.810123 
L 96.069605 85.888793 
L 96.558831 108.889137 
L 97.048057 138.404605 
L 97.537283 154.016335 
L 98.026508 150.45067 
L 98.515734 171.603477 
L 99.00496 187.789848 
L 99.494186 190.450496 
L 99.983411 210.431973 
L 100.472637 213.533714 
L 100.961863 230.189994 
L 101.451089 232.255498 
L 101.940315 241.683616 
L 102.42954 244.060313 
L 102.918766 250.009822 
L 103.407992 252.110154 
L 105.854121 270.241463 
L 106.343347 271.520403 
L 106.832572 271.971225 
L 107.321798 267.572419 
L 107.811024 262.112806 
L 108.30025 246.278372 
L 109.278701 178.430555 
L 109.767927 140.488842 
L 110.257153 115.688753 
L 110.746379 123.514401 
L 111.235605 137.55414 
L 111.72483 120.181544 
L 112.214056 114.395107 
L 112.703282 123.124476 
L 113.192508 116.71381 
L 113.681733 123.323359 
L 114.170959 121.117591 
L 114.660185 124.969044 
L 115.149411 126.196463 
L 115.638637 132.293973 
L 116.127862 136.176692 
L 116.617088 143.843773 
L 118.084766 155.785197 
L 118.573991 155.551283 
L 119.063217 157.553798 
L 119.552443 150.973213 
L 120.041669 146.383968 
L 120.530894 131.55575 
L 121.02012 109.927471 
L 121.509346 93.882468 
L 121.998572 89.040711 
L 122.487798 80.213623 
L 122.977023 77.290664 
L 123.466249 89.172341 
L 123.955475 90.101765 
L 124.444701 73.462921 
L 124.933927 79.504621 
L 125.423152 81.589122 
L 125.912378 73.677116 
L 126.401604 69.567494 
L 126.89083 62.060961 
L 128.358507 48.559965 
L 128.847733 46.697391 
L 129.336959 42.771593 
L 129.826184 42.773724 
L 130.31541 41.573389 
L 130.804636 43.613193 
L 131.783088 46.422997 
L 132.272313 48.655386 
L 132.761539 60.713159 
L 133.250765 78.388711 
L 133.739991 114.339143 
L 134.229216 134.510069 
L 134.718442 112.264861 
L 135.207668 96.814492 
L 135.696894 153.321831 
L 136.18612 126.071683 
L 136.675345 161.599424 
L 137.653797 178.604153 
L 138.143023 196.385971 
L 138.632249 197.796586 
L 139.121474 213.036109 
L 139.6107 216.457403 
L 140.099926 227.55951 
L 140.589152 232.442589 
L 141.078377 240.615609 
L 141.567603 246.488327 
L 142.546055 260.39961 
L 143.035281 266.328519 
L 143.524506 268.551108 
L 144.013732 270.176584 
L 144.502958 269.715397 
L 144.992184 269.598198 
L 145.48141 255.810427 
L 145.970635 229.435652 
L 146.949087 190.294538 
L 147.438313 166.620728 
L 147.927538 151.513279 
L 149.395216 118.470987 
L 149.884442 112.431432 
L 150.373667 110.088818 
L 150.862893 105.862964 
L 151.352119 104.111318 
L 151.841345 104.556916 
L 152.330571 104.21471 
L 152.819796 109.159496 
L 153.309022 110.673017 
L 153.798248 118.404742 
L 154.287474 122.531542 
L 155.265925 133.621196 
L 155.755151 136.819046 
L 156.244377 142.55236 
L 156.733603 134.212934 
L 157.222828 147.551857 
L 157.712054 135.107516 
L 158.690506 120.50328 
L 159.179732 111.086771 
L 160.158183 76.696626 
L 160.647409 64.6064 
L 161.136635 70.309519 
L 161.625861 92.3727 
L 162.115086 109.316777 
L 162.604312 95.098099 
L 163.093538 93.259158 
L 163.582764 108.384398 
L 164.071989 100.618203 
L 164.561215 100.571493 
L 165.050441 98.844554 
L 165.539667 88.636925 
L 166.028893 87.613559 
L 166.518118 75.985244 
L 167.007344 75.199595 
L 167.49657 67.662741 
L 167.985796 68.777572 
L 168.475022 65.669054 
L 168.964247 68.555072 
L 169.453473 68.698439 
L 169.942699 74.261927 
L 170.431925 84.198305 
L 170.92115 101.625248 
L 171.899602 149.707619 
L 172.388828 145.763236 
L 172.878054 125.369138 
L 173.367279 148.171285 
L 173.856505 148.695171 
L 174.345731 135.429898 
L 174.834957 151.35159 
L 175.324183 147.10582 
L 175.813408 156.133125 
L 176.302634 160.557491 
L 176.79186 162.547102 
L 177.281086 172.21712 
L 177.770311 174.146252 
L 178.259537 190.936857 
L 178.748763 193.207534 
L 179.237989 207.151581 
L 179.727215 209.193646 
L 180.21644 220.291218 
L 180.705666 223.538488 
L 181.194892 227.702658 
L 181.684118 228.8481 
L 182.662569 220.87672 
L 183.151795 200.79045 
L 184.130247 141.281149 
L 184.619472 127.364954 
L 185.108698 130.491334 
L 185.597924 127.183938 
L 186.08715 112.066549 
L 187.065601 103.519189 
L 187.554827 95.386357 
L 188.044053 89.268471 
L 189.022505 70.319796 
L 189.51173 63.623547 
L 190.000956 59.980008 
L 190.979408 60.689215 
L 191.468633 65.004562 
L 191.957859 65.040318 
L 192.447085 72.44923 
L 192.936311 71.359696 
L 193.425537 78.195031 
L 194.403988 74.377113 
L 194.893214 64.60997 
L 195.38244 64.094885 
L 195.871666 48.262606 
L 196.360891 54.278341 
L 196.850117 51.705639 
L 197.339343 61.090627 
L 197.828569 68.190292 
L 198.317794 92.627481 
L 198.80702 100.683966 
L 199.296246 118.728068 
L 199.785472 127.582707 
L 200.274698 145.986519 
L 200.763923 152.266144 
L 201.253149 166.576718 
L 201.742375 173.848137 
L 202.231601 186.963469 
L 202.720827 192.457215 
L 203.210052 202.904618 
L 203.699278 206.489003 
L 204.188504 213.61894 
L 204.67773 216.364718 
L 205.656181 227.5862 
L 206.145407 235.115385 
L 206.634633 245.657251 
L 207.613084 259.71911 
L 208.10231 257.685873 
L 208.591536 260.132115 
L 209.080762 254.387771 
L 209.569988 254.246214 
L 210.059213 244.846107 
L 210.548439 240.264248 
L 211.526891 202.486962 
L 212.505342 132.326125 
L 212.994568 114.954106 
L 213.483794 132.769661 
L 213.97302 134.221286 
L 214.462245 106.746008 
L 214.951471 107.922625 
L 215.440697 112.476858 
L 215.929923 100.632271 
L 216.419149 109.811959 
L 216.908374 101.28658 
L 217.3976 109.097962 
L 217.886826 107.428603 
L 218.376052 116.116066 
L 218.865277 117.524803 
L 219.354503 123.603001 
L 219.843729 123.738136 
L 220.332955 127.842389 
L 220.822181 126.911892 
L 221.311406 130.412978 
L 221.800632 130.449552 
L 222.289858 130.645178 
L 222.779084 123.854205 
L 223.26831 110.714641 
L 223.757535 91.653126 
L 224.246761 80.069538 
L 224.735987 76.672669 
L 225.225213 71.14578 
L 225.714438 78.433246 
L 226.203664 94.801238 
L 227.182116 86.368508 
L 227.671342 103.125461 
L 228.160567 102.887467 
L 228.649793 106.130143 
L 229.139019 100.995182 
L 229.628245 102.707447 
L 230.117471 96.089766 
L 230.606696 96.984407 
L 231.095922 88.852969 
L 231.585148 88.009508 
L 232.074374 80.805336 
L 232.563599 80.318276 
L 233.052825 78.144205 
L 233.542051 81.17122 
L 234.031277 85.661423 
L 234.520503 91.568268 
L 235.009728 106.591378 
L 235.98818 153.681187 
L 236.477406 161.995776 
L 237.455857 142.0375 
L 237.945083 165.75543 
L 238.434309 150.385498 
L 238.923535 163.755973 
L 239.41276 167.856119 
L 239.901986 165.853239 
L 240.391212 170.189939 
L 240.880438 164.489478 
L 241.369664 166.791835 
L 241.858889 165.266816 
L 242.837341 175.619865 
L 243.815793 190.553364 
L 244.305018 198.407861 
L 245.28347 206.964604 
L 245.772696 207.917723 
L 246.751147 199.16654 
L 247.729599 155.062502 
L 248.218825 116.79826 
L 248.70805 103.614075 
L 249.197276 103.548982 
L 249.686502 107.434218 
L 250.175728 91.029849 
L 250.664954 87.171425 
L 251.154179 85.052381 
L 251.643405 78.128697 
L 252.132631 74.986612 
L 253.111082 64.622019 
L 253.600308 57.840798 
L 254.089534 55.12876 
L 254.57876 49.330442 
L 255.067986 49.712689 
L 255.557211 46.87027 
L 256.046437 50.067729 
L 256.535663 49.218933 
L 257.024889 52.743196 
L 257.514115 51.960591 
L 258.00334 53.476422 
L 258.492566 48.9628 
L 258.981792 36.629607 
L 259.471018 35.5023 
L 259.960243 28.287846 
L 260.449469 41.528581 
L 260.938695 64.94256 
L 261.427921 95.952869 
L 261.917147 112.383501 
L 262.406372 111.09086 
L 263.384824 145.590406 
L 264.852501 181.343546 
L 265.341727 187.750082 
L 265.830953 202.045684 
L 266.320179 207.797738 
L 266.809404 220.879532 
L 267.29863 225.885039 
L 267.787856 235.325445 
L 268.277082 239.917077 
L 268.766308 248.189453 
L 269.255533 254.22181 
L 269.744759 263.392422 
L 270.723211 277.210508 
L 271.212437 280.49837 
L 271.701662 279.611243 
L 272.190888 277.240036 
L 272.680114 276.318851 
L 273.16934 264.956746 
L 274.147791 237.021894 
L 274.637017 216.474755 
L 275.126243 185.91514 
L 275.615469 146.925096 
L 276.104694 120.768443 
L 276.59392 131.150062 
L 277.083146 150.165906 
L 277.572372 124.554631 
L 278.061598 112.676597 
L 278.550823 129.565548 
L 279.040049 115.293561 
L 279.529275 124.659361 
L 280.018501 121.815269 
L 280.507726 125.137054 
L 281.486178 134.43488 
L 281.975404 142.87825 
L 282.953855 152.204783 
L 283.443081 154.449172 
L 283.932307 155.69571 
L 284.421533 155.135214 
L 284.910759 158.956227 
L 285.399984 156.34312 
L 285.88921 152.750343 
L 286.378436 140.781617 
L 287.356887 102.435617 
L 287.846113 96.155533 
L 288.824565 76.51041 
L 289.313791 84.954067 
L 289.803016 86.858809 
L 290.292242 72.493428 
L 290.781468 78.440321 
L 291.270694 78.878391 
L 291.75992 73.783564 
L 292.249145 65.665352 
L 292.738371 60.391557 
L 293.227597 52.52233 
L 293.716823 50.339007 
L 294.206048 43.094977 
L 294.695274 43.86385 
L 295.1845 39.158479 
L 295.673726 41.243659 
L 296.162952 40.409402 
L 296.652177 43.349731 
L 297.141403 44.140405 
L 297.630629 44.275969 
L 298.119855 43.078721 
L 298.609081 50.327282 
L 299.098306 63.757636 
L 299.587532 90.972222 
L 300.076758 130.293082 
L 300.565984 114.793541 
L 301.055209 88.128524 
L 301.544435 133.901496 
L 302.033661 141.114712 
L 302.522887 142.354841 
L 303.012113 179.356411 
L 303.501338 168.470801 
L 303.990564 198.932922 
L 304.47979 193.946827 
L 304.969016 213.310332 
L 305.458242 215.581063 
L 305.947467 227.620926 
L 306.436693 232.167055 
L 306.925919 240.640433 
L 307.415145 246.402215 
L 308.393596 260.716947 
L 308.882822 268.370835 
L 309.372048 270.960198 
L 309.861274 274.277066 
L 310.350499 272.635765 
L 310.839725 275.466781 
L 311.328951 267.713887 
L 312.307403 225.323182 
L 312.796628 210.223551 
L 313.285854 182.506351 
L 314.264306 145.303237 
L 314.753531 136.425223 
L 315.242757 124.854142 
L 315.731983 118.813005 
L 316.221209 114.536043 
L 316.710435 112.349348 
L 317.19966 108.341637 
L 317.688886 109.485717 
L 318.178112 108.358048 
L 318.667338 112.102679 
L 319.156564 113.94837 
L 320.624241 131.613517 
L 321.113467 137.257484 
L 321.602692 140.106541 
L 322.091918 148.183386 
L 322.581144 140.249115 
L 323.07037 150.251886 
L 323.559596 148.184922 
L 324.048821 138.168293 
L 324.538047 132.847588 
L 325.027273 123.992263 
L 326.49495 73.581498 
L 326.984176 67.425256 
L 327.473402 77.392922 
L 327.962628 100.463841 
L 328.451853 99.635244 
L 328.941079 84.685531 
L 329.430305 94.936549 
L 329.919531 98.066376 
L 330.408757 88.873062 
L 330.897982 91.04756 
L 331.387208 79.796177 
L 331.876434 76.783064 
L 332.36566 67.87539 
L 333.344111 59.344624 
L 333.833337 57.906632 
L 334.322563 55.503011 
L 334.811789 57.979493 
L 335.301014 54.963919 
L 335.79024 60.524879 
L 336.279466 60.090286 
L 337.257918 88.883055 
L 337.747143 120.600655 
L 338.236369 143.136698 
L 338.725595 131.209032 
L 339.214821 111.906539 
L 339.704047 144.331651 
L 340.193272 140.14355 
L 340.682498 132.278363 
L 341.171724 160.012205 
L 341.66095 149.003715 
L 342.150175 173.241953 
L 342.639401 169.22269 
L 343.128627 185.53778 
L 343.617853 186.960752 
L 344.107079 202.109132 
L 344.596304 206.170103 
L 345.08553 218.05191 
L 345.574756 221.871359 
L 346.063982 232.478831 
L 346.553208 237.166216 
L 347.042433 244.829139 
L 347.531659 247.16108 
L 348.020885 248.683518 
L 348.510111 247.68225 
L 348.999337 244.391059 
L 349.488562 229.885167 
L 350.467014 174.554262 
L 350.95624 157.630893 
L 351.445465 149.784004 
L 351.934691 144.215864 
L 353.402369 112.636336 
L 353.891594 104.729456 
L 354.38082 93.523997 
L 354.870046 88.442587 
L 355.359272 79.546347 
L 355.848498 80.025809 
L 356.337723 77.327496 
L 356.826949 79.938497 
L 357.316175 81.517304 
L 359.273078 100.316367 
L 359.762304 101.935118 
L 360.25153 108.43682 
L 360.740755 100.713862 
L 361.229981 104.11166 
L 361.719207 98.240989 
L 362.208433 84.43616 
L 362.697659 82.962762 
L 363.186884 77.038362 
L 363.67611 66.129421 
L 364.165336 57.747139 
L 364.654562 60.760668 
L 365.143787 78.629389 
L 365.633013 103.191858 
L 366.122239 121.909788 
L 366.611465 122.305388 
L 367.100691 128.632165 
L 367.589916 141.429999 
L 369.057594 159.033334 
L 369.54682 162.708142 
L 370.036045 163.656891 
L 370.525271 163.888694 
L 371.014497 161.68107 
L 371.503723 160.434093 
L 371.992948 160.336529 
L 372.482174 163.948533 
L 372.9714 171.170508 
L 374.439077 208.459247 
L 375.417529 218.511397 
L 375.906755 212.505068 
L 376.395981 216.37816 
L 376.885206 214.497488 
L 377.374432 208.958907 
L 378.352884 174.001129 
L 379.331335 131.262148 
L 379.820561 121.399524 
L 380.309787 120.215268 
L 380.799013 112.030963 
L 381.288238 99.238146 
L 381.777464 92.517669 
L 382.26669 87.561243 
L 382.755916 79.978924 
L 383.245142 75.677429 
L 383.734367 68.872712 
L 384.223593 65.097425 
L 384.712819 59.463643 
L 385.202045 56.667754 
L 385.69127 55.62702 
L 386.180496 58.209555 
L 386.669722 61.723618 
L 387.158948 61.577633 
L 387.648174 64.276235 
L 388.137399 63.725597 
L 388.626625 66.930951 
L 389.115851 65.042585 
L 389.605077 62.082676 
L 390.094303 52.470707 
L 390.583528 46.680242 
L 391.072754 44.391155 
L 391.56198 48.682037 
L 392.051206 59.62539 
L 392.540431 85.844181 
L 393.029657 105.359483 
L 393.518883 114.477742 
L 394.008109 119.523965 
L 394.497335 145.559228 
L 394.98656 152.012917 
L 395.475786 167.785553 
L 395.965012 173.540773 
L 396.454238 185.518602 
L 396.943464 191.101167 
L 397.432689 202.36492 
L 397.921915 208.60913 
L 398.411141 218.110915 
L 398.900367 222.444001 
L 399.389592 229.701425 
L 399.878818 234.934366 
L 400.368044 243.091438 
L 400.85727 248.932779 
L 401.346496 259.051077 
L 401.835721 263.871125 
L 402.324947 270.651827 
L 402.814173 265.86236 
L 403.303399 267.117398 
L 404.28185 258.364649 
L 404.771076 243.577732 
L 405.260302 232.631274 
L 405.749528 212.350391 
L 406.238753 185.515275 
L 406.727979 148.351979 
L 407.217205 121.162798 
L 407.706431 123.901686 
L 408.195657 143.753523 
L 409.174108 106.257778 
L 409.663334 120.422749 
L 410.15256 110.861572 
L 410.641786 112.729064 
L 411.131011 114.092551 
L 411.620237 112.574468 
L 412.109463 118.808379 
L 412.598689 120.873518 
L 413.087914 129.089433 
L 413.57714 133.295097 
L 414.555592 139.378538 
L 415.044818 138.833096 
L 415.534043 140.178265 
L 416.023269 140.91484 
L 416.512495 142.203145 
L 417.001721 136.333907 
L 417.490947 127.684424 
L 418.469398 92.298199 
L 418.958624 84.836426 
L 419.937075 73.928063 
L 420.426301 86.413845 
L 420.915527 90.526523 
L 421.404753 77.413265 
L 421.893979 86.346825 
L 422.383204 91.827896 
L 422.87243 88.461633 
L 423.361656 86.860451 
L 423.850882 79.558536 
L 424.340108 78.167965 
L 424.829333 70.464067 
L 425.318559 68.199623 
L 425.807785 61.277135 
L 426.297011 59.261072 
L 426.786236 55.487731 
L 427.275462 55.6644 
L 427.764688 57.518302 
L 428.253914 58.410105 
L 428.74314 63.655782 
L 429.232365 65.627074 
L 429.721591 82.952084 
L 430.210817 105.033404 
L 430.700043 133.68332 
L 431.189269 146.6551 
L 431.678494 122.210344 
L 431.678494 122.210344 
" clip-path="url(#p34cf975950)" style="fill: none; stroke-dasharray: 5.55,2.4; stroke-dashoffset: 0; stroke: #0000ff; stroke-width: 1.5"/>
   </g>
   <g id="patch_3">
    <path d="M 46.926875 293.56 
L 46.926875 15.655838 
" style="fill: none; stroke: #000000; stroke-width: 0.8; stroke-linejoin: miter; stroke-linecap: square"/>
   </g>
   <g id="patch_4">
    <path d="M 450 293.56 
L 450 15.655838 
" style="fill: none; stroke: #000000; stroke-width: 0.8; stroke-linejoin: miter; stroke-linecap: square"/>
   </g>
   <g id="patch_5">
    <path d="M 46.926875 293.56 
L 450 293.56 
" style="fill: none; stroke: #000000; stroke-width: 0.8; stroke-linejoin: miter; stroke-linecap: square"/>
   </g>
   <g id="patch_6">
    <path d="M 46.926875 15.655838 
L 450 15.655838 
" style="fill: none; stroke: #000000; stroke-width: 0.8; stroke-linejoin: miter; stroke-linecap: square"/>
   </g>
   <g id="legend_1">
    <g id="patch_7">
     <path d="M 335.528125 286.56 
L 440.2 286.56 
Q 443 286.56 443 283.76 
L 443 244.035 
Q 443 241.235 440.2 241.235 
L 335.528125 241.235 
Q 332.728125 241.235 332.728125 244.035 
L 332.728125 283.76 
Q 332.728125 286.56 335.528125 286.56 
z
" style="fill: #ffffff; opacity: 0.8; stroke: #cccccc; stroke-linejoin: miter"/>
    </g>
    <g id="line2d_17">
     <path d="M 338.328125 252.572812 
L 352.328125 252.572812 
L 366.328125 252.572812 
" style="fill: none; stroke: #ff0000; stroke-width: 1.5; stroke-linecap: square"/>
    </g>
    <g id="text_17">
     <!-- Real -->
     <g transform="translate(377.528125 257.472812)scale(0.14 -0.14)">
      <defs>
       <path id="DejaVuSans-52" d="M 2841 2188 
Q 3044 2119 3236 1894 
Q 3428 1669 3622 1275 
L 4263 0 
L 3584 0 
L 2988 1197 
Q 2756 1666 2539 1819 
Q 2322 1972 1947 1972 
L 1259 1972 
L 1259 0 
L 628 0 
L 628 4666 
L 2053 4666 
Q 2853 4666 3247 4331 
Q 3641 3997 3641 3322 
Q 3641 2881 3436 2590 
Q 3231 2300 2841 2188 
z
M 1259 4147 
L 1259 2491 
L 2053 2491 
Q 2509 2491 2742 2702 
Q 2975 2913 2975 3322 
Q 2975 3731 2742 3939 
Q 2509 4147 2053 4147 
L 1259 4147 
z
" transform="scale(0.015625)"/>
       <path id="DejaVuSans-65" d="M 3597 1894 
L 3597 1613 
L 953 1613 
Q 991 1019 1311 708 
Q 1631 397 2203 397 
Q 2534 397 2845 478 
Q 3156 559 3463 722 
L 3463 178 
Q 3153 47 2828 -22 
Q 2503 -91 2169 -91 
Q 1331 -91 842 396 
Q 353 884 353 1716 
Q 353 2575 817 3079 
Q 1281 3584 2069 3584 
Q 2775 3584 3186 3129 
Q 3597 2675 3597 1894 
z
M 3022 2063 
Q 3016 2534 2758 2815 
Q 2500 3097 2075 3097 
Q 1594 3097 1305 2825 
Q 1016 2553 972 2059 
L 3022 2063 
z
" transform="scale(0.015625)"/>
       <path id="DejaVuSans-61" d="M 2194 1759 
Q 1497 1759 1228 1600 
Q 959 1441 959 1056 
Q 959 750 1161 570 
Q 1363 391 1709 391 
Q 2188 391 2477 730 
Q 2766 1069 2766 1631 
L 2766 1759 
L 2194 1759 
z
M 3341 1997 
L 3341 0 
L 2766 0 
L 2766 531 
Q 2569 213 2275 61 
Q 1981 -91 1556 -91 
Q 1019 -91 701 211 
Q 384 513 384 1019 
Q 384 1609 779 1909 
Q 1175 2209 1959 2209 
L 2766 2209 
L 2766 2266 
Q 2766 2663 2505 2880 
Q 2244 3097 1772 3097 
Q 1472 3097 1187 3025 
Q 903 2953 641 2809 
L 641 3341 
Q 956 3463 1253 3523 
Q 1550 3584 1831 3584 
Q 2591 3584 2966 3190 
Q 3341 2797 3341 1997 
z
" transform="scale(0.015625)"/>
       <path id="DejaVuSans-6c" d="M 603 4863 
L 1178 4863 
L 1178 0 
L 603 0 
L 603 4863 
z
" transform="scale(0.015625)"/>
      </defs>
      <use xlink:href="#DejaVuSans-52"/>
      <use xlink:href="#DejaVuSans-65" x="64.982422"/>
      <use xlink:href="#DejaVuSans-61" x="126.505859"/>
      <use xlink:href="#DejaVuSans-6c" x="187.785156"/>
     </g>
    </g>
    <g id="line2d_18">
     <path d="M 338.328125 273.148438 
L 352.328125 273.148438 
L 366.328125 273.148438 
" style="fill: none; stroke-dasharray: 5.55,2.4; stroke-dashoffset: 0; stroke: #0000ff; stroke-width: 1.5"/>
    </g>
    <g id="text_18">
     <!-- Predição -->
     <g transform="translate(377.528125 278.048437)scale(0.14 -0.14)">
      <defs>
       <path id="DejaVuSans-50" d="M 1259 4147 
L 1259 2394 
L 2053 2394 
Q 2494 2394 2734 2622 
Q 2975 2850 2975 3272 
Q 2975 3691 2734 3919 
Q 2494 4147 2053 4147 
L 1259 4147 
z
M 628 4666 
L 2053 4666 
Q 2838 4666 3239 4311 
Q 3641 3956 3641 3272 
Q 3641 2581 3239 2228 
Q 2838 1875 2053 1875 
L 1259 1875 
L 1259 0 
L 628 0 
L 628 4666 
z
" transform="scale(0.015625)"/>
       <path id="DejaVuSans-72" d="M 2631 2963 
Q 2534 3019 2420 3045 
Q 2306 3072 2169 3072 
Q 1681 3072 1420 2755 
Q 1159 2438 1159 1844 
L 1159 0 
L 581 0 
L 581 3500 
L 1159 3500 
L 1159 2956 
Q 1341 3275 1631 3429 
Q 1922 3584 2338 3584 
Q 2397 3584 2469 3576 
Q 2541 3569 2628 3553 
L 2631 2963 
z
" transform="scale(0.015625)"/>
       <path id="DejaVuSans-64" d="M 2906 2969 
L 2906 4863 
L 3481 4863 
L 3481 0 
L 2906 0 
L 2906 525 
Q 2725 213 2448 61 
Q 2172 -91 1784 -91 
Q 1150 -91 751 415 
Q 353 922 353 1747 
Q 353 2572 751 3078 
Q 1150 3584 1784 3584 
Q 2172 3584 2448 3432 
Q 2725 3281 2906 2969 
z
M 947 1747 
Q 947 1113 1208 752 
Q 1469 391 1925 391 
Q 2381 391 2643 752 
Q 2906 1113 2906 1747 
Q 2906 2381 2643 2742 
Q 2381 3103 1925 3103 
Q 1469 3103 1208 2742 
Q 947 2381 947 1747 
z
" transform="scale(0.015625)"/>
       <path id="DejaVuSans-69" d="M 603 3500 
L 1178 3500 
L 1178 0 
L 603 0 
L 603 3500 
z
M 603 4863 
L 1178 4863 
L 1178 4134 
L 603 4134 
L 603 4863 
z
" transform="scale(0.015625)"/>
       <path id="DejaVuSans-e7" d="M 3122 3366 
L 3122 2828 
Q 2878 2963 2633 3030 
Q 2388 3097 2138 3097 
Q 1578 3097 1268 2742 
Q 959 2388 959 1747 
Q 959 1106 1268 751 
Q 1578 397 2138 397 
Q 2388 397 2633 464 
Q 2878 531 3122 666 
L 3122 134 
Q 2881 22 2623 -34 
Q 2366 -91 2075 -91 
Q 1284 -91 818 406 
Q 353 903 353 1747 
Q 353 2603 823 3093 
Q 1294 3584 2113 3584 
Q 2378 3584 2631 3529 
Q 2884 3475 3122 3366 
z
M 2311 0 
Q 2482 -194 2566 -358 
Q 2651 -522 2651 -672 
Q 2651 -950 2463 -1092 
Q 2276 -1234 1907 -1234 
Q 1764 -1234 1628 -1215 
Q 1492 -1197 1357 -1159 
L 1357 -750 
Q 1464 -803 1579 -826 
Q 1695 -850 1842 -850 
Q 2026 -850 2120 -775 
Q 2214 -700 2214 -556 
Q 2214 -463 2146 -327 
Q 2079 -191 1939 0 
L 2311 0 
z
" transform="scale(0.015625)"/>
       <path id="DejaVuSans-e3" d="M 2194 1759 
Q 1497 1759 1228 1600 
Q 959 1441 959 1056 
Q 959 750 1161 570 
Q 1363 391 1709 391 
Q 2188 391 2477 730 
Q 2766 1069 2766 1631 
L 2766 1759 
L 2194 1759 
z
M 3341 1997 
L 3341 0 
L 2766 0 
L 2766 531 
Q 2569 213 2275 61 
Q 1981 -91 1556 -91 
Q 1019 -91 701 211 
Q 384 513 384 1019 
Q 384 1609 779 1909 
Q 1175 2209 1959 2209 
L 2766 2209 
L 2766 2266 
Q 2766 2663 2505 2880 
Q 2244 3097 1772 3097 
Q 1472 3097 1187 3025 
Q 903 2953 641 2809 
L 641 3341 
Q 956 3463 1253 3523 
Q 1550 3584 1831 3584 
Q 2591 3584 2966 3190 
Q 3341 2797 3341 1997 
z
M 1844 4281 
L 1665 4453 
Q 1597 4516 1545 4545 
Q 1494 4575 1453 4575 
Q 1334 4575 1278 4461 
Q 1222 4347 1215 4091 
L 825 4091 
Q 831 4513 990 4742 
Q 1150 4972 1434 4972 
Q 1553 4972 1653 4928 
Q 1753 4884 1869 4781 
L 2047 4609 
Q 2115 4547 2167 4517 
Q 2219 4488 2259 4488 
Q 2378 4488 2434 4602 
Q 2490 4716 2497 4972 
L 2887 4972 
Q 2881 4550 2721 4320 
Q 2562 4091 2278 4091 
Q 2159 4091 2059 4134 
Q 1959 4178 1844 4281 
z
" transform="scale(0.015625)"/>
       <path id="DejaVuSans-6f" d="M 1959 3097 
Q 1497 3097 1228 2736 
Q 959 2375 959 1747 
Q 959 1119 1226 758 
Q 1494 397 1959 397 
Q 2419 397 2687 759 
Q 2956 1122 2956 1747 
Q 2956 2369 2687 2733 
Q 2419 3097 1959 3097 
z
M 1959 3584 
Q 2709 3584 3137 3096 
Q 3566 2609 3566 1747 
Q 3566 888 3137 398 
Q 2709 -91 1959 -91 
Q 1206 -91 779 398 
Q 353 888 353 1747 
Q 353 2609 779 3096 
Q 1206 3584 1959 3584 
z
" transform="scale(0.015625)"/>
      </defs>
      <use xlink:href="#DejaVuSans-50"/>
      <use xlink:href="#DejaVuSans-72" x="58.552734"/>
      <use xlink:href="#DejaVuSans-65" x="97.416016"/>
      <use xlink:href="#DejaVuSans-64" x="158.939453"/>
      <use xlink:href="#DejaVuSans-69" x="222.416016"/>
      <use xlink:href="#DejaVuSans-e7" x="250.199219"/>
      <use xlink:href="#DejaVuSans-e3" x="305.179688"/>
      <use xlink:href="#DejaVuSans-6f" x="366.458984"/>
     </g>
    </g>
   </g>
  </g>
 </g>
 <defs>
  <clipPath id="p34cf975950">
   <rect x="46.926875" y="15.655838" width="403.073125" height="277.904162"/>
  </clipPath>
 </defs>
</svg>
