<?xml version="1.0" encoding="utf-8" standalone="no"?>
<!DOCTYPE svg PUBLIC "-//W3C//DTD SVG 1.1//EN"
  "http://www.w3.org/Graphics/SVG/1.1/DTD/svg11.dtd">
<svg xmlns:xlink="http://www.w3.org/1999/xlink" width="460.8pt" height="345.6pt" viewBox="0 0 460.8 345.6" xmlns="http://www.w3.org/2000/svg" version="1.1">
 <metadata>
  <rdf:RDF xmlns:dc="http://purl.org/dc/elements/1.1/" xmlns:cc="http://creativecommons.org/ns#" xmlns:rdf="http://www.w3.org/1999/02/22-rdf-syntax-ns#">
   <cc:Work>
    <dc:type rdf:resource="http://purl.org/dc/dcmitype/StillImage"/>
    <dc:date>2022-09-28T13:35:21.861853</dc:date>
    <dc:format>image/svg+xml</dc:format>
    <dc:creator>
     <cc:Agent>
      <dc:title>Matplotlib v3.5.3, https://matplotlib.org/</dc:title>
     </cc:Agent>
    </dc:creator>
   </cc:Work>
  </rdf:RDF>
 </metadata>
 <defs>
  <style type="text/css">*{stroke-linejoin: round; stroke-linecap: butt}</style>
 </defs>
 <g id="figure_1">
  <g id="patch_1">
   <path d="M 0 345.6 
L 460.8 345.6 
L 460.8 0 
L 0 0 
z
" style="fill: #ffffff"/>
  </g>
  <g id="axes_1">
   <g id="patch_2">
    <path d="M 46.926875 293.56 
L 450 293.56 
L 450 10.8 
L 46.926875 10.8 
z
" style="fill: #ffffff"/>
   </g>
   <g id="matplotlib.axis_1">
    <g id="xtick_1">
     <g id="line2d_1">
      <defs>
       <path id="m30fa096330" d="M 0 0 
L 0 3.5 
" style="stroke: #000000; stroke-width: 0.8"/>
      </defs>
      <g>
       <use xlink:href="#m30fa096330" x="89.70967" y="293.56" style="stroke: #000000; stroke-width: 0.8"/>
      </g>
     </g>
     <g id="text_1">
      <!-- 4300 -->
      <g transform="translate(74.43967 309.678125)scale(0.12 -0.12)">
       <defs>
        <path id="DejaVuSans-34" d="M 2419 4116 
L 825 1625 
L 2419 1625 
L 2419 4116 
z
M 2253 4666 
L 3047 4666 
L 3047 1625 
L 3713 1625 
L 3713 1100 
L 3047 1100 
L 3047 0 
L 2419 0 
L 2419 1100 
L 313 1100 
L 313 1709 
L 2253 4666 
z
" transform="scale(0.015625)"/>
        <path id="DejaVuSans-33" d="M 2597 2516 
Q 3050 2419 3304 2112 
Q 3559 1806 3559 1356 
Q 3559 666 3084 287 
Q 2609 -91 1734 -91 
Q 1441 -91 1130 -33 
Q 819 25 488 141 
L 488 750 
Q 750 597 1062 519 
Q 1375 441 1716 441 
Q 2309 441 2620 675 
Q 2931 909 2931 1356 
Q 2931 1769 2642 2001 
Q 2353 2234 1838 2234 
L 1294 2234 
L 1294 2753 
L 1863 2753 
Q 2328 2753 2575 2939 
Q 2822 3125 2822 3475 
Q 2822 3834 2567 4026 
Q 2313 4219 1838 4219 
Q 1578 4219 1281 4162 
Q 984 4106 628 3988 
L 628 4550 
Q 988 4650 1302 4700 
Q 1616 4750 1894 4750 
Q 2613 4750 3031 4423 
Q 3450 4097 3450 3541 
Q 3450 3153 3228 2886 
Q 3006 2619 2597 2516 
z
" transform="scale(0.015625)"/>
        <path id="DejaVuSans-30" d="M 2034 4250 
Q 1547 4250 1301 3770 
Q 1056 3291 1056 2328 
Q 1056 1369 1301 889 
Q 1547 409 2034 409 
Q 2525 409 2770 889 
Q 3016 1369 3016 2328 
Q 3016 3291 2770 3770 
Q 2525 4250 2034 4250 
z
M 2034 4750 
Q 2819 4750 3233 4129 
Q 3647 3509 3647 2328 
Q 3647 1150 3233 529 
Q 2819 -91 2034 -91 
Q 1250 -91 836 529 
Q 422 1150 422 2328 
Q 422 3509 836 4129 
Q 1250 4750 2034 4750 
z
" transform="scale(0.015625)"/>
       </defs>
       <use xlink:href="#DejaVuSans-34"/>
       <use xlink:href="#DejaVuSans-33" x="63.623047"/>
       <use xlink:href="#DejaVuSans-30" x="127.246094"/>
       <use xlink:href="#DejaVuSans-30" x="190.869141"/>
      </g>
     </g>
    </g>
    <g id="xtick_2">
     <g id="line2d_2">
      <g>
       <use xlink:href="#m30fa096330" x="138.632249" y="293.56" style="stroke: #000000; stroke-width: 0.8"/>
      </g>
     </g>
     <g id="text_2">
      <!-- 4400 -->
      <g transform="translate(123.362249 309.678125)scale(0.12 -0.12)">
       <use xlink:href="#DejaVuSans-34"/>
       <use xlink:href="#DejaVuSans-34" x="63.623047"/>
       <use xlink:href="#DejaVuSans-30" x="127.246094"/>
       <use xlink:href="#DejaVuSans-30" x="190.869141"/>
      </g>
     </g>
    </g>
    <g id="xtick_3">
     <g id="line2d_3">
      <g>
       <use xlink:href="#m30fa096330" x="187.554827" y="293.56" style="stroke: #000000; stroke-width: 0.8"/>
      </g>
     </g>
     <g id="text_3">
      <!-- 4500 -->
      <g transform="translate(172.284827 309.678125)scale(0.12 -0.12)">
       <defs>
        <path id="DejaVuSans-35" d="M 691 4666 
L 3169 4666 
L 3169 4134 
L 1269 4134 
L 1269 2991 
Q 1406 3038 1543 3061 
Q 1681 3084 1819 3084 
Q 2600 3084 3056 2656 
Q 3513 2228 3513 1497 
Q 3513 744 3044 326 
Q 2575 -91 1722 -91 
Q 1428 -91 1123 -41 
Q 819 9 494 109 
L 494 744 
Q 775 591 1075 516 
Q 1375 441 1709 441 
Q 2250 441 2565 725 
Q 2881 1009 2881 1497 
Q 2881 1984 2565 2268 
Q 2250 2553 1709 2553 
Q 1456 2553 1204 2497 
Q 953 2441 691 2322 
L 691 4666 
z
" transform="scale(0.015625)"/>
       </defs>
       <use xlink:href="#DejaVuSans-34"/>
       <use xlink:href="#DejaVuSans-35" x="63.623047"/>
       <use xlink:href="#DejaVuSans-30" x="127.246094"/>
       <use xlink:href="#DejaVuSans-30" x="190.869141"/>
      </g>
     </g>
    </g>
    <g id="xtick_4">
     <g id="line2d_4">
      <g>
       <use xlink:href="#m30fa096330" x="236.477406" y="293.56" style="stroke: #000000; stroke-width: 0.8"/>
      </g>
     </g>
     <g id="text_4">
      <!-- 4600 -->
      <g transform="translate(221.207406 309.678125)scale(0.12 -0.12)">
       <defs>
        <path id="DejaVuSans-36" d="M 2113 2584 
Q 1688 2584 1439 2293 
Q 1191 2003 1191 1497 
Q 1191 994 1439 701 
Q 1688 409 2113 409 
Q 2538 409 2786 701 
Q 3034 994 3034 1497 
Q 3034 2003 2786 2293 
Q 2538 2584 2113 2584 
z
M 3366 4563 
L 3366 3988 
Q 3128 4100 2886 4159 
Q 2644 4219 2406 4219 
Q 1781 4219 1451 3797 
Q 1122 3375 1075 2522 
Q 1259 2794 1537 2939 
Q 1816 3084 2150 3084 
Q 2853 3084 3261 2657 
Q 3669 2231 3669 1497 
Q 3669 778 3244 343 
Q 2819 -91 2113 -91 
Q 1303 -91 875 529 
Q 447 1150 447 2328 
Q 447 3434 972 4092 
Q 1497 4750 2381 4750 
Q 2619 4750 2861 4703 
Q 3103 4656 3366 4563 
z
" transform="scale(0.015625)"/>
       </defs>
       <use xlink:href="#DejaVuSans-34"/>
       <use xlink:href="#DejaVuSans-36" x="63.623047"/>
       <use xlink:href="#DejaVuSans-30" x="127.246094"/>
       <use xlink:href="#DejaVuSans-30" x="190.869141"/>
      </g>
     </g>
    </g>
    <g id="xtick_5">
     <g id="line2d_5">
      <g>
       <use xlink:href="#m30fa096330" x="285.399984" y="293.56" style="stroke: #000000; stroke-width: 0.8"/>
      </g>
     </g>
     <g id="text_5">
      <!-- 4700 -->
      <g transform="translate(270.129984 309.678125)scale(0.12 -0.12)">
       <defs>
        <path id="DejaVuSans-37" d="M 525 4666 
L 3525 4666 
L 3525 4397 
L 1831 0 
L 1172 0 
L 2766 4134 
L 525 4134 
L 525 4666 
z
" transform="scale(0.015625)"/>
       </defs>
       <use xlink:href="#DejaVuSans-34"/>
       <use xlink:href="#DejaVuSans-37" x="63.623047"/>
       <use xlink:href="#DejaVuSans-30" x="127.246094"/>
       <use xlink:href="#DejaVuSans-30" x="190.869141"/>
      </g>
     </g>
    </g>
    <g id="xtick_6">
     <g id="line2d_6">
      <g>
       <use xlink:href="#m30fa096330" x="334.322563" y="293.56" style="stroke: #000000; stroke-width: 0.8"/>
      </g>
     </g>
     <g id="text_6">
      <!-- 4800 -->
      <g transform="translate(319.052563 309.678125)scale(0.12 -0.12)">
       <defs>
        <path id="DejaVuSans-38" d="M 2034 2216 
Q 1584 2216 1326 1975 
Q 1069 1734 1069 1313 
Q 1069 891 1326 650 
Q 1584 409 2034 409 
Q 2484 409 2743 651 
Q 3003 894 3003 1313 
Q 3003 1734 2745 1975 
Q 2488 2216 2034 2216 
z
M 1403 2484 
Q 997 2584 770 2862 
Q 544 3141 544 3541 
Q 544 4100 942 4425 
Q 1341 4750 2034 4750 
Q 2731 4750 3128 4425 
Q 3525 4100 3525 3541 
Q 3525 3141 3298 2862 
Q 3072 2584 2669 2484 
Q 3125 2378 3379 2068 
Q 3634 1759 3634 1313 
Q 3634 634 3220 271 
Q 2806 -91 2034 -91 
Q 1263 -91 848 271 
Q 434 634 434 1313 
Q 434 1759 690 2068 
Q 947 2378 1403 2484 
z
M 1172 3481 
Q 1172 3119 1398 2916 
Q 1625 2713 2034 2713 
Q 2441 2713 2670 2916 
Q 2900 3119 2900 3481 
Q 2900 3844 2670 4047 
Q 2441 4250 2034 4250 
Q 1625 4250 1398 4047 
Q 1172 3844 1172 3481 
z
" transform="scale(0.015625)"/>
       </defs>
       <use xlink:href="#DejaVuSans-34"/>
       <use xlink:href="#DejaVuSans-38" x="63.623047"/>
       <use xlink:href="#DejaVuSans-30" x="127.246094"/>
       <use xlink:href="#DejaVuSans-30" x="190.869141"/>
      </g>
     </g>
    </g>
    <g id="xtick_7">
     <g id="line2d_7">
      <g>
       <use xlink:href="#m30fa096330" x="383.245142" y="293.56" style="stroke: #000000; stroke-width: 0.8"/>
      </g>
     </g>
     <g id="text_7">
      <!-- 4900 -->
      <g transform="translate(367.975142 309.678125)scale(0.12 -0.12)">
       <defs>
        <path id="DejaVuSans-39" d="M 703 97 
L 703 672 
Q 941 559 1184 500 
Q 1428 441 1663 441 
Q 2288 441 2617 861 
Q 2947 1281 2994 2138 
Q 2813 1869 2534 1725 
Q 2256 1581 1919 1581 
Q 1219 1581 811 2004 
Q 403 2428 403 3163 
Q 403 3881 828 4315 
Q 1253 4750 1959 4750 
Q 2769 4750 3195 4129 
Q 3622 3509 3622 2328 
Q 3622 1225 3098 567 
Q 2575 -91 1691 -91 
Q 1453 -91 1209 -44 
Q 966 3 703 97 
z
M 1959 2075 
Q 2384 2075 2632 2365 
Q 2881 2656 2881 3163 
Q 2881 3666 2632 3958 
Q 2384 4250 1959 4250 
Q 1534 4250 1286 3958 
Q 1038 3666 1038 3163 
Q 1038 2656 1286 2365 
Q 1534 2075 1959 2075 
z
" transform="scale(0.015625)"/>
       </defs>
       <use xlink:href="#DejaVuSans-34"/>
       <use xlink:href="#DejaVuSans-39" x="63.623047"/>
       <use xlink:href="#DejaVuSans-30" x="127.246094"/>
       <use xlink:href="#DejaVuSans-30" x="190.869141"/>
      </g>
     </g>
    </g>
    <g id="xtick_8">
     <g id="line2d_8">
      <g>
       <use xlink:href="#m30fa096330" x="432.16772" y="293.56" style="stroke: #000000; stroke-width: 0.8"/>
      </g>
     </g>
     <g id="text_8">
      <!-- 5000 -->
      <g transform="translate(416.89772 309.678125)scale(0.12 -0.12)">
       <use xlink:href="#DejaVuSans-35"/>
       <use xlink:href="#DejaVuSans-30" x="63.623047"/>
       <use xlink:href="#DejaVuSans-30" x="127.246094"/>
       <use xlink:href="#DejaVuSans-30" x="190.869141"/>
      </g>
     </g>
    </g>
    <g id="text_9">
     <!-- $t$ -->
     <g transform="translate(244.863438 329.850937)scale(0.18 -0.18)">
      <defs>
       <path id="DejaVuSans-Oblique-74" d="M 2706 3500 
L 2619 3053 
L 1472 3053 
L 1100 1153 
Q 1081 1047 1072 975 
Q 1063 903 1063 863 
Q 1063 663 1183 572 
Q 1303 481 1569 481 
L 2150 481 
L 2053 0 
L 1503 0 
Q 991 0 739 200 
Q 488 400 488 806 
Q 488 878 497 964 
Q 506 1050 525 1153 
L 897 3053 
L 409 3053 
L 500 3500 
L 978 3500 
L 1172 4494 
L 1747 4494 
L 1556 3500 
L 2706 3500 
z
" transform="scale(0.015625)"/>
      </defs>
      <use xlink:href="#DejaVuSans-Oblique-74" transform="translate(0 0.78125)"/>
     </g>
    </g>
   </g>
   <g id="matplotlib.axis_2">
    <g id="ytick_1">
     <g id="line2d_9">
      <defs>
       <path id="m7b99421723" d="M 0 0 
L -3.5 0 
" style="stroke: #000000; stroke-width: 0.8"/>
      </defs>
      <g>
       <use xlink:href="#m7b99421723" x="46.926875" y="260.586389" style="stroke: #000000; stroke-width: 0.8"/>
      </g>
     </g>
     <g id="text_10">
      <!-- 0.4 -->
      <g transform="translate(20.843125 265.145452)scale(0.12 -0.12)">
       <defs>
        <path id="DejaVuSans-2e" d="M 684 794 
L 1344 794 
L 1344 0 
L 684 0 
L 684 794 
z
" transform="scale(0.015625)"/>
       </defs>
       <use xlink:href="#DejaVuSans-30"/>
       <use xlink:href="#DejaVuSans-2e" x="63.623047"/>
       <use xlink:href="#DejaVuSans-34" x="95.410156"/>
      </g>
     </g>
    </g>
    <g id="ytick_2">
     <g id="line2d_10">
      <g>
       <use xlink:href="#m7b99421723" x="46.926875" y="210.349369" style="stroke: #000000; stroke-width: 0.8"/>
      </g>
     </g>
     <g id="text_11">
      <!-- 0.6 -->
      <g transform="translate(20.843125 214.908432)scale(0.12 -0.12)">
       <use xlink:href="#DejaVuSans-30"/>
       <use xlink:href="#DejaVuSans-2e" x="63.623047"/>
       <use xlink:href="#DejaVuSans-36" x="95.410156"/>
      </g>
     </g>
    </g>
    <g id="ytick_3">
     <g id="line2d_11">
      <g>
       <use xlink:href="#m7b99421723" x="46.926875" y="160.11235" style="stroke: #000000; stroke-width: 0.8"/>
      </g>
     </g>
     <g id="text_12">
      <!-- 0.8 -->
      <g transform="translate(20.843125 164.671412)scale(0.12 -0.12)">
       <use xlink:href="#DejaVuSans-30"/>
       <use xlink:href="#DejaVuSans-2e" x="63.623047"/>
       <use xlink:href="#DejaVuSans-38" x="95.410156"/>
      </g>
     </g>
    </g>
    <g id="ytick_4">
     <g id="line2d_12">
      <g>
       <use xlink:href="#m7b99421723" x="46.926875" y="109.87533" style="stroke: #000000; stroke-width: 0.8"/>
      </g>
     </g>
     <g id="text_13">
      <!-- 1.0 -->
      <g transform="translate(20.843125 114.434393)scale(0.12 -0.12)">
       <defs>
        <path id="DejaVuSans-31" d="M 794 531 
L 1825 531 
L 1825 4091 
L 703 3866 
L 703 4441 
L 1819 4666 
L 2450 4666 
L 2450 531 
L 3481 531 
L 3481 0 
L 794 0 
L 794 531 
z
" transform="scale(0.015625)"/>
       </defs>
       <use xlink:href="#DejaVuSans-31"/>
       <use xlink:href="#DejaVuSans-2e" x="63.623047"/>
       <use xlink:href="#DejaVuSans-30" x="95.410156"/>
      </g>
     </g>
    </g>
    <g id="ytick_5">
     <g id="line2d_13">
      <g>
       <use xlink:href="#m7b99421723" x="46.926875" y="59.638311" style="stroke: #000000; stroke-width: 0.8"/>
      </g>
     </g>
     <g id="text_14">
      <!-- 1.2 -->
      <g transform="translate(20.843125 64.197373)scale(0.12 -0.12)">
       <defs>
        <path id="DejaVuSans-32" d="M 1228 531 
L 3431 531 
L 3431 0 
L 469 0 
L 469 531 
Q 828 903 1448 1529 
Q 2069 2156 2228 2338 
Q 2531 2678 2651 2914 
Q 2772 3150 2772 3378 
Q 2772 3750 2511 3984 
Q 2250 4219 1831 4219 
Q 1534 4219 1204 4116 
Q 875 4013 500 3803 
L 500 4441 
Q 881 4594 1212 4672 
Q 1544 4750 1819 4750 
Q 2544 4750 2975 4387 
Q 3406 4025 3406 3419 
Q 3406 3131 3298 2873 
Q 3191 2616 2906 2266 
Q 2828 2175 2409 1742 
Q 1991 1309 1228 531 
z
" transform="scale(0.015625)"/>
       </defs>
       <use xlink:href="#DejaVuSans-31"/>
       <use xlink:href="#DejaVuSans-2e" x="63.623047"/>
       <use xlink:href="#DejaVuSans-32" x="95.410156"/>
      </g>
     </g>
    </g>
    <g id="text_15">
     <!-- $p$ -->
     <g transform="translate(11.083125 148.4)scale(0.18 -0.18)">
      <defs>
       <path id="DejaVuSans-Oblique-70" d="M 3175 2156 
Q 3175 2616 2975 2859 
Q 2775 3103 2400 3103 
Q 2144 3103 1911 2972 
Q 1678 2841 1497 2591 
Q 1319 2344 1212 1994 
Q 1106 1644 1106 1300 
Q 1106 863 1306 627 
Q 1506 391 1875 391 
Q 2147 391 2380 519 
Q 2613 647 2778 891 
Q 2956 1147 3065 1494 
Q 3175 1841 3175 2156 
z
M 1394 2969 
Q 1625 3272 1939 3428 
Q 2253 3584 2638 3584 
Q 3175 3584 3472 3232 
Q 3769 2881 3769 2247 
Q 3769 1728 3584 1258 
Q 3400 788 3053 416 
Q 2822 169 2531 39 
Q 2241 -91 1919 -91 
Q 1547 -91 1294 64 
Q 1041 219 916 525 
L 556 -1331 
L -19 -1331 
L 922 3500 
L 1497 3500 
L 1394 2969 
z
" transform="scale(0.015625)"/>
      </defs>
      <use xlink:href="#DejaVuSans-Oblique-70"/>
     </g>
    </g>
   </g>
   <g id="line2d_14">
    <path d="M 65.248381 107.007041 
L 65.737606 111.73598 
L 66.226832 115.150696 
L 66.716058 117.057429 
L 67.205284 117.410454 
L 67.69451 116.348418 
L 68.183735 114.222197 
L 69.162187 109.232872 
L 69.651413 108.058721 
L 70.140639 109.060397 
L 70.629864 112.983607 
L 71.11909 119.889652 
L 72.586767 149.338337 
L 73.565219 166.136315 
L 74.054445 171.704849 
L 74.543671 174.908108 
L 75.032896 175.592752 
L 75.522122 173.820413 
L 76.011348 169.89322 
L 76.9898 157.745039 
L 78.457477 138.258339 
L 78.946703 133.51829 
L 79.435928 130.128676 
L 79.925154 128.026547 
L 80.903606 125.796761 
L 81.392832 123.933809 
L 81.882057 120.227394 
L 82.371283 114.134851 
L 83.349735 96.694416 
L 84.328186 79.007529 
L 85.306638 65.323638 
L 86.774315 49.859836 
L 88.241993 36.775519 
L 88.731218 33.718567 
L 89.220444 31.798043 
L 89.70967 31.073612 
L 90.198896 31.369825 
L 90.688122 32.357905 
L 91.666573 35.228961 
L 92.155799 37.024072 
L 92.645025 39.52061 
L 93.13425 43.464648 
L 93.623476 49.69803 
L 94.112702 58.719001 
L 95.091154 83.921483 
L 98.515734 183.769629 
L 99.983411 218.023786 
L 100.961863 236.587445 
L 101.940315 251.553311 
L 102.918766 263.228922 
L 103.897218 271.775008 
L 104.386444 274.569274 
L 104.875669 275.86291 
L 105.364895 274.942626 
L 105.854121 270.831873 
L 106.343347 262.497195 
L 106.832572 249.38048 
L 107.811024 212.268459 
L 108.789476 173.9529 
L 109.767927 145.745747 
L 110.257153 136.254695 
L 110.746379 129.590944 
L 111.235605 125.41788 
L 111.72483 123.371336 
L 112.214056 123.095341 
L 112.703282 124.260106 
L 113.192508 126.571051 
L 114.170959 133.62734 
L 116.617088 154.32553 
L 117.106314 156.094784 
L 117.59554 155.650528 
L 118.084766 152.336533 
L 118.573991 145.829022 
L 119.552443 124.940964 
L 120.530894 102.444316 
L 121.02012 94.072951 
L 121.509346 88.14576 
L 121.998572 84.215224 
L 122.977023 79.555423 
L 123.955475 75.214841 
L 124.933927 68.642258 
L 125.912378 59.697286 
L 127.869281 40.668978 
L 128.847733 33.105576 
L 129.336959 30.214667 
L 129.826184 28.621969 
L 130.31541 29.456204 
L 130.804636 33.838985 
L 131.293862 41.982511 
L 132.272313 65.576801 
L 134.229216 115.669591 
L 136.675345 170.134605 
L 139.121474 221.176997 
L 140.589152 246.75935 
L 141.567603 260.31067 
L 142.056829 265.33249 
L 142.546055 268.581555 
L 143.035281 269.439809 
L 143.524506 267.220861 
L 144.013732 261.331402 
L 144.502958 251.510739 
L 145.48141 221.685859 
L 147.438313 151.602363 
L 148.416764 126.71096 
L 148.90599 118.16581 
L 149.395216 112.138261 
L 149.884442 108.426964 
L 150.373667 106.784215 
L 150.862893 106.946933 
L 151.352119 108.652032 
L 151.841345 111.636768 
L 152.819796 120.319355 
L 154.287474 134.674884 
L 154.7767 137.85155 
L 155.265925 139.226783 
L 155.755151 138.245897 
L 156.244377 134.528868 
L 156.733603 127.988531 
L 157.712054 108.449067 
L 158.690506 89.553571 
L 159.179732 84.25127 
L 159.668957 82.297985 
L 160.158183 83.047793 
L 160.647409 85.528293 
L 161.625861 91.993665 
L 162.115086 94.528815 
L 162.604312 95.91441 
L 163.093538 95.84633 
L 163.582764 94.201687 
L 164.071989 91.054801 
L 165.050441 81.446848 
L 166.518118 65.276154 
L 167.007344 61.180813 
L 167.49657 58.686712 
L 167.985796 58.706333 
L 168.475022 62.156941 
L 168.964247 69.312047 
L 169.942699 90.950893 
L 170.92115 113.289282 
L 171.899602 129.686246 
L 172.388828 135.123239 
L 172.878054 138.995269 
L 173.856505 144.033191 
L 174.345731 146.403347 
L 174.834957 149.435047 
L 175.324183 153.529192 
L 176.302634 165.397738 
L 177.770311 189.465667 
L 178.748763 205.592324 
L 179.237989 212.304623 
L 179.727215 217.208898 
L 180.21644 219.425744 
L 180.705666 218.096279 
L 181.194892 212.744502 
L 181.684118 203.623681 
L 182.662569 178.222092 
L 184.619472 125.574305 
L 186.08715 94.011349 
L 187.065601 76.714141 
L 188.044053 63.793863 
L 188.533279 59.557233 
L 189.022505 56.945681 
L 189.51173 55.897004 
L 190.000956 56.209463 
L 190.490182 57.540937 
L 191.468633 61.176482 
L 191.957859 62.167516 
L 192.447085 61.755719 
L 192.936311 59.578348 
L 193.425537 55.705051 
L 194.403988 45.81181 
L 194.893214 42.352672 
L 195.38244 41.681856 
L 195.871666 44.588043 
L 196.360891 51.178917 
L 196.850117 61.017275 
L 197.828569 87.400135 
L 200.274698 159.478972 
L 201.253149 182.016683 
L 202.231601 199.343562 
L 203.210052 212.554705 
L 205.166955 237.100368 
L 206.634633 255.082986 
L 207.123859 259.282674 
L 207.613084 261.686913 
L 208.10231 261.49128 
L 208.591536 257.681464 
L 209.080762 249.282768 
L 209.569988 235.977231 
L 212.016116 148.677334 
L 212.994568 126.910141 
L 213.483794 119.395751 
L 213.97302 113.737405 
L 214.462245 109.700995 
L 214.951471 107.131345 
L 215.440697 105.935484 
L 215.929923 106.042146 
L 216.419149 107.359583 
L 216.908374 109.748024 
L 217.886826 116.875708 
L 218.865277 124.973181 
L 219.354503 128.188919 
L 219.843729 129.944052 
L 220.332955 129.463283 
L 220.822181 126.123704 
L 221.311406 119.747004 
L 223.26831 83.53166 
L 223.757535 78.920302 
L 224.246761 77.21825 
L 224.735987 77.915154 
L 225.225213 80.320673 
L 227.182116 94.236477 
L 227.671342 96.253319 
L 228.160567 96.994389 
L 228.649793 96.328577 
L 229.139019 94.285918 
L 229.628245 91.065992 
L 231.585148 75.260273 
L 232.074374 73.837204 
L 232.563599 75.220854 
L 233.052825 80.115097 
L 233.542051 88.358083 
L 235.98818 141.189749 
L 236.477406 148.365891 
L 236.966632 153.666486 
L 237.455857 157.172006 
L 237.945083 159.142648 
L 238.434309 159.994203 
L 239.41276 160.467212 
L 239.901986 161.177717 
L 240.391212 162.797729 
L 240.880438 165.569239 
L 241.369664 169.520487 
L 242.348115 180.074994 
L 243.326567 191.041044 
L 243.815793 194.868292 
L 244.305018 196.265124 
L 244.794244 194.222001 
L 245.28347 188.164525 
L 245.772696 178.356011 
L 247.240373 138.415147 
L 248.218825 113.302933 
L 249.197276 92.4282 
L 250.175728 75.336278 
L 251.154179 61.367726 
L 252.132631 50.211052 
L 253.111082 42.298045 
L 253.600308 39.801017 
L 254.089534 38.291917 
L 254.57876 37.60977 
L 255.557211 37.18917 
L 256.046437 36.36029 
L 256.535663 34.493208 
L 257.514115 28.492054 
L 258.00334 26.538746 
L 258.492566 27.321842 
L 258.981792 31.818749 
L 259.471018 40.105415 
L 260.449469 65.36198 
L 264.363276 185.636611 
L 265.341727 208.595891 
L 266.320179 227.615566 
L 267.787856 250.595926 
L 269.255533 269.547482 
L 270.233985 278.461589 
L 270.723211 280.707273 
L 271.212437 280.580114 
L 271.701662 277.07352 
L 272.190888 269.066361 
L 272.680114 255.884605 
L 273.658565 217.659947 
L 274.637017 178.365501 
L 275.615469 149.806001 
L 276.104694 140.171198 
L 276.59392 133.291095 
L 277.083146 128.801579 
L 277.572372 126.34677 
L 278.061598 125.613273 
L 278.550823 126.341295 
L 279.040049 128.317751 
L 279.529275 131.354515 
L 280.507726 139.83551 
L 282.46463 158.800405 
L 282.953855 161.368305 
L 283.443081 161.671266 
L 283.932307 158.976071 
L 284.421533 152.89691 
L 284.910759 143.642956 
L 286.867662 98.815617 
L 287.356887 91.570162 
L 287.846113 86.333199 
L 288.824565 79.56018 
L 289.803016 74.005652 
L 290.781468 66.845206 
L 291.75992 57.552351 
L 293.227597 42.86401 
L 294.206048 34.776574 
L 295.1845 28.190873 
L 295.673726 25.862799 
L 296.162952 25.298257 
L 296.652177 27.811427 
L 297.141403 34.142894 
L 297.630629 43.869079 
L 299.098306 82.203512 
L 301.055209 132.285526 
L 303.990564 200.424055 
L 305.458242 229.972223 
L 306.925919 254.437628 
L 307.90437 266.860749 
L 308.393596 271.118479 
L 308.882822 273.439301 
L 309.372048 273.187058 
L 309.861274 269.666029 
L 310.350499 262.297867 
L 310.839725 250.884296 
L 311.818177 218.131573 
L 313.285854 163.189912 
L 314.264306 135.719096 
L 314.753531 126.085944 
L 315.242757 119.128198 
L 315.731983 114.630384 
L 316.221209 112.323775 
L 316.710435 111.926771 
L 317.19966 113.164944 
L 317.688886 115.77425 
L 318.667338 124.040284 
L 320.624241 143.346141 
L 321.113467 146.022188 
L 321.602692 146.650665 
L 322.091918 144.691703 
L 322.581144 139.817337 
L 323.07037 132.05486 
L 325.027273 91.886679 
L 325.516499 86.707167 
L 326.005725 84.453741 
L 326.49495 84.362271 
L 326.984176 85.505709 
L 327.962628 88.23902 
L 328.451853 88.606445 
L 328.941079 87.785092 
L 329.430305 85.61432 
L 329.919531 82.130562 
L 330.897982 72.236914 
L 332.36566 55.687209 
L 333.344111 47.192729 
L 333.833337 44.941067 
L 334.322563 45.209109 
L 334.811789 49.005292 
L 335.301014 56.580154 
L 336.279466 78.957441 
L 337.257918 102.204583 
L 338.236369 120.709169 
L 339.214821 134.240397 
L 340.682498 151.841426 
L 341.66095 166.285837 
L 343.128627 192.725698 
L 345.08553 227.662099 
L 346.063982 239.957748 
L 346.553208 243.053443 
L 347.042433 243.129509 
L 347.531659 239.57682 
L 348.020885 232.233221 
L 348.510111 221.546417 
L 349.488562 193.902025 
L 351.445465 135.332394 
L 352.423917 110.587615 
L 353.402369 91.846214 
L 353.891594 85.339571 
L 354.38082 80.862455 
L 354.870046 78.355867 
L 355.359272 77.667776 
L 355.848498 78.575796 
L 356.337723 80.793932 
L 357.316175 87.639406 
L 358.294626 94.230527 
L 358.783852 95.871549 
L 359.273078 95.6502 
L 359.762304 93.241584 
L 360.25153 88.629373 
L 361.229981 74.701571 
L 361.719207 67.522684 
L 362.208433 62.284956 
L 362.697659 60.475528 
L 363.186884 62.826098 
L 363.67611 69.085982 
L 364.654562 89.361254 
L 366.611465 134.120021 
L 367.589916 149.636471 
L 368.079142 154.770351 
L 368.568368 158.148023 
L 369.057594 160.011168 
L 369.54682 160.839136 
L 370.036045 161.316564 
L 370.525271 162.236489 
L 371.014497 164.351859 
L 371.503723 168.192278 
L 371.992948 173.890237 
L 372.9714 189.193666 
L 373.949852 204.54742 
L 374.439077 210.143423 
L 374.928303 213.219484 
L 375.417529 212.935343 
L 375.906755 208.656914 
L 376.395981 200.283823 
L 377.374432 174.447296 
L 378.842109 131.188007 
L 379.820561 107.09798 
L 380.799013 87.356266 
L 381.777464 71.250091 
L 382.755916 58.607537 
L 383.245142 53.912864 
L 383.734367 50.598532 
L 384.223593 48.780054 
L 384.712819 48.383252 
L 385.202045 49.136485 
L 386.669722 53.190383 
L 387.158948 52.994161 
L 387.648174 51.136524 
L 388.137399 47.630358 
L 389.115851 39.183954 
L 389.605077 37.384475 
L 390.094303 39.113399 
L 390.583528 44.820918 
L 391.072754 54.132388 
L 392.051206 80.220286 
L 394.98656 169.017057 
L 395.965012 192.358656 
L 396.943464 210.838942 
L 397.921915 225.229568 
L 400.368044 256.046468 
L 401.346496 265.879773 
L 401.835721 268.792774 
L 402.324947 269.475988 
L 402.814173 266.978202 
L 403.303399 260.226591 
L 403.792625 248.490815 
L 404.771076 212.801393 
L 405.749528 174.47871 
L 406.727979 145.546352 
L 407.217205 135.346546 
L 407.706431 127.671412 
L 408.195657 122.165851 
L 408.684882 118.494298 
L 409.174108 116.384402 
L 409.663334 115.641315 
L 410.15256 116.131971 
L 410.641786 117.748637 
L 411.131011 120.368089 
L 412.109463 127.891102 
L 413.57714 140.344788 
L 414.066366 142.866046 
L 414.555592 143.387801 
L 415.044818 141.172427 
L 415.534043 135.79002 
L 416.023269 127.396095 
L 417.490947 95.871363 
L 417.980172 88.223049 
L 418.469398 83.208917 
L 418.958624 80.526309 
L 419.44785 79.577994 
L 419.937075 79.714051 
L 420.915527 80.944719 
L 421.404753 81.106153 
L 421.893979 80.498995 
L 422.383204 78.915051 
L 422.87243 76.285966 
L 423.850882 68.351768 
L 425.807785 49.933683 
L 426.297011 46.885765 
L 426.786236 45.682087 
L 427.275462 47.40195 
L 427.764688 52.844987 
L 428.253914 61.826982 
L 429.721591 98.31763 
L 430.700043 121.096009 
L 431.678494 139.388998 
L 431.678494 139.388998 
" clip-path="url(#p002ec04a82)" style="fill: none; stroke: #ff0000; stroke-width: 1.5; stroke-linecap: square"/>
   </g>
   <g id="line2d_15">
    <path d="M 65.248381 97.68615 
L 65.737606 103.388985 
L 66.226832 116.15288 
L 66.716058 110.921539 
L 67.205284 122.416815 
L 67.69451 118.930578 
L 68.183735 127.097202 
L 68.672961 119.033856 
L 69.162187 120.758981 
L 69.651413 112.172938 
L 70.140639 109.016426 
L 70.629864 103.814554 
L 71.11909 103.26559 
L 71.608316 105.675481 
L 72.586767 124.814015 
L 74.054445 186.744706 
L 74.543671 176.505974 
L 75.032896 172.310405 
L 75.522122 188.979204 
L 76.011348 178.292293 
L 76.9898 166.651721 
L 77.479025 165.284647 
L 77.968251 152.375686 
L 78.457477 147.755408 
L 78.946703 136.04354 
L 79.435928 136.030623 
L 79.925154 128.453222 
L 80.41438 128.969204 
L 80.903606 126.305613 
L 81.392832 129.2427 
L 81.882057 131.347546 
L 82.371283 134.535047 
L 82.860509 134.381004 
L 83.349735 129.429013 
L 83.838961 118.789776 
L 84.328186 103.51488 
L 85.306638 61.985814 
L 85.795864 49.627089 
L 86.285089 66.802542 
L 86.774315 66.050827 
L 87.263541 55.211836 
L 87.752767 57.16884 
L 88.241993 56.904885 
L 88.731218 53.092332 
L 89.70967 41.550014 
L 90.198896 40.264223 
L 90.688122 37.81806 
L 91.177347 41.582143 
L 91.666573 42.271333 
L 92.155799 48.648631 
L 92.645025 45.575084 
L 93.13425 48.758719 
L 93.623476 43.431836 
L 94.112702 47.406755 
L 94.601928 47.020332 
L 95.580379 67.204126 
L 96.069605 84.53644 
L 97.048057 138.460921 
L 97.537283 151.314088 
L 98.026508 146.070576 
L 99.00496 181.354638 
L 99.494186 183.466832 
L 99.983411 202.196088 
L 100.472637 205.91838 
L 100.961863 224.699883 
L 101.451089 227.92055 
L 101.940315 239.670801 
L 102.42954 243.856291 
L 102.918766 250.77871 
L 103.407992 254.125673 
L 103.897218 258.700753 
L 104.386444 261.781432 
L 105.364895 269.754577 
L 105.854121 272.523312 
L 106.343347 272.765832 
L 106.832572 270.217746 
L 107.321798 265.087575 
L 107.811024 256.511446 
L 108.30025 240.183845 
L 108.789476 210.436642 
L 109.767927 137.430993 
L 110.257153 116.160647 
L 111.235605 136.882608 
L 111.72483 114.299465 
L 112.214056 106.23827 
L 112.703282 120.269077 
L 113.192508 114.855011 
L 113.681733 118.875964 
L 114.170959 115.515724 
L 114.660185 121.943381 
L 115.149411 125.172379 
L 116.617088 140.003744 
L 117.106314 142.954947 
L 117.59554 147.41998 
L 119.063217 154.931622 
L 119.552443 153.428925 
L 120.041669 148.52655 
L 120.530894 132.966284 
L 121.509346 93.52213 
L 121.998572 86.483943 
L 122.487798 76.208962 
L 122.977023 71.528092 
L 123.466249 85.771227 
L 123.955475 89.696476 
L 124.444701 70.096659 
L 124.933927 74.307808 
L 125.423152 77.344028 
L 125.912378 69.118434 
L 126.401604 65.119108 
L 126.89083 58.91064 
L 127.380055 56.782281 
L 128.358507 47.318474 
L 128.847733 45.331713 
L 129.336959 40.325906 
L 129.826184 39.681687 
L 130.31541 37.133017 
L 130.804636 36.801789 
L 131.293862 36.726384 
L 131.783088 35.840378 
L 132.272313 38.658151 
L 132.761539 48.6933 
L 133.250765 72.141667 
L 133.739991 113.18134 
L 134.229216 132.037473 
L 134.718442 110.283942 
L 135.207668 98.222599 
L 135.696894 159.419521 
L 136.18612 126.619784 
L 136.675345 152.940186 
L 137.164571 157.003706 
L 137.653797 169.410449 
L 138.143023 189.384801 
L 138.632249 188.748151 
L 139.121474 210.598471 
L 139.6107 212.774651 
L 140.099926 225.37961 
L 140.589152 230.940003 
L 141.078377 239.472719 
L 141.567603 245.921079 
L 142.056829 254.095231 
L 143.035281 265.074374 
L 143.524506 265.262716 
L 144.013732 266.158905 
L 144.502958 264.903888 
L 144.992184 266.497084 
L 145.48141 253.588316 
L 145.970635 229.538541 
L 146.949087 196.744572 
L 147.438313 170.430575 
L 147.927538 150.208621 
L 148.90599 123.518901 
L 149.395216 113.392091 
L 149.884442 106.323171 
L 150.862893 99.729816 
L 151.352119 98.266761 
L 151.841345 98.612363 
L 152.330571 100.410178 
L 152.819796 103.735742 
L 153.798248 111.941103 
L 154.287474 120.3541 
L 154.7767 121.926648 
L 155.265925 132.680448 
L 155.755151 132.063036 
L 156.244377 141.249912 
L 156.733603 139.364102 
L 157.222828 142.960392 
L 158.20128 129.01961 
L 160.158183 71.504887 
L 160.647409 61.4884 
L 161.136635 68.726976 
L 161.625861 93.073716 
L 162.115086 108.522186 
L 162.604312 90.620108 
L 163.093538 87.490714 
L 163.582764 107.552704 
L 164.071989 99.837833 
L 165.050441 94.00875 
L 165.539667 87.290528 
L 166.028893 87.091483 
L 166.518118 74.151437 
L 167.007344 73.409761 
L 167.49657 64.511851 
L 167.985796 64.41619 
L 168.475022 60.107983 
L 168.964247 61.043578 
L 169.453473 60.740091 
L 169.942699 65.904807 
L 170.431925 77.233869 
L 170.92115 96.643333 
L 171.899602 149.433622 
L 172.388828 144.441545 
L 172.878054 123.705201 
L 173.367279 149.395076 
L 173.856505 150.103187 
L 174.345731 129.752799 
L 174.834957 144.207417 
L 175.324183 138.867247 
L 175.813408 148.449977 
L 176.302634 150.330791 
L 176.79186 154.121935 
L 177.281086 168.728796 
L 177.770311 170.812547 
L 178.259537 188.678349 
L 178.748763 191.111569 
L 179.237989 205.218705 
L 179.727215 207.776654 
L 180.21644 218.421541 
L 181.194892 223.647159 
L 181.684118 223.35143 
L 182.662569 213.196512 
L 183.151795 194.886907 
L 184.130247 137.887304 
L 184.619472 133.117023 
L 185.108698 133.604545 
L 185.597924 128.138803 
L 186.08715 110.403614 
L 187.554827 90.100656 
L 189.022505 61.244324 
L 189.51173 54.244557 
L 190.000956 51.640185 
L 190.490182 51.622224 
L 190.979408 52.737869 
L 191.468633 56.712672 
L 191.957859 57.238968 
L 192.447085 65.591896 
L 192.936311 65.232634 
L 193.425537 74.755527 
L 193.914762 71.367682 
L 194.403988 75.185613 
L 194.893214 63.181214 
L 195.38244 57.425284 
L 195.871666 45.568964 
L 196.360891 45.578165 
L 196.850117 38.559178 
L 197.339343 45.749909 
L 197.828569 57.680262 
L 198.317794 84.904264 
L 198.80702 94.355964 
L 199.296246 111.859453 
L 199.785472 122.570856 
L 200.274698 144.042661 
L 200.763923 152.336233 
L 201.253149 166.828533 
L 201.742375 174.607638 
L 202.231601 187.600425 
L 202.720827 193.041494 
L 203.210052 201.758385 
L 203.699278 205.240023 
L 204.188504 210.942466 
L 204.67773 213.659028 
L 205.166955 218.155505 
L 205.656181 223.940852 
L 206.145407 231.16342 
L 206.634633 242.969684 
L 207.123859 250.500133 
L 207.613084 260.531378 
L 208.10231 259.760484 
L 208.591536 264.062912 
L 209.080762 260.695552 
L 209.569988 261.657818 
L 210.059213 249.730027 
L 210.548439 240.717238 
L 211.526891 197.109237 
L 212.505342 122.827074 
L 212.994568 108.849218 
L 213.483794 129.965728 
L 213.97302 133.027305 
L 214.462245 100.212869 
L 214.951471 103.965991 
L 215.440697 113.039298 
L 215.929923 101.853737 
L 216.419149 104.488116 
L 216.908374 94.833329 
L 217.3976 102.846042 
L 217.886826 100.894298 
L 218.376052 106.807602 
L 218.865277 109.799324 
L 219.354503 114.766309 
L 219.843729 117.815617 
L 220.332955 123.579886 
L 220.822181 126.28337 
L 221.311406 130.998891 
L 221.800632 132.708689 
L 222.289858 132.923617 
L 222.779084 125.881527 
L 223.26831 109.72613 
L 223.757535 88.237475 
L 224.246761 74.801919 
L 224.735987 72.400076 
L 225.225213 65.629572 
L 225.714438 70.670814 
L 226.203664 90.721392 
L 226.69289 87.139821 
L 227.182116 80.838909 
L 227.671342 97.145097 
L 228.160567 98.198908 
L 228.649793 101.609052 
L 229.139019 98.515713 
L 229.628245 102.936844 
L 230.117471 98.28911 
L 230.606696 98.363725 
L 231.095922 89.363185 
L 231.585148 87.123728 
L 232.074374 77.850924 
L 232.563599 75.812644 
L 233.052825 71.819675 
L 233.542051 73.210411 
L 234.520503 82.115072 
L 235.498954 118.993562 
L 235.98818 153.418111 
L 236.477406 161.337694 
L 236.966632 148.781676 
L 237.455857 145.355567 
L 237.945083 175.054038 
L 238.434309 152.993301 
L 238.923535 158.542959 
L 239.41276 158.332568 
L 239.901986 156.263703 
L 240.391212 160.411301 
L 240.880438 153.581633 
L 241.369664 161.016657 
L 241.858889 160.884709 
L 243.815793 189.488496 
L 244.305018 197.669642 
L 245.28347 204.599103 
L 245.772696 203.109453 
L 246.751147 189.722924 
L 247.240373 170.420075 
L 247.729599 145.723184 
L 248.218825 108.976901 
L 248.70805 102.419336 
L 249.197276 107.156562 
L 249.686502 107.82194 
L 250.175728 88.985574 
L 250.664954 82.986555 
L 251.154179 81.470519 
L 252.621857 59.98743 
L 253.111082 55.581209 
L 253.600308 49.187775 
L 254.089534 45.340914 
L 254.57876 40.190263 
L 255.067986 39.168984 
L 255.557211 37.152523 
L 256.046437 39.110174 
L 256.535663 40.175498 
L 257.514115 46.323406 
L 258.00334 47.762947 
L 258.492566 45.797974 
L 259.471018 29.708996 
L 259.960243 23.652727 
L 260.449469 37.326545 
L 260.938695 55.042115 
L 261.427921 83.041674 
L 261.917147 100.675968 
L 262.406372 100.674747 
L 263.384824 139.929793 
L 265.830953 203.589026 
L 266.320179 210.376749 
L 266.809404 222.739275 
L 267.29863 227.432418 
L 267.787856 235.668927 
L 268.277082 239.658328 
L 270.723211 274.097834 
L 271.212437 277.352263 
L 271.701662 279.127604 
L 272.190888 278.794736 
L 272.680114 279.085034 
L 273.16934 270.219287 
L 274.147791 241.639085 
L 274.637017 217.774759 
L 276.104694 112.83434 
L 276.59392 127.319675 
L 277.083146 149.698613 
L 277.572372 118.415421 
L 278.061598 104.671903 
L 278.550823 127.819205 
L 279.040049 117.138312 
L 279.529275 122.465821 
L 280.018501 115.956711 
L 280.507726 122.128104 
L 280.996952 126.285147 
L 281.486178 129.137836 
L 281.975404 136.638553 
L 282.46463 140.831463 
L 282.953855 146.131368 
L 283.443081 149.61531 
L 283.932307 154.481992 
L 284.421533 157.18124 
L 284.910759 161.097612 
L 285.399984 160.733267 
L 285.88921 156.812147 
L 286.378436 141.315431 
L 287.356887 98.281852 
L 287.846113 93.436871 
L 288.335339 83.615038 
L 288.824565 70.957393 
L 289.313791 81.125821 
L 289.803016 87.207974 
L 290.292242 70.204917 
L 290.781468 72.743634 
L 291.270694 73.270642 
L 291.75992 68.750942 
L 292.249145 62.170439 
L 292.738371 58.746423 
L 293.227597 52.610537 
L 293.716823 50.945296 
L 294.206048 42.659711 
L 294.695274 43.054248 
L 295.1845 36.984482 
L 295.673726 37.76872 
L 296.162952 35.490222 
L 296.652177 35.45845 
L 297.141403 35.643486 
L 297.630629 32.54905 
L 298.119855 33.574142 
L 298.609081 36.854502 
L 299.098306 56.861942 
L 300.076758 128.296682 
L 300.565984 114.299276 
L 301.055209 89.764261 
L 301.544435 138.46951 
L 302.033661 143.458274 
L 302.522887 134.243999 
L 303.012113 165.511539 
L 303.501338 157.115333 
L 303.990564 192.358453 
L 304.47979 185.848108 
L 304.969016 209.232008 
L 305.458242 213.563099 
L 305.947467 224.490087 
L 308.393596 260.278364 
L 308.882822 266.135961 
L 309.372048 268.788719 
L 309.861274 269.370631 
L 310.350499 269.297588 
L 310.839725 271.306742 
L 311.328951 266.8437 
L 312.307403 228.862415 
L 312.796628 216.37816 
L 313.77508 162.946437 
L 314.264306 141.118138 
L 315.242757 120.059905 
L 316.221209 107.057678 
L 316.710435 106.001136 
L 317.19966 102.872145 
L 317.688886 104.131884 
L 318.178112 104.148557 
L 319.156564 110.824519 
L 320.135015 121.440136 
L 322.091918 142.853479 
L 323.07037 148.371546 
L 323.559596 146.481217 
L 324.048821 141.331838 
L 325.027273 116.765713 
L 326.49495 70.239403 
L 326.984176 65.225208 
L 327.473402 76.887212 
L 327.962628 100.95359 
L 328.451853 97.69389 
L 328.941079 78.771198 
L 329.430305 91.041298 
L 329.919531 97.02957 
L 330.408757 86.523535 
L 330.897982 85.940471 
L 331.387208 76.719589 
L 331.876434 76.246897 
L 332.36566 67.058598 
L 333.344111 57.435415 
L 334.322563 50.945237 
L 334.811789 51.231779 
L 335.301014 47.049838 
L 335.79024 51.745245 
L 336.279466 51.42317 
L 337.257918 83.763115 
L 337.747143 118.333399 
L 338.236369 142.986933 
L 338.725595 129.110393 
L 339.214821 110.014723 
L 339.704047 146.271769 
L 340.193272 141.132506 
L 340.682498 126.156847 
L 341.171724 151.099554 
L 341.66095 139.612463 
L 342.150175 165.80865 
L 342.639401 158.858118 
L 343.128627 179.605465 
L 343.617853 184.467777 
L 344.107079 198.829981 
L 344.596304 204.700034 
L 345.08553 215.947272 
L 345.574756 220.696038 
L 346.063982 231.370494 
L 346.553208 235.864759 
L 347.042433 242.273212 
L 347.531659 243.748174 
L 348.020885 243.258645 
L 348.510111 242.004745 
L 348.999337 237.937363 
L 349.488562 226.982153 
L 349.977788 196.693417 
L 350.467014 176.441694 
L 350.95624 163.121854 
L 351.934691 145.479211 
L 353.402369 107.367684 
L 353.891594 98.677978 
L 354.38082 85.475899 
L 355.359272 71.457011 
L 355.848498 71.743546 
L 356.337723 70.548646 
L 357.316175 75.703949 
L 357.805401 79.795823 
L 358.294626 85.369298 
L 358.783852 89.202236 
L 359.273078 95.545262 
L 360.25153 103.660173 
L 360.740755 104.953949 
L 361.229981 100.918046 
L 361.719207 94.252886 
L 362.208433 82.869855 
L 362.697659 75.639948 
L 363.67611 54.114328 
L 364.165336 47.633261 
L 364.654562 54.664708 
L 365.143787 75.444622 
L 365.633013 100.951724 
L 366.122239 119.124307 
L 366.611465 118.298174 
L 367.100691 126.632919 
L 367.589916 142.251582 
L 368.079142 148.787092 
L 369.54682 161.102925 
L 370.036045 162.278578 
L 370.525271 161.788052 
L 371.014497 159.039064 
L 371.992948 156.294657 
L 372.482174 159.918442 
L 372.9714 166.431843 
L 373.949852 190.818 
L 374.439077 208.532309 
L 375.417529 221.632516 
L 375.906755 217.039373 
L 376.395981 220.536141 
L 376.885206 216.902125 
L 377.374432 207.282445 
L 379.331335 124.646256 
L 379.820561 114.013768 
L 380.309787 114.118854 
L 380.799013 106.758614 
L 381.288238 94.287784 
L 381.777464 88.603215 
L 382.26669 84.373307 
L 383.734367 61.835057 
L 384.223593 56.699377 
L 384.712819 49.972801 
L 385.202045 45.11291 
L 385.69127 43.669125 
L 386.180496 46.059578 
L 386.669722 50.607267 
L 387.158948 52.356462 
L 387.648174 57.28328 
L 388.137399 60.666351 
L 388.626625 66.58494 
L 389.115851 64.146024 
L 389.605077 61.008964 
L 390.583528 40.723641 
L 391.072754 34.880908 
L 391.56198 37.582544 
L 392.051206 49.217349 
L 393.029657 97.687165 
L 393.518883 105.619103 
L 394.008109 111.021876 
L 394.497335 138.866588 
L 394.98656 147.379913 
L 395.475786 163.133095 
L 395.965012 171.17739 
L 396.454238 186.752428 
L 396.943464 195.315669 
L 397.432689 206.31058 
L 398.411141 219.176092 
L 398.900367 222.033234 
L 400.368044 237.56052 
L 400.85727 244.202701 
L 401.346496 255.05745 
L 402.324947 269.833946 
L 402.814173 268.145791 
L 403.303399 270.351402 
L 403.792625 268.210628 
L 404.28185 264.969388 
L 405.260302 235.076639 
L 405.749528 212.384795 
L 406.238753 181.17534 
L 406.727979 139.625138 
L 407.217205 111.77712 
L 407.706431 118.328631 
L 408.195657 141.991781 
L 409.174108 98.733088 
L 409.663334 118.753567 
L 410.15256 112.948876 
L 410.641786 111.918753 
L 411.131011 109.016587 
L 411.620237 107.454896 
L 412.109463 114.834275 
L 412.598689 113.074216 
L 413.087914 121.767241 
L 413.57714 124.38653 
L 414.555592 133.206582 
L 415.044818 136.280168 
L 415.534043 141.611358 
L 416.023269 143.089071 
L 416.512495 145.463521 
L 417.001721 140.725819 
L 417.490947 129.081288 
L 418.469398 87.411788 
L 418.958624 80.583058 
L 419.44785 75.647683 
L 419.937075 68.20361 
L 420.426301 80.611128 
L 420.915527 89.203893 
L 421.404753 73.567376 
L 421.893979 80.72134 
L 422.383204 86.052566 
L 422.87243 83.275208 
L 423.361656 82.545829 
L 423.850882 77.961917 
L 424.340108 78.984642 
L 424.829333 71.713104 
L 425.318559 68.577615 
L 425.807785 60.937443 
L 426.297011 57.293173 
L 426.786236 51.991519 
L 427.275462 50.204438 
L 427.764688 49.606895 
L 428.253914 49.449225 
L 429.232365 56.184761 
L 429.721591 72.376472 
L 430.210817 97.979489 
L 430.700043 134.810243 
L 431.189269 144.000216 
L 431.678494 120.104177 
L 431.678494 120.104177 
" clip-path="url(#p002ec04a82)" style="fill: none; stroke-dasharray: 5.55,2.4; stroke-dashoffset: 0; stroke: #0000ff; stroke-width: 1.5"/>
   </g>
   <g id="patch_3">
    <path d="M 46.926875 293.56 
L 46.926875 10.8 
" style="fill: none; stroke: #000000; stroke-width: 0.8; stroke-linejoin: miter; stroke-linecap: square"/>
   </g>
   <g id="patch_4">
    <path d="M 450 293.56 
L 450 10.8 
" style="fill: none; stroke: #000000; stroke-width: 0.8; stroke-linejoin: miter; stroke-linecap: square"/>
   </g>
   <g id="patch_5">
    <path d="M 46.926875 293.56 
L 450 293.56 
" style="fill: none; stroke: #000000; stroke-width: 0.8; stroke-linejoin: miter; stroke-linecap: square"/>
   </g>
   <g id="patch_6">
    <path d="M 46.926875 10.8 
L 450 10.8 
" style="fill: none; stroke: #000000; stroke-width: 0.8; stroke-linejoin: miter; stroke-linecap: square"/>
   </g>
   <g id="legend_1">
    <g id="patch_7">
     <path d="M 335.528125 286.56 
L 440.2 286.56 
Q 443 286.56 443 283.76 
L 443 244.035 
Q 443 241.235 440.2 241.235 
L 335.528125 241.235 
Q 332.728125 241.235 332.728125 244.035 
L 332.728125 283.76 
Q 332.728125 286.56 335.528125 286.56 
z
" style="fill: #ffffff; opacity: 0.8; stroke: #cccccc; stroke-linejoin: miter"/>
    </g>
    <g id="line2d_16">
     <path d="M 338.328125 252.572812 
L 352.328125 252.572812 
L 366.328125 252.572812 
" style="fill: none; stroke: #ff0000; stroke-width: 1.5; stroke-linecap: square"/>
    </g>
    <g id="text_16">
     <!-- Real -->
     <g transform="translate(377.528125 257.472812)scale(0.14 -0.14)">
      <defs>
       <path id="DejaVuSans-52" d="M 2841 2188 
Q 3044 2119 3236 1894 
Q 3428 1669 3622 1275 
L 4263 0 
L 3584 0 
L 2988 1197 
Q 2756 1666 2539 1819 
Q 2322 1972 1947 1972 
L 1259 1972 
L 1259 0 
L 628 0 
L 628 4666 
L 2053 4666 
Q 2853 4666 3247 4331 
Q 3641 3997 3641 3322 
Q 3641 2881 3436 2590 
Q 3231 2300 2841 2188 
z
M 1259 4147 
L 1259 2491 
L 2053 2491 
Q 2509 2491 2742 2702 
Q 2975 2913 2975 3322 
Q 2975 3731 2742 3939 
Q 2509 4147 2053 4147 
L 1259 4147 
z
" transform="scale(0.015625)"/>
       <path id="DejaVuSans-65" d="M 3597 1894 
L 3597 1613 
L 953 1613 
Q 991 1019 1311 708 
Q 1631 397 2203 397 
Q 2534 397 2845 478 
Q 3156 559 3463 722 
L 3463 178 
Q 3153 47 2828 -22 
Q 2503 -91 2169 -91 
Q 1331 -91 842 396 
Q 353 884 353 1716 
Q 353 2575 817 3079 
Q 1281 3584 2069 3584 
Q 2775 3584 3186 3129 
Q 3597 2675 3597 1894 
z
M 3022 2063 
Q 3016 2534 2758 2815 
Q 2500 3097 2075 3097 
Q 1594 3097 1305 2825 
Q 1016 2553 972 2059 
L 3022 2063 
z
" transform="scale(0.015625)"/>
       <path id="DejaVuSans-61" d="M 2194 1759 
Q 1497 1759 1228 1600 
Q 959 1441 959 1056 
Q 959 750 1161 570 
Q 1363 391 1709 391 
Q 2188 391 2477 730 
Q 2766 1069 2766 1631 
L 2766 1759 
L 2194 1759 
z
M 3341 1997 
L 3341 0 
L 2766 0 
L 2766 531 
Q 2569 213 2275 61 
Q 1981 -91 1556 -91 
Q 1019 -91 701 211 
Q 384 513 384 1019 
Q 384 1609 779 1909 
Q 1175 2209 1959 2209 
L 2766 2209 
L 2766 2266 
Q 2766 2663 2505 2880 
Q 2244 3097 1772 3097 
Q 1472 3097 1187 3025 
Q 903 2953 641 2809 
L 641 3341 
Q 956 3463 1253 3523 
Q 1550 3584 1831 3584 
Q 2591 3584 2966 3190 
Q 3341 2797 3341 1997 
z
" transform="scale(0.015625)"/>
       <path id="DejaVuSans-6c" d="M 603 4863 
L 1178 4863 
L 1178 0 
L 603 0 
L 603 4863 
z
" transform="scale(0.015625)"/>
      </defs>
      <use xlink:href="#DejaVuSans-52"/>
      <use xlink:href="#DejaVuSans-65" x="64.982422"/>
      <use xlink:href="#DejaVuSans-61" x="126.505859"/>
      <use xlink:href="#DejaVuSans-6c" x="187.785156"/>
     </g>
    </g>
    <g id="line2d_17">
     <path d="M 338.328125 273.148438 
L 352.328125 273.148438 
L 366.328125 273.148438 
" style="fill: none; stroke-dasharray: 5.55,2.4; stroke-dashoffset: 0; stroke: #0000ff; stroke-width: 1.5"/>
    </g>
    <g id="text_17">
     <!-- Predição -->
     <g transform="translate(377.528125 278.048437)scale(0.14 -0.14)">
      <defs>
       <path id="DejaVuSans-50" d="M 1259 4147 
L 1259 2394 
L 2053 2394 
Q 2494 2394 2734 2622 
Q 2975 2850 2975 3272 
Q 2975 3691 2734 3919 
Q 2494 4147 2053 4147 
L 1259 4147 
z
M 628 4666 
L 2053 4666 
Q 2838 4666 3239 4311 
Q 3641 3956 3641 3272 
Q 3641 2581 3239 2228 
Q 2838 1875 2053 1875 
L 1259 1875 
L 1259 0 
L 628 0 
L 628 4666 
z
" transform="scale(0.015625)"/>
       <path id="DejaVuSans-72" d="M 2631 2963 
Q 2534 3019 2420 3045 
Q 2306 3072 2169 3072 
Q 1681 3072 1420 2755 
Q 1159 2438 1159 1844 
L 1159 0 
L 581 0 
L 581 3500 
L 1159 3500 
L 1159 2956 
Q 1341 3275 1631 3429 
Q 1922 3584 2338 3584 
Q 2397 3584 2469 3576 
Q 2541 3569 2628 3553 
L 2631 2963 
z
" transform="scale(0.015625)"/>
       <path id="DejaVuSans-64" d="M 2906 2969 
L 2906 4863 
L 3481 4863 
L 3481 0 
L 2906 0 
L 2906 525 
Q 2725 213 2448 61 
Q 2172 -91 1784 -91 
Q 1150 -91 751 415 
Q 353 922 353 1747 
Q 353 2572 751 3078 
Q 1150 3584 1784 3584 
Q 2172 3584 2448 3432 
Q 2725 3281 2906 2969 
z
M 947 1747 
Q 947 1113 1208 752 
Q 1469 391 1925 391 
Q 2381 391 2643 752 
Q 2906 1113 2906 1747 
Q 2906 2381 2643 2742 
Q 2381 3103 1925 3103 
Q 1469 3103 1208 2742 
Q 947 2381 947 1747 
z
" transform="scale(0.015625)"/>
       <path id="DejaVuSans-69" d="M 603 3500 
L 1178 3500 
L 1178 0 
L 603 0 
L 603 3500 
z
M 603 4863 
L 1178 4863 
L 1178 4134 
L 603 4134 
L 603 4863 
z
" transform="scale(0.015625)"/>
       <path id="DejaVuSans-e7" d="M 3122 3366 
L 3122 2828 
Q 2878 2963 2633 3030 
Q 2388 3097 2138 3097 
Q 1578 3097 1268 2742 
Q 959 2388 959 1747 
Q 959 1106 1268 751 
Q 1578 397 2138 397 
Q 2388 397 2633 464 
Q 2878 531 3122 666 
L 3122 134 
Q 2881 22 2623 -34 
Q 2366 -91 2075 -91 
Q 1284 -91 818 406 
Q 353 903 353 1747 
Q 353 2603 823 3093 
Q 1294 3584 2113 3584 
Q 2378 3584 2631 3529 
Q 2884 3475 3122 3366 
z
M 2311 0 
Q 2482 -194 2566 -358 
Q 2651 -522 2651 -672 
Q 2651 -950 2463 -1092 
Q 2276 -1234 1907 -1234 
Q 1764 -1234 1628 -1215 
Q 1492 -1197 1357 -1159 
L 1357 -750 
Q 1464 -803 1579 -826 
Q 1695 -850 1842 -850 
Q 2026 -850 2120 -775 
Q 2214 -700 2214 -556 
Q 2214 -463 2146 -327 
Q 2079 -191 1939 0 
L 2311 0 
z
" transform="scale(0.015625)"/>
       <path id="DejaVuSans-e3" d="M 2194 1759 
Q 1497 1759 1228 1600 
Q 959 1441 959 1056 
Q 959 750 1161 570 
Q 1363 391 1709 391 
Q 2188 391 2477 730 
Q 2766 1069 2766 1631 
L 2766 1759 
L 2194 1759 
z
M 3341 1997 
L 3341 0 
L 2766 0 
L 2766 531 
Q 2569 213 2275 61 
Q 1981 -91 1556 -91 
Q 1019 -91 701 211 
Q 384 513 384 1019 
Q 384 1609 779 1909 
Q 1175 2209 1959 2209 
L 2766 2209 
L 2766 2266 
Q 2766 2663 2505 2880 
Q 2244 3097 1772 3097 
Q 1472 3097 1187 3025 
Q 903 2953 641 2809 
L 641 3341 
Q 956 3463 1253 3523 
Q 1550 3584 1831 3584 
Q 2591 3584 2966 3190 
Q 3341 2797 3341 1997 
z
M 1844 4281 
L 1665 4453 
Q 1597 4516 1545 4545 
Q 1494 4575 1453 4575 
Q 1334 4575 1278 4461 
Q 1222 4347 1215 4091 
L 825 4091 
Q 831 4513 990 4742 
Q 1150 4972 1434 4972 
Q 1553 4972 1653 4928 
Q 1753 4884 1869 4781 
L 2047 4609 
Q 2115 4547 2167 4517 
Q 2219 4488 2259 4488 
Q 2378 4488 2434 4602 
Q 2490 4716 2497 4972 
L 2887 4972 
Q 2881 4550 2721 4320 
Q 2562 4091 2278 4091 
Q 2159 4091 2059 4134 
Q 1959 4178 1844 4281 
z
" transform="scale(0.015625)"/>
       <path id="DejaVuSans-6f" d="M 1959 3097 
Q 1497 3097 1228 2736 
Q 959 2375 959 1747 
Q 959 1119 1226 758 
Q 1494 397 1959 397 
Q 2419 397 2687 759 
Q 2956 1122 2956 1747 
Q 2956 2369 2687 2733 
Q 2419 3097 1959 3097 
z
M 1959 3584 
Q 2709 3584 3137 3096 
Q 3566 2609 3566 1747 
Q 3566 888 3137 398 
Q 2709 -91 1959 -91 
Q 1206 -91 779 398 
Q 353 888 353 1747 
Q 353 2609 779 3096 
Q 1206 3584 1959 3584 
z
" transform="scale(0.015625)"/>
      </defs>
      <use xlink:href="#DejaVuSans-50"/>
      <use xlink:href="#DejaVuSans-72" x="58.552734"/>
      <use xlink:href="#DejaVuSans-65" x="97.416016"/>
      <use xlink:href="#DejaVuSans-64" x="158.939453"/>
      <use xlink:href="#DejaVuSans-69" x="222.416016"/>
      <use xlink:href="#DejaVuSans-e7" x="250.199219"/>
      <use xlink:href="#DejaVuSans-e3" x="305.179688"/>
      <use xlink:href="#DejaVuSans-6f" x="366.458984"/>
     </g>
    </g>
   </g>
  </g>
 </g>
 <defs>
  <clipPath id="p002ec04a82">
   <rect x="46.926875" y="10.8" width="403.073125" height="282.76"/>
  </clipPath>
 </defs>
</svg>
