<?xml version="1.0" encoding="utf-8" standalone="no"?>
<!DOCTYPE svg PUBLIC "-//W3C//DTD SVG 1.1//EN"
  "http://www.w3.org/Graphics/SVG/1.1/DTD/svg11.dtd">
<svg height="288pt" version="1.1" viewBox="0 0 432 288" width="432pt" xmlns="http://www.w3.org/2000/svg" xmlns:xlink="http://www.w3.org/1999/xlink">
 <metadata>
  <rdf:RDF xmlns:cc="http://creativecommons.org/ns#" xmlns:dc="http://purl.org/dc/elements/1.1/" xmlns:rdf="http://www.w3.org/1999/02/22-rdf-syntax-ns#">
   <cc:Work>
    <dc:type rdf:resource="http://purl.org/dc/dcmitype/StillImage"/>
    <dc:date>2022-09-28T20:52:24.141414</dc:date>
    <dc:format>image/svg+xml</dc:format>
    <dc:creator>
     <cc:Agent>
      <dc:title>Matplotlib v3.4.3, https://matplotlib.org/</dc:title>
     </cc:Agent>
    </dc:creator>
   </cc:Work>
  </rdf:RDF>
 </metadata>
 <defs>
  <style type="text/css">*{stroke-linecap:butt;stroke-linejoin:round;}</style>
 </defs>
 <g id="figure_1">
  <g id="patch_1">
   <path d="M 0 288 
L 432 288 
L 432 0 
L 0 0 
z
" style="fill:none;"/>
  </g>
  <g id="axes_1">
   <g id="patch_2">
    <path d="M 47.120313 235.2 
L 420.761822 235.2 
L 420.761822 15.649522 
L 47.120313 15.649522 
z
" style="fill:#ffffff;"/>
   </g>
   <g id="matplotlib.axis_1">
    <g id="xtick_1">
     <g id="line2d_1">
      <defs>
       <path d="M 0 0 
L 0 3.5 
" id="m5adb8bd120" style="stroke:#000000;stroke-width:0.8;"/>
      </defs>
      <g>
       <use style="stroke:#000000;stroke-width:0.8;" x="86.779191" xlink:href="#m5adb8bd120" y="235.2"/>
      </g>
     </g>
     <g id="text_1">
      <!-- 4300 -->
      <g transform="translate(71.509191 251.318125)scale(0.12 -0.12)">
       <defs>
        <path d="M 2419 4116 
L 825 1625 
L 2419 1625 
L 2419 4116 
z
M 2253 4666 
L 3047 4666 
L 3047 1625 
L 3713 1625 
L 3713 1100 
L 3047 1100 
L 3047 0 
L 2419 0 
L 2419 1100 
L 313 1100 
L 313 1709 
L 2253 4666 
z
" id="DejaVuSans-34" transform="scale(0.015625)"/>
        <path d="M 2597 2516 
Q 3050 2419 3304 2112 
Q 3559 1806 3559 1356 
Q 3559 666 3084 287 
Q 2609 -91 1734 -91 
Q 1441 -91 1130 -33 
Q 819 25 488 141 
L 488 750 
Q 750 597 1062 519 
Q 1375 441 1716 441 
Q 2309 441 2620 675 
Q 2931 909 2931 1356 
Q 2931 1769 2642 2001 
Q 2353 2234 1838 2234 
L 1294 2234 
L 1294 2753 
L 1863 2753 
Q 2328 2753 2575 2939 
Q 2822 3125 2822 3475 
Q 2822 3834 2567 4026 
Q 2313 4219 1838 4219 
Q 1578 4219 1281 4162 
Q 984 4106 628 3988 
L 628 4550 
Q 988 4650 1302 4700 
Q 1616 4750 1894 4750 
Q 2613 4750 3031 4423 
Q 3450 4097 3450 3541 
Q 3450 3153 3228 2886 
Q 3006 2619 2597 2516 
z
" id="DejaVuSans-33" transform="scale(0.015625)"/>
        <path d="M 2034 4250 
Q 1547 4250 1301 3770 
Q 1056 3291 1056 2328 
Q 1056 1369 1301 889 
Q 1547 409 2034 409 
Q 2525 409 2770 889 
Q 3016 1369 3016 2328 
Q 3016 3291 2770 3770 
Q 2525 4250 2034 4250 
z
M 2034 4750 
Q 2819 4750 3233 4129 
Q 3647 3509 3647 2328 
Q 3647 1150 3233 529 
Q 2819 -91 2034 -91 
Q 1250 -91 836 529 
Q 422 1150 422 2328 
Q 422 3509 836 4129 
Q 1250 4750 2034 4750 
z
" id="DejaVuSans-30" transform="scale(0.015625)"/>
       </defs>
       <use xlink:href="#DejaVuSans-34"/>
       <use x="63.623047" xlink:href="#DejaVuSans-33"/>
       <use x="127.246094" xlink:href="#DejaVuSans-30"/>
       <use x="190.869141" xlink:href="#DejaVuSans-30"/>
      </g>
     </g>
    </g>
    <g id="xtick_2">
     <g id="line2d_2">
      <g>
       <use style="stroke:#000000;stroke-width:0.8;" x="132.129538" xlink:href="#m5adb8bd120" y="235.2"/>
      </g>
     </g>
     <g id="text_2">
      <!-- 4400 -->
      <g transform="translate(116.859538 251.318125)scale(0.12 -0.12)">
       <use xlink:href="#DejaVuSans-34"/>
       <use x="63.623047" xlink:href="#DejaVuSans-34"/>
       <use x="127.246094" xlink:href="#DejaVuSans-30"/>
       <use x="190.869141" xlink:href="#DejaVuSans-30"/>
      </g>
     </g>
    </g>
    <g id="xtick_3">
     <g id="line2d_3">
      <g>
       <use style="stroke:#000000;stroke-width:0.8;" x="177.479885" xlink:href="#m5adb8bd120" y="235.2"/>
      </g>
     </g>
     <g id="text_3">
      <!-- 4500 -->
      <g transform="translate(162.209885 251.318125)scale(0.12 -0.12)">
       <defs>
        <path d="M 691 4666 
L 3169 4666 
L 3169 4134 
L 1269 4134 
L 1269 2991 
Q 1406 3038 1543 3061 
Q 1681 3084 1819 3084 
Q 2600 3084 3056 2656 
Q 3513 2228 3513 1497 
Q 3513 744 3044 326 
Q 2575 -91 1722 -91 
Q 1428 -91 1123 -41 
Q 819 9 494 109 
L 494 744 
Q 775 591 1075 516 
Q 1375 441 1709 441 
Q 2250 441 2565 725 
Q 2881 1009 2881 1497 
Q 2881 1984 2565 2268 
Q 2250 2553 1709 2553 
Q 1456 2553 1204 2497 
Q 953 2441 691 2322 
L 691 4666 
z
" id="DejaVuSans-35" transform="scale(0.015625)"/>
       </defs>
       <use xlink:href="#DejaVuSans-34"/>
       <use x="63.623047" xlink:href="#DejaVuSans-35"/>
       <use x="127.246094" xlink:href="#DejaVuSans-30"/>
       <use x="190.869141" xlink:href="#DejaVuSans-30"/>
      </g>
     </g>
    </g>
    <g id="xtick_4">
     <g id="line2d_4">
      <g>
       <use style="stroke:#000000;stroke-width:0.8;" x="222.830232" xlink:href="#m5adb8bd120" y="235.2"/>
      </g>
     </g>
     <g id="text_4">
      <!-- 4600 -->
      <g transform="translate(207.560232 251.318125)scale(0.12 -0.12)">
       <defs>
        <path d="M 2113 2584 
Q 1688 2584 1439 2293 
Q 1191 2003 1191 1497 
Q 1191 994 1439 701 
Q 1688 409 2113 409 
Q 2538 409 2786 701 
Q 3034 994 3034 1497 
Q 3034 2003 2786 2293 
Q 2538 2584 2113 2584 
z
M 3366 4563 
L 3366 3988 
Q 3128 4100 2886 4159 
Q 2644 4219 2406 4219 
Q 1781 4219 1451 3797 
Q 1122 3375 1075 2522 
Q 1259 2794 1537 2939 
Q 1816 3084 2150 3084 
Q 2853 3084 3261 2657 
Q 3669 2231 3669 1497 
Q 3669 778 3244 343 
Q 2819 -91 2113 -91 
Q 1303 -91 875 529 
Q 447 1150 447 2328 
Q 447 3434 972 4092 
Q 1497 4750 2381 4750 
Q 2619 4750 2861 4703 
Q 3103 4656 3366 4563 
z
" id="DejaVuSans-36" transform="scale(0.015625)"/>
       </defs>
       <use xlink:href="#DejaVuSans-34"/>
       <use x="63.623047" xlink:href="#DejaVuSans-36"/>
       <use x="127.246094" xlink:href="#DejaVuSans-30"/>
       <use x="190.869141" xlink:href="#DejaVuSans-30"/>
      </g>
     </g>
    </g>
    <g id="xtick_5">
     <g id="line2d_5">
      <g>
       <use style="stroke:#000000;stroke-width:0.8;" x="268.180579" xlink:href="#m5adb8bd120" y="235.2"/>
      </g>
     </g>
     <g id="text_5">
      <!-- 4700 -->
      <g transform="translate(252.910579 251.318125)scale(0.12 -0.12)">
       <defs>
        <path d="M 525 4666 
L 3525 4666 
L 3525 4397 
L 1831 0 
L 1172 0 
L 2766 4134 
L 525 4134 
L 525 4666 
z
" id="DejaVuSans-37" transform="scale(0.015625)"/>
       </defs>
       <use xlink:href="#DejaVuSans-34"/>
       <use x="63.623047" xlink:href="#DejaVuSans-37"/>
       <use x="127.246094" xlink:href="#DejaVuSans-30"/>
       <use x="190.869141" xlink:href="#DejaVuSans-30"/>
      </g>
     </g>
    </g>
    <g id="xtick_6">
     <g id="line2d_6">
      <g>
       <use style="stroke:#000000;stroke-width:0.8;" x="313.530926" xlink:href="#m5adb8bd120" y="235.2"/>
      </g>
     </g>
     <g id="text_6">
      <!-- 4800 -->
      <g transform="translate(298.260926 251.318125)scale(0.12 -0.12)">
       <defs>
        <path d="M 2034 2216 
Q 1584 2216 1326 1975 
Q 1069 1734 1069 1313 
Q 1069 891 1326 650 
Q 1584 409 2034 409 
Q 2484 409 2743 651 
Q 3003 894 3003 1313 
Q 3003 1734 2745 1975 
Q 2488 2216 2034 2216 
z
M 1403 2484 
Q 997 2584 770 2862 
Q 544 3141 544 3541 
Q 544 4100 942 4425 
Q 1341 4750 2034 4750 
Q 2731 4750 3128 4425 
Q 3525 4100 3525 3541 
Q 3525 3141 3298 2862 
Q 3072 2584 2669 2484 
Q 3125 2378 3379 2068 
Q 3634 1759 3634 1313 
Q 3634 634 3220 271 
Q 2806 -91 2034 -91 
Q 1263 -91 848 271 
Q 434 634 434 1313 
Q 434 1759 690 2068 
Q 947 2378 1403 2484 
z
M 1172 3481 
Q 1172 3119 1398 2916 
Q 1625 2713 2034 2713 
Q 2441 2713 2670 2916 
Q 2900 3119 2900 3481 
Q 2900 3844 2670 4047 
Q 2441 4250 2034 4250 
Q 1625 4250 1398 4047 
Q 1172 3844 1172 3481 
z
" id="DejaVuSans-38" transform="scale(0.015625)"/>
       </defs>
       <use xlink:href="#DejaVuSans-34"/>
       <use x="63.623047" xlink:href="#DejaVuSans-38"/>
       <use x="127.246094" xlink:href="#DejaVuSans-30"/>
       <use x="190.869141" xlink:href="#DejaVuSans-30"/>
      </g>
     </g>
    </g>
    <g id="xtick_7">
     <g id="line2d_7">
      <g>
       <use style="stroke:#000000;stroke-width:0.8;" x="358.881273" xlink:href="#m5adb8bd120" y="235.2"/>
      </g>
     </g>
     <g id="text_7">
      <!-- 4900 -->
      <g transform="translate(343.611273 251.318125)scale(0.12 -0.12)">
       <defs>
        <path d="M 703 97 
L 703 672 
Q 941 559 1184 500 
Q 1428 441 1663 441 
Q 2288 441 2617 861 
Q 2947 1281 2994 2138 
Q 2813 1869 2534 1725 
Q 2256 1581 1919 1581 
Q 1219 1581 811 2004 
Q 403 2428 403 3163 
Q 403 3881 828 4315 
Q 1253 4750 1959 4750 
Q 2769 4750 3195 4129 
Q 3622 3509 3622 2328 
Q 3622 1225 3098 567 
Q 2575 -91 1691 -91 
Q 1453 -91 1209 -44 
Q 966 3 703 97 
z
M 1959 2075 
Q 2384 2075 2632 2365 
Q 2881 2656 2881 3163 
Q 2881 3666 2632 3958 
Q 2384 4250 1959 4250 
Q 1534 4250 1286 3958 
Q 1038 3666 1038 3163 
Q 1038 2656 1286 2365 
Q 1534 2075 1959 2075 
z
" id="DejaVuSans-39" transform="scale(0.015625)"/>
       </defs>
       <use xlink:href="#DejaVuSans-34"/>
       <use x="63.623047" xlink:href="#DejaVuSans-39"/>
       <use x="127.246094" xlink:href="#DejaVuSans-30"/>
       <use x="190.869141" xlink:href="#DejaVuSans-30"/>
      </g>
     </g>
    </g>
    <g id="xtick_8">
     <g id="line2d_8">
      <g>
       <use style="stroke:#000000;stroke-width:0.8;" x="404.23162" xlink:href="#m5adb8bd120" y="235.2"/>
      </g>
     </g>
     <g id="text_8">
      <!-- 5000 -->
      <g transform="translate(388.96162 251.318125)scale(0.12 -0.12)">
       <use xlink:href="#DejaVuSans-35"/>
       <use x="63.623047" xlink:href="#DejaVuSans-30"/>
       <use x="127.246094" xlink:href="#DejaVuSans-30"/>
       <use x="190.869141" xlink:href="#DejaVuSans-30"/>
      </g>
     </g>
    </g>
    <g id="text_9">
     <!-- $t$ -->
     <g transform="translate(230.341067 271.490937)scale(0.18 -0.18)">
      <defs>
       <path d="M 2706 3500 
L 2619 3053 
L 1472 3053 
L 1100 1153 
Q 1081 1047 1072 975 
Q 1063 903 1063 863 
Q 1063 663 1183 572 
Q 1303 481 1569 481 
L 2150 481 
L 2053 0 
L 1503 0 
Q 991 0 739 200 
Q 488 400 488 806 
Q 488 878 497 964 
Q 506 1050 525 1153 
L 897 3053 
L 409 3053 
L 500 3500 
L 978 3500 
L 1172 4494 
L 1747 4494 
L 1556 3500 
L 2706 3500 
z
" id="DejaVuSans-Oblique-74" transform="scale(0.015625)"/>
      </defs>
      <use transform="translate(0 0.78125)" xlink:href="#DejaVuSans-Oblique-74"/>
     </g>
    </g>
   </g>
   <g id="matplotlib.axis_2">
    <g id="ytick_1">
     <g id="line2d_9">
      <defs>
       <path d="M 0 0 
L -3.5 0 
" id="meaa70d90d7" style="stroke:#000000;stroke-width:0.8;"/>
      </defs>
      <g>
       <use style="stroke:#000000;stroke-width:0.8;" x="47.120313" xlink:href="#meaa70d90d7" y="209.689279"/>
      </g>
     </g>
     <g id="text_10">
      <!-- 0.4 -->
      <g transform="translate(21.036563 214.248342)scale(0.12 -0.12)">
       <defs>
        <path d="M 684 794 
L 1344 794 
L 1344 0 
L 684 0 
L 684 794 
z
" id="DejaVuSans-2e" transform="scale(0.015625)"/>
       </defs>
       <use xlink:href="#DejaVuSans-30"/>
       <use x="63.623047" xlink:href="#DejaVuSans-2e"/>
       <use x="95.410156" xlink:href="#DejaVuSans-34"/>
      </g>
     </g>
    </g>
    <g id="ytick_2">
     <g id="line2d_10">
      <g>
       <use style="stroke:#000000;stroke-width:0.8;" x="47.120313" xlink:href="#meaa70d90d7" y="170.911716"/>
      </g>
     </g>
     <g id="text_11">
      <!-- 0.6 -->
      <g transform="translate(21.036563 175.470778)scale(0.12 -0.12)">
       <use xlink:href="#DejaVuSans-30"/>
       <use x="63.623047" xlink:href="#DejaVuSans-2e"/>
       <use x="95.410156" xlink:href="#DejaVuSans-36"/>
      </g>
     </g>
    </g>
    <g id="ytick_3">
     <g id="line2d_11">
      <g>
       <use style="stroke:#000000;stroke-width:0.8;" x="47.120313" xlink:href="#meaa70d90d7" y="132.134152"/>
      </g>
     </g>
     <g id="text_12">
      <!-- 0.8 -->
      <g transform="translate(21.036563 136.693214)scale(0.12 -0.12)">
       <use xlink:href="#DejaVuSans-30"/>
       <use x="63.623047" xlink:href="#DejaVuSans-2e"/>
       <use x="95.410156" xlink:href="#DejaVuSans-38"/>
      </g>
     </g>
    </g>
    <g id="ytick_4">
     <g id="line2d_12">
      <g>
       <use style="stroke:#000000;stroke-width:0.8;" x="47.120313" xlink:href="#meaa70d90d7" y="93.356588"/>
      </g>
     </g>
     <g id="text_13">
      <!-- 1.0 -->
      <g transform="translate(21.036563 97.915651)scale(0.12 -0.12)">
       <defs>
        <path d="M 794 531 
L 1825 531 
L 1825 4091 
L 703 3866 
L 703 4441 
L 1819 4666 
L 2450 4666 
L 2450 531 
L 3481 531 
L 3481 0 
L 794 0 
L 794 531 
z
" id="DejaVuSans-31" transform="scale(0.015625)"/>
       </defs>
       <use xlink:href="#DejaVuSans-31"/>
       <use x="63.623047" xlink:href="#DejaVuSans-2e"/>
       <use x="95.410156" xlink:href="#DejaVuSans-30"/>
      </g>
     </g>
    </g>
    <g id="ytick_5">
     <g id="line2d_13">
      <g>
       <use style="stroke:#000000;stroke-width:0.8;" x="47.120313" xlink:href="#meaa70d90d7" y="54.579024"/>
      </g>
     </g>
     <g id="text_14">
      <!-- 1.2 -->
      <g transform="translate(21.036563 59.138087)scale(0.12 -0.12)">
       <defs>
        <path d="M 1228 531 
L 3431 531 
L 3431 0 
L 469 0 
L 469 531 
Q 828 903 1448 1529 
Q 2069 2156 2228 2338 
Q 2531 2678 2651 2914 
Q 2772 3150 2772 3378 
Q 2772 3750 2511 3984 
Q 2250 4219 1831 4219 
Q 1534 4219 1204 4116 
Q 875 4013 500 3803 
L 500 4441 
Q 881 4594 1212 4672 
Q 1544 4750 1819 4750 
Q 2544 4750 2975 4387 
Q 3406 4025 3406 3419 
Q 3406 3131 3298 2873 
Q 3191 2616 2906 2266 
Q 2828 2175 2409 1742 
Q 1991 1309 1228 531 
z
" id="DejaVuSans-32" transform="scale(0.015625)"/>
       </defs>
       <use xlink:href="#DejaVuSans-31"/>
       <use x="63.623047" xlink:href="#DejaVuSans-2e"/>
       <use x="95.410156" xlink:href="#DejaVuSans-32"/>
      </g>
     </g>
    </g>
    <g id="ytick_6">
     <g id="line2d_14">
      <g>
       <use style="stroke:#000000;stroke-width:0.8;" x="47.120313" xlink:href="#meaa70d90d7" y="15.801461"/>
      </g>
     </g>
     <g id="text_15">
      <!-- 1.4 -->
      <g transform="translate(21.036563 20.360523)scale(0.12 -0.12)">
       <use xlink:href="#DejaVuSans-31"/>
       <use x="63.623047" xlink:href="#DejaVuSans-2e"/>
       <use x="95.410156" xlink:href="#DejaVuSans-34"/>
      </g>
     </g>
    </g>
    <g id="text_16">
     <!-- $p$ -->
     <g transform="translate(11.276563 121.644761)scale(0.18 -0.18)">
      <defs>
       <path d="M 3175 2156 
Q 3175 2616 2975 2859 
Q 2775 3103 2400 3103 
Q 2144 3103 1911 2972 
Q 1678 2841 1497 2591 
Q 1319 2344 1212 1994 
Q 1106 1644 1106 1300 
Q 1106 863 1306 627 
Q 1506 391 1875 391 
Q 2147 391 2380 519 
Q 2613 647 2778 891 
Q 2956 1147 3065 1494 
Q 3175 1841 3175 2156 
z
M 1394 2969 
Q 1625 3272 1939 3428 
Q 2253 3584 2638 3584 
Q 3175 3584 3472 3232 
Q 3769 2881 3769 2247 
Q 3769 1728 3584 1258 
Q 3400 788 3053 416 
Q 2822 169 2531 39 
Q 2241 -91 1919 -91 
Q 1547 -91 1294 64 
Q 1041 219 916 525 
L 556 -1331 
L -19 -1331 
L 922 3500 
L 1497 3500 
L 1394 2969 
z
" id="DejaVuSans-Oblique-70" transform="scale(0.015625)"/>
      </defs>
      <use xlink:href="#DejaVuSans-Oblique-70"/>
     </g>
    </g>
   </g>
   <g id="line2d_15">
    <path clip-path="url(#p9a5a5e7f9b)" d="M 64.104017 91.142578 
L 64.557521 94.792809 
L 65.011024 97.428602 
L 65.464528 98.900394 
L 65.918031 99.172891 
L 66.371535 98.353114 
L 67.278542 94.684984 
L 67.732045 92.860679 
L 68.185549 91.954362 
L 68.639052 92.727547 
L 69.092556 95.755843 
L 69.546059 101.086565 
L 71.813576 136.784004 
L 72.26708 141.082312 
L 72.720583 143.554882 
L 73.174087 144.083353 
L 73.62759 142.715299 
L 74.081094 139.68393 
L 74.988101 130.306843 
L 76.348611 115.265211 
L 76.802115 111.606405 
L 77.255618 108.989988 
L 77.709122 107.367371 
L 78.616129 105.646217 
L 79.069632 104.208218 
L 79.523135 101.347265 
L 79.976639 96.644479 
L 80.883646 83.182343 
L 81.790653 69.529973 
L 82.69766 58.967484 
L 84.05817 47.031096 
L 85.418681 36.931414 
L 85.872184 34.571776 
L 86.325688 33.089339 
L 86.779191 32.530156 
L 87.232694 32.7588 
L 87.686198 33.521492 
L 88.593205 35.737638 
L 89.046708 37.12327 
L 89.500212 39.050328 
L 89.953715 42.0947 
L 90.407219 46.906199 
L 90.860722 53.869416 
L 91.767729 73.323015 
L 94.942253 150.395021 
L 96.302764 176.835538 
L 97.209771 191.164681 
L 98.116778 202.716717 
L 99.023785 211.72903 
L 99.930792 218.325688 
L 100.384295 220.48256 
L 100.837799 221.481107 
L 101.291302 220.770747 
L 101.744806 217.597689 
L 102.198309 211.164216 
L 102.651812 201.039525 
L 103.558819 172.393046 
L 104.465826 142.817565 
L 105.372833 121.044683 
L 105.826337 113.718614 
L 106.27984 108.574917 
L 106.733344 105.353761 
L 107.186847 103.774049 
L 107.640351 103.561011 
L 108.093854 104.460085 
L 108.547358 106.243885 
L 109.454365 111.690579 
L 111.721882 127.667351 
L 112.175385 129.033024 
L 112.628889 128.690106 
L 113.082392 126.132059 
L 113.535896 121.108962 
L 114.442903 104.985633 
L 115.34991 87.620646 
L 115.803413 81.158855 
L 116.256917 76.583702 
L 116.71042 73.549752 
L 117.617427 69.952888 
L 118.524434 66.602427 
L 119.431441 61.529101 
L 120.338448 54.624547 
L 122.152462 39.936745 
L 123.059469 34.098613 
L 123.512972 31.867143 
L 123.966476 30.637752 
L 124.419979 31.281691 
L 124.873483 34.664726 
L 125.326986 40.95065 
L 126.233993 59.162899 
L 128.048007 97.829133 
L 130.769028 148.103056 
L 132.583042 179.269477 
L 133.943552 199.016296 
L 134.850559 209.476454 
L 135.304062 213.352758 
L 135.757566 215.860686 
L 136.211069 216.523165 
L 136.664573 214.810377 
L 137.118076 210.264349 
L 137.57158 202.683856 
L 138.478587 179.662264 
L 140.292601 125.565359 
L 141.199607 106.35188 
L 141.653111 99.755945 
L 142.106614 95.103326 
L 142.560118 92.238606 
L 143.013621 90.97058 
L 143.467125 91.096181 
L 143.920628 92.412334 
L 144.374132 94.716228 
L 145.281139 101.418249 
L 146.641649 112.49917 
L 147.095153 114.951214 
L 147.548656 116.012745 
L 148.00216 115.255607 
L 148.455663 112.386462 
L 148.909166 107.338027 
L 149.816173 92.255667 
L 150.72318 77.67038 
L 151.176684 73.577576 
L 151.630187 72.06985 
L 152.083691 72.648621 
L 152.537194 74.5633 
L 153.897705 81.510732 
L 154.351208 82.580262 
L 154.804712 82.527712 
L 155.258215 81.258225 
L 155.711719 78.829168 
L 156.618725 71.412864 
L 157.979236 58.930831 
L 158.432739 55.76967 
L 158.886243 53.844493 
L 159.339746 53.859638 
L 159.79325 56.523135 
L 160.246753 62.046106 
L 161.15376 78.748962 
L 162.060767 95.991791 
L 162.967774 108.648479 
L 163.421278 112.845252 
L 163.874781 115.834041 
L 164.781788 119.722774 
L 165.235291 121.55228 
L 165.688795 123.892425 
L 166.142298 127.052664 
L 167.049305 136.213902 
L 168.409816 154.791749 
L 169.316823 167.23979 
L 169.770326 172.420961 
L 170.22383 176.206532 
L 170.677333 177.917698 
L 171.130837 176.891495 
L 171.58434 172.7605 
L 172.037843 165.720209 
L 172.94485 146.112921 
L 174.758864 105.474504 
L 176.119375 81.111304 
L 177.026382 67.759724 
L 177.933389 57.786662 
L 178.386892 54.516441 
L 178.840395 52.500605 
L 179.293899 51.691139 
L 179.747402 51.932323 
L 180.200906 52.960078 
L 181.107913 55.766327 
L 181.561416 56.531298 
L 182.01492 56.213435 
L 182.468423 54.53274 
L 182.921927 51.542972 
L 183.828934 43.906456 
L 184.282437 41.236375 
L 184.735941 40.718577 
L 185.189444 42.96184 
L 185.642948 48.049284 
L 186.096451 55.643436 
L 187.003458 76.00816 
L 189.270975 131.645252 
L 190.177982 149.041936 
L 191.084989 162.416419 
L 191.991996 172.613997 
L 194.259513 196.544649 
L 195.16652 205.441246 
L 195.620024 208.682952 
L 196.073527 210.538766 
L 196.527031 210.387758 
L 196.980534 207.44699 
L 197.434038 200.964103 
L 197.887541 190.693662 
L 200.608562 113.965162 
L 201.515569 100.705327 
L 201.969072 96.337693 
L 202.422576 93.22202 
L 202.876079 91.238528 
L 203.329583 90.315451 
L 203.783086 90.397783 
L 204.23659 91.414702 
L 204.690093 93.258322 
L 205.5971 98.760125 
L 206.504107 105.010501 
L 206.957611 107.492705 
L 207.411114 108.847478 
L 207.864618 108.476376 
L 208.318121 105.898581 
L 208.771625 100.976456 
L 210.585638 73.022114 
L 211.039142 69.462643 
L 211.492645 68.148842 
L 211.946149 68.686777 
L 212.399652 70.543579 
L 214.213666 81.285079 
L 214.66717 82.841864 
L 215.120673 83.41389 
L 215.574177 82.899955 
L 216.02768 81.323242 
L 216.481184 78.837807 
L 218.295197 66.637495 
L 218.748701 65.539039 
L 219.202204 66.607068 
L 219.655708 70.384896 
L 220.109211 76.747592 
L 222.376729 117.527944 
L 222.830232 123.067152 
L 223.283736 127.15864 
L 223.737239 129.864523 
L 224.190743 131.385647 
L 224.644246 132.042956 
L 225.551253 132.408068 
L 226.004756 132.956501 
L 226.45826 134.206975 
L 226.911763 136.346282 
L 227.365267 139.39622 
L 228.272274 147.543161 
L 229.179281 156.00777 
L 229.632784 158.961992 
L 230.086288 160.040196 
L 230.539791 158.463126 
L 230.993295 153.787407 
L 231.446798 146.216292 
L 232.807308 115.38625 
L 234.167819 87.545756 
L 235.074826 72.962683 
L 235.981833 61.028875 
L 236.88884 51.331054 
L 237.795847 43.894022 
L 238.24935 41.194209 
L 238.702854 39.266772 
L 239.156357 38.10191 
L 239.609861 37.575365 
L 240.516867 37.250707 
L 240.970371 36.610901 
L 241.423874 35.169715 
L 242.784385 29.029729 
L 243.237888 29.634194 
L 243.691392 33.105321 
L 244.144895 39.501735 
L 245.051902 58.99708 
L 248.67993 151.83613 
L 249.586937 169.558219 
L 250.493944 184.239358 
L 251.854454 201.977719 
L 253.214965 216.606277 
L 254.121972 223.487007 
L 254.575475 225.220433 
L 255.028979 225.12228 
L 255.482482 222.415567 
L 255.935985 216.234904 
L 256.389489 206.060009 
L 257.296496 176.554693 
L 258.203503 146.223617 
L 259.11051 124.178761 
L 259.564013 116.741733 
L 260.017517 111.431035 
L 260.47102 107.965612 
L 260.924524 106.070764 
L 261.378027 105.504583 
L 261.831531 106.066538 
L 262.285034 107.592149 
L 262.738538 109.936204 
L 263.645544 116.482617 
L 265.459558 131.121472 
L 265.913062 133.103614 
L 266.366565 133.337467 
L 266.820069 131.257067 
L 267.273572 126.56461 
L 268.180579 110.527795 
L 269.087586 92.175053 
L 269.994593 79.226971 
L 270.448097 75.1846 
L 271.355103 69.95656 
L 272.26211 65.669063 
L 273.169117 60.14197 
L 274.529628 49.074271 
L 275.890138 38.347799 
L 276.797145 32.700457 
L 277.250649 30.304993 
L 277.704152 28.50797 
L 278.157656 28.072205 
L 278.611159 30.012101 
L 279.064662 34.899311 
L 279.971669 51.644696 
L 283.146194 119.717873 
L 285.413711 163.250443 
L 286.774221 186.058444 
L 288.134732 204.943099 
L 289.041739 214.532409 
L 289.495242 217.818918 
L 289.948746 219.610342 
L 290.402249 219.415638 
L 290.855753 216.697783 
L 291.309256 211.010356 
L 291.76276 202.20031 
L 292.669767 176.918738 
L 294.030277 134.509698 
L 294.937284 113.305189 
L 295.390787 105.869435 
L 295.844291 100.498805 
L 296.297794 97.026977 
L 296.751298 95.246523 
L 297.204801 94.940079 
L 297.658305 95.895815 
L 298.111808 97.909918 
L 299.018815 104.290406 
L 300.832829 119.192446 
L 301.286333 121.258066 
L 301.739836 121.743182 
L 302.193339 120.231074 
L 302.646843 116.46859 
L 303.100346 110.476794 
L 304.91436 79.471289 
L 305.367864 75.473263 
L 305.821367 73.733862 
L 306.274871 73.663257 
L 306.728374 74.545868 
L 307.635381 76.655689 
L 308.088885 76.939301 
L 308.542388 76.305305 
L 308.995892 74.629703 
L 309.449395 71.940618 
L 310.356402 64.303788 
L 312.170416 47.896274 
L 312.623919 44.972376 
L 313.077423 43.234336 
L 313.530926 43.441236 
L 313.98443 46.37148 
L 314.437933 52.218457 
L 315.34494 69.491311 
L 316.705451 95.123457 
L 317.612457 107.316329 
L 320.333478 136.899419 
L 321.693989 157.308141 
L 323.508003 184.275277 
L 324.41501 193.766192 
L 324.868513 196.155735 
L 325.322016 196.21445 
L 325.77552 193.472157 
L 326.229023 187.80369 
L 327.13603 169.427912 
L 329.857051 102.993067 
L 330.764058 85.983677 
L 331.671065 74.417627 
L 332.124569 70.961776 
L 332.578072 69.02696 
L 333.031575 68.495828 
L 333.485079 69.196722 
L 333.938582 70.908884 
L 334.845589 76.192852 
L 335.752596 81.280487 
L 336.2061 82.547178 
L 336.659603 82.376321 
L 337.113107 80.517129 
L 337.56661 76.956999 
L 338.473617 66.206237 
L 338.927121 60.66491 
L 339.380624 56.621949 
L 339.834128 55.225266 
L 340.287631 57.039652 
L 340.741134 61.871608 
L 341.648141 77.521933 
L 343.462155 112.070876 
L 344.369162 124.047903 
L 344.822666 128.010704 
L 345.276169 130.617903 
L 345.729673 132.05605 
L 346.183176 132.695153 
L 346.63668 133.063675 
L 347.090183 133.773758 
L 347.543687 135.406596 
L 347.99719 138.370986 
L 348.450693 142.769196 
L 350.718211 170.752747 
L 351.171714 173.127135 
L 351.625218 172.907808 
L 352.078721 169.605323 
L 352.532225 163.142199 
L 353.439232 143.199185 
L 355.253246 100.05927 
L 356.160252 83.210526 
L 357.067259 69.43402 
L 357.974266 58.298076 
L 358.881273 50.159597 
L 359.334777 47.601289 
L 359.78828 46.19762 
L 360.241784 45.891332 
L 360.695287 46.472747 
L 362.055798 49.601919 
L 362.509301 49.450457 
L 362.962805 48.016562 
L 363.416308 45.310179 
L 364.323315 38.790466 
L 364.776818 37.401462 
L 365.230322 38.736005 
L 365.683825 43.141595 
L 366.137329 50.329046 
L 367.044336 70.466091 
L 369.765357 139.007626 
L 370.672364 157.024824 
L 371.57937 171.289613 
L 372.486377 182.397625 
L 374.753895 206.18495 
L 375.660902 213.775201 
L 376.114405 216.023724 
L 376.567909 216.551091 
L 377.021412 214.62307 
L 377.474916 209.411554 
L 377.928419 200.3528 
L 378.835426 172.804414 
L 379.742433 143.223433 
L 380.64944 120.890771 
L 381.102943 113.017621 
L 381.556447 107.093245 
L 382.00995 102.843545 
L 382.463454 100.009502 
L 382.916957 98.38089 
L 383.370461 97.807307 
L 383.823964 98.18604 
L 384.277468 99.433932 
L 384.730971 101.455867 
L 385.637978 107.262822 
L 386.998488 116.875725 
L 387.451992 118.821864 
L 387.905495 119.224603 
L 388.358999 117.514573 
L 388.812502 113.359935 
L 389.266006 106.88073 
L 390.626516 82.547035 
L 391.08002 76.643361 
L 391.533523 72.772991 
L 391.987027 70.702308 
L 392.44053 69.970311 
L 392.894034 70.075332 
L 393.801041 71.025275 
L 394.254544 71.149885 
L 394.708047 70.681224 
L 395.161551 69.45859 
L 395.615054 67.42922 
L 396.522061 61.304874 
L 398.336075 47.088098 
L 398.789579 44.735434 
L 399.243082 43.806324 
L 399.696586 45.133873 
L 400.150089 49.335311 
L 400.603593 56.268442 
L 403.778117 116.137958 
L 403.778117 116.137958 
" style="fill:none;stroke:#ff0000;stroke-linecap:square;stroke-width:1.5;"/>
   </g>
   <g id="line2d_16">
    <path clip-path="url(#p9a5a5e7f9b)" d="M 64.104017 85.436263 
L 64.557521 89.078458 
L 65.011024 98.58176 
L 65.464528 94.483463 
L 65.918031 101.86593 
L 66.371535 95.930465 
L 66.825038 101.831477 
L 67.278542 95.426944 
L 67.732045 98.016838 
L 68.185549 91.859801 
L 68.639052 91.747258 
L 69.092556 88.233939 
L 69.546059 90.732052 
L 69.999563 92.135714 
L 70.453066 100.672575 
L 70.90657 107.010263 
L 71.360073 125.416584 
L 72.26708 150.670492 
L 72.720583 143.084724 
L 73.174087 139.429192 
L 73.62759 145.659933 
L 74.081094 139.563798 
L 74.534597 139.549297 
L 74.988101 139.369935 
L 75.441604 139.728865 
L 75.895108 131.381562 
L 76.348611 129.055458 
L 76.802115 117.949647 
L 77.255618 115.262526 
L 77.709122 108.139427 
L 78.162625 108.45787 
L 78.616129 105.159023 
L 79.069632 107.95072 
L 79.523135 108.131549 
L 79.976639 112.743202 
L 80.430142 111.703155 
L 80.883646 111.62461 
L 81.790653 95.088764 
L 82.244156 76.130361 
L 83.151163 51.078759 
L 83.604667 60.81634 
L 84.511674 51.114017 
L 84.965177 50.853398 
L 85.418681 48.670165 
L 85.872184 47.153877 
L 86.325688 46.599616 
L 86.779191 43.137491 
L 87.232694 42.882678 
L 87.686198 40.483253 
L 88.139701 43.888126 
L 88.593205 43.966353 
L 89.046708 50.169178 
L 89.500212 47.73368 
L 89.953715 51.051666 
L 90.407219 47.279909 
L 90.860722 49.067269 
L 91.314226 48.484262 
L 91.767729 52.66483 
L 92.221233 60.012657 
L 92.674736 71.13512 
L 93.12824 89.305904 
L 93.581743 112.623781 
L 94.035247 124.957396 
L 94.48875 122.140441 
L 95.395757 151.639224 
L 95.84926 153.741195 
L 96.302764 169.527007 
L 96.756267 171.977451 
L 97.209771 185.136283 
L 97.663274 186.768077 
L 98.116778 194.216501 
L 98.570281 196.094145 
L 99.023785 200.794389 
L 99.477288 202.453698 
L 101.744806 216.777837 
L 102.198309 217.788228 
L 102.651812 218.144387 
L 103.558819 210.356016 
L 104.012323 197.846461 
L 104.91933 144.245174 
L 105.372833 114.270375 
L 105.826337 94.677753 
L 106.27984 100.860189 
L 106.733344 111.951895 
L 107.186847 98.227158 
L 107.640351 93.655743 
L 108.093854 100.55214 
L 108.547358 95.487571 
L 109.000861 100.709262 
L 109.454365 98.966656 
L 109.907868 102.009389 
L 110.361371 102.979077 
L 110.814875 107.796246 
L 111.268378 110.863681 
L 111.721882 116.920845 
L 113.082392 126.354836 
L 113.535896 126.170039 
L 113.989399 127.752071 
L 114.442903 122.553262 
L 114.896406 118.927657 
L 115.34991 107.213033 
L 115.803413 90.126211 
L 116.256917 77.450302 
L 116.71042 73.625205 
L 117.163924 66.651609 
L 117.617427 64.342407 
L 118.07093 73.729196 
L 118.524434 74.463462 
L 118.977937 61.318405 
L 119.431441 66.091483 
L 119.884944 67.738285 
L 120.338448 61.487623 
L 120.791951 58.240931 
L 121.245455 52.310602 
L 122.605965 41.644515 
L 123.059469 40.173039 
L 123.512972 37.071572 
L 123.966476 37.073256 
L 124.419979 36.124964 
L 124.873483 37.736454 
L 125.780489 39.956262 
L 126.233993 41.7199 
L 126.687496 51.245809 
L 127.141 65.209889 
L 127.594503 93.611531 
L 128.048007 109.547011 
L 128.50151 91.972802 
L 128.955014 79.766666 
L 129.408517 124.408722 
L 129.862021 102.880499 
L 130.315524 130.948205 
L 131.222531 144.38232 
L 131.676035 158.430353 
L 132.129538 159.54477 
L 132.583042 171.584332 
L 133.036545 174.287231 
L 133.490048 183.058142 
L 133.943552 186.915884 
L 134.397055 193.372752 
L 134.850559 198.01233 
L 135.757566 209.002553 
L 136.211069 213.686524 
L 136.664573 215.442418 
L 137.118076 216.726581 
L 137.57158 216.362232 
L 138.025083 216.269642 
L 138.478587 205.376996 
L 138.93209 184.540336 
L 139.839097 153.617985 
L 140.292601 134.915147 
L 141.199607 113.818305 
L 142.106614 96.875779 
L 142.560118 92.104396 
L 143.013621 90.253679 
L 143.467125 86.91516 
L 143.920628 85.531321 
L 144.374132 85.883354 
L 144.827635 85.613003 
L 145.281139 89.519494 
L 145.734642 90.715209 
L 146.188146 96.823445 
L 146.641649 100.083708 
L 147.548656 108.844782 
L 148.00216 111.371154 
L 148.455663 115.900601 
L 148.909166 109.312268 
L 149.36267 119.850314 
L 149.816173 110.019008 
L 150.72318 98.481336 
L 151.176684 91.042084 
L 152.083691 63.873104 
L 152.537194 54.321556 
L 152.990698 58.827147 
L 153.897705 89.643749 
L 154.351208 78.410677 
L 154.804712 76.957873 
L 155.258215 88.907149 
L 155.711719 82.771683 
L 156.165222 82.734781 
L 156.618725 81.37046 
L 157.072229 73.306206 
L 157.525732 72.497724 
L 157.979236 63.311096 
L 158.432739 62.690416 
L 158.886243 56.736133 
L 159.339746 57.616874 
L 159.79325 55.161076 
L 160.246753 57.441095 
L 160.700257 57.554358 
L 161.15376 61.949637 
L 161.607264 69.799597 
L 162.060767 83.567271 
L 162.967774 121.553415 
L 163.421278 118.437264 
L 163.874781 102.325472 
L 164.328284 120.339676 
L 164.781788 120.753558 
L 165.235291 110.273697 
L 165.688795 122.852188 
L 166.142298 119.497935 
L 166.595802 126.629707 
L 167.049305 130.125055 
L 167.502809 131.696892 
L 167.956312 139.336422 
L 168.409816 140.860479 
L 168.863319 154.125431 
L 169.316823 155.919317 
L 169.770326 166.935424 
L 170.22383 168.548701 
L 170.677333 177.31603 
L 171.130837 179.881446 
L 171.58434 183.171233 
L 172.037843 184.076158 
L 172.94485 177.77859 
L 173.398354 161.909989 
L 174.305361 114.896316 
L 174.758864 103.902212 
L 175.212368 106.372122 
L 175.665871 103.759204 
L 176.119375 91.81613 
L 177.026382 85.063526 
L 177.479885 78.638407 
L 177.933389 73.805142 
L 178.840395 58.835266 
L 179.293899 53.54508 
L 179.747402 50.666603 
L 180.654409 51.226893 
L 181.107913 54.636113 
L 181.561416 54.66436 
L 182.01492 60.517566 
L 182.468423 59.65681 
L 182.921927 65.056877 
L 183.828934 62.040636 
L 184.282437 54.324376 
L 184.735941 53.917448 
L 185.189444 41.409595 
L 185.642948 46.162159 
L 186.096451 44.129667 
L 187.003458 57.15291 
L 187.456961 76.458834 
L 187.910465 82.823637 
L 188.363968 97.078879 
L 188.817472 104.074241 
L 189.270975 118.613663 
L 189.724479 123.574706 
L 190.177982 134.880378 
L 190.631486 140.624962 
L 191.084989 150.986366 
L 191.538493 155.326548 
L 191.991996 163.580229 
L 192.4455 166.411973 
L 192.899003 172.044782 
L 193.352507 174.214008 
L 194.259513 183.079228 
L 194.713017 189.027452 
L 195.16652 197.355761 
L 196.073527 208.464943 
L 196.527031 206.85864 
L 196.980534 208.791226 
L 197.434038 204.253066 
L 197.887541 204.141233 
L 198.341045 196.714939 
L 198.794548 193.095169 
L 199.701555 163.250271 
L 200.608562 107.821647 
L 201.062066 94.097365 
L 201.515569 108.17205 
L 201.969072 109.318866 
L 202.422576 87.612785 
L 202.876079 88.542339 
L 203.329583 92.140284 
L 203.783086 82.782796 
L 204.23659 90.034954 
L 204.690093 83.299715 
L 205.143597 89.470881 
L 205.5971 88.15205 
L 206.050604 95.015339 
L 206.504107 96.128273 
L 206.957611 100.930185 
L 207.411114 101.036944 
L 207.864618 104.279395 
L 208.318121 103.544282 
L 208.771625 106.310219 
L 209.225128 106.339113 
L 209.678631 106.493661 
L 210.132135 101.128642 
L 210.585638 90.748093 
L 211.039142 75.689072 
L 211.492645 66.537779 
L 211.946149 63.854177 
L 212.399652 59.487812 
L 212.853156 65.245072 
L 213.306659 78.17615 
L 214.213666 71.514106 
L 214.66717 84.752472 
L 215.120673 84.564451 
L 215.574177 87.126238 
L 216.02768 83.069504 
L 216.481184 84.422231 
L 216.934687 79.194116 
L 217.38819 79.900902 
L 217.841694 73.476885 
L 218.295197 72.810532 
L 218.748701 67.119076 
L 219.202204 66.734287 
L 219.655708 65.016723 
L 220.109211 67.408132 
L 220.562715 70.955493 
L 221.016218 75.622032 
L 221.469722 87.490624 
L 222.376729 124.692622 
L 222.830232 131.261332 
L 223.737239 115.493849 
L 224.190743 134.231543 
L 224.644246 122.088954 
L 225.097749 132.651927 
L 225.551253 135.891134 
L 226.004756 134.308814 
L 226.45826 137.734904 
L 226.911763 133.231413 
L 227.365267 135.050326 
L 227.81877 133.845527 
L 228.725777 142.024666 
L 229.632784 153.822463 
L 230.086288 160.02769 
L 230.993295 166.787708 
L 231.446798 167.540693 
L 232.353805 160.627064 
L 233.260812 125.783891 
L 233.714315 95.554288 
L 234.167819 85.138488 
L 234.621322 85.087063 
L 235.074826 88.156486 
L 235.528329 75.196669 
L 235.981833 72.148428 
L 236.435336 70.474336 
L 236.88884 65.004472 
L 237.342343 62.522154 
L 238.24935 54.333895 
L 238.702854 48.976579 
L 239.156357 46.834009 
L 239.609861 42.253209 
L 240.063364 42.555193 
L 240.516867 40.309618 
L 240.970371 42.835682 
L 241.423874 42.165114 
L 241.877378 44.94936 
L 242.330881 44.331085 
L 242.784385 45.528625 
L 243.237888 41.962763 
L 243.691392 32.219266 
L 244.144895 31.328669 
L 244.598399 25.629089 
L 245.051902 36.089564 
L 245.505406 54.587129 
L 245.958909 79.085964 
L 246.412413 92.06653 
L 246.865916 91.045315 
L 247.772923 118.300724 
L 249.133433 146.546502 
L 249.586937 151.607807 
L 250.04044 162.901652 
L 250.493944 167.445903 
L 250.947447 177.780811 
L 251.400951 181.735273 
L 251.854454 189.193404 
L 252.307958 192.820896 
L 252.761461 199.356257 
L 253.214965 204.121954 
L 254.121972 216.871363 
L 254.575475 222.283537 
L 255.028979 224.881022 
L 255.482482 224.180171 
L 255.935985 222.306865 
L 256.389489 221.579109 
L 256.842992 212.602792 
L 257.749999 190.533637 
L 258.203503 174.300939 
L 258.657006 150.158163 
L 259.11051 119.35516 
L 259.564013 98.690821 
L 260.017517 106.892531 
L 260.47102 121.915471 
L 260.924524 101.681994 
L 261.378027 92.298083 
L 261.831531 105.64073 
L 262.285034 94.365542 
L 262.738538 101.764733 
L 263.192041 99.517837 
L 263.645544 102.142121 
L 264.552551 109.48761 
L 265.006055 116.158061 
L 265.913062 123.52623 
L 266.366565 125.299347 
L 266.820069 126.28414 
L 267.273572 125.841336 
L 267.727076 128.860021 
L 268.180579 126.795608 
L 268.634083 123.957234 
L 269.087586 114.501674 
L 269.994593 84.20748 
L 270.448097 79.246073 
L 271.355103 63.725989 
L 271.808607 70.396666 
L 272.26211 71.901455 
L 272.715614 60.552483 
L 273.169117 65.250661 
L 273.622621 65.596746 
L 274.076124 61.57172 
L 274.529628 55.158151 
L 274.983131 50.991736 
L 275.436635 44.774871 
L 275.890138 43.049998 
L 276.343642 37.327052 
L 276.797145 37.934479 
L 277.250649 34.217131 
L 277.704152 35.86447 
L 278.157656 35.205388 
L 278.611159 37.528314 
L 279.064662 38.152963 
L 279.518166 38.260062 
L 279.971669 37.314209 
L 280.425173 43.040734 
L 280.878676 53.651013 
L 281.33218 75.151143 
L 281.785683 106.215498 
L 282.239187 93.970515 
L 282.69269 72.904558 
L 283.146194 109.066225 
L 283.599697 114.764827 
L 284.053201 115.744556 
L 284.506704 144.976621 
L 284.960208 136.376746 
L 285.413711 160.442501 
L 285.867215 156.503374 
L 286.320718 171.800974 
L 286.774221 173.594903 
L 287.227725 183.106663 
L 287.681228 186.698206 
L 288.134732 193.392363 
L 288.588235 197.944299 
L 289.495242 209.253256 
L 289.948746 215.299999 
L 290.402249 217.345653 
L 290.855753 219.966052 
L 291.309256 218.669388 
L 291.76276 220.905954 
L 292.216263 214.780995 
L 293.12327 181.291394 
L 293.576774 169.362349 
L 294.030277 147.465143 
L 294.937284 118.073854 
L 295.390787 111.060026 
L 295.844291 101.918614 
L 296.297794 97.145981 
L 296.751298 93.767086 
L 297.204801 92.039548 
L 297.658305 88.873367 
L 298.111808 89.777216 
L 298.565312 88.886332 
L 299.018815 91.844674 
L 299.472319 93.302811 
L 300.832829 107.258671 
L 301.286333 111.717531 
L 301.739836 113.968349 
L 302.193339 120.349236 
L 302.646843 114.080986 
L 303.100346 121.983398 
L 303.55385 120.35045 
L 304.007353 112.43709 
L 304.460857 108.233614 
L 304.91436 101.237711 
L 306.274871 61.412083 
L 306.728374 56.548515 
L 307.181878 64.423193 
L 307.635381 82.649733 
L 308.088885 81.995123 
L 308.542388 70.184516 
L 308.995892 78.283049 
L 309.449395 80.755682 
L 309.902898 73.492759 
L 310.356402 75.210661 
L 310.809905 66.321818 
L 311.263409 63.941391 
L 311.716912 56.90413 
L 312.623919 50.164636 
L 313.077423 49.02859 
L 313.530926 47.129676 
L 313.98443 49.086152 
L 314.437933 46.703781 
L 314.891437 51.097063 
L 315.34494 50.753725 
L 316.251947 73.500654 
L 316.705451 98.558264 
L 317.158954 116.36224 
L 317.612457 106.939118 
L 318.065961 91.689719 
L 318.519464 117.30628 
L 318.972968 113.997587 
L 319.426471 107.783914 
L 319.879975 129.694267 
L 320.333478 120.997315 
L 320.786982 140.146063 
L 321.240485 136.970756 
L 321.693989 149.86004 
L 322.147492 150.984219 
L 322.600996 162.951777 
L 323.054499 166.160035 
L 323.508003 175.546927 
L 323.961506 178.564377 
L 324.41501 186.944516 
L 324.868513 190.647655 
L 325.322016 196.701534 
L 325.77552 198.543819 
L 326.229023 199.746579 
L 326.682527 198.955555 
L 327.13603 196.355442 
L 327.589534 184.895463 
L 328.496541 141.182816 
L 328.950044 127.812977 
L 329.403548 121.61376 
L 329.857051 117.214806 
L 331.217562 92.266275 
L 331.671065 86.019664 
L 332.124569 77.167102 
L 332.578072 73.152675 
L 333.031575 66.124447 
L 333.485079 66.503232 
L 333.938582 64.371505 
L 334.392086 66.434254 
L 334.845589 67.681546 
L 336.659603 82.533225 
L 337.113107 83.812075 
L 337.56661 88.948564 
L 338.020114 82.847255 
L 338.473617 85.531591 
L 338.927121 80.89363 
L 339.380624 69.987508 
L 339.834128 68.823491 
L 340.287631 64.143083 
L 341.194638 48.902586 
L 341.648141 51.283342 
L 342.101645 65.400029 
L 343.008652 99.592508 
L 343.462155 99.905041 
L 343.915659 104.903336 
L 344.369162 115.013911 
L 345.729673 128.920937 
L 346.183176 131.824117 
L 346.63668 132.57365 
L 347.090183 132.756779 
L 347.543687 131.012708 
L 347.99719 130.027568 
L 348.450693 129.95049 
L 348.904197 132.804054 
L 349.3577 138.509575 
L 350.718211 167.968509 
L 351.625218 175.909932 
L 352.078721 171.164798 
L 352.532225 174.224627 
L 352.985728 172.738854 
L 353.439232 168.363252 
L 354.346239 140.745829 
L 355.253246 106.981081 
L 355.706749 99.189389 
L 356.160252 98.253801 
L 356.613756 91.788017 
L 357.067259 81.681406 
L 357.520763 76.37208 
L 357.974266 72.456393 
L 358.42777 66.466192 
L 358.881273 63.067915 
L 359.334777 57.692037 
L 359.78828 54.709476 
L 360.241784 50.258663 
L 360.695287 48.049849 
L 361.148791 47.227646 
L 361.602294 49.267906 
L 362.055798 52.044094 
L 362.509301 51.928762 
L 362.962805 54.060718 
L 363.416308 53.625702 
L 363.869811 56.158003 
L 364.323315 54.666151 
L 364.776818 52.327757 
L 365.230322 44.734088 
L 365.683825 40.159491 
L 366.137329 38.351062 
L 366.590832 41.740954 
L 367.044336 50.386447 
L 367.497839 71.099876 
L 367.951343 86.517399 
L 368.404846 93.721027 
L 368.85835 97.707655 
L 369.311853 118.276093 
L 369.765357 123.374652 
L 370.21886 135.835385 
L 370.672364 140.382137 
L 371.125867 149.844889 
L 371.57937 154.25524 
L 372.032874 163.153855 
L 372.486377 168.08692 
L 372.939881 175.593542 
L 373.393384 179.016776 
L 373.846888 184.750303 
L 374.300391 188.884443 
L 374.753895 195.328712 
L 375.207398 199.943501 
L 375.660902 207.937182 
L 376.114405 211.745128 
L 376.567909 217.102033 
L 377.021412 213.318247 
L 377.474916 214.309755 
L 378.381923 207.394889 
L 378.835426 195.712895 
L 379.288929 187.064949 
L 379.742433 171.0426 
L 380.195936 149.842261 
L 380.64944 120.482428 
L 381.102943 99.00237 
L 381.556447 101.166153 
L 382.00995 116.849546 
L 382.916957 87.227072 
L 383.370461 98.417715 
L 383.823964 90.864172 
L 384.277468 92.339532 
L 384.730971 93.416717 
L 385.184475 92.217398 
L 385.637978 97.142326 
L 386.091482 98.773832 
L 386.544985 105.264588 
L 386.998488 108.587156 
L 387.905495 113.393211 
L 388.358999 112.962299 
L 388.812502 114.025012 
L 389.266006 114.606923 
L 389.719509 115.624713 
L 390.173013 110.987884 
L 390.626516 104.1546 
L 391.533523 76.198694 
L 391.987027 70.303727 
L 392.894034 61.685877 
L 393.347537 71.549923 
L 393.801041 74.79903 
L 394.254544 64.439265 
L 394.708047 71.496976 
L 395.161551 75.827144 
L 395.615054 73.167721 
L 396.068558 71.902752 
L 396.522061 66.134077 
L 396.975565 65.035494 
L 397.429068 58.949243 
L 397.882572 57.160282 
L 398.336075 51.691362 
L 398.789579 50.098628 
L 399.243082 47.117604 
L 399.696586 47.257177 
L 400.150089 48.7218 
L 400.603593 49.426345 
L 401.057096 53.570546 
L 401.5106 55.127911 
L 401.964103 68.815055 
L 402.417606 86.25979 
L 402.87111 108.893861 
L 403.324613 119.141856 
L 403.778117 99.829954 
L 403.778117 99.829954 
" style="fill:none;stroke:#0000ff;stroke-dasharray:5.55,2.4;stroke-dashoffset:0;stroke-width:1.5;"/>
   </g>
   <g id="patch_3">
    <path d="M 47.120313 235.2 
L 47.120313 15.649522 
" style="fill:none;stroke:#000000;stroke-linecap:square;stroke-linejoin:miter;stroke-width:0.8;"/>
   </g>
   <g id="patch_4">
    <path d="M 420.761822 235.2 
L 420.761822 15.649522 
" style="fill:none;stroke:#000000;stroke-linecap:square;stroke-linejoin:miter;stroke-width:0.8;"/>
   </g>
   <g id="patch_5">
    <path d="M 47.120312 235.2 
L 420.761822 235.2 
" style="fill:none;stroke:#000000;stroke-linecap:square;stroke-linejoin:miter;stroke-width:0.8;"/>
   </g>
   <g id="patch_6">
    <path d="M 47.120312 15.649522 
L 420.761822 15.649522 
" style="fill:none;stroke:#000000;stroke-linecap:square;stroke-linejoin:miter;stroke-width:0.8;"/>
   </g>
   <g id="legend_1">
    <g id="patch_7">
     <path d="M 306.289947 228.2 
L 410.961822 228.2 
Q 413.761822 228.2 413.761822 225.4 
L 413.761822 185.675 
Q 413.761822 182.875 410.961822 182.875 
L 306.289947 182.875 
Q 303.489947 182.875 303.489947 185.675 
L 303.489947 225.4 
Q 303.489947 228.2 306.289947 228.2 
z
" style="fill:#ffffff;opacity:0.8;stroke:#cccccc;stroke-linejoin:miter;"/>
    </g>
    <g id="line2d_17">
     <path d="M 309.089947 194.212812 
L 337.089947 194.212812 
" style="fill:none;stroke:#ff0000;stroke-linecap:square;stroke-width:1.5;"/>
    </g>
    <g id="line2d_18"/>
    <g id="text_17">
     <!-- Real -->
     <g transform="translate(348.289947 199.112812)scale(0.14 -0.14)">
      <defs>
       <path d="M 2841 2188 
Q 3044 2119 3236 1894 
Q 3428 1669 3622 1275 
L 4263 0 
L 3584 0 
L 2988 1197 
Q 2756 1666 2539 1819 
Q 2322 1972 1947 1972 
L 1259 1972 
L 1259 0 
L 628 0 
L 628 4666 
L 2053 4666 
Q 2853 4666 3247 4331 
Q 3641 3997 3641 3322 
Q 3641 2881 3436 2590 
Q 3231 2300 2841 2188 
z
M 1259 4147 
L 1259 2491 
L 2053 2491 
Q 2509 2491 2742 2702 
Q 2975 2913 2975 3322 
Q 2975 3731 2742 3939 
Q 2509 4147 2053 4147 
L 1259 4147 
z
" id="DejaVuSans-52" transform="scale(0.015625)"/>
       <path d="M 3597 1894 
L 3597 1613 
L 953 1613 
Q 991 1019 1311 708 
Q 1631 397 2203 397 
Q 2534 397 2845 478 
Q 3156 559 3463 722 
L 3463 178 
Q 3153 47 2828 -22 
Q 2503 -91 2169 -91 
Q 1331 -91 842 396 
Q 353 884 353 1716 
Q 353 2575 817 3079 
Q 1281 3584 2069 3584 
Q 2775 3584 3186 3129 
Q 3597 2675 3597 1894 
z
M 3022 2063 
Q 3016 2534 2758 2815 
Q 2500 3097 2075 3097 
Q 1594 3097 1305 2825 
Q 1016 2553 972 2059 
L 3022 2063 
z
" id="DejaVuSans-65" transform="scale(0.015625)"/>
       <path d="M 2194 1759 
Q 1497 1759 1228 1600 
Q 959 1441 959 1056 
Q 959 750 1161 570 
Q 1363 391 1709 391 
Q 2188 391 2477 730 
Q 2766 1069 2766 1631 
L 2766 1759 
L 2194 1759 
z
M 3341 1997 
L 3341 0 
L 2766 0 
L 2766 531 
Q 2569 213 2275 61 
Q 1981 -91 1556 -91 
Q 1019 -91 701 211 
Q 384 513 384 1019 
Q 384 1609 779 1909 
Q 1175 2209 1959 2209 
L 2766 2209 
L 2766 2266 
Q 2766 2663 2505 2880 
Q 2244 3097 1772 3097 
Q 1472 3097 1187 3025 
Q 903 2953 641 2809 
L 641 3341 
Q 956 3463 1253 3523 
Q 1550 3584 1831 3584 
Q 2591 3584 2966 3190 
Q 3341 2797 3341 1997 
z
" id="DejaVuSans-61" transform="scale(0.015625)"/>
       <path d="M 603 4863 
L 1178 4863 
L 1178 0 
L 603 0 
L 603 4863 
z
" id="DejaVuSans-6c" transform="scale(0.015625)"/>
      </defs>
      <use xlink:href="#DejaVuSans-52"/>
      <use x="64.982422" xlink:href="#DejaVuSans-65"/>
      <use x="126.505859" xlink:href="#DejaVuSans-61"/>
      <use x="187.785156" xlink:href="#DejaVuSans-6c"/>
     </g>
    </g>
    <g id="line2d_19">
     <path d="M 309.089947 214.788437 
L 337.089947 214.788437 
" style="fill:none;stroke:#0000ff;stroke-dasharray:5.55,2.4;stroke-dashoffset:0;stroke-width:1.5;"/>
    </g>
    <g id="line2d_20"/>
    <g id="text_18">
     <!-- Predição -->
     <g transform="translate(348.289947 219.688437)scale(0.14 -0.14)">
      <defs>
       <path d="M 1259 4147 
L 1259 2394 
L 2053 2394 
Q 2494 2394 2734 2622 
Q 2975 2850 2975 3272 
Q 2975 3691 2734 3919 
Q 2494 4147 2053 4147 
L 1259 4147 
z
M 628 4666 
L 2053 4666 
Q 2838 4666 3239 4311 
Q 3641 3956 3641 3272 
Q 3641 2581 3239 2228 
Q 2838 1875 2053 1875 
L 1259 1875 
L 1259 0 
L 628 0 
L 628 4666 
z
" id="DejaVuSans-50" transform="scale(0.015625)"/>
       <path d="M 2631 2963 
Q 2534 3019 2420 3045 
Q 2306 3072 2169 3072 
Q 1681 3072 1420 2755 
Q 1159 2438 1159 1844 
L 1159 0 
L 581 0 
L 581 3500 
L 1159 3500 
L 1159 2956 
Q 1341 3275 1631 3429 
Q 1922 3584 2338 3584 
Q 2397 3584 2469 3576 
Q 2541 3569 2628 3553 
L 2631 2963 
z
" id="DejaVuSans-72" transform="scale(0.015625)"/>
       <path d="M 2906 2969 
L 2906 4863 
L 3481 4863 
L 3481 0 
L 2906 0 
L 2906 525 
Q 2725 213 2448 61 
Q 2172 -91 1784 -91 
Q 1150 -91 751 415 
Q 353 922 353 1747 
Q 353 2572 751 3078 
Q 1150 3584 1784 3584 
Q 2172 3584 2448 3432 
Q 2725 3281 2906 2969 
z
M 947 1747 
Q 947 1113 1208 752 
Q 1469 391 1925 391 
Q 2381 391 2643 752 
Q 2906 1113 2906 1747 
Q 2906 2381 2643 2742 
Q 2381 3103 1925 3103 
Q 1469 3103 1208 2742 
Q 947 2381 947 1747 
z
" id="DejaVuSans-64" transform="scale(0.015625)"/>
       <path d="M 603 3500 
L 1178 3500 
L 1178 0 
L 603 0 
L 603 3500 
z
M 603 4863 
L 1178 4863 
L 1178 4134 
L 603 4134 
L 603 4863 
z
" id="DejaVuSans-69" transform="scale(0.015625)"/>
       <path d="M 3122 3366 
L 3122 2828 
Q 2878 2963 2633 3030 
Q 2388 3097 2138 3097 
Q 1578 3097 1268 2742 
Q 959 2388 959 1747 
Q 959 1106 1268 751 
Q 1578 397 2138 397 
Q 2388 397 2633 464 
Q 2878 531 3122 666 
L 3122 134 
Q 2881 22 2623 -34 
Q 2366 -91 2075 -91 
Q 1284 -91 818 406 
Q 353 903 353 1747 
Q 353 2603 823 3093 
Q 1294 3584 2113 3584 
Q 2378 3584 2631 3529 
Q 2884 3475 3122 3366 
z
M 2309 0 
Q 2481 -194 2565 -358 
Q 2650 -522 2650 -672 
Q 2650 -950 2462 -1092 
Q 2275 -1234 1906 -1234 
Q 1763 -1234 1627 -1215 
Q 1491 -1197 1356 -1159 
L 1356 -750 
Q 1463 -803 1578 -826 
Q 1694 -850 1841 -850 
Q 2025 -850 2119 -775 
Q 2213 -700 2213 -556 
Q 2213 -463 2145 -327 
Q 2078 -191 1938 0 
L 2309 0 
z
" id="DejaVuSans-e7" transform="scale(0.015625)"/>
       <path d="M 2194 1759 
Q 1497 1759 1228 1600 
Q 959 1441 959 1056 
Q 959 750 1161 570 
Q 1363 391 1709 391 
Q 2188 391 2477 730 
Q 2766 1069 2766 1631 
L 2766 1759 
L 2194 1759 
z
M 3341 1997 
L 3341 0 
L 2766 0 
L 2766 531 
Q 2569 213 2275 61 
Q 1981 -91 1556 -91 
Q 1019 -91 701 211 
Q 384 513 384 1019 
Q 384 1609 779 1909 
Q 1175 2209 1959 2209 
L 2766 2209 
L 2766 2266 
Q 2766 2663 2505 2880 
Q 2244 3097 1772 3097 
Q 1472 3097 1187 3025 
Q 903 2953 641 2809 
L 641 3341 
Q 956 3463 1253 3523 
Q 1550 3584 1831 3584 
Q 2591 3584 2966 3190 
Q 3341 2797 3341 1997 
z
M 1844 4281 
L 1666 4453 
Q 1597 4516 1545 4545 
Q 1494 4575 1453 4575 
Q 1334 4575 1278 4461 
Q 1222 4347 1216 4091 
L 825 4091 
Q 831 4513 990 4742 
Q 1150 4972 1434 4972 
Q 1553 4972 1653 4928 
Q 1753 4884 1869 4781 
L 2047 4609 
Q 2116 4547 2167 4517 
Q 2219 4488 2259 4488 
Q 2378 4488 2434 4602 
Q 2491 4716 2497 4972 
L 2888 4972 
Q 2881 4550 2722 4320 
Q 2563 4091 2278 4091 
Q 2159 4091 2059 4134 
Q 1959 4178 1844 4281 
z
" id="DejaVuSans-e3" transform="scale(0.015625)"/>
       <path d="M 1959 3097 
Q 1497 3097 1228 2736 
Q 959 2375 959 1747 
Q 959 1119 1226 758 
Q 1494 397 1959 397 
Q 2419 397 2687 759 
Q 2956 1122 2956 1747 
Q 2956 2369 2687 2733 
Q 2419 3097 1959 3097 
z
M 1959 3584 
Q 2709 3584 3137 3096 
Q 3566 2609 3566 1747 
Q 3566 888 3137 398 
Q 2709 -91 1959 -91 
Q 1206 -91 779 398 
Q 353 888 353 1747 
Q 353 2609 779 3096 
Q 1206 3584 1959 3584 
z
" id="DejaVuSans-6f" transform="scale(0.015625)"/>
      </defs>
      <use xlink:href="#DejaVuSans-50"/>
      <use x="58.552734" xlink:href="#DejaVuSans-72"/>
      <use x="97.416016" xlink:href="#DejaVuSans-65"/>
      <use x="158.939453" xlink:href="#DejaVuSans-64"/>
      <use x="222.416016" xlink:href="#DejaVuSans-69"/>
      <use x="250.199219" xlink:href="#DejaVuSans-e7"/>
      <use x="305.179688" xlink:href="#DejaVuSans-e3"/>
      <use x="366.458984" xlink:href="#DejaVuSans-6f"/>
     </g>
    </g>
   </g>
  </g>
 </g>
 <defs>
  <clipPath id="p9a5a5e7f9b">
   <rect height="219.550478" width="373.641509" x="47.120313" y="15.649522"/>
  </clipPath>
 </defs>
</svg>
