<?xml version="1.0" encoding="utf-8" standalone="no"?>
<!DOCTYPE svg PUBLIC "-//W3C//DTD SVG 1.1//EN"
  "http://www.w3.org/Graphics/SVG/1.1/DTD/svg11.dtd">
<svg height="288pt" version="1.1" viewBox="0 0 432 288" width="432pt" xmlns="http://www.w3.org/2000/svg" xmlns:xlink="http://www.w3.org/1999/xlink">
 <metadata>
  <rdf:RDF xmlns:cc="http://creativecommons.org/ns#" xmlns:dc="http://purl.org/dc/elements/1.1/" xmlns:rdf="http://www.w3.org/1999/02/22-rdf-syntax-ns#">
   <cc:Work>
    <dc:type rdf:resource="http://purl.org/dc/dcmitype/StillImage"/>
    <dc:date>2022-09-27T19:27:41.744453</dc:date>
    <dc:format>image/svg+xml</dc:format>
    <dc:creator>
     <cc:Agent>
      <dc:title>Matplotlib v3.4.3, https://matplotlib.org/</dc:title>
     </cc:Agent>
    </dc:creator>
   </cc:Work>
  </rdf:RDF>
 </metadata>
 <defs>
  <style type="text/css">*{stroke-linecap:butt;stroke-linejoin:round;}</style>
 </defs>
 <g id="figure_1">
  <g id="patch_1">
   <path d="M 0 288 
L 432 288 
L 432 0 
L 0 0 
z
" style="fill:none;"/>
  </g>
  <g id="axes_1">
   <g id="patch_2">
    <path d="M 47.120313 235.2 
L 420.761822 235.2 
L 420.761822 10.8 
L 47.120313 10.8 
z
" style="fill:#ffffff;"/>
   </g>
   <g id="matplotlib.axis_1">
    <g id="xtick_1">
     <g id="line2d_1">
      <defs>
       <path d="M 0 0 
L 0 3.5 
" id="mbd2f902c94" style="stroke:#000000;stroke-width:0.8;"/>
      </defs>
      <g>
       <use style="stroke:#000000;stroke-width:0.8;" x="86.779191" xlink:href="#mbd2f902c94" y="235.2"/>
      </g>
     </g>
     <g id="text_1">
      <!-- 4300 -->
      <g transform="translate(71.509191 251.318125)scale(0.12 -0.12)">
       <defs>
        <path d="M 2419 4116 
L 825 1625 
L 2419 1625 
L 2419 4116 
z
M 2253 4666 
L 3047 4666 
L 3047 1625 
L 3713 1625 
L 3713 1100 
L 3047 1100 
L 3047 0 
L 2419 0 
L 2419 1100 
L 313 1100 
L 313 1709 
L 2253 4666 
z
" id="DejaVuSans-34" transform="scale(0.015625)"/>
        <path d="M 2597 2516 
Q 3050 2419 3304 2112 
Q 3559 1806 3559 1356 
Q 3559 666 3084 287 
Q 2609 -91 1734 -91 
Q 1441 -91 1130 -33 
Q 819 25 488 141 
L 488 750 
Q 750 597 1062 519 
Q 1375 441 1716 441 
Q 2309 441 2620 675 
Q 2931 909 2931 1356 
Q 2931 1769 2642 2001 
Q 2353 2234 1838 2234 
L 1294 2234 
L 1294 2753 
L 1863 2753 
Q 2328 2753 2575 2939 
Q 2822 3125 2822 3475 
Q 2822 3834 2567 4026 
Q 2313 4219 1838 4219 
Q 1578 4219 1281 4162 
Q 984 4106 628 3988 
L 628 4550 
Q 988 4650 1302 4700 
Q 1616 4750 1894 4750 
Q 2613 4750 3031 4423 
Q 3450 4097 3450 3541 
Q 3450 3153 3228 2886 
Q 3006 2619 2597 2516 
z
" id="DejaVuSans-33" transform="scale(0.015625)"/>
        <path d="M 2034 4250 
Q 1547 4250 1301 3770 
Q 1056 3291 1056 2328 
Q 1056 1369 1301 889 
Q 1547 409 2034 409 
Q 2525 409 2770 889 
Q 3016 1369 3016 2328 
Q 3016 3291 2770 3770 
Q 2525 4250 2034 4250 
z
M 2034 4750 
Q 2819 4750 3233 4129 
Q 3647 3509 3647 2328 
Q 3647 1150 3233 529 
Q 2819 -91 2034 -91 
Q 1250 -91 836 529 
Q 422 1150 422 2328 
Q 422 3509 836 4129 
Q 1250 4750 2034 4750 
z
" id="DejaVuSans-30" transform="scale(0.015625)"/>
       </defs>
       <use xlink:href="#DejaVuSans-34"/>
       <use x="63.623047" xlink:href="#DejaVuSans-33"/>
       <use x="127.246094" xlink:href="#DejaVuSans-30"/>
       <use x="190.869141" xlink:href="#DejaVuSans-30"/>
      </g>
     </g>
    </g>
    <g id="xtick_2">
     <g id="line2d_2">
      <g>
       <use style="stroke:#000000;stroke-width:0.8;" x="132.129538" xlink:href="#mbd2f902c94" y="235.2"/>
      </g>
     </g>
     <g id="text_2">
      <!-- 4400 -->
      <g transform="translate(116.859538 251.318125)scale(0.12 -0.12)">
       <use xlink:href="#DejaVuSans-34"/>
       <use x="63.623047" xlink:href="#DejaVuSans-34"/>
       <use x="127.246094" xlink:href="#DejaVuSans-30"/>
       <use x="190.869141" xlink:href="#DejaVuSans-30"/>
      </g>
     </g>
    </g>
    <g id="xtick_3">
     <g id="line2d_3">
      <g>
       <use style="stroke:#000000;stroke-width:0.8;" x="177.479885" xlink:href="#mbd2f902c94" y="235.2"/>
      </g>
     </g>
     <g id="text_3">
      <!-- 4500 -->
      <g transform="translate(162.209885 251.318125)scale(0.12 -0.12)">
       <defs>
        <path d="M 691 4666 
L 3169 4666 
L 3169 4134 
L 1269 4134 
L 1269 2991 
Q 1406 3038 1543 3061 
Q 1681 3084 1819 3084 
Q 2600 3084 3056 2656 
Q 3513 2228 3513 1497 
Q 3513 744 3044 326 
Q 2575 -91 1722 -91 
Q 1428 -91 1123 -41 
Q 819 9 494 109 
L 494 744 
Q 775 591 1075 516 
Q 1375 441 1709 441 
Q 2250 441 2565 725 
Q 2881 1009 2881 1497 
Q 2881 1984 2565 2268 
Q 2250 2553 1709 2553 
Q 1456 2553 1204 2497 
Q 953 2441 691 2322 
L 691 4666 
z
" id="DejaVuSans-35" transform="scale(0.015625)"/>
       </defs>
       <use xlink:href="#DejaVuSans-34"/>
       <use x="63.623047" xlink:href="#DejaVuSans-35"/>
       <use x="127.246094" xlink:href="#DejaVuSans-30"/>
       <use x="190.869141" xlink:href="#DejaVuSans-30"/>
      </g>
     </g>
    </g>
    <g id="xtick_4">
     <g id="line2d_4">
      <g>
       <use style="stroke:#000000;stroke-width:0.8;" x="222.830232" xlink:href="#mbd2f902c94" y="235.2"/>
      </g>
     </g>
     <g id="text_4">
      <!-- 4600 -->
      <g transform="translate(207.560232 251.318125)scale(0.12 -0.12)">
       <defs>
        <path d="M 2113 2584 
Q 1688 2584 1439 2293 
Q 1191 2003 1191 1497 
Q 1191 994 1439 701 
Q 1688 409 2113 409 
Q 2538 409 2786 701 
Q 3034 994 3034 1497 
Q 3034 2003 2786 2293 
Q 2538 2584 2113 2584 
z
M 3366 4563 
L 3366 3988 
Q 3128 4100 2886 4159 
Q 2644 4219 2406 4219 
Q 1781 4219 1451 3797 
Q 1122 3375 1075 2522 
Q 1259 2794 1537 2939 
Q 1816 3084 2150 3084 
Q 2853 3084 3261 2657 
Q 3669 2231 3669 1497 
Q 3669 778 3244 343 
Q 2819 -91 2113 -91 
Q 1303 -91 875 529 
Q 447 1150 447 2328 
Q 447 3434 972 4092 
Q 1497 4750 2381 4750 
Q 2619 4750 2861 4703 
Q 3103 4656 3366 4563 
z
" id="DejaVuSans-36" transform="scale(0.015625)"/>
       </defs>
       <use xlink:href="#DejaVuSans-34"/>
       <use x="63.623047" xlink:href="#DejaVuSans-36"/>
       <use x="127.246094" xlink:href="#DejaVuSans-30"/>
       <use x="190.869141" xlink:href="#DejaVuSans-30"/>
      </g>
     </g>
    </g>
    <g id="xtick_5">
     <g id="line2d_5">
      <g>
       <use style="stroke:#000000;stroke-width:0.8;" x="268.180579" xlink:href="#mbd2f902c94" y="235.2"/>
      </g>
     </g>
     <g id="text_5">
      <!-- 4700 -->
      <g transform="translate(252.910579 251.318125)scale(0.12 -0.12)">
       <defs>
        <path d="M 525 4666 
L 3525 4666 
L 3525 4397 
L 1831 0 
L 1172 0 
L 2766 4134 
L 525 4134 
L 525 4666 
z
" id="DejaVuSans-37" transform="scale(0.015625)"/>
       </defs>
       <use xlink:href="#DejaVuSans-34"/>
       <use x="63.623047" xlink:href="#DejaVuSans-37"/>
       <use x="127.246094" xlink:href="#DejaVuSans-30"/>
       <use x="190.869141" xlink:href="#DejaVuSans-30"/>
      </g>
     </g>
    </g>
    <g id="xtick_6">
     <g id="line2d_6">
      <g>
       <use style="stroke:#000000;stroke-width:0.8;" x="313.530926" xlink:href="#mbd2f902c94" y="235.2"/>
      </g>
     </g>
     <g id="text_6">
      <!-- 4800 -->
      <g transform="translate(298.260926 251.318125)scale(0.12 -0.12)">
       <defs>
        <path d="M 2034 2216 
Q 1584 2216 1326 1975 
Q 1069 1734 1069 1313 
Q 1069 891 1326 650 
Q 1584 409 2034 409 
Q 2484 409 2743 651 
Q 3003 894 3003 1313 
Q 3003 1734 2745 1975 
Q 2488 2216 2034 2216 
z
M 1403 2484 
Q 997 2584 770 2862 
Q 544 3141 544 3541 
Q 544 4100 942 4425 
Q 1341 4750 2034 4750 
Q 2731 4750 3128 4425 
Q 3525 4100 3525 3541 
Q 3525 3141 3298 2862 
Q 3072 2584 2669 2484 
Q 3125 2378 3379 2068 
Q 3634 1759 3634 1313 
Q 3634 634 3220 271 
Q 2806 -91 2034 -91 
Q 1263 -91 848 271 
Q 434 634 434 1313 
Q 434 1759 690 2068 
Q 947 2378 1403 2484 
z
M 1172 3481 
Q 1172 3119 1398 2916 
Q 1625 2713 2034 2713 
Q 2441 2713 2670 2916 
Q 2900 3119 2900 3481 
Q 2900 3844 2670 4047 
Q 2441 4250 2034 4250 
Q 1625 4250 1398 4047 
Q 1172 3844 1172 3481 
z
" id="DejaVuSans-38" transform="scale(0.015625)"/>
       </defs>
       <use xlink:href="#DejaVuSans-34"/>
       <use x="63.623047" xlink:href="#DejaVuSans-38"/>
       <use x="127.246094" xlink:href="#DejaVuSans-30"/>
       <use x="190.869141" xlink:href="#DejaVuSans-30"/>
      </g>
     </g>
    </g>
    <g id="xtick_7">
     <g id="line2d_7">
      <g>
       <use style="stroke:#000000;stroke-width:0.8;" x="358.881273" xlink:href="#mbd2f902c94" y="235.2"/>
      </g>
     </g>
     <g id="text_7">
      <!-- 4900 -->
      <g transform="translate(343.611273 251.318125)scale(0.12 -0.12)">
       <defs>
        <path d="M 703 97 
L 703 672 
Q 941 559 1184 500 
Q 1428 441 1663 441 
Q 2288 441 2617 861 
Q 2947 1281 2994 2138 
Q 2813 1869 2534 1725 
Q 2256 1581 1919 1581 
Q 1219 1581 811 2004 
Q 403 2428 403 3163 
Q 403 3881 828 4315 
Q 1253 4750 1959 4750 
Q 2769 4750 3195 4129 
Q 3622 3509 3622 2328 
Q 3622 1225 3098 567 
Q 2575 -91 1691 -91 
Q 1453 -91 1209 -44 
Q 966 3 703 97 
z
M 1959 2075 
Q 2384 2075 2632 2365 
Q 2881 2656 2881 3163 
Q 2881 3666 2632 3958 
Q 2384 4250 1959 4250 
Q 1534 4250 1286 3958 
Q 1038 3666 1038 3163 
Q 1038 2656 1286 2365 
Q 1534 2075 1959 2075 
z
" id="DejaVuSans-39" transform="scale(0.015625)"/>
       </defs>
       <use xlink:href="#DejaVuSans-34"/>
       <use x="63.623047" xlink:href="#DejaVuSans-39"/>
       <use x="127.246094" xlink:href="#DejaVuSans-30"/>
       <use x="190.869141" xlink:href="#DejaVuSans-30"/>
      </g>
     </g>
    </g>
    <g id="xtick_8">
     <g id="line2d_8">
      <g>
       <use style="stroke:#000000;stroke-width:0.8;" x="404.23162" xlink:href="#mbd2f902c94" y="235.2"/>
      </g>
     </g>
     <g id="text_8">
      <!-- 5000 -->
      <g transform="translate(388.96162 251.318125)scale(0.12 -0.12)">
       <use xlink:href="#DejaVuSans-35"/>
       <use x="63.623047" xlink:href="#DejaVuSans-30"/>
       <use x="127.246094" xlink:href="#DejaVuSans-30"/>
       <use x="190.869141" xlink:href="#DejaVuSans-30"/>
      </g>
     </g>
    </g>
    <g id="text_9">
     <!-- $t$ -->
     <g transform="translate(230.341067 271.490937)scale(0.18 -0.18)">
      <defs>
       <path d="M 2706 3500 
L 2619 3053 
L 1472 3053 
L 1100 1153 
Q 1081 1047 1072 975 
Q 1063 903 1063 863 
Q 1063 663 1183 572 
Q 1303 481 1569 481 
L 2150 481 
L 2053 0 
L 1503 0 
Q 991 0 739 200 
Q 488 400 488 806 
Q 488 878 497 964 
Q 506 1050 525 1153 
L 897 3053 
L 409 3053 
L 500 3500 
L 978 3500 
L 1172 4494 
L 1747 4494 
L 1556 3500 
L 2706 3500 
z
" id="DejaVuSans-Oblique-74" transform="scale(0.015625)"/>
      </defs>
      <use transform="translate(0 0.78125)" xlink:href="#DejaVuSans-Oblique-74"/>
     </g>
    </g>
   </g>
   <g id="matplotlib.axis_2">
    <g id="ytick_1">
     <g id="line2d_9">
      <defs>
       <path d="M 0 0 
L -3.5 0 
" id="mb355e2f11a" style="stroke:#000000;stroke-width:0.8;"/>
      </defs>
      <g>
       <use style="stroke:#000000;stroke-width:0.8;" x="47.120313" xlink:href="#mb355e2f11a" y="208.624393"/>
      </g>
     </g>
     <g id="text_10">
      <!-- 0.4 -->
      <g transform="translate(21.036563 213.183455)scale(0.12 -0.12)">
       <defs>
        <path d="M 684 794 
L 1344 794 
L 1344 0 
L 684 0 
L 684 794 
z
" id="DejaVuSans-2e" transform="scale(0.015625)"/>
       </defs>
       <use xlink:href="#DejaVuSans-30"/>
       <use x="63.623047" xlink:href="#DejaVuSans-2e"/>
       <use x="95.410156" xlink:href="#DejaVuSans-34"/>
      </g>
     </g>
    </g>
    <g id="ytick_2">
     <g id="line2d_10">
      <g>
       <use style="stroke:#000000;stroke-width:0.8;" x="47.120313" xlink:href="#mb355e2f11a" y="168.56419"/>
      </g>
     </g>
     <g id="text_11">
      <!-- 0.6 -->
      <g transform="translate(21.036563 173.123252)scale(0.12 -0.12)">
       <use xlink:href="#DejaVuSans-30"/>
       <use x="63.623047" xlink:href="#DejaVuSans-2e"/>
       <use x="95.410156" xlink:href="#DejaVuSans-36"/>
      </g>
     </g>
    </g>
    <g id="ytick_3">
     <g id="line2d_11">
      <g>
       <use style="stroke:#000000;stroke-width:0.8;" x="47.120313" xlink:href="#mb355e2f11a" y="128.503987"/>
      </g>
     </g>
     <g id="text_12">
      <!-- 0.8 -->
      <g transform="translate(21.036563 133.063049)scale(0.12 -0.12)">
       <use xlink:href="#DejaVuSans-30"/>
       <use x="63.623047" xlink:href="#DejaVuSans-2e"/>
       <use x="95.410156" xlink:href="#DejaVuSans-38"/>
      </g>
     </g>
    </g>
    <g id="ytick_4">
     <g id="line2d_12">
      <g>
       <use style="stroke:#000000;stroke-width:0.8;" x="47.120313" xlink:href="#mb355e2f11a" y="88.443784"/>
      </g>
     </g>
     <g id="text_13">
      <!-- 1.0 -->
      <g transform="translate(21.036563 93.002847)scale(0.12 -0.12)">
       <defs>
        <path d="M 794 531 
L 1825 531 
L 1825 4091 
L 703 3866 
L 703 4441 
L 1819 4666 
L 2450 4666 
L 2450 531 
L 3481 531 
L 3481 0 
L 794 0 
L 794 531 
z
" id="DejaVuSans-31" transform="scale(0.015625)"/>
       </defs>
       <use xlink:href="#DejaVuSans-31"/>
       <use x="63.623047" xlink:href="#DejaVuSans-2e"/>
       <use x="95.410156" xlink:href="#DejaVuSans-30"/>
      </g>
     </g>
    </g>
    <g id="ytick_5">
     <g id="line2d_13">
      <g>
       <use style="stroke:#000000;stroke-width:0.8;" x="47.120313" xlink:href="#mb355e2f11a" y="48.383581"/>
      </g>
     </g>
     <g id="text_14">
      <!-- 1.2 -->
      <g transform="translate(21.036563 52.942644)scale(0.12 -0.12)">
       <defs>
        <path d="M 1228 531 
L 3431 531 
L 3431 0 
L 469 0 
L 469 531 
Q 828 903 1448 1529 
Q 2069 2156 2228 2338 
Q 2531 2678 2651 2914 
Q 2772 3150 2772 3378 
Q 2772 3750 2511 3984 
Q 2250 4219 1831 4219 
Q 1534 4219 1204 4116 
Q 875 4013 500 3803 
L 500 4441 
Q 881 4594 1212 4672 
Q 1544 4750 1819 4750 
Q 2544 4750 2975 4387 
Q 3406 4025 3406 3419 
Q 3406 3131 3298 2873 
Q 3191 2616 2906 2266 
Q 2828 2175 2409 1742 
Q 1991 1309 1228 531 
z
" id="DejaVuSans-32" transform="scale(0.015625)"/>
       </defs>
       <use xlink:href="#DejaVuSans-31"/>
       <use x="63.623047" xlink:href="#DejaVuSans-2e"/>
       <use x="95.410156" xlink:href="#DejaVuSans-32"/>
      </g>
     </g>
    </g>
    <g id="text_15">
     <!-- $p$ -->
     <g transform="translate(11.276563 119.22)scale(0.18 -0.18)">
      <defs>
       <path d="M 3175 2156 
Q 3175 2616 2975 2859 
Q 2775 3103 2400 3103 
Q 2144 3103 1911 2972 
Q 1678 2841 1497 2591 
Q 1319 2344 1212 1994 
Q 1106 1644 1106 1300 
Q 1106 863 1306 627 
Q 1506 391 1875 391 
Q 2147 391 2380 519 
Q 2613 647 2778 891 
Q 2956 1147 3065 1494 
Q 3175 1841 3175 2156 
z
M 1394 2969 
Q 1625 3272 1939 3428 
Q 2253 3584 2638 3584 
Q 3175 3584 3472 3232 
Q 3769 2881 3769 2247 
Q 3769 1728 3584 1258 
Q 3400 788 3053 416 
Q 2822 169 2531 39 
Q 2241 -91 1919 -91 
Q 1547 -91 1294 64 
Q 1041 219 916 525 
L 556 -1331 
L -19 -1331 
L 922 3500 
L 1497 3500 
L 1394 2969 
z
" id="DejaVuSans-Oblique-70" transform="scale(0.015625)"/>
      </defs>
      <use xlink:href="#DejaVuSans-Oblique-70"/>
     </g>
    </g>
   </g>
   <g id="line2d_14">
    <path clip-path="url(#p08b700709e)" d="M 64.104017 86.156542 
L 64.557521 89.927511 
L 65.011024 92.650487 
L 65.464528 94.170962 
L 65.918031 94.452472 
L 66.371535 93.605579 
L 67.278542 89.81612 
L 67.732045 87.931472 
L 68.185549 86.995177 
L 68.639052 87.793937 
L 69.092556 90.922398 
L 69.546059 96.429444 
L 71.813576 133.307641 
L 72.26708 137.748124 
L 72.720583 140.302479 
L 73.174087 140.84843 
L 73.62759 139.435124 
L 74.081094 136.303487 
L 74.988101 126.616237 
L 76.348611 111.077075 
L 76.802115 107.297247 
L 77.255618 104.594287 
L 77.709122 102.917999 
L 78.616129 101.139915 
L 79.069632 99.654352 
L 79.523135 96.698767 
L 79.976639 91.840428 
L 80.883646 77.933007 
L 81.790653 63.82906 
L 82.69766 52.917198 
L 84.05817 40.585992 
L 85.418681 30.152243 
L 85.872184 27.714557 
L 86.325688 26.183085 
L 86.779191 25.605406 
L 87.232694 25.841613 
L 87.686198 26.629532 
L 88.593205 28.918981 
L 89.046708 30.350446 
L 89.500212 32.341245 
L 89.953715 35.486315 
L 90.407219 40.456964 
L 90.860722 47.650502 
L 91.767729 67.747564 
L 94.942253 147.368868 
L 96.302764 174.683953 
L 97.209771 189.487059 
L 98.116778 201.421199 
L 99.023785 210.731611 
L 99.930792 217.546466 
L 100.384295 219.77468 
L 100.837799 220.806256 
L 101.291302 220.0724 
L 101.744806 216.794387 
L 102.198309 210.148115 
L 102.651812 199.688532 
L 103.558819 170.094518 
L 104.465826 139.540773 
L 105.372833 117.047714 
L 105.826337 109.479321 
L 106.27984 104.165487 
L 106.733344 100.837786 
L 107.186847 99.205822 
L 107.640351 98.985737 
L 108.093854 99.914549 
L 108.547358 101.757352 
L 109.454365 107.384205 
L 111.721882 123.889438 
L 112.175385 125.300284 
L 112.628889 124.946023 
L 113.082392 122.303364 
L 113.535896 117.114119 
L 114.442903 100.457481 
L 115.34991 82.518116 
L 115.803413 75.842588 
L 116.256917 71.116104 
L 116.71042 67.981801 
L 117.617427 64.265964 
L 118.524434 60.80468 
L 119.431441 55.563544 
L 120.338448 48.43061 
L 122.152462 33.256981 
L 123.059469 27.225743 
L 123.512972 24.920463 
L 123.966476 23.650407 
L 124.419979 24.315646 
L 124.873483 27.810581 
L 125.326986 34.304423 
L 126.233993 53.119076 
L 128.048007 93.064266 
L 130.769028 145.001091 
L 132.583042 177.198399 
L 133.943552 197.598381 
L 134.850559 208.404528 
L 135.304062 212.409047 
L 135.757566 214.99993 
L 136.211069 215.684322 
L 136.664573 213.91488 
L 137.118076 209.218484 
L 137.57158 201.387252 
L 138.478587 177.604178 
L 140.292601 121.717919 
L 141.199607 101.868919 
L 141.653111 95.054811 
L 142.106614 90.248299 
L 142.560118 87.288822 
L 143.013621 85.978855 
L 143.467125 86.10861 
L 143.920628 87.468297 
L 144.374132 89.848397 
L 145.281139 96.7721 
L 146.641649 108.219542 
L 147.095153 110.752692 
L 147.548656 111.849335 
L 148.00216 111.067153 
L 148.455663 108.103106 
L 148.909166 102.887685 
L 149.816173 87.306448 
L 150.72318 72.238726 
L 151.176684 68.010545 
L 151.630187 66.452948 
L 152.083691 67.050863 
L 152.537194 69.028873 
L 153.897705 76.206105 
L 154.351208 77.311012 
L 154.804712 77.256723 
L 155.258215 75.945246 
L 155.711719 73.435843 
L 156.618725 65.774231 
L 157.979236 52.879332 
L 158.432739 49.613609 
L 158.886243 47.624754 
L 159.339746 47.6404 
L 159.79325 50.391997 
L 160.246753 56.09765 
L 161.15376 73.352984 
L 162.060767 91.166151 
L 162.967774 104.241483 
L 163.421278 108.577071 
L 163.874781 111.66472 
L 164.781788 115.68208 
L 165.235291 117.5721 
L 165.688795 119.98965 
L 166.142298 123.254419 
L 167.049305 132.718682 
L 168.409816 151.911026 
L 169.316823 164.770808 
L 169.770326 170.123356 
L 170.22383 174.034142 
L 170.677333 175.801908 
L 171.130837 174.741761 
L 171.58434 170.474126 
L 172.037843 163.200965 
L 172.94485 142.945129 
L 174.758864 100.962523 
L 176.119375 75.793465 
L 177.026382 62.000257 
L 177.933389 51.697318 
L 178.386892 48.318928 
L 178.840395 46.236414 
L 179.293899 45.400174 
L 179.747402 45.649336 
L 180.200906 46.711085 
L 181.107913 49.610156 
L 181.561416 50.40043 
L 182.01492 50.072053 
L 182.468423 48.335766 
L 182.921927 45.247105 
L 183.828934 37.357999 
L 184.282437 34.599599 
L 184.735941 34.064674 
L 185.189444 36.382138 
L 185.642948 41.637858 
L 186.096451 49.4832 
L 187.003458 70.521525 
L 189.270975 127.998916 
L 190.177982 145.971027 
L 191.084989 159.787895 
L 191.991996 170.322777 
L 194.259513 195.044979 
L 195.16652 204.235847 
L 195.620024 207.584779 
L 196.073527 209.501977 
L 196.527031 209.345975 
L 196.980534 206.307935 
L 197.434038 199.610615 
L 197.887541 189.000461 
L 200.608562 109.734025 
L 201.515569 96.035596 
L 201.969072 91.523495 
L 202.422576 88.304765 
L 202.876079 86.255665 
L 203.329583 85.302056 
L 203.783086 85.387111 
L 204.23659 86.437667 
L 204.690093 88.342267 
L 205.5971 94.026053 
L 206.504107 100.483172 
L 206.957611 103.047479 
L 207.411114 104.447064 
L 207.864618 104.063687 
L 208.318121 101.400626 
L 208.771625 96.315693 
L 210.585638 67.43671 
L 211.039142 63.759503 
L 211.492645 62.402246 
L 211.946149 62.957974 
L 212.399652 64.876193 
L 214.213666 75.972988 
L 214.66717 77.581266 
L 215.120673 78.172213 
L 215.574177 77.641278 
L 216.02768 76.012413 
L 216.481184 73.444768 
L 218.295197 60.840908 
L 218.748701 59.706119 
L 219.202204 60.809474 
L 219.655708 64.712261 
L 220.109211 71.285415 
L 222.376729 113.414652 
L 222.830232 119.13708 
L 223.283736 123.363901 
L 223.737239 126.159286 
L 224.190743 127.730723 
L 224.644246 128.409774 
L 225.551253 128.786963 
L 226.004756 129.353536 
L 226.45826 130.645372 
L 226.911763 132.855441 
L 227.365267 136.006261 
L 228.272274 144.422678 
L 229.179281 153.167269 
L 229.632784 156.219207 
L 230.086288 157.333075 
L 230.539791 155.70384 
L 230.993295 150.873464 
L 231.446798 143.051919 
L 232.807308 111.202118 
L 234.167819 82.440748 
L 235.074826 67.375313 
L 235.981833 55.046773 
L 236.88884 45.028178 
L 237.795847 37.345153 
L 238.24935 34.556038 
L 238.702854 32.564848 
L 239.156357 31.361456 
L 239.609861 30.817495 
L 240.516867 30.482099 
L 240.970371 29.82113 
L 241.423874 28.332274 
L 242.784385 21.989196 
L 243.237888 22.613655 
L 243.691392 26.199596 
L 244.144895 32.807583 
L 245.051902 52.947772 
L 248.67993 148.857644 
L 249.586937 167.165924 
L 250.493944 182.332668 
L 251.854454 200.657758 
L 253.214965 215.770183 
L 254.121972 222.878505 
L 254.575475 224.669267 
L 255.028979 224.567868 
L 255.482482 221.771625 
L 255.935985 215.386526 
L 256.389489 204.875077 
L 257.296496 174.393819 
L 258.203503 143.059487 
L 259.11051 120.285457 
L 259.564013 112.602435 
L 260.017517 107.116076 
L 260.47102 103.536028 
L 260.924524 101.578505 
L 261.378027 100.993597 
L 261.831531 101.574139 
L 262.285034 103.150212 
L 262.738538 105.571801 
L 263.645544 112.334749 
L 265.459558 127.457811 
L 265.913062 129.505516 
L 266.366565 129.747104 
L 266.820069 127.597891 
L 267.273572 122.750223 
L 268.180579 106.18296 
L 269.087586 87.223168 
L 269.994593 73.846804 
L 270.448097 69.670724 
L 271.355103 64.269757 
L 272.26211 59.840443 
L 273.169117 54.130532 
L 274.529628 42.696748 
L 275.890138 31.615478 
L 276.797145 25.781341 
L 277.250649 23.306642 
L 277.704152 21.450179 
L 278.157656 21 
L 278.611159 23.004062 
L 279.064662 28.052925 
L 279.971669 45.352195 
L 283.146194 115.677017 
L 285.413711 160.649506 
L 286.774221 184.211923 
L 288.134732 203.721223 
L 289.041739 213.627718 
L 289.495242 217.022933 
L 289.948746 218.873612 
L 290.402249 218.672468 
L 290.855753 215.864715 
L 291.309256 209.989166 
L 291.76276 200.887711 
L 292.669767 174.769905 
L 294.030277 130.958109 
L 294.937284 109.052222 
L 295.390787 101.370516 
L 295.844291 95.822243 
L 296.297794 92.235578 
L 296.751298 90.396232 
L 297.204801 90.079652 
L 297.658305 91.067001 
L 298.111808 93.147724 
L 299.018815 99.739258 
L 300.832829 115.134211 
L 301.286333 117.268155 
L 301.739836 117.769317 
L 302.193339 116.207193 
L 302.646843 112.320258 
L 303.100346 106.130273 
L 304.91436 74.099203 
L 305.367864 69.968935 
L 305.821367 68.172 
L 306.274871 68.09906 
L 306.728374 69.010865 
L 307.635381 71.190472 
L 308.088885 71.483465 
L 308.542388 70.828499 
L 308.995892 69.097473 
L 309.449395 66.319441 
L 310.356402 58.430009 
L 312.170416 41.479787 
L 312.623919 38.459176 
L 313.077423 36.663647 
L 313.530926 36.87739 
L 313.98443 39.904557 
L 314.437933 45.944934 
L 315.34494 63.789119 
L 316.705451 90.269095 
L 317.612457 102.865269 
L 320.333478 133.426873 
L 321.693989 154.510652 
L 323.508003 182.369775 
L 324.41501 192.17462 
L 324.868513 194.643201 
L 325.322016 194.703858 
L 325.77552 191.870859 
L 326.229023 186.014897 
L 327.13603 167.031307 
L 329.857051 98.399007 
L 330.764058 80.827001 
L 331.671065 68.878382 
L 332.124569 65.308223 
L 332.578072 63.309409 
L 333.031575 62.760709 
L 333.485079 63.484786 
L 333.938582 65.253581 
L 334.845589 70.712326 
L 335.752596 75.968243 
L 336.2061 77.276833 
L 336.659603 77.100325 
L 337.113107 75.179636 
L 337.56661 71.501749 
L 338.473617 60.395386 
L 338.927121 54.670769 
L 339.380624 50.494079 
L 339.834128 49.051198 
L 340.287631 50.925599 
L 340.741134 55.917381 
L 341.648141 72.085369 
L 343.462155 107.777081 
L 344.369162 120.15027 
L 344.822666 124.244149 
L 345.276169 126.937586 
L 345.729673 128.423302 
L 346.183176 129.083544 
L 346.63668 129.464256 
L 347.090183 130.197826 
L 347.543687 131.884673 
L 347.99719 134.947115 
L 348.450693 139.490804 
L 350.718211 168.399963 
L 351.171714 170.852888 
L 351.625218 170.626307 
L 352.078721 167.214585 
L 352.532225 160.537682 
L 353.439232 139.935017 
L 355.253246 95.36817 
L 356.160252 77.962123 
L 357.067259 63.729933 
L 357.974266 52.225648 
L 358.881273 43.817973 
L 359.334777 41.175045 
L 359.78828 39.724947 
L 360.241784 39.408528 
L 360.695287 40.009174 
L 362.055798 43.241849 
L 362.509301 43.085377 
L 362.962805 41.604053 
L 363.416308 38.808152 
L 364.323315 32.072787 
L 364.776818 30.637839 
L 365.230322 32.016525 
L 365.683825 36.567838 
L 366.137329 43.993027 
L 367.044336 64.796141 
L 369.765357 135.604814 
L 370.672364 154.217964 
L 371.57937 168.954586 
L 372.486377 180.430017 
L 374.753895 205.004151 
L 375.660902 212.845463 
L 376.114405 215.16836 
L 376.567909 215.713171 
L 377.021412 213.721378 
L 377.474916 208.337481 
L 377.928419 198.979092 
L 378.835426 170.519492 
L 379.742433 139.960067 
L 380.64944 116.888711 
L 381.102943 108.755142 
L 381.556447 102.634806 
L 382.00995 98.24454 
L 382.463454 95.316755 
L 382.916957 93.634274 
L 383.370461 93.041719 
L 383.823964 93.432979 
L 384.277468 94.722148 
L 384.730971 96.810962 
L 385.637978 102.809992 
L 386.998488 112.74086 
L 387.451992 114.751371 
L 387.905495 115.167431 
L 388.358999 113.400839 
L 388.812502 109.108778 
L 389.266006 102.415262 
L 390.626516 77.276685 
L 391.08002 71.177736 
L 391.533523 67.179347 
L 391.987027 65.040172 
L 392.44053 64.283963 
L 392.894034 64.392457 
L 393.801041 65.373822 
L 394.254544 65.502553 
L 394.708047 65.01839 
L 395.161551 63.755316 
L 395.615054 61.658821 
L 396.522061 55.331901 
L 398.336075 40.644879 
L 398.789579 38.214396 
L 399.243082 37.254554 
L 399.696586 38.626014 
L 400.150089 42.966422 
L 400.603593 50.12888 
L 403.778117 111.97869 
L 403.778117 111.97869 
" style="fill:none;stroke:#ff0000;stroke-linecap:square;stroke-width:1.5;"/>
   </g>
   <g id="line2d_15">
    <path clip-path="url(#p08b700709e)" d="M 64.104017 80.587593 
L 64.557521 87.102047 
L 65.011024 90.762305 
L 65.464528 93.388049 
L 65.918031 94.406326 
L 66.371535 94.696075 
L 66.825038 94.185049 
L 67.278542 89.496696 
L 67.732045 90.180666 
L 68.185549 89.285237 
L 68.639052 86.375659 
L 69.092556 86.148215 
L 69.546059 89.648242 
L 69.999563 94.036021 
L 70.90657 109.787842 
L 71.360073 120.379934 
L 71.813576 127.487732 
L 72.26708 131.414328 
L 72.720583 137.620152 
L 73.174087 141.40867 
L 74.081094 139.827257 
L 74.534597 137.026933 
L 74.988101 132.862949 
L 75.441604 125.841371 
L 75.895108 122.606675 
L 76.802115 111.106945 
L 77.255618 107.403137 
L 77.709122 105.991017 
L 78.616129 101.87952 
L 79.069632 101.246276 
L 79.523135 100.015281 
L 79.976639 97.39948 
L 80.883646 87.204126 
L 81.790653 71.406992 
L 82.244156 61.054931 
L 82.69766 57.215185 
L 83.151163 55.552209 
L 83.604667 46.527811 
L 84.05817 43.408913 
L 84.965177 36.254418 
L 85.418681 28.543458 
L 85.872184 26.523897 
L 86.325688 26.797409 
L 86.779191 24.292499 
L 87.232694 26.478962 
L 87.686198 23.088314 
L 88.593205 26.738754 
L 89.046708 29.034975 
L 89.500212 28.094736 
L 89.953715 29.973702 
L 90.407219 33.687077 
L 92.221233 67.664793 
L 93.12824 90.144416 
L 93.581743 99.925033 
L 94.035247 112.582754 
L 94.48875 120.33953 
L 94.942253 124.58193 
L 95.395757 135.476484 
L 96.302764 176.801653 
L 96.756267 188.545945 
L 98.116778 195.932165 
L 99.477288 209.9144 
L 99.930792 213.744959 
L 100.384295 216.316202 
L 100.837799 218.129464 
L 101.291302 219.011677 
L 101.744806 219.014194 
L 102.198309 216.664983 
L 102.651812 210.389806 
L 103.105316 200.383129 
L 104.012323 170.127346 
L 104.91933 138.866503 
L 105.826337 118.10851 
L 106.27984 114.697346 
L 107.186847 101.341432 
L 107.640351 97.341329 
L 108.093854 100.024092 
L 108.547358 98.505362 
L 109.454365 101.372899 
L 110.361371 112.402636 
L 110.814875 114.447245 
L 111.268378 120.090562 
L 111.721882 122.517434 
L 112.175385 126.135652 
L 112.628889 126.696397 
L 113.082392 125.986498 
L 113.989399 116.961344 
L 114.896406 102.27865 
L 115.803413 82.287071 
L 116.256917 75.421696 
L 117.163924 67.768383 
L 117.617427 66.21592 
L 118.524434 60.960908 
L 119.431441 59.201265 
L 119.884944 55.841959 
L 120.338448 54.357717 
L 120.791951 50.266233 
L 121.245455 44.467342 
L 121.698958 41.725925 
L 122.152462 37.084144 
L 122.605965 34.248577 
L 123.512972 26.924536 
L 123.966476 24.01735 
L 124.419979 22.523038 
L 124.873483 24.324218 
L 125.780489 34.966153 
L 126.233993 42.356904 
L 129.408517 109.402811 
L 131.222531 145.88078 
L 132.129538 163.101363 
L 132.583042 168.757518 
L 134.850559 202.901381 
L 135.304062 208.424117 
L 135.757566 212.543417 
L 136.211069 214.979603 
L 136.664573 215.491259 
L 137.118076 213.913119 
L 137.57158 209.290344 
L 138.025083 201.326891 
L 138.93209 177.838936 
L 140.746104 121.923083 
L 141.653111 102.250958 
L 142.106614 95.000048 
L 142.560118 90.192498 
L 143.013621 87.124326 
L 143.467125 85.843361 
L 143.920628 85.411506 
L 144.374132 86.952641 
L 146.188146 99.31306 
L 146.641649 105.486536 
L 147.095153 107.671362 
L 147.548656 110.456079 
L 148.00216 111.733141 
L 148.455663 110.852061 
L 148.909166 108.031347 
L 149.36267 103.418138 
L 151.176684 73.084694 
L 151.630187 68.011435 
L 152.083691 66.082877 
L 152.990698 68.881439 
L 153.444201 72.164343 
L 153.897705 73.895287 
L 154.351208 77.289333 
L 154.804712 76.216178 
L 155.258215 78.150652 
L 155.711719 75.104129 
L 156.165222 73.466076 
L 156.618725 70.473173 
L 157.979236 56.975028 
L 158.886243 49.482827 
L 159.339746 47.908463 
L 159.79325 47.210396 
L 160.246753 50.351949 
L 160.700257 56.31598 
L 161.607264 72.935791 
L 162.967774 99.009088 
L 163.421278 105.139516 
L 164.328284 110.773016 
L 164.781788 113.625953 
L 165.235291 115.129075 
L 166.142298 120.17351 
L 167.502809 131.888727 
L 169.316823 158.717864 
L 170.22383 170.938191 
L 170.677333 174.702165 
L 171.130837 175.363982 
L 171.58434 173.18784 
L 172.037843 170.446423 
L 172.94485 154.721159 
L 174.305361 121.11765 
L 175.665871 92.740204 
L 177.026382 68.705475 
L 178.386892 51.265126 
L 178.840395 46.491435 
L 179.293899 44.349277 
L 179.747402 43.697026 
L 180.200906 44.962131 
L 180.654409 45.478444 
L 181.107913 49.559355 
L 181.561416 48.52396 
L 182.01492 51.573378 
L 182.468423 49.672385 
L 182.921927 48.926488 
L 183.37543 45.654912 
L 184.282437 36.081475 
L 184.735941 34.314783 
L 185.189444 34.347509 
L 185.642948 37.313854 
L 186.096451 41.789992 
L 186.549954 48.606026 
L 187.003458 57.332746 
L 188.817472 106.835847 
L 190.631486 145.925212 
L 192.4455 170.667951 
L 192.899003 174.156651 
L 193.352507 178.640341 
L 194.259513 190.533662 
L 194.713017 194.552771 
L 195.16652 200.385772 
L 195.620024 201.759124 
L 196.073527 206.215123 
L 196.527031 209.06076 
L 196.980534 210.065191 
L 197.434038 205.881571 
L 197.887541 199.298897 
L 198.794548 176.962639 
L 199.701555 144.669925 
L 200.608562 120.818083 
L 201.515569 101.927225 
L 202.422576 90.356505 
L 202.876079 87.802883 
L 203.329583 86.236952 
L 203.783086 85.966838 
L 204.23659 85.16858 
L 204.690093 86.485165 
L 205.143597 89.132055 
L 205.5971 92.574561 
L 206.050604 95.044983 
L 206.957611 100.87018 
L 207.411114 103.581389 
L 207.864618 105.443111 
L 208.318121 104.311427 
L 208.771625 100.171232 
L 209.678631 88.835005 
L 210.132135 82.025012 
L 211.039142 64.858805 
L 211.492645 62.799973 
L 211.946149 63.313265 
L 212.399652 61.831037 
L 213.760163 70.349696 
L 214.213666 73.777223 
L 214.66717 74.688008 
L 215.120673 78.242284 
L 215.574177 78.699691 
L 216.02768 78.231711 
L 216.934687 73.349144 
L 217.38819 69.815635 
L 217.841694 67.249931 
L 218.748701 60.159754 
L 219.202204 59.723997 
L 219.655708 62.249676 
L 220.109211 65.879474 
L 221.016218 78.076641 
L 222.376729 106.462521 
L 223.283736 119.49105 
L 224.644246 127.907378 
L 225.097749 128.385553 
L 225.551253 128.664226 
L 226.004756 128.781661 
L 226.45826 129.531586 
L 227.365267 133.671907 
L 228.272274 140.132363 
L 229.632784 152.907771 
L 230.086288 155.956182 
L 230.539791 157.178239 
L 230.993295 155.859514 
L 231.446798 151.969798 
L 232.353805 133.216263 
L 233.260812 108.76516 
L 234.167819 93.488618 
L 234.621322 84.227838 
L 235.074826 77.408279 
L 235.981833 61.044358 
L 236.435336 55.308779 
L 237.342343 46.911584 
L 238.24935 36.4981 
L 238.702854 33.540818 
L 239.156357 34.635748 
L 240.516867 28.61835 
L 240.970371 29.133026 
L 241.423874 29.204394 
L 242.784385 24.035097 
L 243.237888 23.471836 
L 243.691392 22.463125 
L 244.144895 25.001894 
L 244.598399 30.167288 
L 245.505406 49.531286 
L 248.226426 127.911783 
L 249.586937 158.309294 
L 250.493944 175.096134 
L 251.400951 188.183947 
L 252.307958 202.078453 
L 253.668468 216.229478 
L 254.121972 219.773434 
L 255.028979 224.403131 
L 255.482482 225 
L 255.935985 221.494686 
L 256.389489 215.36816 
L 256.842992 205.393201 
L 257.749999 174.723311 
L 258.657006 143.439685 
L 259.564013 121.921447 
L 260.47102 106.936542 
L 261.378027 101.019083 
L 261.831531 101.464658 
L 262.285034 100.760801 
L 262.738538 105.977297 
L 263.192041 104.393871 
L 264.099048 114.618552 
L 264.552551 116.021357 
L 265.006055 121.75744 
L 265.913062 127.847842 
L 266.366565 128.000269 
L 266.820069 128.336086 
L 267.273572 126.518293 
L 267.727076 122.622283 
L 268.180579 115.635067 
L 269.087586 96.695372 
L 269.54109 86.457222 
L 269.994593 79.139224 
L 270.9016 68.525357 
L 271.355103 67.234071 
L 271.808607 63.957335 
L 272.26211 63.282805 
L 272.715614 59.787183 
L 273.622621 55.751207 
L 274.076124 52.119773 
L 274.529628 46.701635 
L 275.890138 35.086735 
L 276.343642 32.532988 
L 276.797145 28.148986 
L 277.250649 25.445706 
L 278.157656 21.737618 
L 278.611159 21.013371 
L 279.064662 24.008413 
L 279.518166 27.91487 
L 279.971669 35.187682 
L 281.33218 66.407115 
L 282.69269 96.501786 
L 285.867215 160.340813 
L 287.681228 191.910412 
L 289.041739 209.141316 
L 289.948746 217.391623 
L 290.402249 218.896885 
L 290.855753 218.654965 
L 291.309256 215.794476 
L 291.76276 209.763736 
L 292.216263 200.487348 
L 293.12327 175.03106 
L 294.48378 130.717897 
L 295.390787 108.784796 
L 295.844291 101.114491 
L 296.297794 95.495592 
L 296.751298 92.143712 
L 297.204801 90.521267 
L 297.658305 89.344899 
L 298.111808 91.042614 
L 298.565312 93.19761 
L 299.018815 96.067791 
L 301.286333 114.578778 
L 301.739836 116.772163 
L 302.193339 117.763882 
L 302.646843 116.668448 
L 303.100346 113.276416 
L 303.55385 106.650317 
L 304.91436 80.860602 
L 305.367864 74.615507 
L 305.821367 69.981908 
L 306.274871 67.979087 
L 306.728374 67.988779 
L 307.181878 68.179596 
L 307.635381 70.991374 
L 308.088885 71.016799 
L 308.542388 71.934381 
L 308.995892 71.149591 
L 309.449395 69.55257 
L 311.263409 53.664307 
L 312.170416 44.927895 
L 312.623919 40.805448 
L 313.077423 39.225923 
L 313.530926 35.99387 
L 313.98443 36.893453 
L 314.437933 39.889125 
L 315.34494 54.219135 
L 316.705451 83.066323 
L 317.158954 90.911333 
L 318.972968 112.370665 
L 320.786982 133.514193 
L 321.240485 139.043977 
L 322.147492 154.800582 
L 323.961506 182.329548 
L 324.41501 188.515611 
L 324.868513 192.953611 
L 325.322016 194.874491 
L 325.77552 194.363716 
L 326.229023 191.191954 
L 326.682527 186.113409 
L 327.589534 166.875657 
L 330.764058 89.154586 
L 331.217562 80.089531 
L 332.578072 64.029331 
L 333.031575 60.326782 
L 333.485079 61.126047 
L 333.938582 62.153386 
L 334.392086 64.028702 
L 334.845589 69.076409 
L 335.299093 69.448351 
L 335.752596 73.019997 
L 336.2061 75.592625 
L 336.659603 76.264637 
L 337.113107 76.597937 
L 337.56661 74.431488 
L 338.020114 71.324548 
L 338.927121 60.532199 
L 339.380624 53.630951 
L 339.834128 50.569576 
L 340.287631 49.832742 
L 340.741134 50.245968 
L 341.194638 54.487487 
L 342.101645 70.585448 
L 343.462155 98.445448 
L 344.822666 121.250441 
L 345.276169 125.770507 
L 345.729673 127.58163 
L 346.183176 128.644464 
L 346.63668 129.305149 
L 347.090183 129.352223 
L 347.543687 128.502736 
L 347.99719 130.52343 
L 350.718211 161.777603 
L 351.171714 168.146804 
L 351.625218 172.6169 
L 352.078721 170.701307 
L 352.532225 165.729876 
L 353.439232 150.399714 
L 355.706749 97.341581 
L 356.613756 75.758646 
L 357.067259 67.84189 
L 357.520763 63.630957 
L 358.881273 48.71805 
L 360.241784 40.184538 
L 360.695287 39.596732 
L 361.148791 39.32045 
L 362.055798 45.640311 
L 362.509301 43.380845 
L 362.962805 42.922557 
L 365.230322 32.20938 
L 365.683825 33.414194 
L 366.137329 38.075736 
L 366.590832 44.725876 
L 368.404846 86.721043 
L 368.85835 101.09045 
L 369.765357 121.684814 
L 370.672364 145.17214 
L 371.57937 161.854131 
L 372.032874 170.102802 
L 372.486377 174.025747 
L 373.393384 186.65691 
L 374.753895 202.266123 
L 375.207398 205.281934 
L 375.660902 211.478947 
L 376.114405 212.414024 
L 376.567909 215.745639 
L 377.021412 216.526528 
L 377.474916 214.129487 
L 377.928419 208.517008 
L 378.381923 198.337261 
L 381.102943 115.882399 
L 381.556447 108.777747 
L 382.463454 99.172969 
L 383.370461 93.082944 
L 383.823964 91.763715 
L 384.277468 92.706345 
L 385.184475 96.008255 
L 385.637978 98.147517 
L 386.091482 101.77291 
L 386.998488 111.309216 
L 387.451992 112.948025 
L 387.905495 113.712299 
L 388.358999 113.312288 
L 388.812502 112.591061 
L 389.266006 108.369178 
L 389.719509 102.031318 
L 391.533523 69.874416 
L 391.987027 68.366762 
L 392.44053 65.381663 
L 393.347537 64.583153 
L 393.801041 65.38481 
L 394.254544 65.761031 
L 394.708047 65.148303 
L 395.161551 64.843953 
L 396.522061 58.261404 
L 396.975565 55.600417 
L 398.336075 43.016707 
L 398.789579 38.877519 
L 399.243082 37.558039 
L 399.696586 37.983223 
L 400.603593 44.682703 
L 401.057096 49.905116 
L 401.5106 56.494336 
L 402.87111 89.774363 
L 403.324613 96.869322 
L 403.778117 106.103669 
L 403.778117 106.103669 
" style="fill:none;stroke:#0000ff;stroke-dasharray:5.55,2.4;stroke-dashoffset:0;stroke-width:1.5;"/>
   </g>
   <g id="patch_3">
    <path d="M 47.120313 235.2 
L 47.120313 10.8 
" style="fill:none;stroke:#000000;stroke-linecap:square;stroke-linejoin:miter;stroke-width:0.8;"/>
   </g>
   <g id="patch_4">
    <path d="M 420.761822 235.2 
L 420.761822 10.8 
" style="fill:none;stroke:#000000;stroke-linecap:square;stroke-linejoin:miter;stroke-width:0.8;"/>
   </g>
   <g id="patch_5">
    <path d="M 47.120312 235.2 
L 420.761822 235.2 
" style="fill:none;stroke:#000000;stroke-linecap:square;stroke-linejoin:miter;stroke-width:0.8;"/>
   </g>
   <g id="patch_6">
    <path d="M 47.120312 10.8 
L 420.761822 10.8 
" style="fill:none;stroke:#000000;stroke-linecap:square;stroke-linejoin:miter;stroke-width:0.8;"/>
   </g>
   <g id="legend_1">
    <g id="patch_7">
     <path d="M 306.289947 228.2 
L 410.961822 228.2 
Q 413.761822 228.2 413.761822 225.4 
L 413.761822 185.675 
Q 413.761822 182.875 410.961822 182.875 
L 306.289947 182.875 
Q 303.489947 182.875 303.489947 185.675 
L 303.489947 225.4 
Q 303.489947 228.2 306.289947 228.2 
z
" style="fill:#ffffff;opacity:0.8;stroke:#cccccc;stroke-linejoin:miter;"/>
    </g>
    <g id="line2d_16">
     <path d="M 309.089947 194.212812 
L 337.089947 194.212812 
" style="fill:none;stroke:#ff0000;stroke-linecap:square;stroke-width:1.5;"/>
    </g>
    <g id="line2d_17"/>
    <g id="text_16">
     <!-- Real -->
     <g transform="translate(348.289947 199.112812)scale(0.14 -0.14)">
      <defs>
       <path d="M 2841 2188 
Q 3044 2119 3236 1894 
Q 3428 1669 3622 1275 
L 4263 0 
L 3584 0 
L 2988 1197 
Q 2756 1666 2539 1819 
Q 2322 1972 1947 1972 
L 1259 1972 
L 1259 0 
L 628 0 
L 628 4666 
L 2053 4666 
Q 2853 4666 3247 4331 
Q 3641 3997 3641 3322 
Q 3641 2881 3436 2590 
Q 3231 2300 2841 2188 
z
M 1259 4147 
L 1259 2491 
L 2053 2491 
Q 2509 2491 2742 2702 
Q 2975 2913 2975 3322 
Q 2975 3731 2742 3939 
Q 2509 4147 2053 4147 
L 1259 4147 
z
" id="DejaVuSans-52" transform="scale(0.015625)"/>
       <path d="M 3597 1894 
L 3597 1613 
L 953 1613 
Q 991 1019 1311 708 
Q 1631 397 2203 397 
Q 2534 397 2845 478 
Q 3156 559 3463 722 
L 3463 178 
Q 3153 47 2828 -22 
Q 2503 -91 2169 -91 
Q 1331 -91 842 396 
Q 353 884 353 1716 
Q 353 2575 817 3079 
Q 1281 3584 2069 3584 
Q 2775 3584 3186 3129 
Q 3597 2675 3597 1894 
z
M 3022 2063 
Q 3016 2534 2758 2815 
Q 2500 3097 2075 3097 
Q 1594 3097 1305 2825 
Q 1016 2553 972 2059 
L 3022 2063 
z
" id="DejaVuSans-65" transform="scale(0.015625)"/>
       <path d="M 2194 1759 
Q 1497 1759 1228 1600 
Q 959 1441 959 1056 
Q 959 750 1161 570 
Q 1363 391 1709 391 
Q 2188 391 2477 730 
Q 2766 1069 2766 1631 
L 2766 1759 
L 2194 1759 
z
M 3341 1997 
L 3341 0 
L 2766 0 
L 2766 531 
Q 2569 213 2275 61 
Q 1981 -91 1556 -91 
Q 1019 -91 701 211 
Q 384 513 384 1019 
Q 384 1609 779 1909 
Q 1175 2209 1959 2209 
L 2766 2209 
L 2766 2266 
Q 2766 2663 2505 2880 
Q 2244 3097 1772 3097 
Q 1472 3097 1187 3025 
Q 903 2953 641 2809 
L 641 3341 
Q 956 3463 1253 3523 
Q 1550 3584 1831 3584 
Q 2591 3584 2966 3190 
Q 3341 2797 3341 1997 
z
" id="DejaVuSans-61" transform="scale(0.015625)"/>
       <path d="M 603 4863 
L 1178 4863 
L 1178 0 
L 603 0 
L 603 4863 
z
" id="DejaVuSans-6c" transform="scale(0.015625)"/>
      </defs>
      <use xlink:href="#DejaVuSans-52"/>
      <use x="64.982422" xlink:href="#DejaVuSans-65"/>
      <use x="126.505859" xlink:href="#DejaVuSans-61"/>
      <use x="187.785156" xlink:href="#DejaVuSans-6c"/>
     </g>
    </g>
    <g id="line2d_18">
     <path d="M 309.089947 214.788437 
L 337.089947 214.788437 
" style="fill:none;stroke:#0000ff;stroke-dasharray:5.55,2.4;stroke-dashoffset:0;stroke-width:1.5;"/>
    </g>
    <g id="line2d_19"/>
    <g id="text_17">
     <!-- Predição -->
     <g transform="translate(348.289947 219.688437)scale(0.14 -0.14)">
      <defs>
       <path d="M 1259 4147 
L 1259 2394 
L 2053 2394 
Q 2494 2394 2734 2622 
Q 2975 2850 2975 3272 
Q 2975 3691 2734 3919 
Q 2494 4147 2053 4147 
L 1259 4147 
z
M 628 4666 
L 2053 4666 
Q 2838 4666 3239 4311 
Q 3641 3956 3641 3272 
Q 3641 2581 3239 2228 
Q 2838 1875 2053 1875 
L 1259 1875 
L 1259 0 
L 628 0 
L 628 4666 
z
" id="DejaVuSans-50" transform="scale(0.015625)"/>
       <path d="M 2631 2963 
Q 2534 3019 2420 3045 
Q 2306 3072 2169 3072 
Q 1681 3072 1420 2755 
Q 1159 2438 1159 1844 
L 1159 0 
L 581 0 
L 581 3500 
L 1159 3500 
L 1159 2956 
Q 1341 3275 1631 3429 
Q 1922 3584 2338 3584 
Q 2397 3584 2469 3576 
Q 2541 3569 2628 3553 
L 2631 2963 
z
" id="DejaVuSans-72" transform="scale(0.015625)"/>
       <path d="M 2906 2969 
L 2906 4863 
L 3481 4863 
L 3481 0 
L 2906 0 
L 2906 525 
Q 2725 213 2448 61 
Q 2172 -91 1784 -91 
Q 1150 -91 751 415 
Q 353 922 353 1747 
Q 353 2572 751 3078 
Q 1150 3584 1784 3584 
Q 2172 3584 2448 3432 
Q 2725 3281 2906 2969 
z
M 947 1747 
Q 947 1113 1208 752 
Q 1469 391 1925 391 
Q 2381 391 2643 752 
Q 2906 1113 2906 1747 
Q 2906 2381 2643 2742 
Q 2381 3103 1925 3103 
Q 1469 3103 1208 2742 
Q 947 2381 947 1747 
z
" id="DejaVuSans-64" transform="scale(0.015625)"/>
       <path d="M 603 3500 
L 1178 3500 
L 1178 0 
L 603 0 
L 603 3500 
z
M 603 4863 
L 1178 4863 
L 1178 4134 
L 603 4134 
L 603 4863 
z
" id="DejaVuSans-69" transform="scale(0.015625)"/>
       <path d="M 3122 3366 
L 3122 2828 
Q 2878 2963 2633 3030 
Q 2388 3097 2138 3097 
Q 1578 3097 1268 2742 
Q 959 2388 959 1747 
Q 959 1106 1268 751 
Q 1578 397 2138 397 
Q 2388 397 2633 464 
Q 2878 531 3122 666 
L 3122 134 
Q 2881 22 2623 -34 
Q 2366 -91 2075 -91 
Q 1284 -91 818 406 
Q 353 903 353 1747 
Q 353 2603 823 3093 
Q 1294 3584 2113 3584 
Q 2378 3584 2631 3529 
Q 2884 3475 3122 3366 
z
M 2309 0 
Q 2481 -194 2565 -358 
Q 2650 -522 2650 -672 
Q 2650 -950 2462 -1092 
Q 2275 -1234 1906 -1234 
Q 1763 -1234 1627 -1215 
Q 1491 -1197 1356 -1159 
L 1356 -750 
Q 1463 -803 1578 -826 
Q 1694 -850 1841 -850 
Q 2025 -850 2119 -775 
Q 2213 -700 2213 -556 
Q 2213 -463 2145 -327 
Q 2078 -191 1938 0 
L 2309 0 
z
" id="DejaVuSans-e7" transform="scale(0.015625)"/>
       <path d="M 2194 1759 
Q 1497 1759 1228 1600 
Q 959 1441 959 1056 
Q 959 750 1161 570 
Q 1363 391 1709 391 
Q 2188 391 2477 730 
Q 2766 1069 2766 1631 
L 2766 1759 
L 2194 1759 
z
M 3341 1997 
L 3341 0 
L 2766 0 
L 2766 531 
Q 2569 213 2275 61 
Q 1981 -91 1556 -91 
Q 1019 -91 701 211 
Q 384 513 384 1019 
Q 384 1609 779 1909 
Q 1175 2209 1959 2209 
L 2766 2209 
L 2766 2266 
Q 2766 2663 2505 2880 
Q 2244 3097 1772 3097 
Q 1472 3097 1187 3025 
Q 903 2953 641 2809 
L 641 3341 
Q 956 3463 1253 3523 
Q 1550 3584 1831 3584 
Q 2591 3584 2966 3190 
Q 3341 2797 3341 1997 
z
M 1844 4281 
L 1666 4453 
Q 1597 4516 1545 4545 
Q 1494 4575 1453 4575 
Q 1334 4575 1278 4461 
Q 1222 4347 1216 4091 
L 825 4091 
Q 831 4513 990 4742 
Q 1150 4972 1434 4972 
Q 1553 4972 1653 4928 
Q 1753 4884 1869 4781 
L 2047 4609 
Q 2116 4547 2167 4517 
Q 2219 4488 2259 4488 
Q 2378 4488 2434 4602 
Q 2491 4716 2497 4972 
L 2888 4972 
Q 2881 4550 2722 4320 
Q 2563 4091 2278 4091 
Q 2159 4091 2059 4134 
Q 1959 4178 1844 4281 
z
" id="DejaVuSans-e3" transform="scale(0.015625)"/>
       <path d="M 1959 3097 
Q 1497 3097 1228 2736 
Q 959 2375 959 1747 
Q 959 1119 1226 758 
Q 1494 397 1959 397 
Q 2419 397 2687 759 
Q 2956 1122 2956 1747 
Q 2956 2369 2687 2733 
Q 2419 3097 1959 3097 
z
M 1959 3584 
Q 2709 3584 3137 3096 
Q 3566 2609 3566 1747 
Q 3566 888 3137 398 
Q 2709 -91 1959 -91 
Q 1206 -91 779 398 
Q 353 888 353 1747 
Q 353 2609 779 3096 
Q 1206 3584 1959 3584 
z
" id="DejaVuSans-6f" transform="scale(0.015625)"/>
      </defs>
      <use xlink:href="#DejaVuSans-50"/>
      <use x="58.552734" xlink:href="#DejaVuSans-72"/>
      <use x="97.416016" xlink:href="#DejaVuSans-65"/>
      <use x="158.939453" xlink:href="#DejaVuSans-64"/>
      <use x="222.416016" xlink:href="#DejaVuSans-69"/>
      <use x="250.199219" xlink:href="#DejaVuSans-e7"/>
      <use x="305.179688" xlink:href="#DejaVuSans-e3"/>
      <use x="366.458984" xlink:href="#DejaVuSans-6f"/>
     </g>
    </g>
   </g>
  </g>
 </g>
 <defs>
  <clipPath id="p08b700709e">
   <rect height="224.4" width="373.641509" x="47.120313" y="10.8"/>
  </clipPath>
 </defs>
</svg>
