<?xml version="1.0" encoding="utf-8" standalone="no"?>
<!DOCTYPE svg PUBLIC "-//W3C//DTD SVG 1.1//EN"
  "http://www.w3.org/Graphics/SVG/1.1/DTD/svg11.dtd">
<svg height="288pt" version="1.1" viewBox="0 0 432 288" width="432pt" xmlns="http://www.w3.org/2000/svg" xmlns:xlink="http://www.w3.org/1999/xlink">
 <metadata>
  <rdf:RDF xmlns:cc="http://creativecommons.org/ns#" xmlns:dc="http://purl.org/dc/elements/1.1/" xmlns:rdf="http://www.w3.org/1999/02/22-rdf-syntax-ns#">
   <cc:Work>
    <dc:type rdf:resource="http://purl.org/dc/dcmitype/StillImage"/>
    <dc:date>2022-09-28T20:04:44.158748</dc:date>
    <dc:format>image/svg+xml</dc:format>
    <dc:creator>
     <cc:Agent>
      <dc:title>Matplotlib v3.4.3, https://matplotlib.org/</dc:title>
     </cc:Agent>
    </dc:creator>
   </cc:Work>
  </rdf:RDF>
 </metadata>
 <defs>
  <style type="text/css">*{stroke-linecap:butt;stroke-linejoin:round;}</style>
 </defs>
 <g id="figure_1">
  <g id="patch_1">
   <path d="M 0 288 
L 432 288 
L 432 0 
L 0 0 
z
" style="fill:none;"/>
  </g>
  <g id="axes_1">
   <g id="patch_2">
    <path d="M 47.120313 235.2 
L 420.761822 235.2 
L 420.761822 10.8 
L 47.120313 10.8 
z
" style="fill:#ffffff;"/>
   </g>
   <g id="matplotlib.axis_1">
    <g id="xtick_1">
     <g id="line2d_1">
      <defs>
       <path d="M 0 0 
L 0 3.5 
" id="m59a9cb9a85" style="stroke:#000000;stroke-width:0.8;"/>
      </defs>
      <g>
       <use style="stroke:#000000;stroke-width:0.8;" x="86.779191" xlink:href="#m59a9cb9a85" y="235.2"/>
      </g>
     </g>
     <g id="text_1">
      <!-- 4300 -->
      <g transform="translate(71.509191 251.318125)scale(0.12 -0.12)">
       <defs>
        <path d="M 2419 4116 
L 825 1625 
L 2419 1625 
L 2419 4116 
z
M 2253 4666 
L 3047 4666 
L 3047 1625 
L 3713 1625 
L 3713 1100 
L 3047 1100 
L 3047 0 
L 2419 0 
L 2419 1100 
L 313 1100 
L 313 1709 
L 2253 4666 
z
" id="DejaVuSans-34" transform="scale(0.015625)"/>
        <path d="M 2597 2516 
Q 3050 2419 3304 2112 
Q 3559 1806 3559 1356 
Q 3559 666 3084 287 
Q 2609 -91 1734 -91 
Q 1441 -91 1130 -33 
Q 819 25 488 141 
L 488 750 
Q 750 597 1062 519 
Q 1375 441 1716 441 
Q 2309 441 2620 675 
Q 2931 909 2931 1356 
Q 2931 1769 2642 2001 
Q 2353 2234 1838 2234 
L 1294 2234 
L 1294 2753 
L 1863 2753 
Q 2328 2753 2575 2939 
Q 2822 3125 2822 3475 
Q 2822 3834 2567 4026 
Q 2313 4219 1838 4219 
Q 1578 4219 1281 4162 
Q 984 4106 628 3988 
L 628 4550 
Q 988 4650 1302 4700 
Q 1616 4750 1894 4750 
Q 2613 4750 3031 4423 
Q 3450 4097 3450 3541 
Q 3450 3153 3228 2886 
Q 3006 2619 2597 2516 
z
" id="DejaVuSans-33" transform="scale(0.015625)"/>
        <path d="M 2034 4250 
Q 1547 4250 1301 3770 
Q 1056 3291 1056 2328 
Q 1056 1369 1301 889 
Q 1547 409 2034 409 
Q 2525 409 2770 889 
Q 3016 1369 3016 2328 
Q 3016 3291 2770 3770 
Q 2525 4250 2034 4250 
z
M 2034 4750 
Q 2819 4750 3233 4129 
Q 3647 3509 3647 2328 
Q 3647 1150 3233 529 
Q 2819 -91 2034 -91 
Q 1250 -91 836 529 
Q 422 1150 422 2328 
Q 422 3509 836 4129 
Q 1250 4750 2034 4750 
z
" id="DejaVuSans-30" transform="scale(0.015625)"/>
       </defs>
       <use xlink:href="#DejaVuSans-34"/>
       <use x="63.623047" xlink:href="#DejaVuSans-33"/>
       <use x="127.246094" xlink:href="#DejaVuSans-30"/>
       <use x="190.869141" xlink:href="#DejaVuSans-30"/>
      </g>
     </g>
    </g>
    <g id="xtick_2">
     <g id="line2d_2">
      <g>
       <use style="stroke:#000000;stroke-width:0.8;" x="132.129538" xlink:href="#m59a9cb9a85" y="235.2"/>
      </g>
     </g>
     <g id="text_2">
      <!-- 4400 -->
      <g transform="translate(116.859538 251.318125)scale(0.12 -0.12)">
       <use xlink:href="#DejaVuSans-34"/>
       <use x="63.623047" xlink:href="#DejaVuSans-34"/>
       <use x="127.246094" xlink:href="#DejaVuSans-30"/>
       <use x="190.869141" xlink:href="#DejaVuSans-30"/>
      </g>
     </g>
    </g>
    <g id="xtick_3">
     <g id="line2d_3">
      <g>
       <use style="stroke:#000000;stroke-width:0.8;" x="177.479885" xlink:href="#m59a9cb9a85" y="235.2"/>
      </g>
     </g>
     <g id="text_3">
      <!-- 4500 -->
      <g transform="translate(162.209885 251.318125)scale(0.12 -0.12)">
       <defs>
        <path d="M 691 4666 
L 3169 4666 
L 3169 4134 
L 1269 4134 
L 1269 2991 
Q 1406 3038 1543 3061 
Q 1681 3084 1819 3084 
Q 2600 3084 3056 2656 
Q 3513 2228 3513 1497 
Q 3513 744 3044 326 
Q 2575 -91 1722 -91 
Q 1428 -91 1123 -41 
Q 819 9 494 109 
L 494 744 
Q 775 591 1075 516 
Q 1375 441 1709 441 
Q 2250 441 2565 725 
Q 2881 1009 2881 1497 
Q 2881 1984 2565 2268 
Q 2250 2553 1709 2553 
Q 1456 2553 1204 2497 
Q 953 2441 691 2322 
L 691 4666 
z
" id="DejaVuSans-35" transform="scale(0.015625)"/>
       </defs>
       <use xlink:href="#DejaVuSans-34"/>
       <use x="63.623047" xlink:href="#DejaVuSans-35"/>
       <use x="127.246094" xlink:href="#DejaVuSans-30"/>
       <use x="190.869141" xlink:href="#DejaVuSans-30"/>
      </g>
     </g>
    </g>
    <g id="xtick_4">
     <g id="line2d_4">
      <g>
       <use style="stroke:#000000;stroke-width:0.8;" x="222.830232" xlink:href="#m59a9cb9a85" y="235.2"/>
      </g>
     </g>
     <g id="text_4">
      <!-- 4600 -->
      <g transform="translate(207.560232 251.318125)scale(0.12 -0.12)">
       <defs>
        <path d="M 2113 2584 
Q 1688 2584 1439 2293 
Q 1191 2003 1191 1497 
Q 1191 994 1439 701 
Q 1688 409 2113 409 
Q 2538 409 2786 701 
Q 3034 994 3034 1497 
Q 3034 2003 2786 2293 
Q 2538 2584 2113 2584 
z
M 3366 4563 
L 3366 3988 
Q 3128 4100 2886 4159 
Q 2644 4219 2406 4219 
Q 1781 4219 1451 3797 
Q 1122 3375 1075 2522 
Q 1259 2794 1537 2939 
Q 1816 3084 2150 3084 
Q 2853 3084 3261 2657 
Q 3669 2231 3669 1497 
Q 3669 778 3244 343 
Q 2819 -91 2113 -91 
Q 1303 -91 875 529 
Q 447 1150 447 2328 
Q 447 3434 972 4092 
Q 1497 4750 2381 4750 
Q 2619 4750 2861 4703 
Q 3103 4656 3366 4563 
z
" id="DejaVuSans-36" transform="scale(0.015625)"/>
       </defs>
       <use xlink:href="#DejaVuSans-34"/>
       <use x="63.623047" xlink:href="#DejaVuSans-36"/>
       <use x="127.246094" xlink:href="#DejaVuSans-30"/>
       <use x="190.869141" xlink:href="#DejaVuSans-30"/>
      </g>
     </g>
    </g>
    <g id="xtick_5">
     <g id="line2d_5">
      <g>
       <use style="stroke:#000000;stroke-width:0.8;" x="268.180579" xlink:href="#m59a9cb9a85" y="235.2"/>
      </g>
     </g>
     <g id="text_5">
      <!-- 4700 -->
      <g transform="translate(252.910579 251.318125)scale(0.12 -0.12)">
       <defs>
        <path d="M 525 4666 
L 3525 4666 
L 3525 4397 
L 1831 0 
L 1172 0 
L 2766 4134 
L 525 4134 
L 525 4666 
z
" id="DejaVuSans-37" transform="scale(0.015625)"/>
       </defs>
       <use xlink:href="#DejaVuSans-34"/>
       <use x="63.623047" xlink:href="#DejaVuSans-37"/>
       <use x="127.246094" xlink:href="#DejaVuSans-30"/>
       <use x="190.869141" xlink:href="#DejaVuSans-30"/>
      </g>
     </g>
    </g>
    <g id="xtick_6">
     <g id="line2d_6">
      <g>
       <use style="stroke:#000000;stroke-width:0.8;" x="313.530926" xlink:href="#m59a9cb9a85" y="235.2"/>
      </g>
     </g>
     <g id="text_6">
      <!-- 4800 -->
      <g transform="translate(298.260926 251.318125)scale(0.12 -0.12)">
       <defs>
        <path d="M 2034 2216 
Q 1584 2216 1326 1975 
Q 1069 1734 1069 1313 
Q 1069 891 1326 650 
Q 1584 409 2034 409 
Q 2484 409 2743 651 
Q 3003 894 3003 1313 
Q 3003 1734 2745 1975 
Q 2488 2216 2034 2216 
z
M 1403 2484 
Q 997 2584 770 2862 
Q 544 3141 544 3541 
Q 544 4100 942 4425 
Q 1341 4750 2034 4750 
Q 2731 4750 3128 4425 
Q 3525 4100 3525 3541 
Q 3525 3141 3298 2862 
Q 3072 2584 2669 2484 
Q 3125 2378 3379 2068 
Q 3634 1759 3634 1313 
Q 3634 634 3220 271 
Q 2806 -91 2034 -91 
Q 1263 -91 848 271 
Q 434 634 434 1313 
Q 434 1759 690 2068 
Q 947 2378 1403 2484 
z
M 1172 3481 
Q 1172 3119 1398 2916 
Q 1625 2713 2034 2713 
Q 2441 2713 2670 2916 
Q 2900 3119 2900 3481 
Q 2900 3844 2670 4047 
Q 2441 4250 2034 4250 
Q 1625 4250 1398 4047 
Q 1172 3844 1172 3481 
z
" id="DejaVuSans-38" transform="scale(0.015625)"/>
       </defs>
       <use xlink:href="#DejaVuSans-34"/>
       <use x="63.623047" xlink:href="#DejaVuSans-38"/>
       <use x="127.246094" xlink:href="#DejaVuSans-30"/>
       <use x="190.869141" xlink:href="#DejaVuSans-30"/>
      </g>
     </g>
    </g>
    <g id="xtick_7">
     <g id="line2d_7">
      <g>
       <use style="stroke:#000000;stroke-width:0.8;" x="358.881273" xlink:href="#m59a9cb9a85" y="235.2"/>
      </g>
     </g>
     <g id="text_7">
      <!-- 4900 -->
      <g transform="translate(343.611273 251.318125)scale(0.12 -0.12)">
       <defs>
        <path d="M 703 97 
L 703 672 
Q 941 559 1184 500 
Q 1428 441 1663 441 
Q 2288 441 2617 861 
Q 2947 1281 2994 2138 
Q 2813 1869 2534 1725 
Q 2256 1581 1919 1581 
Q 1219 1581 811 2004 
Q 403 2428 403 3163 
Q 403 3881 828 4315 
Q 1253 4750 1959 4750 
Q 2769 4750 3195 4129 
Q 3622 3509 3622 2328 
Q 3622 1225 3098 567 
Q 2575 -91 1691 -91 
Q 1453 -91 1209 -44 
Q 966 3 703 97 
z
M 1959 2075 
Q 2384 2075 2632 2365 
Q 2881 2656 2881 3163 
Q 2881 3666 2632 3958 
Q 2384 4250 1959 4250 
Q 1534 4250 1286 3958 
Q 1038 3666 1038 3163 
Q 1038 2656 1286 2365 
Q 1534 2075 1959 2075 
z
" id="DejaVuSans-39" transform="scale(0.015625)"/>
       </defs>
       <use xlink:href="#DejaVuSans-34"/>
       <use x="63.623047" xlink:href="#DejaVuSans-39"/>
       <use x="127.246094" xlink:href="#DejaVuSans-30"/>
       <use x="190.869141" xlink:href="#DejaVuSans-30"/>
      </g>
     </g>
    </g>
    <g id="xtick_8">
     <g id="line2d_8">
      <g>
       <use style="stroke:#000000;stroke-width:0.8;" x="404.23162" xlink:href="#m59a9cb9a85" y="235.2"/>
      </g>
     </g>
     <g id="text_8">
      <!-- 5000 -->
      <g transform="translate(388.96162 251.318125)scale(0.12 -0.12)">
       <use xlink:href="#DejaVuSans-35"/>
       <use x="63.623047" xlink:href="#DejaVuSans-30"/>
       <use x="127.246094" xlink:href="#DejaVuSans-30"/>
       <use x="190.869141" xlink:href="#DejaVuSans-30"/>
      </g>
     </g>
    </g>
    <g id="text_9">
     <!-- $t$ -->
     <g transform="translate(230.341067 271.490937)scale(0.18 -0.18)">
      <defs>
       <path d="M 2706 3500 
L 2619 3053 
L 1472 3053 
L 1100 1153 
Q 1081 1047 1072 975 
Q 1063 903 1063 863 
Q 1063 663 1183 572 
Q 1303 481 1569 481 
L 2150 481 
L 2053 0 
L 1503 0 
Q 991 0 739 200 
Q 488 400 488 806 
Q 488 878 497 964 
Q 506 1050 525 1153 
L 897 3053 
L 409 3053 
L 500 3500 
L 978 3500 
L 1172 4494 
L 1747 4494 
L 1556 3500 
L 2706 3500 
z
" id="DejaVuSans-Oblique-74" transform="scale(0.015625)"/>
      </defs>
      <use transform="translate(0 0.78125)" xlink:href="#DejaVuSans-Oblique-74"/>
     </g>
    </g>
   </g>
   <g id="matplotlib.axis_2">
    <g id="ytick_1">
     <g id="line2d_9">
      <defs>
       <path d="M 0 0 
L -3.5 0 
" id="m99727b3d66" style="stroke:#000000;stroke-width:0.8;"/>
      </defs>
      <g>
       <use style="stroke:#000000;stroke-width:0.8;" x="47.120313" xlink:href="#m99727b3d66" y="208.625712"/>
      </g>
     </g>
     <g id="text_10">
      <!-- 0.4 -->
      <g transform="translate(21.036563 213.184775)scale(0.12 -0.12)">
       <defs>
        <path d="M 684 794 
L 1344 794 
L 1344 0 
L 684 0 
L 684 794 
z
" id="DejaVuSans-2e" transform="scale(0.015625)"/>
       </defs>
       <use xlink:href="#DejaVuSans-30"/>
       <use x="63.623047" xlink:href="#DejaVuSans-2e"/>
       <use x="95.410156" xlink:href="#DejaVuSans-34"/>
      </g>
     </g>
    </g>
    <g id="ytick_2">
     <g id="line2d_10">
      <g>
       <use style="stroke:#000000;stroke-width:0.8;" x="47.120313" xlink:href="#m99727b3d66" y="168.565228"/>
      </g>
     </g>
     <g id="text_11">
      <!-- 0.6 -->
      <g transform="translate(21.036563 173.12429)scale(0.12 -0.12)">
       <use xlink:href="#DejaVuSans-30"/>
       <use x="63.623047" xlink:href="#DejaVuSans-2e"/>
       <use x="95.410156" xlink:href="#DejaVuSans-36"/>
      </g>
     </g>
    </g>
    <g id="ytick_3">
     <g id="line2d_11">
      <g>
       <use style="stroke:#000000;stroke-width:0.8;" x="47.120313" xlink:href="#m99727b3d66" y="128.504743"/>
      </g>
     </g>
     <g id="text_12">
      <!-- 0.8 -->
      <g transform="translate(21.036563 133.063806)scale(0.12 -0.12)">
       <use xlink:href="#DejaVuSans-30"/>
       <use x="63.623047" xlink:href="#DejaVuSans-2e"/>
       <use x="95.410156" xlink:href="#DejaVuSans-38"/>
      </g>
     </g>
    </g>
    <g id="ytick_4">
     <g id="line2d_12">
      <g>
       <use style="stroke:#000000;stroke-width:0.8;" x="47.120313" xlink:href="#m99727b3d66" y="88.444259"/>
      </g>
     </g>
     <g id="text_13">
      <!-- 1.0 -->
      <g transform="translate(21.036563 93.003321)scale(0.12 -0.12)">
       <defs>
        <path d="M 794 531 
L 1825 531 
L 1825 4091 
L 703 3866 
L 703 4441 
L 1819 4666 
L 2450 4666 
L 2450 531 
L 3481 531 
L 3481 0 
L 794 0 
L 794 531 
z
" id="DejaVuSans-31" transform="scale(0.015625)"/>
       </defs>
       <use xlink:href="#DejaVuSans-31"/>
       <use x="63.623047" xlink:href="#DejaVuSans-2e"/>
       <use x="95.410156" xlink:href="#DejaVuSans-30"/>
      </g>
     </g>
    </g>
    <g id="ytick_5">
     <g id="line2d_13">
      <g>
       <use style="stroke:#000000;stroke-width:0.8;" x="47.120313" xlink:href="#m99727b3d66" y="48.383774"/>
      </g>
     </g>
     <g id="text_14">
      <!-- 1.2 -->
      <g transform="translate(21.036563 52.942836)scale(0.12 -0.12)">
       <defs>
        <path d="M 1228 531 
L 3431 531 
L 3431 0 
L 469 0 
L 469 531 
Q 828 903 1448 1529 
Q 2069 2156 2228 2338 
Q 2531 2678 2651 2914 
Q 2772 3150 2772 3378 
Q 2772 3750 2511 3984 
Q 2250 4219 1831 4219 
Q 1534 4219 1204 4116 
Q 875 4013 500 3803 
L 500 4441 
Q 881 4594 1212 4672 
Q 1544 4750 1819 4750 
Q 2544 4750 2975 4387 
Q 3406 4025 3406 3419 
Q 3406 3131 3298 2873 
Q 3191 2616 2906 2266 
Q 2828 2175 2409 1742 
Q 1991 1309 1228 531 
z
" id="DejaVuSans-32" transform="scale(0.015625)"/>
       </defs>
       <use xlink:href="#DejaVuSans-31"/>
       <use x="63.623047" xlink:href="#DejaVuSans-2e"/>
       <use x="95.410156" xlink:href="#DejaVuSans-32"/>
      </g>
     </g>
    </g>
    <g id="text_15">
     <!-- $p$ -->
     <g transform="translate(11.276563 119.22)scale(0.18 -0.18)">
      <defs>
       <path d="M 3175 2156 
Q 3175 2616 2975 2859 
Q 2775 3103 2400 3103 
Q 2144 3103 1911 2972 
Q 1678 2841 1497 2591 
Q 1319 2344 1212 1994 
Q 1106 1644 1106 1300 
Q 1106 863 1306 627 
Q 1506 391 1875 391 
Q 2147 391 2380 519 
Q 2613 647 2778 891 
Q 2956 1147 3065 1494 
Q 3175 1841 3175 2156 
z
M 1394 2969 
Q 1625 3272 1939 3428 
Q 2253 3584 2638 3584 
Q 3175 3584 3472 3232 
Q 3769 2881 3769 2247 
Q 3769 1728 3584 1258 
Q 3400 788 3053 416 
Q 2822 169 2531 39 
Q 2241 -91 1919 -91 
Q 1547 -91 1294 64 
Q 1041 219 916 525 
L 556 -1331 
L -19 -1331 
L 922 3500 
L 1497 3500 
L 1394 2969 
z
" id="DejaVuSans-Oblique-70" transform="scale(0.015625)"/>
      </defs>
      <use xlink:href="#DejaVuSans-Oblique-70"/>
     </g>
    </g>
   </g>
   <g id="line2d_14">
    <path clip-path="url(#p5323f9d740)" d="M 64.104017 86.157 
L 64.557521 89.927996 
L 65.011024 92.650991 
L 65.464528 94.171477 
L 65.918031 94.452989 
L 66.371535 93.60609 
L 67.278542 89.816604 
L 67.732045 87.931943 
L 68.185549 86.995641 
L 68.639052 87.794406 
L 69.092556 90.92289 
L 69.546059 96.429974 
L 71.813576 133.308431 
L 72.26708 137.748945 
L 72.720583 140.303318 
L 73.174087 140.849273 
L 73.62759 139.435958 
L 74.081094 136.304298 
L 74.988101 126.61698 
L 76.348611 111.077709 
L 76.802115 107.297854 
L 77.255618 104.594875 
L 77.709122 102.918576 
L 78.616129 101.140478 
L 79.069632 99.654905 
L 79.523135 96.6993 
L 79.976639 91.840926 
L 80.883646 77.933407 
L 81.790653 63.829361 
L 82.69766 52.917422 
L 84.05817 40.586129 
L 85.418681 30.152308 
L 85.872184 27.714604 
L 86.325688 26.183122 
L 86.779191 25.605438 
L 87.232694 25.841648 
L 87.686198 26.629572 
L 88.593205 28.919037 
L 89.046708 30.350512 
L 89.500212 32.341324 
L 89.953715 35.486417 
L 90.407219 40.4571 
L 90.860722 47.650689 
L 91.767729 67.747893 
L 94.942253 147.369757 
L 96.302764 174.685034 
L 97.209771 189.488245 
L 98.116778 201.422469 
L 99.023785 210.732946 
L 99.930792 217.547848 
L 100.384295 219.776079 
L 100.837799 220.807662 
L 101.291302 220.0738 
L 101.744806 216.795764 
L 102.198309 210.149445 
L 102.651812 199.689789 
L 103.558819 170.095567 
L 104.465826 139.541607 
L 105.372833 117.048389 
L 105.826337 109.479944 
L 106.27984 104.166072 
L 106.733344 100.838347 
L 107.186847 99.206372 
L 107.640351 98.986286 
L 108.093854 99.915104 
L 108.547358 101.75792 
L 109.454365 107.384813 
L 111.721882 123.890162 
L 112.175385 125.301018 
L 112.628889 124.946754 
L 113.082392 122.304076 
L 113.535896 117.114795 
L 114.442903 100.45804 
L 115.34991 82.518548 
L 115.803413 75.842974 
L 116.256917 71.116457 
L 116.71042 67.982131 
L 117.617427 64.266268 
L 118.524434 60.80496 
L 119.431441 55.563787 
L 120.338448 48.430803 
L 122.152462 33.257068 
L 123.059469 27.225787 
L 123.512972 24.920491 
L 123.966476 23.650426 
L 124.419979 24.31567 
L 124.873483 27.810629 
L 125.326986 34.304517 
L 126.233993 53.119302 
L 128.048007 93.064773 
L 130.769028 145.001964 
L 132.583042 177.199498 
L 133.943552 197.599623 
L 134.850559 208.405846 
L 135.304062 212.410394 
L 135.757566 215.001294 
L 136.211069 215.685691 
L 136.664573 213.916237 
L 137.118076 209.219808 
L 137.57158 201.38852 
L 138.478587 177.60528 
L 140.292601 121.718628 
L 141.199607 101.869488 
L 141.653111 95.055332 
L 142.106614 90.248786 
L 142.560118 87.289289 
L 143.013621 85.979312 
L 143.467125 86.109068 
L 143.920628 87.468764 
L 144.374132 89.848881 
L 145.281139 96.772633 
L 146.641649 108.220155 
L 147.095153 110.753323 
L 147.548656 111.849974 
L 148.00216 111.067787 
L 148.455663 108.103718 
L 148.909166 102.88826 
L 149.816173 87.306914 
L 150.72318 72.239087 
L 151.176684 68.010876 
L 151.630187 66.453268 
L 152.083691 67.051187 
L 152.537194 69.029211 
L 153.897705 76.206493 
L 154.351208 77.311408 
L 154.804712 77.257119 
L 155.258215 75.945632 
L 155.711719 73.436212 
L 156.618725 65.774546 
L 157.979236 52.879556 
L 158.432739 49.613811 
L 158.886243 47.624941 
L 159.339746 47.640587 
L 159.79325 50.392204 
L 160.246753 56.097897 
L 161.15376 73.353352 
L 162.060767 91.166645 
L 162.967774 104.242068 
L 163.421278 108.577687 
L 163.874781 111.665358 
L 164.781788 115.682746 
L 165.235291 117.572779 
L 165.688795 119.990346 
L 166.142298 123.255138 
L 167.049305 132.719468 
L 168.409816 151.911946 
L 169.316823 164.771819 
L 169.770326 170.124405 
L 170.22383 174.035218 
L 170.677333 175.802997 
L 171.130837 174.742842 
L 171.58434 170.475177 
L 172.037843 163.201965 
L 172.94485 142.945987 
L 174.758864 100.963085 
L 176.119375 75.793851 
L 177.026382 62.000546 
L 177.933389 51.697534 
L 178.386892 48.31912 
L 178.840395 46.236592 
L 179.293899 45.400346 
L 179.747402 45.649509 
L 180.200906 46.711266 
L 181.107913 49.610357 
L 181.561416 50.400637 
L 182.01492 50.072258 
L 182.468423 48.335958 
L 182.921927 45.247276 
L 183.828934 37.358114 
L 184.282437 34.599695 
L 184.735941 34.064766 
L 185.189444 36.382246 
L 185.642948 41.638003 
L 186.096451 49.4834 
L 187.003458 70.521874 
L 189.270975 127.999668 
L 190.177982 145.971906 
L 191.084989 159.788871 
L 191.991996 170.323827 
L 194.259513 195.046203 
L 195.16652 204.237136 
L 195.620024 207.586091 
L 196.073527 209.503303 
L 196.527031 209.347299 
L 196.980534 206.309239 
L 197.434038 199.611871 
L 197.887541 189.001642 
L 200.608562 109.734649 
L 201.515569 96.036124 
L 201.969072 91.523991 
L 202.422576 88.305238 
L 202.876079 86.256124 
L 203.329583 85.302508 
L 203.783086 85.387564 
L 204.23659 86.438127 
L 204.690093 88.342741 
L 205.5971 94.026566 
L 206.504107 100.483731 
L 206.957611 103.048056 
L 207.411114 104.447651 
L 207.864618 104.064271 
L 208.318121 101.401192 
L 208.771625 96.316223 
L 210.585638 67.437037 
L 211.039142 63.759803 
L 211.492645 62.402537 
L 211.946149 62.958269 
L 212.399652 64.876501 
L 214.213666 75.973374 
L 214.66717 77.581664 
L 215.120673 78.172615 
L 215.574177 77.641677 
L 216.02768 76.0128 
L 216.481184 73.445136 
L 218.295197 60.841188 
L 218.748701 59.706391 
L 219.202204 60.809755 
L 219.655708 64.712568 
L 220.109211 71.285769 
L 222.376729 113.415302 
L 222.830232 119.13777 
L 223.283736 123.364621 
L 223.737239 126.160026 
L 224.190743 127.731474 
L 224.644246 128.41053 
L 225.551253 128.787721 
L 226.004756 129.354298 
L 226.45826 130.646143 
L 226.911763 132.856228 
L 227.365267 136.00707 
L 228.272274 144.423546 
L 229.179281 153.168198 
L 229.632784 156.220158 
L 230.086288 157.334034 
L 230.539791 155.704787 
L 230.993295 150.874377 
L 231.446798 143.052778 
L 232.807308 111.202752 
L 234.167819 82.44118 
L 235.074826 67.375639 
L 235.981833 55.047013 
L 236.88884 45.028347 
L 237.795847 37.345268 
L 238.24935 34.556134 
L 238.702854 32.56493 
L 239.156357 31.361529 
L 239.609861 30.817564 
L 240.516867 30.482165 
L 240.970371 29.821192 
L 241.423874 28.332325 
L 242.784385 21.989203 
L 243.237888 22.613666 
L 243.691392 26.199633 
L 244.144895 32.807666 
L 245.051902 52.947997 
L 248.67993 148.858543 
L 249.586937 167.166952 
L 250.493944 182.333803 
L 251.854454 200.659022 
L 253.214965 215.771553 
L 254.121972 222.879925 
L 254.575475 224.6707 
L 255.028979 224.5693 
L 255.482482 221.773038 
L 255.935985 215.387893 
L 256.389489 204.876371 
L 257.296496 174.394898 
L 258.203503 143.060346 
L 259.11051 120.286156 
L 259.564013 112.603079 
L 260.017517 107.116682 
L 260.47102 103.536609 
L 260.924524 101.579072 
L 261.378027 100.994159 
L 261.831531 101.574706 
L 262.285034 103.15079 
L 262.738538 105.572396 
L 263.645544 112.335391 
L 265.459558 127.45856 
L 265.913062 129.506279 
L 266.366565 129.747869 
L 266.820069 127.59864 
L 267.273572 122.750938 
L 268.180579 106.183559 
L 269.087586 87.223634 
L 269.994593 73.847176 
L 270.448097 69.671067 
L 271.355103 64.270062 
L 272.26211 59.840716 
L 273.169117 54.130765 
L 274.529628 42.696901 
L 275.890138 31.615553 
L 276.797145 25.781374 
L 277.250649 23.306658 
L 277.704152 21.450182 
L 278.157656 21 
L 278.611159 23.004076 
L 279.064662 28.052975 
L 279.971669 45.352366 
L 283.146194 115.677683 
L 285.413711 160.650488 
L 286.774221 184.213071 
L 288.134732 203.722509 
L 289.041739 213.629072 
L 289.495242 217.024312 
L 289.948746 218.875004 
L 290.402249 218.673858 
L 290.855753 215.866086 
L 291.309256 209.990496 
L 291.76276 200.888977 
L 292.669767 174.770987 
L 294.030277 130.958882 
L 294.937284 109.052841 
L 295.390787 101.371081 
L 295.844291 95.822769 
L 296.297794 92.236079 
L 296.751298 90.396721 
L 297.204801 90.080138 
L 297.658305 91.067494 
L 298.111808 93.148232 
L 299.018815 99.739812 
L 300.832829 115.134873 
L 301.286333 117.268832 
L 301.739836 117.769998 
L 302.193339 116.207863 
L 302.646843 112.3209 
L 303.100346 106.130871 
L 304.91436 74.099576 
L 305.367864 69.96928 
L 305.821367 68.172332 
L 306.274871 68.099391 
L 306.728374 69.011202 
L 307.635381 71.190825 
L 308.088885 71.48382 
L 308.542388 70.828849 
L 308.995892 69.097812 
L 309.449395 66.31976 
L 310.356402 58.430272 
L 312.170416 41.479931 
L 312.623919 38.459299 
L 313.077423 36.663757 
L 313.530926 36.877502 
L 313.98443 39.90469 
L 314.437933 45.94511 
L 315.34494 63.78942 
L 316.705451 90.269582 
L 317.612457 102.865845 
L 320.333478 133.427664 
L 321.693989 154.511591 
L 323.508003 182.37091 
L 324.41501 192.175824 
L 324.868513 194.644423 
L 325.322016 194.70508 
L 325.77552 191.872061 
L 326.229023 186.016058 
L 327.13603 167.032334 
L 329.857051 98.399551 
L 330.764058 80.827421 
L 331.671065 68.878719 
L 332.124569 65.308534 
L 332.578072 63.309707 
L 333.031575 62.761003 
L 333.485079 63.485084 
L 333.938582 65.253892 
L 334.845589 70.712675 
L 335.752596 75.96863 
L 336.2061 77.277229 
L 336.659603 77.100719 
L 337.113107 75.180017 
L 337.56661 71.502104 
L 338.473617 60.395663 
L 338.927121 54.671006 
L 339.380624 50.494287 
L 339.834128 49.051396 
L 340.287631 50.92581 
L 340.741134 55.917627 
L 341.648141 72.085728 
L 343.462155 107.777692 
L 344.369162 120.150968 
L 344.822666 124.244875 
L 345.276169 126.938331 
L 345.729673 128.424057 
L 346.183176 129.084304 
L 346.63668 129.465019 
L 347.090183 130.198594 
L 347.543687 131.885453 
L 347.99719 134.947917 
L 348.450693 139.491638 
L 350.718211 168.401 
L 351.171714 170.853942 
L 351.625218 170.627359 
L 352.078721 167.215614 
L 352.532225 160.538663 
L 353.439232 139.935853 
L 355.253246 95.368693 
L 356.160252 77.962523 
L 357.067259 63.730233 
L 357.974266 52.225868 
L 358.881273 43.818134 
L 359.334777 41.175187 
L 359.78828 39.725079 
L 360.241784 39.408657 
L 360.695287 40.009308 
L 362.055798 43.242005 
L 362.509301 43.085532 
L 362.962805 41.604198 
L 363.416308 38.808277 
L 364.323315 32.072865 
L 364.776818 30.637907 
L 365.230322 32.016602 
L 365.683825 36.567947 
L 366.137329 43.993188 
L 367.044336 64.796449 
L 369.765357 135.60562 
L 370.672364 154.218901 
L 371.57937 168.955627 
L 372.486377 180.431138 
L 374.753895 205.005445 
L 375.660902 212.846813 
L 376.114405 215.169726 
L 376.567909 215.714541 
L 377.021412 213.722733 
L 377.474916 208.338798 
L 377.928419 198.980344 
L 378.835426 170.520544 
L 379.742433 139.960904 
L 380.64944 116.889385 
L 381.102943 108.755759 
L 381.556447 102.635381 
L 382.00995 98.245083 
L 382.463454 95.317278 
L 382.916957 93.634785 
L 383.370461 93.042225 
L 383.823964 93.433489 
L 384.277468 94.722666 
L 384.730971 96.811495 
L 385.637978 102.810567 
L 386.998488 112.741505 
L 387.451992 114.752031 
L 387.905495 115.168093 
L 388.358999 113.401489 
L 388.812502 109.109398 
L 389.266006 102.415834 
L 390.626516 77.277081 
L 391.08002 71.178089 
L 391.533523 67.179672 
L 391.987027 65.040482 
L 392.44053 64.284267 
L 392.894034 64.392763 
L 393.801041 65.374134 
L 394.254544 65.502866 
L 394.708047 65.0187 
L 395.161551 63.755617 
L 395.615054 61.659107 
L 396.522061 55.332142 
L 398.336075 40.645017 
L 398.789579 38.214517 
L 399.243082 37.254668 
L 399.696586 38.626138 
L 400.150089 42.966577 
L 400.603593 50.129085 
L 403.778117 111.97933 
L 403.778117 111.97933 
" style="fill:none;stroke:#ff0000;stroke-linecap:square;stroke-width:1.5;"/>
   </g>
   <g id="line2d_15">
    <path clip-path="url(#p5323f9d740)" d="M 64.104017 81.722298 
L 65.011024 92.191414 
L 65.918031 96.364238 
L 66.371535 95.661786 
L 66.825038 93.164536 
L 67.278542 89.355827 
L 67.732045 90.818732 
L 68.185549 89.01749 
L 68.639052 86.607241 
L 69.092556 86.790909 
L 69.546059 89.955167 
L 69.999563 94.66933 
L 70.90657 108.963267 
L 71.813576 126.837132 
L 72.26708 133.104424 
L 72.720583 137.502806 
L 73.174087 139.075268 
L 73.62759 139.426494 
L 74.081094 139.374938 
L 74.534597 136.039901 
L 75.441604 124.33666 
L 75.895108 121.887744 
L 76.348611 116.01679 
L 77.255618 109.52394 
L 77.709122 104.941889 
L 78.162625 103.369427 
L 78.616129 103.217981 
L 79.069632 102.122413 
L 79.976639 99.409272 
L 80.430142 95.549007 
L 80.883646 88.034701 
L 81.790653 68.243592 
L 82.244156 61.621852 
L 82.69766 59.462939 
L 84.05817 42.094969 
L 84.511674 40.110058 
L 84.965177 35.308893 
L 85.418681 27.607697 
L 85.872184 28.519596 
L 86.325688 28.461595 
L 86.779191 27.623808 
L 87.232694 27.859033 
L 87.686198 24.897778 
L 88.139701 25.104002 
L 89.046708 29.431495 
L 89.500212 28.961045 
L 89.953715 29.399272 
L 90.407219 32.714976 
L 91.314226 52.422306 
L 92.221233 68.172703 
L 92.674736 80.929622 
L 93.581743 109.58194 
L 94.035247 122.651419 
L 94.48875 130.304282 
L 94.942253 132.575974 
L 95.395757 143.618652 
L 95.84926 163.870543 
L 96.756267 186.049345 
L 97.209771 184.850665 
L 97.663274 190.570173 
L 98.116778 194.57544 
L 99.477288 211.079845 
L 99.930792 214.71133 
L 100.837799 218.732708 
L 101.291302 219.699386 
L 101.744806 218.761708 
L 102.198309 214.778998 
L 102.651812 208.108924 
L 103.105316 198.764375 
L 104.012323 173.401983 
L 106.27984 105.451006 
L 106.733344 104.332882 
L 107.186847 100.70462 
L 107.640351 100.694953 
L 108.093854 100.276059 
L 108.547358 100.201947 
L 109.454365 106.495017 
L 109.907868 107.564807 
L 110.361371 112.092079 
L 110.814875 113.500206 
L 111.268378 119.258381 
L 112.175385 124.378549 
L 112.628889 125.838232 
L 113.082392 125.796343 
L 113.989399 116.703131 
L 114.896406 101.742187 
L 115.803413 81.802854 
L 116.256917 75.116669 
L 118.524434 60.413505 
L 118.977937 60.455395 
L 119.431441 58.741154 
L 119.884944 55.019446 
L 120.338448 54.25577 
L 121.698958 40.052057 
L 122.605965 34.603219 
L 123.512972 26.106124 
L 123.966476 23.705542 
L 124.419979 22.551974 
L 124.873483 24.77211 
L 125.326986 29.315493 
L 125.780489 35.54734 
L 126.233993 43.387094 
L 129.408517 111.263959 
L 130.315524 127.384916 
L 131.222531 145.468228 
L 133.943552 191.340293 
L 135.757566 212.661974 
L 136.211069 215.233336 
L 136.664573 215.83912 
L 137.118076 214.0121 
L 137.57158 209.165824 
L 138.025083 201.355071 
L 138.93209 177.400805 
L 140.746104 121.720186 
L 141.653111 101.76152 
L 142.106614 95.36856 
L 142.560118 90.757509 
L 143.013621 87.358027 
L 143.920628 85.885455 
L 144.374132 87.37736 
L 145.281139 92.922866 
L 147.095153 108.202814 
L 147.548656 110.761287 
L 148.455663 111.560407 
L 148.909166 108.541151 
L 149.36267 103.607874 
L 150.72318 78.786821 
L 151.630187 67.831143 
L 152.083691 65.775343 
L 152.537194 67.057801 
L 152.990698 68.923489 
L 154.351208 76.785798 
L 154.804712 76.827688 
L 155.258215 77.9587 
L 156.165222 73.254204 
L 157.525732 61.605741 
L 158.432739 53.240759 
L 158.886243 49.60283 
L 159.339746 48.110924 
L 159.79325 47.331138 
L 160.246753 50.604952 
L 160.700257 56.382461 
L 161.607264 73.044757 
L 162.514271 90.670508 
L 162.967774 98.719709 
L 163.421278 104.535884 
L 164.328284 111.241403 
L 164.781788 114.698886 
L 165.235291 113.84821 
L 165.688795 117.895366 
L 166.142298 119.922166 
L 166.595802 122.976867 
L 167.049305 128.351593 
L 167.502809 132.337526 
L 167.956312 138.040923 
L 168.863319 152.096413 
L 170.677333 174.842332 
L 171.130837 176.211791 
L 172.037843 169.905833 
L 172.491347 163.770653 
L 172.94485 155.254225 
L 173.851857 131.238736 
L 174.758864 110.609841 
L 175.665871 92.194636 
L 177.026382 68.955711 
L 177.479885 61.760409 
L 178.840395 46.989579 
L 179.293899 43.776987 
L 179.747402 43.915544 
L 180.200906 45.649119 
L 180.654409 45.268893 
L 181.107913 48.745709 
L 181.561416 48.845599 
L 182.01492 51.913189 
L 182.468423 49.37405 
L 182.921927 48.281704 
L 183.828934 41.305515 
L 184.735941 34.31966 
L 185.189444 33.842766 
L 185.642948 36.965134 
L 186.096451 40.957512 
L 187.456961 71.26607 
L 189.724479 127.426805 
L 190.631486 145.67123 
L 191.538493 159.072601 
L 192.4455 170.27317 
L 192.899003 174.052879 
L 195.16652 200.804065 
L 195.620024 202.611751 
L 196.073527 207.309804 
L 196.527031 208.437594 
L 196.980534 209.220603 
L 197.434038 205.740564 
L 197.887541 200.385171 
L 198.794548 175.979789 
L 199.701555 144.910777 
L 200.608562 120.302393 
L 201.062066 110.062057 
L 201.969072 96.216014 
L 202.876079 87.622252 
L 203.329583 86.555685 
L 203.783086 86.787687 
L 204.23659 86.152902 
L 204.690093 86.52024 
L 205.5971 92.494306 
L 206.050604 94.707997 
L 207.411114 103.072979 
L 207.864618 105.003112 
L 208.318121 104.068657 
L 208.771625 100.301837 
L 209.678631 89.903611 
L 210.132135 82.611641 
L 211.039142 65.662564 
L 211.492645 63.513318 
L 211.946149 63.000979 
L 212.399652 62.043968 
L 214.66717 76.776132 
L 215.120673 78.081146 
L 215.574177 78.944711 
L 216.02768 78.123035 
L 216.934687 73.508762 
L 217.38819 69.806388 
L 217.841694 67.992256 
L 218.748701 60.342616 
L 219.202204 60.071946 
L 219.655708 61.985967 
L 220.109211 65.172781 
L 220.562715 70.711842 
L 221.016218 77.949034 
L 221.923225 99.860388 
L 223.283736 118.646152 
L 223.737239 123.885544 
L 224.190743 126.186236 
L 224.644246 127.352693 
L 225.097749 129.311826 
L 225.551253 128.264592 
L 226.45826 129.376271 
L 226.911763 130.020723 
L 228.272274 139.336271 
L 230.086288 156.285348 
L 230.539791 157.683808 
L 230.993295 156.565684 
L 231.446798 152.959978 
L 232.353805 132.759642 
L 233.260812 107.45525 
L 233.714315 101.787298 
L 234.621322 82.518195 
L 235.074826 76.225125 
L 235.981833 61.099846 
L 236.88884 50.176392 
L 237.342343 42.993979 
L 237.795847 38.547263 
L 238.702854 34.81911 
L 239.156357 35.212226 
L 240.063364 30.298282 
L 240.516867 29.086713 
L 240.970371 28.912711 
L 241.423874 28.886933 
L 241.877378 27.9267 
L 242.784385 25.287671 
L 243.237888 24.378994 
L 243.691392 23.122314 
L 244.144895 25.281226 
L 244.598399 31.136069 
L 245.958909 64.998779 
L 246.865916 90.847732 
L 248.67993 135.633896 
L 249.586937 157.770809 
L 251.854454 195.400338 
L 252.761461 205.869454 
L 253.214965 208.88871 
L 253.668468 214.733886 
L 254.575475 222.812087 
L 255.028979 224.078434 
L 255.482482 225 
L 255.935985 222.035523 
L 256.389489 214.517995 
L 256.842992 204.535439 
L 257.749999 175.103335 
L 258.657006 141.227736 
L 259.564013 119.454939 
L 260.017517 113.87721 
L 260.47102 106.188903 
L 260.924524 102.267415 
L 261.378027 100.256726 
L 261.831531 101.893633 
L 262.285034 102.244859 
L 262.738538 105.306004 
L 263.192041 107.174914 
L 263.645544 108.370371 
L 265.459558 125.390338 
L 265.913062 128.180814 
L 266.366565 128.641597 
L 266.820069 129.385938 
L 267.273572 127.001467 
L 267.727076 122.487084 
L 268.634083 106.917133 
L 269.54109 85.956345 
L 269.994593 78.893155 
L 270.448097 74.936222 
L 270.9016 69.787054 
L 271.808607 64.782887 
L 272.26211 62.58853 
L 272.715614 59.427494 
L 273.169117 57.784143 
L 274.076124 51.210737 
L 274.529628 46.573907 
L 275.436635 39.294826 
L 275.890138 35.151003 
L 276.343642 32.254193 
L 276.797145 28.042701 
L 277.250649 25.075002 
L 278.157656 21.962301 
L 278.611159 21.582074 
L 279.064662 24.105102 
L 279.518166 27.907367 
L 279.971669 35.186447 
L 284.506704 135.089335 
L 285.413711 152.205969 
L 285.867215 161.605296 
L 286.774221 175.79612 
L 287.681228 191.70763 
L 288.588235 203.130535 
L 289.041739 209.604051 
L 289.495242 214.160324 
L 289.948746 217.588807 
L 290.402249 219.054934 
L 290.855753 219.222491 
L 291.309256 216.164569 
L 291.76276 210.161502 
L 292.669767 188.901044 
L 294.937284 119.309937 
L 295.390787 108.873044 
L 296.297794 95.822899 
L 296.751298 92.146302 
L 297.204801 90.34506 
L 297.658305 89.504051 
L 298.111808 90.506173 
L 299.018815 96.080679 
L 299.472319 98.874377 
L 301.286333 114.924444 
L 301.739836 116.735353 
L 302.193339 117.798698 
L 302.646843 116.722464 
L 303.100346 113.242425 
L 303.55385 106.330682 
L 304.91436 81.05529 
L 305.821367 69.161936 
L 306.274871 67.247915 
L 306.728374 67.989034 
L 307.181878 68.436928 
L 307.635381 70.447617 
L 308.088885 71.021179 
L 308.542388 71.958856 
L 308.995892 70.731176 
L 309.449395 68.994379 
L 310.809905 58.538151 
L 311.263409 54.468439 
L 312.170416 45.10778 
L 312.623919 41.350627 
L 313.077423 39.404383 
L 313.530926 36.153125 
L 313.98443 37.229359 
L 314.437933 39.749165 
L 315.34494 54.036657 
L 316.705451 82.147636 
L 317.158954 91.147402 
L 318.519464 107.519695 
L 318.972968 111.647408 
L 321.240485 139.829276 
L 321.693989 148.236147 
L 322.600996 161.672963 
L 323.508003 175.976567 
L 324.41501 188.578818 
L 324.868513 192.993311 
L 325.322016 194.530328 
L 325.77552 194.501328 
L 326.229023 191.836521 
L 326.682527 186.287792 
L 327.589534 166.844687 
L 328.496541 144.07299 
L 329.403548 119.809387 
L 330.764058 89.661941 
L 332.124569 67.866588 
L 333.031575 61.154625 
L 333.485079 59.74972 
L 333.938582 62.08908 
L 335.752596 74.83311 
L 336.2061 75.658008 
L 336.659603 77.526918 
L 337.113107 77.862033 
L 337.56661 75.087668 
L 338.020114 71.249959 
L 339.380624 54.413661 
L 339.834128 51.436295 
L 340.287631 49.496495 
L 340.741134 50.788621 
L 341.648141 62.137413 
L 342.101645 70.972845 
L 342.555148 82.170192 
L 343.462155 97.917366 
L 343.915659 107.622808 
L 344.822666 119.51294 
L 345.729673 126.982134 
L 346.183176 128.129257 
L 346.63668 128.399927 
L 347.090183 128.422483 
L 347.543687 128.928377 
L 348.450693 135.205336 
L 349.3577 144.20188 
L 350.264707 157.219803 
L 350.718211 164.411883 
L 351.625218 172.280637 
L 352.078721 171.24307 
L 352.532225 166.789909 
L 353.439232 151.348849 
L 355.706749 96.522129 
L 356.160252 88.998156 
L 356.613756 76.679464 
L 357.520763 62.678753 
L 358.42777 52.696198 
L 358.881273 48.968045 
L 359.334777 46.222681 
L 359.78828 41.637408 
L 360.241784 41.48274 
L 360.695287 41.044513 
L 361.148791 40.258282 
L 362.055798 45.958456 
L 362.509301 44.953112 
L 362.962805 44.53744 
L 363.869811 39.736276 
L 364.776818 32.460417 
L 365.230322 31.35196 
L 365.683825 32.528085 
L 366.590832 45.024001 
L 367.044336 52.876644 
L 370.21886 135.621007 
L 371.125867 155.911566 
L 372.939881 182.694975 
L 373.393384 186.758242 
L 374.753895 202.411971 
L 375.207398 205.26367 
L 375.660902 212.945533 
L 376.114405 213.618985 
L 376.567909 217.566251 
L 377.021412 217.543695 
L 377.474916 216.196791 
L 378.381923 197.813809 
L 378.835426 185.75612 
L 380.64944 127.855366 
L 381.102943 116.094124 
L 381.556447 108.218925 
L 382.00995 102.837754 
L 382.463454 99.019379 
L 383.823964 90.625397 
L 384.277468 93.544762 
L 384.730971 93.631763 
L 385.637978 100.108502 
L 386.091482 101.484406 
L 386.998488 110.165169 
L 387.451992 112.44975 
L 387.905495 113.960989 
L 388.358999 114.073768 
L 388.812502 113.371316 
L 389.266006 108.776376 
L 389.719509 102.380194 
L 390.626516 85.186225 
L 391.08002 75.877122 
L 391.533523 69.787054 
L 391.987027 67.908478 
L 392.44053 65.459561 
L 392.894034 64.302771 
L 393.347537 63.977323 
L 394.254544 65.488562 
L 394.708047 64.396216 
L 395.161551 64.380105 
L 395.615054 63.332871 
L 396.522061 59.388827 
L 396.975565 55.013001 
L 397.429068 52.119413 
L 398.789579 39.704053 
L 399.243082 38.025257 
L 399.696586 37.773921 
L 400.150089 40.416172 
L 400.603593 44.286104 
L 401.5106 56.527462 
L 403.324613 98.091368 
L 403.778117 106.147013 
L 403.778117 106.147013 
" style="fill:none;stroke:#0000ff;stroke-dasharray:5.55,2.4;stroke-dashoffset:0;stroke-width:1.5;"/>
   </g>
   <g id="patch_3">
    <path d="M 47.120313 235.2 
L 47.120313 10.8 
" style="fill:none;stroke:#000000;stroke-linecap:square;stroke-linejoin:miter;stroke-width:0.8;"/>
   </g>
   <g id="patch_4">
    <path d="M 420.761822 235.2 
L 420.761822 10.8 
" style="fill:none;stroke:#000000;stroke-linecap:square;stroke-linejoin:miter;stroke-width:0.8;"/>
   </g>
   <g id="patch_5">
    <path d="M 47.120312 235.2 
L 420.761822 235.2 
" style="fill:none;stroke:#000000;stroke-linecap:square;stroke-linejoin:miter;stroke-width:0.8;"/>
   </g>
   <g id="patch_6">
    <path d="M 47.120312 10.8 
L 420.761822 10.8 
" style="fill:none;stroke:#000000;stroke-linecap:square;stroke-linejoin:miter;stroke-width:0.8;"/>
   </g>
   <g id="legend_1">
    <g id="patch_7">
     <path d="M 306.289947 228.2 
L 410.961822 228.2 
Q 413.761822 228.2 413.761822 225.4 
L 413.761822 185.675 
Q 413.761822 182.875 410.961822 182.875 
L 306.289947 182.875 
Q 303.489947 182.875 303.489947 185.675 
L 303.489947 225.4 
Q 303.489947 228.2 306.289947 228.2 
z
" style="fill:#ffffff;opacity:0.8;stroke:#cccccc;stroke-linejoin:miter;"/>
    </g>
    <g id="line2d_16">
     <path d="M 309.089947 194.212812 
L 337.089947 194.212812 
" style="fill:none;stroke:#ff0000;stroke-linecap:square;stroke-width:1.5;"/>
    </g>
    <g id="line2d_17"/>
    <g id="text_16">
     <!-- Real -->
     <g transform="translate(348.289947 199.112812)scale(0.14 -0.14)">
      <defs>
       <path d="M 2841 2188 
Q 3044 2119 3236 1894 
Q 3428 1669 3622 1275 
L 4263 0 
L 3584 0 
L 2988 1197 
Q 2756 1666 2539 1819 
Q 2322 1972 1947 1972 
L 1259 1972 
L 1259 0 
L 628 0 
L 628 4666 
L 2053 4666 
Q 2853 4666 3247 4331 
Q 3641 3997 3641 3322 
Q 3641 2881 3436 2590 
Q 3231 2300 2841 2188 
z
M 1259 4147 
L 1259 2491 
L 2053 2491 
Q 2509 2491 2742 2702 
Q 2975 2913 2975 3322 
Q 2975 3731 2742 3939 
Q 2509 4147 2053 4147 
L 1259 4147 
z
" id="DejaVuSans-52" transform="scale(0.015625)"/>
       <path d="M 3597 1894 
L 3597 1613 
L 953 1613 
Q 991 1019 1311 708 
Q 1631 397 2203 397 
Q 2534 397 2845 478 
Q 3156 559 3463 722 
L 3463 178 
Q 3153 47 2828 -22 
Q 2503 -91 2169 -91 
Q 1331 -91 842 396 
Q 353 884 353 1716 
Q 353 2575 817 3079 
Q 1281 3584 2069 3584 
Q 2775 3584 3186 3129 
Q 3597 2675 3597 1894 
z
M 3022 2063 
Q 3016 2534 2758 2815 
Q 2500 3097 2075 3097 
Q 1594 3097 1305 2825 
Q 1016 2553 972 2059 
L 3022 2063 
z
" id="DejaVuSans-65" transform="scale(0.015625)"/>
       <path d="M 2194 1759 
Q 1497 1759 1228 1600 
Q 959 1441 959 1056 
Q 959 750 1161 570 
Q 1363 391 1709 391 
Q 2188 391 2477 730 
Q 2766 1069 2766 1631 
L 2766 1759 
L 2194 1759 
z
M 3341 1997 
L 3341 0 
L 2766 0 
L 2766 531 
Q 2569 213 2275 61 
Q 1981 -91 1556 -91 
Q 1019 -91 701 211 
Q 384 513 384 1019 
Q 384 1609 779 1909 
Q 1175 2209 1959 2209 
L 2766 2209 
L 2766 2266 
Q 2766 2663 2505 2880 
Q 2244 3097 1772 3097 
Q 1472 3097 1187 3025 
Q 903 2953 641 2809 
L 641 3341 
Q 956 3463 1253 3523 
Q 1550 3584 1831 3584 
Q 2591 3584 2966 3190 
Q 3341 2797 3341 1997 
z
" id="DejaVuSans-61" transform="scale(0.015625)"/>
       <path d="M 603 4863 
L 1178 4863 
L 1178 0 
L 603 0 
L 603 4863 
z
" id="DejaVuSans-6c" transform="scale(0.015625)"/>
      </defs>
      <use xlink:href="#DejaVuSans-52"/>
      <use x="64.982422" xlink:href="#DejaVuSans-65"/>
      <use x="126.505859" xlink:href="#DejaVuSans-61"/>
      <use x="187.785156" xlink:href="#DejaVuSans-6c"/>
     </g>
    </g>
    <g id="line2d_18">
     <path d="M 309.089947 214.788437 
L 337.089947 214.788437 
" style="fill:none;stroke:#0000ff;stroke-dasharray:5.55,2.4;stroke-dashoffset:0;stroke-width:1.5;"/>
    </g>
    <g id="line2d_19"/>
    <g id="text_17">
     <!-- Predição -->
     <g transform="translate(348.289947 219.688437)scale(0.14 -0.14)">
      <defs>
       <path d="M 1259 4147 
L 1259 2394 
L 2053 2394 
Q 2494 2394 2734 2622 
Q 2975 2850 2975 3272 
Q 2975 3691 2734 3919 
Q 2494 4147 2053 4147 
L 1259 4147 
z
M 628 4666 
L 2053 4666 
Q 2838 4666 3239 4311 
Q 3641 3956 3641 3272 
Q 3641 2581 3239 2228 
Q 2838 1875 2053 1875 
L 1259 1875 
L 1259 0 
L 628 0 
L 628 4666 
z
" id="DejaVuSans-50" transform="scale(0.015625)"/>
       <path d="M 2631 2963 
Q 2534 3019 2420 3045 
Q 2306 3072 2169 3072 
Q 1681 3072 1420 2755 
Q 1159 2438 1159 1844 
L 1159 0 
L 581 0 
L 581 3500 
L 1159 3500 
L 1159 2956 
Q 1341 3275 1631 3429 
Q 1922 3584 2338 3584 
Q 2397 3584 2469 3576 
Q 2541 3569 2628 3553 
L 2631 2963 
z
" id="DejaVuSans-72" transform="scale(0.015625)"/>
       <path d="M 2906 2969 
L 2906 4863 
L 3481 4863 
L 3481 0 
L 2906 0 
L 2906 525 
Q 2725 213 2448 61 
Q 2172 -91 1784 -91 
Q 1150 -91 751 415 
Q 353 922 353 1747 
Q 353 2572 751 3078 
Q 1150 3584 1784 3584 
Q 2172 3584 2448 3432 
Q 2725 3281 2906 2969 
z
M 947 1747 
Q 947 1113 1208 752 
Q 1469 391 1925 391 
Q 2381 391 2643 752 
Q 2906 1113 2906 1747 
Q 2906 2381 2643 2742 
Q 2381 3103 1925 3103 
Q 1469 3103 1208 2742 
Q 947 2381 947 1747 
z
" id="DejaVuSans-64" transform="scale(0.015625)"/>
       <path d="M 603 3500 
L 1178 3500 
L 1178 0 
L 603 0 
L 603 3500 
z
M 603 4863 
L 1178 4863 
L 1178 4134 
L 603 4134 
L 603 4863 
z
" id="DejaVuSans-69" transform="scale(0.015625)"/>
       <path d="M 3122 3366 
L 3122 2828 
Q 2878 2963 2633 3030 
Q 2388 3097 2138 3097 
Q 1578 3097 1268 2742 
Q 959 2388 959 1747 
Q 959 1106 1268 751 
Q 1578 397 2138 397 
Q 2388 397 2633 464 
Q 2878 531 3122 666 
L 3122 134 
Q 2881 22 2623 -34 
Q 2366 -91 2075 -91 
Q 1284 -91 818 406 
Q 353 903 353 1747 
Q 353 2603 823 3093 
Q 1294 3584 2113 3584 
Q 2378 3584 2631 3529 
Q 2884 3475 3122 3366 
z
M 2309 0 
Q 2481 -194 2565 -358 
Q 2650 -522 2650 -672 
Q 2650 -950 2462 -1092 
Q 2275 -1234 1906 -1234 
Q 1763 -1234 1627 -1215 
Q 1491 -1197 1356 -1159 
L 1356 -750 
Q 1463 -803 1578 -826 
Q 1694 -850 1841 -850 
Q 2025 -850 2119 -775 
Q 2213 -700 2213 -556 
Q 2213 -463 2145 -327 
Q 2078 -191 1938 0 
L 2309 0 
z
" id="DejaVuSans-e7" transform="scale(0.015625)"/>
       <path d="M 2194 1759 
Q 1497 1759 1228 1600 
Q 959 1441 959 1056 
Q 959 750 1161 570 
Q 1363 391 1709 391 
Q 2188 391 2477 730 
Q 2766 1069 2766 1631 
L 2766 1759 
L 2194 1759 
z
M 3341 1997 
L 3341 0 
L 2766 0 
L 2766 531 
Q 2569 213 2275 61 
Q 1981 -91 1556 -91 
Q 1019 -91 701 211 
Q 384 513 384 1019 
Q 384 1609 779 1909 
Q 1175 2209 1959 2209 
L 2766 2209 
L 2766 2266 
Q 2766 2663 2505 2880 
Q 2244 3097 1772 3097 
Q 1472 3097 1187 3025 
Q 903 2953 641 2809 
L 641 3341 
Q 956 3463 1253 3523 
Q 1550 3584 1831 3584 
Q 2591 3584 2966 3190 
Q 3341 2797 3341 1997 
z
M 1844 4281 
L 1666 4453 
Q 1597 4516 1545 4545 
Q 1494 4575 1453 4575 
Q 1334 4575 1278 4461 
Q 1222 4347 1216 4091 
L 825 4091 
Q 831 4513 990 4742 
Q 1150 4972 1434 4972 
Q 1553 4972 1653 4928 
Q 1753 4884 1869 4781 
L 2047 4609 
Q 2116 4547 2167 4517 
Q 2219 4488 2259 4488 
Q 2378 4488 2434 4602 
Q 2491 4716 2497 4972 
L 2888 4972 
Q 2881 4550 2722 4320 
Q 2563 4091 2278 4091 
Q 2159 4091 2059 4134 
Q 1959 4178 1844 4281 
z
" id="DejaVuSans-e3" transform="scale(0.015625)"/>
       <path d="M 1959 3097 
Q 1497 3097 1228 2736 
Q 959 2375 959 1747 
Q 959 1119 1226 758 
Q 1494 397 1959 397 
Q 2419 397 2687 759 
Q 2956 1122 2956 1747 
Q 2956 2369 2687 2733 
Q 2419 3097 1959 3097 
z
M 1959 3584 
Q 2709 3584 3137 3096 
Q 3566 2609 3566 1747 
Q 3566 888 3137 398 
Q 2709 -91 1959 -91 
Q 1206 -91 779 398 
Q 353 888 353 1747 
Q 353 2609 779 3096 
Q 1206 3584 1959 3584 
z
" id="DejaVuSans-6f" transform="scale(0.015625)"/>
      </defs>
      <use xlink:href="#DejaVuSans-50"/>
      <use x="58.552734" xlink:href="#DejaVuSans-72"/>
      <use x="97.416016" xlink:href="#DejaVuSans-65"/>
      <use x="158.939453" xlink:href="#DejaVuSans-64"/>
      <use x="222.416016" xlink:href="#DejaVuSans-69"/>
      <use x="250.199219" xlink:href="#DejaVuSans-e7"/>
      <use x="305.179688" xlink:href="#DejaVuSans-e3"/>
      <use x="366.458984" xlink:href="#DejaVuSans-6f"/>
     </g>
    </g>
   </g>
  </g>
 </g>
 <defs>
  <clipPath id="p5323f9d740">
   <rect height="224.4" width="373.641509" x="47.120313" y="10.8"/>
  </clipPath>
 </defs>
</svg>
