<?xml version="1.0" encoding="utf-8" standalone="no"?>
<!DOCTYPE svg PUBLIC "-//W3C//DTD SVG 1.1//EN"
  "http://www.w3.org/Graphics/SVG/1.1/DTD/svg11.dtd">
<svg xmlns:xlink="http://www.w3.org/1999/xlink" width="460.8pt" height="345.6pt" viewBox="0 0 460.8 345.6" xmlns="http://www.w3.org/2000/svg" version="1.1">
 <metadata>
  <rdf:RDF xmlns:dc="http://purl.org/dc/elements/1.1/" xmlns:cc="http://creativecommons.org/ns#" xmlns:rdf="http://www.w3.org/1999/02/22-rdf-syntax-ns#">
   <cc:Work>
    <dc:type rdf:resource="http://purl.org/dc/dcmitype/StillImage"/>
    <dc:date>2022-09-28T18:01:35.400683</dc:date>
    <dc:format>image/svg+xml</dc:format>
    <dc:creator>
     <cc:Agent>
      <dc:title>Matplotlib v3.5.3, https://matplotlib.org/</dc:title>
     </cc:Agent>
    </dc:creator>
   </cc:Work>
  </rdf:RDF>
 </metadata>
 <defs>
  <style type="text/css">*{stroke-linejoin: round; stroke-linecap: butt}</style>
 </defs>
 <g id="figure_1">
  <g id="patch_1">
   <path d="M 0 345.6 
L 460.8 345.6 
L 460.8 0 
L 0 0 
z
" style="fill: #ffffff"/>
  </g>
  <g id="axes_1">
   <g id="patch_2">
    <path d="M 46.926875 293.56 
L 450 293.56 
L 450 10.8 
L 46.926875 10.8 
z
" style="fill: #ffffff"/>
   </g>
   <g id="matplotlib.axis_1">
    <g id="xtick_1">
     <g id="line2d_1">
      <defs>
       <path id="m1c63b150c7" d="M 0 0 
L 0 3.5 
" style="stroke: #000000; stroke-width: 0.8"/>
      </defs>
      <g>
       <use xlink:href="#m1c63b150c7" x="89.70967" y="293.56" style="stroke: #000000; stroke-width: 0.8"/>
      </g>
     </g>
     <g id="text_1">
      <!-- 4300 -->
      <g transform="translate(74.43967 309.678125)scale(0.12 -0.12)">
       <defs>
        <path id="DejaVuSans-34" d="M 2419 4116 
L 825 1625 
L 2419 1625 
L 2419 4116 
z
M 2253 4666 
L 3047 4666 
L 3047 1625 
L 3713 1625 
L 3713 1100 
L 3047 1100 
L 3047 0 
L 2419 0 
L 2419 1100 
L 313 1100 
L 313 1709 
L 2253 4666 
z
" transform="scale(0.015625)"/>
        <path id="DejaVuSans-33" d="M 2597 2516 
Q 3050 2419 3304 2112 
Q 3559 1806 3559 1356 
Q 3559 666 3084 287 
Q 2609 -91 1734 -91 
Q 1441 -91 1130 -33 
Q 819 25 488 141 
L 488 750 
Q 750 597 1062 519 
Q 1375 441 1716 441 
Q 2309 441 2620 675 
Q 2931 909 2931 1356 
Q 2931 1769 2642 2001 
Q 2353 2234 1838 2234 
L 1294 2234 
L 1294 2753 
L 1863 2753 
Q 2328 2753 2575 2939 
Q 2822 3125 2822 3475 
Q 2822 3834 2567 4026 
Q 2313 4219 1838 4219 
Q 1578 4219 1281 4162 
Q 984 4106 628 3988 
L 628 4550 
Q 988 4650 1302 4700 
Q 1616 4750 1894 4750 
Q 2613 4750 3031 4423 
Q 3450 4097 3450 3541 
Q 3450 3153 3228 2886 
Q 3006 2619 2597 2516 
z
" transform="scale(0.015625)"/>
        <path id="DejaVuSans-30" d="M 2034 4250 
Q 1547 4250 1301 3770 
Q 1056 3291 1056 2328 
Q 1056 1369 1301 889 
Q 1547 409 2034 409 
Q 2525 409 2770 889 
Q 3016 1369 3016 2328 
Q 3016 3291 2770 3770 
Q 2525 4250 2034 4250 
z
M 2034 4750 
Q 2819 4750 3233 4129 
Q 3647 3509 3647 2328 
Q 3647 1150 3233 529 
Q 2819 -91 2034 -91 
Q 1250 -91 836 529 
Q 422 1150 422 2328 
Q 422 3509 836 4129 
Q 1250 4750 2034 4750 
z
" transform="scale(0.015625)"/>
       </defs>
       <use xlink:href="#DejaVuSans-34"/>
       <use xlink:href="#DejaVuSans-33" x="63.623047"/>
       <use xlink:href="#DejaVuSans-30" x="127.246094"/>
       <use xlink:href="#DejaVuSans-30" x="190.869141"/>
      </g>
     </g>
    </g>
    <g id="xtick_2">
     <g id="line2d_2">
      <g>
       <use xlink:href="#m1c63b150c7" x="138.632249" y="293.56" style="stroke: #000000; stroke-width: 0.8"/>
      </g>
     </g>
     <g id="text_2">
      <!-- 4400 -->
      <g transform="translate(123.362249 309.678125)scale(0.12 -0.12)">
       <use xlink:href="#DejaVuSans-34"/>
       <use xlink:href="#DejaVuSans-34" x="63.623047"/>
       <use xlink:href="#DejaVuSans-30" x="127.246094"/>
       <use xlink:href="#DejaVuSans-30" x="190.869141"/>
      </g>
     </g>
    </g>
    <g id="xtick_3">
     <g id="line2d_3">
      <g>
       <use xlink:href="#m1c63b150c7" x="187.554827" y="293.56" style="stroke: #000000; stroke-width: 0.8"/>
      </g>
     </g>
     <g id="text_3">
      <!-- 4500 -->
      <g transform="translate(172.284827 309.678125)scale(0.12 -0.12)">
       <defs>
        <path id="DejaVuSans-35" d="M 691 4666 
L 3169 4666 
L 3169 4134 
L 1269 4134 
L 1269 2991 
Q 1406 3038 1543 3061 
Q 1681 3084 1819 3084 
Q 2600 3084 3056 2656 
Q 3513 2228 3513 1497 
Q 3513 744 3044 326 
Q 2575 -91 1722 -91 
Q 1428 -91 1123 -41 
Q 819 9 494 109 
L 494 744 
Q 775 591 1075 516 
Q 1375 441 1709 441 
Q 2250 441 2565 725 
Q 2881 1009 2881 1497 
Q 2881 1984 2565 2268 
Q 2250 2553 1709 2553 
Q 1456 2553 1204 2497 
Q 953 2441 691 2322 
L 691 4666 
z
" transform="scale(0.015625)"/>
       </defs>
       <use xlink:href="#DejaVuSans-34"/>
       <use xlink:href="#DejaVuSans-35" x="63.623047"/>
       <use xlink:href="#DejaVuSans-30" x="127.246094"/>
       <use xlink:href="#DejaVuSans-30" x="190.869141"/>
      </g>
     </g>
    </g>
    <g id="xtick_4">
     <g id="line2d_4">
      <g>
       <use xlink:href="#m1c63b150c7" x="236.477406" y="293.56" style="stroke: #000000; stroke-width: 0.8"/>
      </g>
     </g>
     <g id="text_4">
      <!-- 4600 -->
      <g transform="translate(221.207406 309.678125)scale(0.12 -0.12)">
       <defs>
        <path id="DejaVuSans-36" d="M 2113 2584 
Q 1688 2584 1439 2293 
Q 1191 2003 1191 1497 
Q 1191 994 1439 701 
Q 1688 409 2113 409 
Q 2538 409 2786 701 
Q 3034 994 3034 1497 
Q 3034 2003 2786 2293 
Q 2538 2584 2113 2584 
z
M 3366 4563 
L 3366 3988 
Q 3128 4100 2886 4159 
Q 2644 4219 2406 4219 
Q 1781 4219 1451 3797 
Q 1122 3375 1075 2522 
Q 1259 2794 1537 2939 
Q 1816 3084 2150 3084 
Q 2853 3084 3261 2657 
Q 3669 2231 3669 1497 
Q 3669 778 3244 343 
Q 2819 -91 2113 -91 
Q 1303 -91 875 529 
Q 447 1150 447 2328 
Q 447 3434 972 4092 
Q 1497 4750 2381 4750 
Q 2619 4750 2861 4703 
Q 3103 4656 3366 4563 
z
" transform="scale(0.015625)"/>
       </defs>
       <use xlink:href="#DejaVuSans-34"/>
       <use xlink:href="#DejaVuSans-36" x="63.623047"/>
       <use xlink:href="#DejaVuSans-30" x="127.246094"/>
       <use xlink:href="#DejaVuSans-30" x="190.869141"/>
      </g>
     </g>
    </g>
    <g id="xtick_5">
     <g id="line2d_5">
      <g>
       <use xlink:href="#m1c63b150c7" x="285.399984" y="293.56" style="stroke: #000000; stroke-width: 0.8"/>
      </g>
     </g>
     <g id="text_5">
      <!-- 4700 -->
      <g transform="translate(270.129984 309.678125)scale(0.12 -0.12)">
       <defs>
        <path id="DejaVuSans-37" d="M 525 4666 
L 3525 4666 
L 3525 4397 
L 1831 0 
L 1172 0 
L 2766 4134 
L 525 4134 
L 525 4666 
z
" transform="scale(0.015625)"/>
       </defs>
       <use xlink:href="#DejaVuSans-34"/>
       <use xlink:href="#DejaVuSans-37" x="63.623047"/>
       <use xlink:href="#DejaVuSans-30" x="127.246094"/>
       <use xlink:href="#DejaVuSans-30" x="190.869141"/>
      </g>
     </g>
    </g>
    <g id="xtick_6">
     <g id="line2d_6">
      <g>
       <use xlink:href="#m1c63b150c7" x="334.322563" y="293.56" style="stroke: #000000; stroke-width: 0.8"/>
      </g>
     </g>
     <g id="text_6">
      <!-- 4800 -->
      <g transform="translate(319.052563 309.678125)scale(0.12 -0.12)">
       <defs>
        <path id="DejaVuSans-38" d="M 2034 2216 
Q 1584 2216 1326 1975 
Q 1069 1734 1069 1313 
Q 1069 891 1326 650 
Q 1584 409 2034 409 
Q 2484 409 2743 651 
Q 3003 894 3003 1313 
Q 3003 1734 2745 1975 
Q 2488 2216 2034 2216 
z
M 1403 2484 
Q 997 2584 770 2862 
Q 544 3141 544 3541 
Q 544 4100 942 4425 
Q 1341 4750 2034 4750 
Q 2731 4750 3128 4425 
Q 3525 4100 3525 3541 
Q 3525 3141 3298 2862 
Q 3072 2584 2669 2484 
Q 3125 2378 3379 2068 
Q 3634 1759 3634 1313 
Q 3634 634 3220 271 
Q 2806 -91 2034 -91 
Q 1263 -91 848 271 
Q 434 634 434 1313 
Q 434 1759 690 2068 
Q 947 2378 1403 2484 
z
M 1172 3481 
Q 1172 3119 1398 2916 
Q 1625 2713 2034 2713 
Q 2441 2713 2670 2916 
Q 2900 3119 2900 3481 
Q 2900 3844 2670 4047 
Q 2441 4250 2034 4250 
Q 1625 4250 1398 4047 
Q 1172 3844 1172 3481 
z
" transform="scale(0.015625)"/>
       </defs>
       <use xlink:href="#DejaVuSans-34"/>
       <use xlink:href="#DejaVuSans-38" x="63.623047"/>
       <use xlink:href="#DejaVuSans-30" x="127.246094"/>
       <use xlink:href="#DejaVuSans-30" x="190.869141"/>
      </g>
     </g>
    </g>
    <g id="xtick_7">
     <g id="line2d_7">
      <g>
       <use xlink:href="#m1c63b150c7" x="383.245142" y="293.56" style="stroke: #000000; stroke-width: 0.8"/>
      </g>
     </g>
     <g id="text_7">
      <!-- 4900 -->
      <g transform="translate(367.975142 309.678125)scale(0.12 -0.12)">
       <defs>
        <path id="DejaVuSans-39" d="M 703 97 
L 703 672 
Q 941 559 1184 500 
Q 1428 441 1663 441 
Q 2288 441 2617 861 
Q 2947 1281 2994 2138 
Q 2813 1869 2534 1725 
Q 2256 1581 1919 1581 
Q 1219 1581 811 2004 
Q 403 2428 403 3163 
Q 403 3881 828 4315 
Q 1253 4750 1959 4750 
Q 2769 4750 3195 4129 
Q 3622 3509 3622 2328 
Q 3622 1225 3098 567 
Q 2575 -91 1691 -91 
Q 1453 -91 1209 -44 
Q 966 3 703 97 
z
M 1959 2075 
Q 2384 2075 2632 2365 
Q 2881 2656 2881 3163 
Q 2881 3666 2632 3958 
Q 2384 4250 1959 4250 
Q 1534 4250 1286 3958 
Q 1038 3666 1038 3163 
Q 1038 2656 1286 2365 
Q 1534 2075 1959 2075 
z
" transform="scale(0.015625)"/>
       </defs>
       <use xlink:href="#DejaVuSans-34"/>
       <use xlink:href="#DejaVuSans-39" x="63.623047"/>
       <use xlink:href="#DejaVuSans-30" x="127.246094"/>
       <use xlink:href="#DejaVuSans-30" x="190.869141"/>
      </g>
     </g>
    </g>
    <g id="xtick_8">
     <g id="line2d_8">
      <g>
       <use xlink:href="#m1c63b150c7" x="432.16772" y="293.56" style="stroke: #000000; stroke-width: 0.8"/>
      </g>
     </g>
     <g id="text_8">
      <!-- 5000 -->
      <g transform="translate(416.89772 309.678125)scale(0.12 -0.12)">
       <use xlink:href="#DejaVuSans-35"/>
       <use xlink:href="#DejaVuSans-30" x="63.623047"/>
       <use xlink:href="#DejaVuSans-30" x="127.246094"/>
       <use xlink:href="#DejaVuSans-30" x="190.869141"/>
      </g>
     </g>
    </g>
    <g id="text_9">
     <!-- $t$ -->
     <g transform="translate(244.863438 329.850937)scale(0.18 -0.18)">
      <defs>
       <path id="DejaVuSans-Oblique-74" d="M 2706 3500 
L 2619 3053 
L 1472 3053 
L 1100 1153 
Q 1081 1047 1072 975 
Q 1063 903 1063 863 
Q 1063 663 1183 572 
Q 1303 481 1569 481 
L 2150 481 
L 2053 0 
L 1503 0 
Q 991 0 739 200 
Q 488 400 488 806 
Q 488 878 497 964 
Q 506 1050 525 1153 
L 897 3053 
L 409 3053 
L 500 3500 
L 978 3500 
L 1172 4494 
L 1747 4494 
L 1556 3500 
L 2706 3500 
z
" transform="scale(0.015625)"/>
      </defs>
      <use xlink:href="#DejaVuSans-Oblique-74" transform="translate(0 0.78125)"/>
     </g>
    </g>
   </g>
   <g id="matplotlib.axis_2">
    <g id="ytick_1">
     <g id="line2d_9">
      <defs>
       <path id="mac7505379f" d="M 0 0 
L -3.5 0 
" style="stroke: #000000; stroke-width: 0.8"/>
      </defs>
      <g>
       <use xlink:href="#mac7505379f" x="46.926875" y="260.456756" style="stroke: #000000; stroke-width: 0.8"/>
      </g>
     </g>
     <g id="text_10">
      <!-- 0.4 -->
      <g transform="translate(20.843125 265.015818)scale(0.12 -0.12)">
       <defs>
        <path id="DejaVuSans-2e" d="M 684 794 
L 1344 794 
L 1344 0 
L 684 0 
L 684 794 
z
" transform="scale(0.015625)"/>
       </defs>
       <use xlink:href="#DejaVuSans-30"/>
       <use xlink:href="#DejaVuSans-2e" x="63.623047"/>
       <use xlink:href="#DejaVuSans-34" x="95.410156"/>
      </g>
     </g>
    </g>
    <g id="ytick_2">
     <g id="line2d_10">
      <g>
       <use xlink:href="#mac7505379f" x="46.926875" y="209.896073" style="stroke: #000000; stroke-width: 0.8"/>
      </g>
     </g>
     <g id="text_11">
      <!-- 0.6 -->
      <g transform="translate(20.843125 214.455135)scale(0.12 -0.12)">
       <use xlink:href="#DejaVuSans-30"/>
       <use xlink:href="#DejaVuSans-2e" x="63.623047"/>
       <use xlink:href="#DejaVuSans-36" x="95.410156"/>
      </g>
     </g>
    </g>
    <g id="ytick_3">
     <g id="line2d_11">
      <g>
       <use xlink:href="#mac7505379f" x="46.926875" y="159.33539" style="stroke: #000000; stroke-width: 0.8"/>
      </g>
     </g>
     <g id="text_12">
      <!-- 0.8 -->
      <g transform="translate(20.843125 163.894453)scale(0.12 -0.12)">
       <use xlink:href="#DejaVuSans-30"/>
       <use xlink:href="#DejaVuSans-2e" x="63.623047"/>
       <use xlink:href="#DejaVuSans-38" x="95.410156"/>
      </g>
     </g>
    </g>
    <g id="ytick_4">
     <g id="line2d_12">
      <g>
       <use xlink:href="#mac7505379f" x="46.926875" y="108.774707" style="stroke: #000000; stroke-width: 0.8"/>
      </g>
     </g>
     <g id="text_13">
      <!-- 1.0 -->
      <g transform="translate(20.843125 113.33377)scale(0.12 -0.12)">
       <defs>
        <path id="DejaVuSans-31" d="M 794 531 
L 1825 531 
L 1825 4091 
L 703 3866 
L 703 4441 
L 1819 4666 
L 2450 4666 
L 2450 531 
L 3481 531 
L 3481 0 
L 794 0 
L 794 531 
z
" transform="scale(0.015625)"/>
       </defs>
       <use xlink:href="#DejaVuSans-31"/>
       <use xlink:href="#DejaVuSans-2e" x="63.623047"/>
       <use xlink:href="#DejaVuSans-30" x="95.410156"/>
      </g>
     </g>
    </g>
    <g id="ytick_5">
     <g id="line2d_13">
      <g>
       <use xlink:href="#mac7505379f" x="46.926875" y="58.214024" style="stroke: #000000; stroke-width: 0.8"/>
      </g>
     </g>
     <g id="text_14">
      <!-- 1.2 -->
      <g transform="translate(20.843125 62.773087)scale(0.12 -0.12)">
       <defs>
        <path id="DejaVuSans-32" d="M 1228 531 
L 3431 531 
L 3431 0 
L 469 0 
L 469 531 
Q 828 903 1448 1529 
Q 2069 2156 2228 2338 
Q 2531 2678 2651 2914 
Q 2772 3150 2772 3378 
Q 2772 3750 2511 3984 
Q 2250 4219 1831 4219 
Q 1534 4219 1204 4116 
Q 875 4013 500 3803 
L 500 4441 
Q 881 4594 1212 4672 
Q 1544 4750 1819 4750 
Q 2544 4750 2975 4387 
Q 3406 4025 3406 3419 
Q 3406 3131 3298 2873 
Q 3191 2616 2906 2266 
Q 2828 2175 2409 1742 
Q 1991 1309 1228 531 
z
" transform="scale(0.015625)"/>
       </defs>
       <use xlink:href="#DejaVuSans-31"/>
       <use xlink:href="#DejaVuSans-2e" x="63.623047"/>
       <use xlink:href="#DejaVuSans-32" x="95.410156"/>
      </g>
     </g>
    </g>
    <g id="text_15">
     <!-- $p$ -->
     <g transform="translate(11.083125 148.4)scale(0.18 -0.18)">
      <defs>
       <path id="DejaVuSans-Oblique-70" d="M 3175 2156 
Q 3175 2616 2975 2859 
Q 2775 3103 2400 3103 
Q 2144 3103 1911 2972 
Q 1678 2841 1497 2591 
Q 1319 2344 1212 1994 
Q 1106 1644 1106 1300 
Q 1106 863 1306 627 
Q 1506 391 1875 391 
Q 2147 391 2380 519 
Q 2613 647 2778 891 
Q 2956 1147 3065 1494 
Q 3175 1841 3175 2156 
z
M 1394 2969 
Q 1625 3272 1939 3428 
Q 2253 3584 2638 3584 
Q 3175 3584 3472 3232 
Q 3769 2881 3769 2247 
Q 3769 1728 3584 1258 
Q 3400 788 3053 416 
Q 2822 169 2531 39 
Q 2241 -91 1919 -91 
Q 1547 -91 1294 64 
Q 1041 219 916 525 
L 556 -1331 
L -19 -1331 
L 922 3500 
L 1497 3500 
L 1394 2969 
z
" transform="scale(0.015625)"/>
      </defs>
      <use xlink:href="#DejaVuSans-Oblique-70"/>
     </g>
    </g>
   </g>
   <g id="line2d_14">
    <path d="M 65.248381 105.887939 
L 65.737606 110.647345 
L 66.226832 114.084061 
L 66.716058 116.003078 
L 67.205284 116.358377 
L 67.69451 115.289499 
L 68.183735 113.14958 
L 69.162187 108.128109 
L 69.651413 106.946394 
L 70.140639 107.954523 
L 70.629864 111.90301 
L 71.11909 118.853548 
L 72.586767 148.491964 
L 73.565219 165.398166 
L 74.054445 171.002577 
L 74.543671 174.226473 
L 75.032896 174.915528 
L 75.522122 173.13177 
L 76.011348 169.179276 
L 76.9898 156.952828 
L 78.457477 137.34058 
L 78.946703 132.569992 
L 79.435928 129.15854 
L 79.925154 127.042868 
L 80.903606 124.798715 
L 81.392832 122.923761 
L 81.882057 119.193466 
L 82.371283 113.061671 
L 83.349735 95.508871 
L 84.328186 77.708033 
L 85.306638 63.935981 
L 86.774315 48.37255 
L 88.241993 35.203934 
L 88.731218 32.127287 
L 89.220444 30.19439 
L 89.70967 29.465291 
L 90.198896 29.763412 
L 90.688122 30.757858 
L 91.666573 33.647412 
L 92.155799 35.454088 
L 92.645025 37.966711 
L 93.13425 41.936159 
L 93.623476 48.209701 
L 94.112702 57.288792 
L 95.091154 82.653646 
L 98.515734 183.145086 
L 99.983411 217.619933 
L 100.961863 236.303193 
L 101.940315 251.36548 
L 102.918766 263.116314 
L 103.897218 271.71746 
L 104.386444 274.529729 
L 104.875669 275.831699 
L 105.364895 274.905486 
L 105.854121 270.768248 
L 106.343347 262.379872 
L 106.832572 249.17865 
L 107.811024 211.827527 
L 108.789476 173.265111 
L 109.767927 144.876227 
L 110.257153 135.324027 
L 110.746379 128.617343 
L 111.235605 124.417393 
L 111.72483 122.357663 
L 112.214056 122.079891 
L 112.703282 123.25216 
L 113.192508 125.577994 
L 114.170959 132.679744 
L 116.617088 153.511287 
L 117.106314 155.29194 
L 117.59554 154.844821 
L 118.084766 151.509475 
L 118.573991 144.960038 
L 119.552443 123.937405 
L 120.530894 101.295817 
L 121.02012 92.870518 
L 121.509346 86.905139 
L 121.998572 82.94928 
L 122.977023 78.259457 
L 123.955475 73.89091 
L 124.933927 67.275981 
L 125.912378 58.27338 
L 127.869281 39.122478 
L 128.847733 31.510346 
L 129.336959 28.600813 
L 129.826184 26.997853 
L 130.31541 27.837462 
L 130.804636 32.248481 
L 131.293862 40.444473 
L 132.272313 64.190775 
L 134.229216 114.606299 
L 136.675345 169.422216 
L 139.121474 220.79346 
L 140.589152 246.540633 
L 141.567603 260.17926 
L 142.056829 265.233435 
L 142.546055 268.503432 
L 143.035281 269.367216 
L 143.524506 267.133972 
L 144.013732 261.206569 
L 144.502958 251.322633 
L 145.48141 221.305601 
L 147.438313 150.770575 
L 148.416764 125.718805 
L 148.90599 117.1186 
L 149.395216 111.052217 
L 149.884442 107.31701 
L 150.373667 105.663677 
L 150.862893 105.827443 
L 151.352119 107.543527 
L 151.841345 110.547493 
L 152.819796 119.28602 
L 154.287474 133.734037 
L 154.7767 136.93117 
L 155.265925 138.315263 
L 155.755151 137.328057 
L 156.244377 133.587081 
L 156.733603 127.004607 
L 157.712054 107.339255 
L 158.690506 88.32202 
L 159.179732 82.985558 
L 159.668957 81.019689 
L 160.158183 81.774327 
L 160.647409 84.270808 
L 161.625861 90.777835 
L 162.115086 93.329318 
L 162.604312 94.72384 
L 163.093538 94.655322 
L 163.582764 93.000083 
L 164.071989 89.832922 
L 165.050441 80.163068 
L 166.518118 63.88819 
L 167.007344 59.766464 
L 167.49657 57.256295 
L 167.985796 57.276042 
L 168.475022 60.748881 
L 168.964247 67.950086 
L 169.942699 89.728344 
L 170.92115 112.210654 
L 171.899602 128.713259 
L 172.388828 134.185281 
L 172.878054 138.082257 
L 173.856505 143.152637 
L 174.345731 145.538064 
L 174.834957 148.589296 
L 175.324183 152.709819 
L 176.302634 164.65483 
L 177.770311 188.877823 
L 178.748763 205.108379 
L 179.237989 211.863924 
L 179.727215 216.799795 
L 180.21644 219.030924 
L 180.705666 217.692893 
L 181.194892 212.306637 
L 181.684118 203.127053 
L 182.662569 177.561809 
L 184.619472 124.574826 
L 186.08715 92.808518 
L 187.065601 75.399869 
L 188.044053 62.396349 
L 188.533279 58.132425 
L 189.022505 55.504047 
L 189.51173 54.448614 
L 190.000956 54.763085 
L 190.490182 56.103138 
L 191.468633 59.762106 
L 191.957859 60.759524 
L 192.447085 60.345074 
L 192.936311 58.153676 
L 193.425537 54.255423 
L 194.403988 44.298443 
L 194.893214 40.817019 
L 195.38244 40.141881 
L 195.871666 43.066792 
L 196.360891 49.700129 
L 196.850117 59.601873 
L 197.828569 86.154711 
L 200.274698 158.697931 
L 201.253149 181.380846 
L 202.231601 198.819358 
L 203.210052 212.115617 
L 205.166955 236.819421 
L 206.634633 254.917896 
L 207.123859 259.144641 
L 207.613084 261.564371 
L 208.10231 261.367477 
L 208.591536 257.533115 
L 209.080762 249.080309 
L 209.569988 235.689048 
L 212.016116 147.826701 
L 212.994568 125.919268 
L 213.483794 118.356466 
L 213.97302 112.661664 
L 214.462245 108.599249 
L 214.951471 106.013044 
L 215.440697 104.809477 
L 215.929923 104.916827 
L 216.419149 106.242751 
L 216.908374 108.646581 
L 217.886826 115.820186 
L 218.865277 123.969829 
L 219.354503 127.206286 
L 219.843729 128.972726 
L 220.332955 128.488859 
L 220.822181 125.127764 
L 221.311406 118.709981 
L 223.26831 82.261312 
L 223.757535 77.620244 
L 224.246761 75.907226 
L 224.735987 76.60862 
L 225.225213 79.029637 
L 227.182116 93.035097 
L 227.671342 95.064933 
L 228.160567 95.810777 
L 228.649793 95.140676 
L 229.139019 93.084857 
L 229.628245 89.844186 
L 231.585148 73.936634 
L 232.074374 72.504397 
L 232.563599 73.896962 
L 233.052825 78.822736 
L 233.542051 87.11883 
L 235.98818 140.290877 
L 236.477406 147.513252 
L 236.966632 152.847998 
L 237.455857 156.376102 
L 237.945083 158.359441 
L 238.434309 159.216482 
L 239.41276 159.692539 
L 239.901986 160.407621 
L 240.391212 162.03807 
L 240.880438 164.827436 
L 241.369664 168.804141 
L 242.348115 179.426648 
L 243.326567 190.463349 
L 243.815793 194.315255 
L 244.305018 195.721086 
L 244.794244 193.6648 
L 245.28347 187.568298 
L 245.772696 177.69659 
L 247.240373 137.498398 
L 248.218825 112.224393 
L 249.197276 91.21517 
L 250.175728 74.013129 
L 251.154179 59.954582 
L 252.132631 48.726029 
L 253.111082 40.76204 
L 253.600308 38.248925 
L 254.089534 36.730102 
L 254.57876 36.04356 
L 255.557211 35.62025 
L 256.046437 34.786029 
L 256.535663 32.906918 
L 257.514115 26.867101 
L 258.00334 24.901209 
L 258.492566 25.689349 
L 258.981792 30.215229 
L 259.471018 38.555284 
L 260.449469 63.97457 
L 264.363276 185.024097 
L 265.341727 208.131297 
L 266.320179 227.27351 
L 267.787856 250.401927 
L 269.255533 269.475582 
L 270.233985 278.447121 
L 270.723211 280.707273 
L 271.212437 280.579295 
L 271.701662 277.050108 
L 272.190888 268.991362 
L 272.680114 255.724679 
L 273.658565 217.25375 
L 274.637017 177.706142 
L 275.615469 148.96264 
L 276.104694 139.265763 
L 276.59392 132.341334 
L 277.083146 127.822893 
L 277.572372 125.352268 
L 278.061598 124.614045 
L 278.550823 125.346758 
L 279.040049 127.335947 
L 279.529275 130.392277 
L 280.507726 138.927912 
L 282.46463 158.014993 
L 282.953855 160.599437 
L 283.443081 160.90435 
L 283.932307 158.19179 
L 284.421533 152.073463 
L 284.910759 142.759888 
L 286.867662 97.643739 
L 287.356887 90.351604 
L 287.846113 85.0809 
L 288.824565 78.264245 
L 289.803016 72.67393 
L 290.781468 65.467351 
L 291.75992 56.114626 
L 293.227597 41.331652 
L 294.206048 33.192111 
L 295.1845 26.56398 
L 295.673726 24.220906 
L 296.162952 23.652727 
L 296.652177 26.182089 
L 297.141403 32.554347 
L 297.630629 42.343196 
L 299.098306 80.924607 
L 301.055209 131.329285 
L 303.990564 199.906812 
L 305.458242 229.645351 
L 306.925919 254.26838 
L 307.90437 266.77154 
L 308.393596 271.056701 
L 308.882822 273.392475 
L 309.372048 273.138607 
L 309.861274 269.594894 
L 310.350499 262.179261 
L 310.839725 250.692155 
L 311.818177 217.728415 
L 313.285854 162.43278 
L 314.264306 134.784977 
L 314.753531 125.089762 
L 315.242757 118.087189 
L 315.731983 113.560397 
L 316.221209 111.238926 
L 316.710435 110.839365 
L 317.19966 112.085515 
L 317.688886 114.711632 
L 318.667338 123.030922 
L 320.624241 142.461161 
L 321.113467 145.15445 
L 321.602692 145.786975 
L 322.091918 143.815392 
L 322.581144 138.909622 
L 323.07037 131.097134 
L 325.027273 90.67016 
L 325.516499 85.457277 
L 326.005725 83.189334 
L 326.49495 83.097275 
L 326.984176 84.248079 
L 327.962628 86.999001 
L 328.451853 87.368792 
L 328.941079 86.542147 
L 329.430305 84.35739 
L 329.919531 80.851187 
L 330.897982 70.893797 
L 332.36566 54.237467 
L 333.344111 45.688259 
L 333.833337 43.42209 
L 334.322563 43.691859 
L 334.811789 47.5125 
L 335.301014 55.136165 
L 336.279466 77.657623 
L 337.257918 101.054539 
L 338.236369 119.678346 
L 339.214821 133.296751 
L 340.682498 151.011179 
L 341.66095 165.548651 
L 343.128627 192.158857 
L 345.08553 227.320344 
L 346.063982 239.69521 
L 346.553208 242.81085 
L 347.042433 242.887406 
L 347.531659 239.311828 
L 348.020885 231.920916 
L 348.510111 221.16526 
L 349.488562 193.342763 
L 351.445465 134.395784 
L 352.423917 109.491581 
L 353.402369 90.629434 
L 353.891594 84.080871 
L 354.38082 79.57491 
L 354.870046 77.052173 
L 355.359272 76.359649 
L 355.848498 77.273519 
L 356.337723 79.505946 
L 357.316175 86.395523 
L 358.294626 93.029109 
L 358.783852 94.680703 
L 359.273078 94.457928 
L 359.762304 92.033794 
L 360.25153 87.391868 
L 361.229981 73.374333 
L 361.719207 66.149194 
L 362.208433 60.877721 
L 362.697659 59.056636 
L 363.186884 61.42235 
L 363.67611 67.722565 
L 364.654562 88.128465 
L 366.611465 133.1756 
L 367.589916 148.792018 
L 368.079142 153.958974 
L 368.568368 157.358407 
L 369.057594 159.233556 
L 369.54682 160.066859 
L 370.036045 160.547363 
L 370.525271 161.473214 
L 371.014497 163.602213 
L 371.503723 167.467375 
L 371.992948 173.202045 
L 372.9714 188.604069 
L 373.949852 204.056743 
L 374.439077 209.6888 
L 374.928303 212.784679 
L 375.417529 212.498707 
L 375.906755 208.192714 
L 376.395981 199.765677 
L 377.374432 173.762693 
L 378.842109 130.224695 
L 379.820561 105.979463 
L 380.799013 86.110559 
L 381.777464 69.900617 
L 382.755916 57.17661 
L 383.245142 52.45169 
L 383.734367 49.116004 
L 384.223593 47.285811 
L 384.712819 46.886452 
L 385.202045 47.644539 
L 386.669722 51.724554 
L 387.158948 51.527068 
L 387.648174 49.657463 
L 388.137399 46.128707 
L 389.115851 37.627886 
L 389.605077 35.816813 
L 390.094303 37.556876 
L 390.583528 43.301168 
L 391.072754 52.672629 
L 392.051206 78.928604 
L 394.98656 168.297468 
L 395.965012 191.78945 
L 396.943464 210.388799 
L 397.921915 224.872141 
L 400.368044 255.887585 
L 401.346496 265.784243 
L 401.835721 268.716012 
L 402.324947 269.403628 
L 402.814173 266.88975 
L 403.303399 260.094639 
L 403.792625 248.283253 
L 404.771076 212.363894 
L 405.749528 173.794309 
L 406.727979 144.675547 
L 407.217205 134.410027 
L 407.706431 126.685445 
L 408.195657 121.144412 
L 408.684882 117.449204 
L 409.174108 115.325715 
L 409.663334 114.577841 
L 410.15256 115.071658 
L 410.641786 116.698739 
L 411.131011 119.335068 
L 412.109463 126.906549 
L 413.57714 139.440472 
L 414.066366 141.977973 
L 414.555592 142.503089 
L 415.044818 140.273443 
L 415.534043 134.856358 
L 416.023269 126.408353 
L 417.490947 94.680516 
L 417.980172 86.982926 
L 418.469398 81.936489 
L 418.958624 79.236599 
L 419.44785 78.282174 
L 419.937075 78.419107 
L 420.915527 79.657704 
L 421.404753 79.820178 
L 421.893979 79.209108 
L 422.383204 77.614959 
L 422.87243 74.968936 
L 423.850882 66.98362 
L 425.807785 48.446872 
L 426.297011 45.379317 
L 426.786236 44.167884 
L 427.275462 45.898828 
L 427.764688 51.376933 
L 428.253914 60.416796 
L 429.721591 97.142544 
L 430.700043 120.067678 
L 431.678494 138.478523 
L 431.678494 138.478523 
" clip-path="url(#p0c7da76bd1)" style="fill: none; stroke: #ff0000; stroke-width: 1.5; stroke-linecap: square"/>
   </g>
   <g id="line2d_15">
    <path d="M 65.248381 101.466179 
L 65.737606 105.390679 
L 66.716058 115.037223 
L 67.205284 115.508976 
L 67.69451 117.932813 
L 68.183735 114.593937 
L 68.672961 110.014676 
L 69.162187 111.474671 
L 69.651413 110.758908 
L 70.140639 105.48015 
L 70.629864 104.870124 
L 71.11909 109.961807 
L 72.097542 125.533736 
L 72.586767 135.408022 
L 73.565219 158.361265 
L 74.543671 171.737101 
L 75.032896 173.607847 
L 75.522122 174.8523 
L 76.011348 170.012761 
L 76.500574 170.508915 
L 76.9898 158.808617 
L 77.479025 155.823557 
L 77.968251 150.862013 
L 78.457477 142.866606 
L 78.946703 138.222275 
L 79.435928 136.933087 
L 79.925154 130.479013 
L 80.41438 127.062868 
L 80.903606 126.794456 
L 81.392832 125.948554 
L 81.882057 123.760594 
L 82.371283 122.235529 
L 82.860509 118.506237 
L 83.349735 109.380249 
L 84.328186 82.872588 
L 84.817412 73.962143 
L 85.306638 72.046661 
L 85.795864 67.910686 
L 86.285089 56.112784 
L 87.263541 47.019331 
L 87.752767 42.22046 
L 88.241993 33.000934 
L 88.731218 37.502926 
L 89.220444 33.578426 
L 89.70967 31.947623 
L 90.198896 31.435201 
L 90.688122 26.929143 
L 91.177347 30.902445 
L 91.666573 32.455978 
L 92.155799 34.530066 
L 92.645025 33.208343 
L 93.13425 33.684163 
L 93.623476 38.080417 
L 94.601928 61.981233 
L 95.580379 80.054269 
L 96.069605 93.173893 
L 97.048057 128.05111 
L 97.537283 142.280981 
L 98.026508 150.674938 
L 98.515734 156.885002 
L 99.00496 171.566293 
L 99.494186 190.725175 
L 99.983411 219.587535 
L 100.472637 233.199248 
L 100.961863 230.608671 
L 101.451089 241.166186 
L 101.940315 244.598599 
L 102.42954 249.511341 
L 102.918766 257.819894 
L 103.897218 267.474572 
L 104.875669 274.197058 
L 105.364895 275.50658 
L 105.854121 274.148255 
L 106.343347 269.337184 
L 106.832572 261.187238 
L 107.321798 248.331958 
L 108.30025 211.173244 
L 109.278701 174.042999 
L 110.257153 141.670955 
L 111.72483 115.944128 
L 112.214056 115.891259 
L 112.703282 119.921497 
L 113.192508 122.198927 
L 113.681733 125.151453 
L 114.170959 129.706313 
L 114.660185 131.873939 
L 115.149411 137.00629 
L 115.638637 139.832744 
L 116.127862 148.104696 
L 116.617088 151.17516 
L 117.106314 152.391145 
L 117.59554 155.372138 
L 118.084766 155.803223 
L 118.573991 151.378502 
L 119.063217 144.651949 
L 120.041669 124.52516 
L 121.02012 99.709304 
L 121.509346 91.925373 
L 122.487798 83.596486 
L 123.466249 78.67561 
L 123.955475 75.54821 
L 124.444701 73.82387 
L 124.933927 70.468728 
L 125.423152 65.787795 
L 125.912378 63.795044 
L 126.89083 54.343709 
L 128.358507 39.816958 
L 129.826184 27.526968 
L 130.31541 26.526526 
L 130.804636 28.954429 
L 131.293862 34.103048 
L 131.783088 41.374557 
L 132.272313 51.069903 
L 134.229216 103.983553 
L 136.675345 157.85291 
L 137.164571 172.298324 
L 140.589152 238.640679 
L 142.056829 260.020055 
L 142.546055 264.944997 
L 143.035281 268.527883 
L 143.524506 269.459189 
L 144.013732 266.844212 
L 144.502958 260.955428 
L 144.992184 251.739969 
L 145.48141 237.965584 
L 148.416764 137.120162 
L 148.90599 125.769613 
L 149.395216 117.168247 
L 150.373667 106.98488 
L 150.862893 105.008396 
L 151.352119 105.317476 
L 151.841345 107.35903 
L 152.330571 110.108213 
L 153.309022 118.02635 
L 154.287474 129.202025 
L 155.265925 137.327571 
L 155.755151 137.53498 
L 156.244377 137.555314 
L 156.733603 133.948027 
L 157.222828 127.880302 
L 158.690506 96.386696 
L 159.668957 83.197936 
L 160.158183 80.330814 
L 160.647409 81.88028 
L 161.136635 84.112975 
L 161.625861 87.866667 
L 162.115086 90.603651 
L 162.604312 94.072665 
L 163.093538 95.353719 
L 163.582764 94.983637 
L 164.071989 93.243029 
L 165.050441 85.060548 
L 165.539667 80.802567 
L 167.007344 63.681172 
L 167.49657 59.610266 
L 167.985796 57.711052 
L 168.475022 57.137627 
L 168.964247 61.298004 
L 169.453473 68.423107 
L 170.431925 89.692678 
L 171.410376 111.751216 
L 171.899602 122.085056 
L 172.388828 128.632668 
L 172.878054 133.496608 
L 173.367279 136.168521 
L 173.856505 142.402987 
L 174.345731 141.54895 
L 174.834957 145.794731 
L 175.324183 148.389374 
L 176.302634 158.841152 
L 176.79186 164.498126 
L 177.281086 171.737101 
L 178.259537 189.732866 
L 180.21644 217.452445 
L 180.705666 219.123916 
L 181.194892 216.399133 
L 181.684118 211.982545 
L 182.662569 192.941602 
L 184.130247 150.557 
L 185.108698 124.748836 
L 186.576376 93.568377 
L 187.554827 74.986986 
L 188.044053 67.475534 
L 189.51173 52.989451 
L 190.000956 52.167949 
L 190.490182 54.046829 
L 190.979408 54.953735 
L 191.468633 58.61389 
L 191.957859 59.626533 
L 192.447085 61.672154 
L 192.936311 60.740847 
L 193.425537 57.930661 
L 194.893214 43.952933 
L 195.38244 40.715729 
L 195.871666 39.796623 
L 196.360891 42.736948 
L 196.850117 49.90272 
L 197.339343 59.134446 
L 197.828569 70.67207 
L 199.296246 116.212539 
L 201.253149 169.565408 
L 202.231601 190.375426 
L 203.699278 212.560037 
L 204.188504 216.761082 
L 205.656181 237.863913 
L 206.145407 243.134537 
L 206.634633 251.231614 
L 207.123859 252.4598 
L 207.613084 258.328249 
L 208.10231 259.767911 
L 208.591536 261.683392 
L 209.080762 256.213493 
L 209.569988 249.141259 
L 210.548439 217.887596 
L 212.016116 163.509884 
L 212.994568 135.887909 
L 213.97302 117.851476 
L 214.951471 109.075236 
L 215.440697 106.43179 
L 215.929923 104.93926 
L 216.419149 105.187337 
L 216.908374 106.700202 
L 219.843729 128.038909 
L 220.332955 129.722581 
L 220.822181 128.291053 
L 221.311406 123.939535 
L 222.289858 110.555566 
L 222.779084 101.510914 
L 223.757535 79.985132 
L 224.246761 76.922802 
L 224.735987 76.459182 
L 225.225213 75.617347 
L 226.203664 81.925015 
L 226.69289 87.691793 
L 227.182116 88.741038 
L 227.671342 94.072665 
L 228.160567 95.849874 
L 228.649793 96.671375 
L 229.139019 95.695334 
L 230.117471 89.558473 
L 230.606696 86.117926 
L 231.585148 78.175389 
L 232.074374 73.945876 
L 232.563599 72.843762 
L 233.052825 75.210663 
L 233.542051 79.54998 
L 234.031277 86.51241 
L 234.520503 95.646532 
L 235.498954 122.975694 
L 236.477406 139.605001 
L 237.455857 153.513592 
L 237.945083 156.063501 
L 238.434309 157.507229 
L 238.923535 160.333682 
L 239.41276 158.706947 
L 239.901986 160.455688 
L 240.391212 159.804993 
L 240.880438 161.517133 
L 241.369664 164.176846 
L 242.348115 173.071024 
L 243.815793 190.192419 
L 244.305018 194.393464 
L 244.794244 196.357748 
L 245.28347 194.914019 
L 245.772696 190.135483 
L 246.751147 165.413165 
L 247.240373 146.437291 
L 247.729599 133.460006 
L 248.218825 125.07825 
L 249.686502 92.832279 
L 250.175728 82.380501 
L 251.154179 68.024557 
L 251.643405 59.935613 
L 253.111082 42.875221 
L 253.600308 39.918629 
L 254.089534 40.370048 
L 254.57876 38.483034 
L 255.067986 35.514241 
L 255.557211 33.338482 
L 256.046437 33.269346 
L 256.535663 33.98511 
L 257.024889 33.188009 
L 258.981792 24.985194 
L 259.471018 28.234598 
L 259.960243 37.05964 
L 260.938695 61.241069 
L 261.917147 96.545303 
L 262.406372 109.429051 
L 263.87405 158.755749 
L 264.363276 169.748416 
L 264.852501 184.380905 
L 267.29863 237.977784 
L 267.787856 245.375365 
L 268.277082 250.34911 
L 268.766308 257.09193 
L 269.255533 261.142502 
L 270.723211 277.714874 
L 271.212437 279.854031 
L 271.701662 280.451857 
L 272.190888 275.791259 
L 272.680114 267.795852 
L 273.16934 255.375724 
L 273.658565 238.417003 
L 275.126243 178.500255 
L 275.615469 162.338634 
L 276.59392 141.07313 
L 277.083146 131.402185 
L 277.572372 127.0344 
L 278.550823 121.592968 
L 279.040049 127.498019 
L 279.529275 128.274786 
L 280.018501 131.560792 
L 280.507726 133.130592 
L 280.996952 139.832744 
L 282.953855 158.442602 
L 283.443081 160.602094 
L 283.932307 160.288947 
L 284.421533 157.332355 
L 284.910759 151.74045 
L 285.88921 131.82107 
L 286.867662 106.163379 
L 287.356887 97.183797 
L 288.335339 84.820605 
L 290.292242 72.71769 
L 290.781468 70.737139 
L 291.75992 61.078395 
L 292.249145 55.16521 
L 294.206048 38.047882 
L 294.695274 32.73659 
L 295.1845 28.673817 
L 295.673726 26.22558 
L 296.162952 24.574443 
L 296.652177 24.318232 
L 297.141403 27.429364 
L 297.630629 32.024893 
L 298.119855 41.21595 
L 300.076758 94.007595 
L 301.544435 130.975167 
L 302.033661 144.224931 
L 302.522887 153.558328 
L 303.501338 178.483987 
L 304.969016 209.3391 
L 305.458242 218.225144 
L 306.436693 238.441404 
L 307.415145 253.468376 
L 307.90437 261.268574 
L 308.882822 271.712219 
L 309.372048 273.985582 
L 309.861274 273.465026 
L 310.350499 269.56086 
L 310.839725 262.675701 
L 311.328951 250.918468 
L 312.307403 217.334506 
L 313.77508 161.834346 
L 314.753531 134.379112 
L 315.731983 118.514371 
L 316.221209 113.247813 
L 316.710435 111.307931 
L 317.19966 109.896738 
L 317.688886 111.633278 
L 319.156564 121.682439 
L 321.113467 142.626663 
L 321.602692 144.664149 
L 322.091918 145.335178 
L 322.581144 144.220864 
L 323.07037 140.023885 
L 323.559596 131.398119 
L 325.027273 99.473428 
L 326.005725 84.755535 
L 326.49495 82.034819 
L 326.984176 83.112532 
L 327.473402 83.710357 
L 327.962628 86.256199 
L 328.451853 86.610014 
L 328.941079 88.736971 
L 329.919531 84.564394 
L 330.897982 76.036231 
L 333.344111 49.443167 
L 333.833337 47.023397 
L 334.322563 43.115164 
L 334.811789 44.196944 
L 335.301014 47.40568 
L 336.279466 65.429913 
L 337.747143 100.685346 
L 338.236369 111.51534 
L 339.214821 125.993289 
L 340.193272 139.840878 
L 340.682498 144.725152 
L 341.66095 158.349065 
L 344.107079 201.042747 
L 344.596304 211.498591 
L 346.063982 234.533171 
L 346.553208 240.356885 
L 347.042433 243.134537 
L 347.531659 242.715652 
L 348.020885 239.230371 
L 348.510111 232.170337 
L 349.488562 207.663562 
L 350.467014 178.463653 
L 351.934691 134.71666 
L 352.913143 110.409159 
L 354.38082 82.502506 
L 355.359272 73.893007 
L 355.848498 72.428944 
L 356.337723 75.434339 
L 357.316175 84.605062 
L 357.805401 85.633973 
L 358.783852 93.572443 
L 359.273078 94.446814 
L 359.762304 94.251606 
L 360.25153 91.404818 
L 360.740755 87.22004 
L 362.208433 65.755261 
L 362.697659 61.964966 
L 363.186884 59.838009 
L 363.67611 60.631043 
L 364.165336 66.918377 
L 365.143787 86.980096 
L 367.100691 134.285575 
L 368.079142 147.852552 
L 368.568368 153.224847 
L 369.54682 158.617476 
L 370.036045 159.589451 
L 371.014497 159.780592 
L 371.992948 167.373382 
L 372.482174 172.424396 
L 373.949852 193.35642 
L 374.439077 202.844357 
L 374.928303 208.513531 
L 375.417529 212.421764 
L 375.906755 212.006946 
L 376.395981 207.057603 
L 377.374432 188.821894 
L 378.352884 160.951842 
L 379.331335 130.743357 
L 380.799013 94.841297 
L 381.777464 77.455558 
L 382.26669 71.570841 
L 383.245142 56.706542 
L 383.734367 52.509564 
L 384.223593 50.114195 
L 384.712819 49.418766 
L 385.69127 47.657824 
L 386.180496 50.886895 
L 386.669722 55.356352 
L 387.158948 54.587719 
L 387.648174 52.623435 
L 388.626625 47.104734 
L 389.605077 39.08086 
L 390.094303 38.495235 
L 390.583528 39.938963 
L 391.072754 45.111983 
L 391.56198 53.343266 
L 393.518883 108.802758 
L 394.98656 155.058991 
L 396.454238 193.738703 
L 396.943464 203.783797 
L 397.921915 216.618742 
L 398.900367 233.219582 
L 399.878818 245.02155 
L 400.368044 252.378463 
L 400.85727 256.201292 
L 401.346496 265.677029 
L 401.835721 267.507106 
L 402.324947 272.476784 
L 403.303399 268.954901 
L 403.792625 259.776044 
L 404.28185 247.746333 
L 405.260302 213.304268 
L 406.727979 157.14528 
L 407.217205 143.452231 
L 408.195657 126.546379 
L 408.684882 121.292022 
L 409.663334 115.801789 
L 410.15256 112.247371 
L 410.641786 114.972153 
L 411.131011 114.890817 
L 412.109463 123.601987 
L 412.598689 126.257633 
L 413.57714 135.725236 
L 414.066366 139.625335 
L 414.555592 141.077197 
L 415.044818 141.1626 
L 415.534043 139.487063 
L 416.023269 133.887024 
L 416.512495 125.928219 
L 418.469398 85.544502 
L 419.44785 79.362906 
L 419.937075 78.602407 
L 420.426301 78.175389 
L 420.915527 78.980623 
L 421.404753 80.298279 
L 422.383204 78.155054 
L 423.850882 72.189001 
L 424.829333 62.753933 
L 425.318559 57.98353 
L 425.807785 51.000766 
L 426.297011 46.750919 
L 426.786236 45.368194 
L 427.275462 45.091649 
L 427.764688 47.999439 
L 428.253914 52.481096 
L 428.74314 59.378456 
L 429.232365 68.057092 
L 430.210817 97.456275 
L 430.700043 107.228891 
L 431.678494 131.162242 
L 431.678494 131.162242 
" clip-path="url(#p0c7da76bd1)" style="fill: none; stroke-dasharray: 5.55,2.4; stroke-dashoffset: 0; stroke: #0000ff; stroke-width: 1.5"/>
   </g>
   <g id="patch_3">
    <path d="M 46.926875 293.56 
L 46.926875 10.8 
" style="fill: none; stroke: #000000; stroke-width: 0.8; stroke-linejoin: miter; stroke-linecap: square"/>
   </g>
   <g id="patch_4">
    <path d="M 450 293.56 
L 450 10.8 
" style="fill: none; stroke: #000000; stroke-width: 0.8; stroke-linejoin: miter; stroke-linecap: square"/>
   </g>
   <g id="patch_5">
    <path d="M 46.926875 293.56 
L 450 293.56 
" style="fill: none; stroke: #000000; stroke-width: 0.8; stroke-linejoin: miter; stroke-linecap: square"/>
   </g>
   <g id="patch_6">
    <path d="M 46.926875 10.8 
L 450 10.8 
" style="fill: none; stroke: #000000; stroke-width: 0.8; stroke-linejoin: miter; stroke-linecap: square"/>
   </g>
   <g id="legend_1">
    <g id="patch_7">
     <path d="M 335.528125 286.56 
L 440.2 286.56 
Q 443 286.56 443 283.76 
L 443 244.035 
Q 443 241.235 440.2 241.235 
L 335.528125 241.235 
Q 332.728125 241.235 332.728125 244.035 
L 332.728125 283.76 
Q 332.728125 286.56 335.528125 286.56 
z
" style="fill: #ffffff; opacity: 0.8; stroke: #cccccc; stroke-linejoin: miter"/>
    </g>
    <g id="line2d_16">
     <path d="M 338.328125 252.572812 
L 352.328125 252.572812 
L 366.328125 252.572812 
" style="fill: none; stroke: #ff0000; stroke-width: 1.5; stroke-linecap: square"/>
    </g>
    <g id="text_16">
     <!-- Real -->
     <g transform="translate(377.528125 257.472812)scale(0.14 -0.14)">
      <defs>
       <path id="DejaVuSans-52" d="M 2841 2188 
Q 3044 2119 3236 1894 
Q 3428 1669 3622 1275 
L 4263 0 
L 3584 0 
L 2988 1197 
Q 2756 1666 2539 1819 
Q 2322 1972 1947 1972 
L 1259 1972 
L 1259 0 
L 628 0 
L 628 4666 
L 2053 4666 
Q 2853 4666 3247 4331 
Q 3641 3997 3641 3322 
Q 3641 2881 3436 2590 
Q 3231 2300 2841 2188 
z
M 1259 4147 
L 1259 2491 
L 2053 2491 
Q 2509 2491 2742 2702 
Q 2975 2913 2975 3322 
Q 2975 3731 2742 3939 
Q 2509 4147 2053 4147 
L 1259 4147 
z
" transform="scale(0.015625)"/>
       <path id="DejaVuSans-65" d="M 3597 1894 
L 3597 1613 
L 953 1613 
Q 991 1019 1311 708 
Q 1631 397 2203 397 
Q 2534 397 2845 478 
Q 3156 559 3463 722 
L 3463 178 
Q 3153 47 2828 -22 
Q 2503 -91 2169 -91 
Q 1331 -91 842 396 
Q 353 884 353 1716 
Q 353 2575 817 3079 
Q 1281 3584 2069 3584 
Q 2775 3584 3186 3129 
Q 3597 2675 3597 1894 
z
M 3022 2063 
Q 3016 2534 2758 2815 
Q 2500 3097 2075 3097 
Q 1594 3097 1305 2825 
Q 1016 2553 972 2059 
L 3022 2063 
z
" transform="scale(0.015625)"/>
       <path id="DejaVuSans-61" d="M 2194 1759 
Q 1497 1759 1228 1600 
Q 959 1441 959 1056 
Q 959 750 1161 570 
Q 1363 391 1709 391 
Q 2188 391 2477 730 
Q 2766 1069 2766 1631 
L 2766 1759 
L 2194 1759 
z
M 3341 1997 
L 3341 0 
L 2766 0 
L 2766 531 
Q 2569 213 2275 61 
Q 1981 -91 1556 -91 
Q 1019 -91 701 211 
Q 384 513 384 1019 
Q 384 1609 779 1909 
Q 1175 2209 1959 2209 
L 2766 2209 
L 2766 2266 
Q 2766 2663 2505 2880 
Q 2244 3097 1772 3097 
Q 1472 3097 1187 3025 
Q 903 2953 641 2809 
L 641 3341 
Q 956 3463 1253 3523 
Q 1550 3584 1831 3584 
Q 2591 3584 2966 3190 
Q 3341 2797 3341 1997 
z
" transform="scale(0.015625)"/>
       <path id="DejaVuSans-6c" d="M 603 4863 
L 1178 4863 
L 1178 0 
L 603 0 
L 603 4863 
z
" transform="scale(0.015625)"/>
      </defs>
      <use xlink:href="#DejaVuSans-52"/>
      <use xlink:href="#DejaVuSans-65" x="64.982422"/>
      <use xlink:href="#DejaVuSans-61" x="126.505859"/>
      <use xlink:href="#DejaVuSans-6c" x="187.785156"/>
     </g>
    </g>
    <g id="line2d_17">
     <path d="M 338.328125 273.148438 
L 352.328125 273.148438 
L 366.328125 273.148438 
" style="fill: none; stroke-dasharray: 5.55,2.4; stroke-dashoffset: 0; stroke: #0000ff; stroke-width: 1.5"/>
    </g>
    <g id="text_17">
     <!-- Predição -->
     <g transform="translate(377.528125 278.048437)scale(0.14 -0.14)">
      <defs>
       <path id="DejaVuSans-50" d="M 1259 4147 
L 1259 2394 
L 2053 2394 
Q 2494 2394 2734 2622 
Q 2975 2850 2975 3272 
Q 2975 3691 2734 3919 
Q 2494 4147 2053 4147 
L 1259 4147 
z
M 628 4666 
L 2053 4666 
Q 2838 4666 3239 4311 
Q 3641 3956 3641 3272 
Q 3641 2581 3239 2228 
Q 2838 1875 2053 1875 
L 1259 1875 
L 1259 0 
L 628 0 
L 628 4666 
z
" transform="scale(0.015625)"/>
       <path id="DejaVuSans-72" d="M 2631 2963 
Q 2534 3019 2420 3045 
Q 2306 3072 2169 3072 
Q 1681 3072 1420 2755 
Q 1159 2438 1159 1844 
L 1159 0 
L 581 0 
L 581 3500 
L 1159 3500 
L 1159 2956 
Q 1341 3275 1631 3429 
Q 1922 3584 2338 3584 
Q 2397 3584 2469 3576 
Q 2541 3569 2628 3553 
L 2631 2963 
z
" transform="scale(0.015625)"/>
       <path id="DejaVuSans-64" d="M 2906 2969 
L 2906 4863 
L 3481 4863 
L 3481 0 
L 2906 0 
L 2906 525 
Q 2725 213 2448 61 
Q 2172 -91 1784 -91 
Q 1150 -91 751 415 
Q 353 922 353 1747 
Q 353 2572 751 3078 
Q 1150 3584 1784 3584 
Q 2172 3584 2448 3432 
Q 2725 3281 2906 2969 
z
M 947 1747 
Q 947 1113 1208 752 
Q 1469 391 1925 391 
Q 2381 391 2643 752 
Q 2906 1113 2906 1747 
Q 2906 2381 2643 2742 
Q 2381 3103 1925 3103 
Q 1469 3103 1208 2742 
Q 947 2381 947 1747 
z
" transform="scale(0.015625)"/>
       <path id="DejaVuSans-69" d="M 603 3500 
L 1178 3500 
L 1178 0 
L 603 0 
L 603 3500 
z
M 603 4863 
L 1178 4863 
L 1178 4134 
L 603 4134 
L 603 4863 
z
" transform="scale(0.015625)"/>
       <path id="DejaVuSans-e7" d="M 3122 3366 
L 3122 2828 
Q 2878 2963 2633 3030 
Q 2388 3097 2138 3097 
Q 1578 3097 1268 2742 
Q 959 2388 959 1747 
Q 959 1106 1268 751 
Q 1578 397 2138 397 
Q 2388 397 2633 464 
Q 2878 531 3122 666 
L 3122 134 
Q 2881 22 2623 -34 
Q 2366 -91 2075 -91 
Q 1284 -91 818 406 
Q 353 903 353 1747 
Q 353 2603 823 3093 
Q 1294 3584 2113 3584 
Q 2378 3584 2631 3529 
Q 2884 3475 3122 3366 
z
M 2311 0 
Q 2482 -194 2566 -358 
Q 2651 -522 2651 -672 
Q 2651 -950 2463 -1092 
Q 2276 -1234 1907 -1234 
Q 1764 -1234 1628 -1215 
Q 1492 -1197 1357 -1159 
L 1357 -750 
Q 1464 -803 1579 -826 
Q 1695 -850 1842 -850 
Q 2026 -850 2120 -775 
Q 2214 -700 2214 -556 
Q 2214 -463 2146 -327 
Q 2079 -191 1939 0 
L 2311 0 
z
" transform="scale(0.015625)"/>
       <path id="DejaVuSans-e3" d="M 2194 1759 
Q 1497 1759 1228 1600 
Q 959 1441 959 1056 
Q 959 750 1161 570 
Q 1363 391 1709 391 
Q 2188 391 2477 730 
Q 2766 1069 2766 1631 
L 2766 1759 
L 2194 1759 
z
M 3341 1997 
L 3341 0 
L 2766 0 
L 2766 531 
Q 2569 213 2275 61 
Q 1981 -91 1556 -91 
Q 1019 -91 701 211 
Q 384 513 384 1019 
Q 384 1609 779 1909 
Q 1175 2209 1959 2209 
L 2766 2209 
L 2766 2266 
Q 2766 2663 2505 2880 
Q 2244 3097 1772 3097 
Q 1472 3097 1187 3025 
Q 903 2953 641 2809 
L 641 3341 
Q 956 3463 1253 3523 
Q 1550 3584 1831 3584 
Q 2591 3584 2966 3190 
Q 3341 2797 3341 1997 
z
M 1844 4281 
L 1665 4453 
Q 1597 4516 1545 4545 
Q 1494 4575 1453 4575 
Q 1334 4575 1278 4461 
Q 1222 4347 1215 4091 
L 825 4091 
Q 831 4513 990 4742 
Q 1150 4972 1434 4972 
Q 1553 4972 1653 4928 
Q 1753 4884 1869 4781 
L 2047 4609 
Q 2115 4547 2167 4517 
Q 2219 4488 2259 4488 
Q 2378 4488 2434 4602 
Q 2490 4716 2497 4972 
L 2887 4972 
Q 2881 4550 2721 4320 
Q 2562 4091 2278 4091 
Q 2159 4091 2059 4134 
Q 1959 4178 1844 4281 
z
" transform="scale(0.015625)"/>
       <path id="DejaVuSans-6f" d="M 1959 3097 
Q 1497 3097 1228 2736 
Q 959 2375 959 1747 
Q 959 1119 1226 758 
Q 1494 397 1959 397 
Q 2419 397 2687 759 
Q 2956 1122 2956 1747 
Q 2956 2369 2687 2733 
Q 2419 3097 1959 3097 
z
M 1959 3584 
Q 2709 3584 3137 3096 
Q 3566 2609 3566 1747 
Q 3566 888 3137 398 
Q 2709 -91 1959 -91 
Q 1206 -91 779 398 
Q 353 888 353 1747 
Q 353 2609 779 3096 
Q 1206 3584 1959 3584 
z
" transform="scale(0.015625)"/>
      </defs>
      <use xlink:href="#DejaVuSans-50"/>
      <use xlink:href="#DejaVuSans-72" x="58.552734"/>
      <use xlink:href="#DejaVuSans-65" x="97.416016"/>
      <use xlink:href="#DejaVuSans-64" x="158.939453"/>
      <use xlink:href="#DejaVuSans-69" x="222.416016"/>
      <use xlink:href="#DejaVuSans-e7" x="250.199219"/>
      <use xlink:href="#DejaVuSans-e3" x="305.179688"/>
      <use xlink:href="#DejaVuSans-6f" x="366.458984"/>
     </g>
    </g>
   </g>
  </g>
 </g>
 <defs>
  <clipPath id="p0c7da76bd1">
   <rect x="46.926875" y="10.8" width="403.073125" height="282.76"/>
  </clipPath>
 </defs>
</svg>
