<?xml version="1.0" encoding="utf-8" standalone="no"?>
<!DOCTYPE svg PUBLIC "-//W3C//DTD SVG 1.1//EN"
  "http://www.w3.org/Graphics/SVG/1.1/DTD/svg11.dtd">
<svg height="288pt" version="1.1" viewBox="0 0 432 288" width="432pt" xmlns="http://www.w3.org/2000/svg" xmlns:xlink="http://www.w3.org/1999/xlink">
 <metadata>
  <rdf:RDF xmlns:cc="http://creativecommons.org/ns#" xmlns:dc="http://purl.org/dc/elements/1.1/" xmlns:rdf="http://www.w3.org/1999/02/22-rdf-syntax-ns#">
   <cc:Work>
    <dc:type rdf:resource="http://purl.org/dc/dcmitype/StillImage"/>
    <dc:date>2022-09-28T20:54:34.425081</dc:date>
    <dc:format>image/svg+xml</dc:format>
    <dc:creator>
     <cc:Agent>
      <dc:title>Matplotlib v3.4.3, https://matplotlib.org/</dc:title>
     </cc:Agent>
    </dc:creator>
   </cc:Work>
  </rdf:RDF>
 </metadata>
 <defs>
  <style type="text/css">*{stroke-linecap:butt;stroke-linejoin:round;}</style>
 </defs>
 <g id="figure_1">
  <g id="patch_1">
   <path d="M 0 288 
L 432 288 
L 432 0 
L 0 0 
z
" style="fill:none;"/>
  </g>
  <g id="axes_1">
   <g id="patch_2">
    <path d="M 47.120313 235.2 
L 420.761822 235.2 
L 420.761822 10.8 
L 47.120313 10.8 
z
" style="fill:#ffffff;"/>
   </g>
   <g id="matplotlib.axis_1">
    <g id="xtick_1">
     <g id="line2d_1">
      <defs>
       <path d="M 0 0 
L 0 3.5 
" id="m99a1172389" style="stroke:#000000;stroke-width:0.8;"/>
      </defs>
      <g>
       <use style="stroke:#000000;stroke-width:0.8;" x="86.779191" xlink:href="#m99a1172389" y="235.2"/>
      </g>
     </g>
     <g id="text_1">
      <!-- 4300 -->
      <g transform="translate(71.509191 251.318125)scale(0.12 -0.12)">
       <defs>
        <path d="M 2419 4116 
L 825 1625 
L 2419 1625 
L 2419 4116 
z
M 2253 4666 
L 3047 4666 
L 3047 1625 
L 3713 1625 
L 3713 1100 
L 3047 1100 
L 3047 0 
L 2419 0 
L 2419 1100 
L 313 1100 
L 313 1709 
L 2253 4666 
z
" id="DejaVuSans-34" transform="scale(0.015625)"/>
        <path d="M 2597 2516 
Q 3050 2419 3304 2112 
Q 3559 1806 3559 1356 
Q 3559 666 3084 287 
Q 2609 -91 1734 -91 
Q 1441 -91 1130 -33 
Q 819 25 488 141 
L 488 750 
Q 750 597 1062 519 
Q 1375 441 1716 441 
Q 2309 441 2620 675 
Q 2931 909 2931 1356 
Q 2931 1769 2642 2001 
Q 2353 2234 1838 2234 
L 1294 2234 
L 1294 2753 
L 1863 2753 
Q 2328 2753 2575 2939 
Q 2822 3125 2822 3475 
Q 2822 3834 2567 4026 
Q 2313 4219 1838 4219 
Q 1578 4219 1281 4162 
Q 984 4106 628 3988 
L 628 4550 
Q 988 4650 1302 4700 
Q 1616 4750 1894 4750 
Q 2613 4750 3031 4423 
Q 3450 4097 3450 3541 
Q 3450 3153 3228 2886 
Q 3006 2619 2597 2516 
z
" id="DejaVuSans-33" transform="scale(0.015625)"/>
        <path d="M 2034 4250 
Q 1547 4250 1301 3770 
Q 1056 3291 1056 2328 
Q 1056 1369 1301 889 
Q 1547 409 2034 409 
Q 2525 409 2770 889 
Q 3016 1369 3016 2328 
Q 3016 3291 2770 3770 
Q 2525 4250 2034 4250 
z
M 2034 4750 
Q 2819 4750 3233 4129 
Q 3647 3509 3647 2328 
Q 3647 1150 3233 529 
Q 2819 -91 2034 -91 
Q 1250 -91 836 529 
Q 422 1150 422 2328 
Q 422 3509 836 4129 
Q 1250 4750 2034 4750 
z
" id="DejaVuSans-30" transform="scale(0.015625)"/>
       </defs>
       <use xlink:href="#DejaVuSans-34"/>
       <use x="63.623047" xlink:href="#DejaVuSans-33"/>
       <use x="127.246094" xlink:href="#DejaVuSans-30"/>
       <use x="190.869141" xlink:href="#DejaVuSans-30"/>
      </g>
     </g>
    </g>
    <g id="xtick_2">
     <g id="line2d_2">
      <g>
       <use style="stroke:#000000;stroke-width:0.8;" x="132.129538" xlink:href="#m99a1172389" y="235.2"/>
      </g>
     </g>
     <g id="text_2">
      <!-- 4400 -->
      <g transform="translate(116.859538 251.318125)scale(0.12 -0.12)">
       <use xlink:href="#DejaVuSans-34"/>
       <use x="63.623047" xlink:href="#DejaVuSans-34"/>
       <use x="127.246094" xlink:href="#DejaVuSans-30"/>
       <use x="190.869141" xlink:href="#DejaVuSans-30"/>
      </g>
     </g>
    </g>
    <g id="xtick_3">
     <g id="line2d_3">
      <g>
       <use style="stroke:#000000;stroke-width:0.8;" x="177.479885" xlink:href="#m99a1172389" y="235.2"/>
      </g>
     </g>
     <g id="text_3">
      <!-- 4500 -->
      <g transform="translate(162.209885 251.318125)scale(0.12 -0.12)">
       <defs>
        <path d="M 691 4666 
L 3169 4666 
L 3169 4134 
L 1269 4134 
L 1269 2991 
Q 1406 3038 1543 3061 
Q 1681 3084 1819 3084 
Q 2600 3084 3056 2656 
Q 3513 2228 3513 1497 
Q 3513 744 3044 326 
Q 2575 -91 1722 -91 
Q 1428 -91 1123 -41 
Q 819 9 494 109 
L 494 744 
Q 775 591 1075 516 
Q 1375 441 1709 441 
Q 2250 441 2565 725 
Q 2881 1009 2881 1497 
Q 2881 1984 2565 2268 
Q 2250 2553 1709 2553 
Q 1456 2553 1204 2497 
Q 953 2441 691 2322 
L 691 4666 
z
" id="DejaVuSans-35" transform="scale(0.015625)"/>
       </defs>
       <use xlink:href="#DejaVuSans-34"/>
       <use x="63.623047" xlink:href="#DejaVuSans-35"/>
       <use x="127.246094" xlink:href="#DejaVuSans-30"/>
       <use x="190.869141" xlink:href="#DejaVuSans-30"/>
      </g>
     </g>
    </g>
    <g id="xtick_4">
     <g id="line2d_4">
      <g>
       <use style="stroke:#000000;stroke-width:0.8;" x="222.830232" xlink:href="#m99a1172389" y="235.2"/>
      </g>
     </g>
     <g id="text_4">
      <!-- 4600 -->
      <g transform="translate(207.560232 251.318125)scale(0.12 -0.12)">
       <defs>
        <path d="M 2113 2584 
Q 1688 2584 1439 2293 
Q 1191 2003 1191 1497 
Q 1191 994 1439 701 
Q 1688 409 2113 409 
Q 2538 409 2786 701 
Q 3034 994 3034 1497 
Q 3034 2003 2786 2293 
Q 2538 2584 2113 2584 
z
M 3366 4563 
L 3366 3988 
Q 3128 4100 2886 4159 
Q 2644 4219 2406 4219 
Q 1781 4219 1451 3797 
Q 1122 3375 1075 2522 
Q 1259 2794 1537 2939 
Q 1816 3084 2150 3084 
Q 2853 3084 3261 2657 
Q 3669 2231 3669 1497 
Q 3669 778 3244 343 
Q 2819 -91 2113 -91 
Q 1303 -91 875 529 
Q 447 1150 447 2328 
Q 447 3434 972 4092 
Q 1497 4750 2381 4750 
Q 2619 4750 2861 4703 
Q 3103 4656 3366 4563 
z
" id="DejaVuSans-36" transform="scale(0.015625)"/>
       </defs>
       <use xlink:href="#DejaVuSans-34"/>
       <use x="63.623047" xlink:href="#DejaVuSans-36"/>
       <use x="127.246094" xlink:href="#DejaVuSans-30"/>
       <use x="190.869141" xlink:href="#DejaVuSans-30"/>
      </g>
     </g>
    </g>
    <g id="xtick_5">
     <g id="line2d_5">
      <g>
       <use style="stroke:#000000;stroke-width:0.8;" x="268.180579" xlink:href="#m99a1172389" y="235.2"/>
      </g>
     </g>
     <g id="text_5">
      <!-- 4700 -->
      <g transform="translate(252.910579 251.318125)scale(0.12 -0.12)">
       <defs>
        <path d="M 525 4666 
L 3525 4666 
L 3525 4397 
L 1831 0 
L 1172 0 
L 2766 4134 
L 525 4134 
L 525 4666 
z
" id="DejaVuSans-37" transform="scale(0.015625)"/>
       </defs>
       <use xlink:href="#DejaVuSans-34"/>
       <use x="63.623047" xlink:href="#DejaVuSans-37"/>
       <use x="127.246094" xlink:href="#DejaVuSans-30"/>
       <use x="190.869141" xlink:href="#DejaVuSans-30"/>
      </g>
     </g>
    </g>
    <g id="xtick_6">
     <g id="line2d_6">
      <g>
       <use style="stroke:#000000;stroke-width:0.8;" x="313.530926" xlink:href="#m99a1172389" y="235.2"/>
      </g>
     </g>
     <g id="text_6">
      <!-- 4800 -->
      <g transform="translate(298.260926 251.318125)scale(0.12 -0.12)">
       <defs>
        <path d="M 2034 2216 
Q 1584 2216 1326 1975 
Q 1069 1734 1069 1313 
Q 1069 891 1326 650 
Q 1584 409 2034 409 
Q 2484 409 2743 651 
Q 3003 894 3003 1313 
Q 3003 1734 2745 1975 
Q 2488 2216 2034 2216 
z
M 1403 2484 
Q 997 2584 770 2862 
Q 544 3141 544 3541 
Q 544 4100 942 4425 
Q 1341 4750 2034 4750 
Q 2731 4750 3128 4425 
Q 3525 4100 3525 3541 
Q 3525 3141 3298 2862 
Q 3072 2584 2669 2484 
Q 3125 2378 3379 2068 
Q 3634 1759 3634 1313 
Q 3634 634 3220 271 
Q 2806 -91 2034 -91 
Q 1263 -91 848 271 
Q 434 634 434 1313 
Q 434 1759 690 2068 
Q 947 2378 1403 2484 
z
M 1172 3481 
Q 1172 3119 1398 2916 
Q 1625 2713 2034 2713 
Q 2441 2713 2670 2916 
Q 2900 3119 2900 3481 
Q 2900 3844 2670 4047 
Q 2441 4250 2034 4250 
Q 1625 4250 1398 4047 
Q 1172 3844 1172 3481 
z
" id="DejaVuSans-38" transform="scale(0.015625)"/>
       </defs>
       <use xlink:href="#DejaVuSans-34"/>
       <use x="63.623047" xlink:href="#DejaVuSans-38"/>
       <use x="127.246094" xlink:href="#DejaVuSans-30"/>
       <use x="190.869141" xlink:href="#DejaVuSans-30"/>
      </g>
     </g>
    </g>
    <g id="xtick_7">
     <g id="line2d_7">
      <g>
       <use style="stroke:#000000;stroke-width:0.8;" x="358.881273" xlink:href="#m99a1172389" y="235.2"/>
      </g>
     </g>
     <g id="text_7">
      <!-- 4900 -->
      <g transform="translate(343.611273 251.318125)scale(0.12 -0.12)">
       <defs>
        <path d="M 703 97 
L 703 672 
Q 941 559 1184 500 
Q 1428 441 1663 441 
Q 2288 441 2617 861 
Q 2947 1281 2994 2138 
Q 2813 1869 2534 1725 
Q 2256 1581 1919 1581 
Q 1219 1581 811 2004 
Q 403 2428 403 3163 
Q 403 3881 828 4315 
Q 1253 4750 1959 4750 
Q 2769 4750 3195 4129 
Q 3622 3509 3622 2328 
Q 3622 1225 3098 567 
Q 2575 -91 1691 -91 
Q 1453 -91 1209 -44 
Q 966 3 703 97 
z
M 1959 2075 
Q 2384 2075 2632 2365 
Q 2881 2656 2881 3163 
Q 2881 3666 2632 3958 
Q 2384 4250 1959 4250 
Q 1534 4250 1286 3958 
Q 1038 3666 1038 3163 
Q 1038 2656 1286 2365 
Q 1534 2075 1959 2075 
z
" id="DejaVuSans-39" transform="scale(0.015625)"/>
       </defs>
       <use xlink:href="#DejaVuSans-34"/>
       <use x="63.623047" xlink:href="#DejaVuSans-39"/>
       <use x="127.246094" xlink:href="#DejaVuSans-30"/>
       <use x="190.869141" xlink:href="#DejaVuSans-30"/>
      </g>
     </g>
    </g>
    <g id="xtick_8">
     <g id="line2d_8">
      <g>
       <use style="stroke:#000000;stroke-width:0.8;" x="404.23162" xlink:href="#m99a1172389" y="235.2"/>
      </g>
     </g>
     <g id="text_8">
      <!-- 5000 -->
      <g transform="translate(388.96162 251.318125)scale(0.12 -0.12)">
       <use xlink:href="#DejaVuSans-35"/>
       <use x="63.623047" xlink:href="#DejaVuSans-30"/>
       <use x="127.246094" xlink:href="#DejaVuSans-30"/>
       <use x="190.869141" xlink:href="#DejaVuSans-30"/>
      </g>
     </g>
    </g>
    <g id="text_9">
     <!-- $t$ -->
     <g transform="translate(230.341067 271.490937)scale(0.18 -0.18)">
      <defs>
       <path d="M 2706 3500 
L 2619 3053 
L 1472 3053 
L 1100 1153 
Q 1081 1047 1072 975 
Q 1063 903 1063 863 
Q 1063 663 1183 572 
Q 1303 481 1569 481 
L 2150 481 
L 2053 0 
L 1503 0 
Q 991 0 739 200 
Q 488 400 488 806 
Q 488 878 497 964 
Q 506 1050 525 1153 
L 897 3053 
L 409 3053 
L 500 3500 
L 978 3500 
L 1172 4494 
L 1747 4494 
L 1556 3500 
L 2706 3500 
z
" id="DejaVuSans-Oblique-74" transform="scale(0.015625)"/>
      </defs>
      <use transform="translate(0 0.78125)" xlink:href="#DejaVuSans-Oblique-74"/>
     </g>
    </g>
   </g>
   <g id="matplotlib.axis_2">
    <g id="ytick_1">
     <g id="line2d_9">
      <defs>
       <path d="M 0 0 
L -3.5 0 
" id="m8a17100a57" style="stroke:#000000;stroke-width:0.8;"/>
      </defs>
      <g>
       <use style="stroke:#000000;stroke-width:0.8;" x="47.120313" xlink:href="#m8a17100a57" y="208.815576"/>
      </g>
     </g>
     <g id="text_10">
      <!-- 0.4 -->
      <g transform="translate(21.036563 213.374638)scale(0.12 -0.12)">
       <defs>
        <path d="M 684 794 
L 1344 794 
L 1344 0 
L 684 0 
L 684 794 
z
" id="DejaVuSans-2e" transform="scale(0.015625)"/>
       </defs>
       <use xlink:href="#DejaVuSans-30"/>
       <use x="63.623047" xlink:href="#DejaVuSans-2e"/>
       <use x="95.410156" xlink:href="#DejaVuSans-34"/>
      </g>
     </g>
    </g>
    <g id="ytick_2">
     <g id="line2d_10">
      <g>
       <use style="stroke:#000000;stroke-width:0.8;" x="47.120313" xlink:href="#m8a17100a57" y="168.714553"/>
      </g>
     </g>
     <g id="text_11">
      <!-- 0.6 -->
      <g transform="translate(21.036563 173.273615)scale(0.12 -0.12)">
       <use xlink:href="#DejaVuSans-30"/>
       <use x="63.623047" xlink:href="#DejaVuSans-2e"/>
       <use x="95.410156" xlink:href="#DejaVuSans-36"/>
      </g>
     </g>
    </g>
    <g id="ytick_3">
     <g id="line2d_11">
      <g>
       <use style="stroke:#000000;stroke-width:0.8;" x="47.120313" xlink:href="#m8a17100a57" y="128.61353"/>
      </g>
     </g>
     <g id="text_12">
      <!-- 0.8 -->
      <g transform="translate(21.036563 133.172593)scale(0.12 -0.12)">
       <use xlink:href="#DejaVuSans-30"/>
       <use x="63.623047" xlink:href="#DejaVuSans-2e"/>
       <use x="95.410156" xlink:href="#DejaVuSans-38"/>
      </g>
     </g>
    </g>
    <g id="ytick_4">
     <g id="line2d_12">
      <g>
       <use style="stroke:#000000;stroke-width:0.8;" x="47.120313" xlink:href="#m8a17100a57" y="88.512507"/>
      </g>
     </g>
     <g id="text_13">
      <!-- 1.0 -->
      <g transform="translate(21.036563 93.07157)scale(0.12 -0.12)">
       <defs>
        <path d="M 794 531 
L 1825 531 
L 1825 4091 
L 703 3866 
L 703 4441 
L 1819 4666 
L 2450 4666 
L 2450 531 
L 3481 531 
L 3481 0 
L 794 0 
L 794 531 
z
" id="DejaVuSans-31" transform="scale(0.015625)"/>
       </defs>
       <use xlink:href="#DejaVuSans-31"/>
       <use x="63.623047" xlink:href="#DejaVuSans-2e"/>
       <use x="95.410156" xlink:href="#DejaVuSans-30"/>
      </g>
     </g>
    </g>
    <g id="ytick_5">
     <g id="line2d_13">
      <g>
       <use style="stroke:#000000;stroke-width:0.8;" x="47.120313" xlink:href="#m8a17100a57" y="48.411484"/>
      </g>
     </g>
     <g id="text_14">
      <!-- 1.2 -->
      <g transform="translate(21.036563 52.970547)scale(0.12 -0.12)">
       <defs>
        <path d="M 1228 531 
L 3431 531 
L 3431 0 
L 469 0 
L 469 531 
Q 828 903 1448 1529 
Q 2069 2156 2228 2338 
Q 2531 2678 2651 2914 
Q 2772 3150 2772 3378 
Q 2772 3750 2511 3984 
Q 2250 4219 1831 4219 
Q 1534 4219 1204 4116 
Q 875 4013 500 3803 
L 500 4441 
Q 881 4594 1212 4672 
Q 1544 4750 1819 4750 
Q 2544 4750 2975 4387 
Q 3406 4025 3406 3419 
Q 3406 3131 3298 2873 
Q 3191 2616 2906 2266 
Q 2828 2175 2409 1742 
Q 1991 1309 1228 531 
z
" id="DejaVuSans-32" transform="scale(0.015625)"/>
       </defs>
       <use xlink:href="#DejaVuSans-31"/>
       <use x="63.623047" xlink:href="#DejaVuSans-2e"/>
       <use x="95.410156" xlink:href="#DejaVuSans-32"/>
      </g>
     </g>
    </g>
    <g id="text_15">
     <!-- $p$ -->
     <g transform="translate(11.276563 119.22)scale(0.18 -0.18)">
      <defs>
       <path d="M 3175 2156 
Q 3175 2616 2975 2859 
Q 2775 3103 2400 3103 
Q 2144 3103 1911 2972 
Q 1678 2841 1497 2591 
Q 1319 2344 1212 1994 
Q 1106 1644 1106 1300 
Q 1106 863 1306 627 
Q 1506 391 1875 391 
Q 2147 391 2380 519 
Q 2613 647 2778 891 
Q 2956 1147 3065 1494 
Q 3175 1841 3175 2156 
z
M 1394 2969 
Q 1625 3272 1939 3428 
Q 2253 3584 2638 3584 
Q 3175 3584 3472 3232 
Q 3769 2881 3769 2247 
Q 3769 1728 3584 1258 
Q 3400 788 3053 416 
Q 2822 169 2531 39 
Q 2241 -91 1919 -91 
Q 1547 -91 1294 64 
Q 1041 219 916 525 
L 556 -1331 
L -19 -1331 
L 922 3500 
L 1497 3500 
L 1394 2969 
z
" id="DejaVuSans-Oblique-70" transform="scale(0.015625)"/>
      </defs>
      <use xlink:href="#DejaVuSans-Oblique-70"/>
     </g>
    </g>
   </g>
   <g id="line2d_14">
    <path clip-path="url(#p46d871e0d1)" d="M 64.104017 86.222934 
L 64.557521 89.997746 
L 65.011024 92.723497 
L 65.464528 94.245521 
L 65.918031 94.527318 
L 66.371535 93.679562 
L 67.278542 89.886241 
L 67.732045 87.999673 
L 68.185549 87.062424 
L 68.639052 87.861998 
L 69.092556 90.993647 
L 69.546059 96.506304 
L 71.813576 133.422079 
L 72.26708 137.867086 
L 72.720583 140.424044 
L 73.174087 140.970552 
L 73.62759 139.555806 
L 74.081094 136.420978 
L 74.988101 126.723856 
L 76.348611 111.168861 
L 76.802115 107.385181 
L 77.255618 104.679467 
L 77.709122 103.001471 
L 78.616129 101.221575 
L 79.069632 99.734498 
L 79.523135 96.775902 
L 79.976639 91.912612 
L 80.883646 77.99102 
L 81.790653 63.872701 
L 82.69766 52.94972 
L 84.05817 40.605949 
L 85.418681 30.161569 
L 85.872184 27.721399 
L 86.325688 26.188367 
L 86.779191 25.610099 
L 87.232694 25.846547 
L 87.686198 26.635268 
L 88.593205 28.92705 
L 89.046708 30.359974 
L 89.500212 32.352801 
L 89.953715 35.501076 
L 90.407219 40.47679 
L 90.860722 47.677658 
L 91.767729 67.795199 
L 94.942253 147.497634 
L 96.302764 174.840552 
L 97.209771 189.658742 
L 98.116778 201.605043 
L 99.023785 210.924942 
L 99.930792 217.74674 
L 100.384295 219.977225 
L 100.837799 221.009853 
L 101.291302 220.275248 
L 101.744806 216.993895 
L 102.198309 210.340851 
L 102.651812 199.87061 
L 103.558819 170.24644 
L 104.465826 139.661562 
L 105.372833 117.145583 
L 105.826337 109.569479 
L 106.27984 104.25023 
L 106.733344 100.919138 
L 107.186847 99.285511 
L 107.640351 99.065202 
L 108.093854 99.99496 
L 108.547358 101.839641 
L 109.454365 107.472228 
L 111.721882 123.994279 
L 112.175385 125.406563 
L 112.628889 125.051941 
L 113.082392 122.406589 
L 113.535896 117.212056 
L 114.442903 100.538446 
L 115.34991 82.580801 
L 115.803413 75.898471 
L 116.256917 71.167171 
L 116.71042 68.029674 
L 117.617427 64.31005 
L 118.524434 60.845239 
L 119.431441 55.598763 
L 120.338448 48.458561 
L 122.152462 33.269471 
L 123.059469 27.232087 
L 123.512972 24.924458 
L 123.966476 23.653108 
L 124.419979 24.319025 
L 124.873483 27.817521 
L 125.326986 34.31798 
L 126.233993 53.151804 
L 128.048007 93.137698 
L 130.769028 145.127445 
L 132.583042 177.357561 
L 133.943552 197.778329 
L 134.850559 208.595487 
L 135.304062 212.604087 
L 135.757566 215.197609 
L 136.211069 215.882699 
L 136.664573 214.111454 
L 137.118076 209.410273 
L 137.57158 201.57106 
L 138.478587 177.763753 
L 140.292601 121.820548 
L 141.199607 101.951322 
L 141.653111 95.130271 
L 142.106614 90.318861 
L 142.560118 87.356369 
L 143.013621 86.045066 
L 143.467125 86.174953 
L 143.920628 87.536026 
L 144.374132 89.918551 
L 145.281139 96.849309 
L 146.641649 108.308416 
L 147.095153 110.844147 
L 147.548656 111.941908 
L 148.00216 111.158929 
L 148.455663 108.191861 
L 148.909166 102.971125 
L 149.816173 87.374012 
L 150.72318 72.290937 
L 151.176684 68.058447 
L 151.630187 66.499263 
L 152.083691 67.097788 
L 152.537194 69.077813 
L 153.897705 76.262358 
L 154.351208 77.368391 
L 154.804712 77.314047 
L 155.258215 76.001233 
L 155.711719 73.489274 
L 156.618725 65.819855 
L 157.979236 52.911816 
L 158.432739 49.642766 
L 158.886243 47.651883 
L 159.339746 47.667545 
L 159.79325 50.421947 
L 160.246753 56.133414 
L 161.15376 73.40633 
L 162.060767 91.237648 
L 162.967774 104.326303 
L 163.421278 108.66631 
L 163.874781 111.757105 
L 164.781788 115.778558 
L 165.235291 117.670504 
L 165.688795 120.090517 
L 166.142298 123.358613 
L 167.049305 132.83252 
L 168.409816 152.04442 
L 169.316823 164.917306 
L 169.770326 170.275308 
L 170.22383 174.190079 
L 170.677333 175.959646 
L 171.130837 174.898419 
L 171.58434 170.626435 
L 172.037843 163.345863 
L 172.94485 143.069388 
L 174.758864 101.044002 
L 176.119375 75.849298 
L 177.026382 62.042035 
L 177.933389 51.728597 
L 178.386892 48.346765 
L 178.840395 46.262129 
L 179.293899 45.425037 
L 179.747402 45.674453 
L 180.200906 46.737284 
L 181.107913 49.639309 
L 181.561416 50.430388 
L 182.01492 50.101677 
L 182.468423 48.36362 
L 182.921927 45.271813 
L 183.828934 37.374667 
L 184.282437 34.613457 
L 184.735941 34.077986 
L 185.189444 36.397812 
L 185.642948 41.658887 
L 186.096451 49.512224 
L 187.003458 70.571986 
L 189.270975 128.107944 
L 190.177982 146.098368 
L 191.084989 159.929316 
L 191.991996 170.474932 
L 194.259513 195.222325 
L 195.16652 204.422559 
L 195.620024 207.774903 
L 196.073527 209.694055 
L 196.527031 209.537893 
L 196.980534 206.496758 
L 197.434038 199.792613 
L 197.887541 189.171648 
L 200.608562 109.824442 
L 201.515569 96.112055 
L 201.969072 91.595356 
L 202.422576 88.373346 
L 202.876079 86.322158 
L 203.329583 85.367578 
L 203.783086 85.45272 
L 204.23659 86.504346 
L 204.690093 88.410887 
L 205.5971 94.100464 
L 206.504107 100.564163 
L 206.957611 103.131083 
L 207.411114 104.532094 
L 207.864618 104.148326 
L 208.318121 101.482552 
L 208.771625 96.392438 
L 210.585638 67.484028 
L 211.039142 63.803073 
L 211.492645 62.444433 
L 211.946149 63.000728 
L 212.399652 64.920901 
L 214.213666 76.029003 
L 214.66717 77.63892 
L 215.120673 78.23047 
L 215.574177 77.698994 
L 216.02768 76.068469 
L 216.481184 73.498207 
L 218.295197 60.881505 
L 218.748701 59.745559 
L 219.202204 60.850039 
L 219.655708 64.756802 
L 220.109211 71.336655 
L 222.376729 113.50882 
L 222.830232 119.237078 
L 223.283736 123.468207 
L 223.737239 126.26644 
L 224.190743 127.839479 
L 224.644246 128.519221 
L 225.551253 128.896794 
L 226.004756 129.463945 
L 226.45826 130.757097 
L 226.911763 132.969418 
L 227.365267 136.123449 
L 228.272274 144.548442 
L 229.179281 153.301943 
L 229.632784 156.356991 
L 230.086288 157.471994 
L 230.539791 155.841099 
L 230.993295 151.0058 
L 231.446798 143.176286 
L 232.807308 111.294031 
L 234.167819 82.503354 
L 235.074826 67.422568 
L 235.981833 55.081466 
L 236.88884 45.052662 
L 237.795847 37.361808 
L 238.24935 34.569852 
L 238.702854 32.576633 
L 239.156357 31.372014 
L 239.609861 30.827499 
L 240.516867 30.49176 
L 240.970371 29.830118 
L 241.423874 28.339745 
L 242.784385 21.990204 
L 243.237888 22.615299 
L 243.691392 26.204894 
L 244.144895 32.819614 
L 245.051902 52.980326 
L 248.67993 148.987927 
L 249.586937 167.314862 
L 250.493944 182.497061 
L 251.854454 200.840824 
L 253.214965 215.968647 
L 254.121972 223.084213 
L 254.575475 224.8768 
L 255.028979 224.775297 
L 255.482482 221.976205 
L 255.935985 215.584599 
L 256.389489 205.06244 
L 257.296496 174.550123 
L 258.203503 143.183862 
L 259.11051 120.386626 
L 259.564013 112.695775 
L 260.017517 107.203826 
L 260.47102 103.62013 
L 260.924524 101.660612 
L 261.378027 101.075108 
L 261.831531 101.656241 
L 262.285034 103.233921 
L 262.738538 105.657977 
L 263.645544 112.427816 
L 265.459558 127.566288 
L 265.913062 129.616079 
L 266.366565 129.857914 
L 266.820069 127.706511 
L 267.273572 122.853903 
L 268.180579 106.269759 
L 269.087586 87.290647 
L 269.994593 73.900653 
L 270.448097 69.720318 
L 271.355103 64.313848 
L 272.26211 59.88002 
L 273.169117 54.164291 
L 274.529628 42.718856 
L 275.890138 31.626295 
L 276.797145 25.786213 
L 277.250649 23.308992 
L 277.704152 21.450638 
L 278.157656 21 
L 278.611159 23.006104 
L 279.064662 28.060112 
L 279.971669 45.377009 
L 283.146194 115.77349 
L 285.413711 160.791804 
L 286.774221 184.378231 
L 288.134732 203.90741 
L 289.041739 213.823999 
L 289.495242 217.222674 
L 289.948746 219.075239 
L 290.402249 218.87389 
L 290.855753 216.063276 
L 291.309256 210.18174 
L 291.76276 201.071011 
L 292.669767 174.926592 
L 294.030277 131.070152 
L 294.937284 109.141944 
L 295.390787 101.452411 
L 295.844291 95.898484 
L 296.297794 92.308165 
L 296.751298 90.466945 
L 297.204801 90.150042 
L 297.658305 91.138397 
L 298.111808 93.22124 
L 299.018815 99.819491 
L 300.832829 115.23013 
L 301.286333 117.366249 
L 301.739836 117.867922 
L 302.193339 116.304207 
L 302.646843 112.41331 
L 303.100346 106.217018 
L 304.91436 74.153309 
L 305.367864 70.018833 
L 305.821367 68.220067 
L 306.274871 68.147052 
L 306.728374 69.059786 
L 307.635381 71.241615 
L 308.088885 71.534906 
L 308.542388 70.879273 
L 308.995892 69.146483 
L 309.449395 66.36562 
L 310.356402 58.468149 
L 312.170416 41.500655 
L 312.623919 38.476966 
L 313.077423 36.679608 
L 313.530926 36.893569 
L 313.98443 39.923821 
L 314.437933 45.970352 
L 315.34494 63.83272 
L 316.705451 90.339678 
L 317.612457 102.948687 
L 320.333478 133.541433 
L 321.693989 154.646695 
L 323.508003 182.534206 
L 324.41501 192.349041 
L 324.868513 194.820138 
L 325.322016 194.880857 
L 325.77552 192.044971 
L 326.229023 186.183042 
L 327.13603 167.180108 
L 329.857051 98.477874 
L 330.764058 80.887962 
L 331.671065 68.927169 
L 332.124569 65.353371 
L 332.578072 63.352521 
L 333.031575 62.803262 
L 333.485079 63.528076 
L 333.938582 65.298674 
L 334.845589 70.762981 
L 335.752596 76.024254 
L 336.2061 77.334178 
L 336.659603 77.157489 
L 337.113107 75.234843 
L 337.56661 71.553208 
L 338.473617 60.435528 
L 338.927121 54.705079 
L 339.380624 50.524133 
L 339.834128 49.079782 
L 340.287631 50.956092 
L 340.741134 55.952961 
L 341.648141 72.137423 
L 343.462155 107.865504 
L 344.369162 120.251301 
L 344.822666 124.349351 
L 345.276169 127.045533 
L 345.729673 128.532763 
L 346.183176 129.193678 
L 346.63668 129.574778 
L 347.090183 130.309095 
L 347.543687 131.997661 
L 347.99719 135.063224 
L 348.450693 139.611543 
L 350.718211 168.550159 
L 351.171714 171.005583 
L 351.625218 170.778771 
L 352.078721 167.363573 
L 352.532225 160.679866 
L 353.439232 140.056208 
L 355.253246 95.443949 
L 356.160252 78.020165 
L 357.067259 63.773473 
L 357.974266 52.257466 
L 358.881273 43.841224 
L 359.334777 41.195603 
L 359.78828 39.744027 
L 360.241784 39.427285 
L 360.695287 40.028544 
L 362.055798 43.264513 
L 362.509301 43.107881 
L 362.962805 41.625048 
L 363.416308 38.826298 
L 364.323315 32.08407 
L 364.776818 30.64766 
L 365.230322 32.02775 
L 365.683825 36.583701 
L 366.137329 44.016456 
L 367.044336 64.840768 
L 369.765357 135.721593 
L 370.672364 154.353709 
L 371.57937 169.105347 
L 372.486377 180.592471 
L 374.753895 205.191645 
L 375.660902 213.040948 
L 376.114405 215.366212 
L 376.567909 215.911578 
L 377.021412 213.917755 
L 377.474916 208.528372 
L 377.928419 199.160447 
L 378.835426 170.671848 
L 379.742433 140.081283 
L 380.64944 116.986419 
L 381.102943 108.844562 
L 381.556447 102.71799 
L 382.00995 98.323249 
L 382.463454 95.392482 
L 382.916957 93.708286 
L 383.370461 93.115127 
L 383.823964 93.506786 
L 384.277468 94.797268 
L 384.730971 96.888211 
L 385.637978 102.893354 
L 386.998488 112.834341 
L 387.451992 114.846901 
L 387.905495 115.263384 
L 388.358999 113.494992 
L 388.812502 109.198558 
L 389.266006 102.498221 
L 390.626516 77.334029 
L 391.08002 71.228866 
L 391.533523 67.226402 
L 391.987027 65.085047 
L 392.44053 64.328068 
L 392.894034 64.436673 
L 393.801041 65.419037 
L 394.254544 65.5479 
L 394.708047 65.063244 
L 395.161551 63.798882 
L 395.615054 61.700251 
L 396.522061 55.366884 
L 398.336075 40.664896 
L 398.789579 38.231937 
L 399.243082 37.271117 
L 399.696586 38.643975 
L 400.150089 42.988806 
L 400.603593 50.158561 
L 403.778117 112.071394 
L 403.778117 112.071394 
" style="fill:none;stroke:#ff0000;stroke-linecap:square;stroke-width:1.5;"/>
   </g>
   <g id="line2d_15">
    <path clip-path="url(#p46d871e0d1)" d="M 64.104017 82.212738 
L 64.557521 88.986327 
L 65.011024 90.470066 
L 65.464528 94.095549 
L 65.918031 93.889116 
L 66.371535 95.450267 
L 66.825038 93.695585 
L 67.278542 90.270084 
L 67.732045 89.508861 
L 68.185549 89.399194 
L 68.639052 87.192939 
L 69.092556 86.63815 
L 69.546059 90.012042 
L 69.999563 95.011596 
L 70.90657 109.326448 
L 71.360073 119.835188 
L 72.26708 134.711281 
L 72.720583 138.768983 
L 73.174087 139.00122 
L 73.62759 140.620431 
L 74.534597 137.762621 
L 74.988101 130.376183 
L 75.441604 126.447502 
L 76.348611 115.564602 
L 77.255618 109.190977 
L 77.709122 104.630093 
L 78.162625 103.017334 
L 78.616129 102.978628 
L 79.069632 102.217405 
L 79.523135 101.030414 
L 79.976639 99.26283 
L 80.430142 94.66324 
L 80.883646 87.57355 
L 82.244156 60.950119 
L 82.69766 58.776119 
L 83.151163 54.86034 
L 83.604667 47.254567 
L 84.05817 43.016235 
L 84.511674 41.261553 
L 84.965177 36.371666 
L 85.418681 29.914178 
L 85.872184 28.907816 
L 86.325688 29.004582 
L 86.779191 26.907995 
L 87.232694 25.482315 
L 87.686198 25.469413 
L 88.139701 27.198291 
L 88.593205 27.2499 
L 89.046708 29.752902 
L 89.500212 28.707834 
L 89.953715 28.946522 
L 90.407219 32.28816 
L 91.314226 52.279925 
L 92.221233 67.614041 
L 93.581743 102.010972 
L 94.035247 114.306649 
L 94.48875 119.551343 
L 94.942253 126.557169 
L 95.84926 152.870951 
L 96.302764 166.850349 
L 96.756267 184.803586 
L 97.209771 188.37101 
L 97.663274 192.841579 
L 98.116778 195.512308 
L 98.570281 200.008681 
L 99.477288 210.620638 
L 99.930792 214.517064 
L 100.384295 216.684613 
L 100.837799 218.278019 
L 101.291302 219.329538 
L 101.744806 218.574767 
L 102.198309 214.768655 
L 102.651812 208.033772 
L 103.105316 198.44753 
L 104.012323 171.959571 
L 105.372833 127.079703 
L 105.826337 115.332364 
L 106.27984 107.339529 
L 106.733344 105.197784 
L 107.186847 103.855969 
L 107.640351 93.869763 
L 108.093854 91.411918 
L 109.000861 103.668889 
L 109.454365 105.823535 
L 109.907868 105.649357 
L 110.361371 111.732685 
L 110.814875 112.939029 
L 111.268378 118.53853 
L 111.721882 120.648019 
L 112.175385 124.473484 
L 112.628889 126.421697 
L 113.082392 125.886261 
L 113.535896 121.602773 
L 113.989399 116.17745 
L 114.896406 101.262652 
L 115.803413 81.799872 
L 116.256917 75.058538 
L 117.617427 66.162557 
L 118.07093 64.149833 
L 118.524434 59.892149 
L 118.977937 59.84054 
L 119.431441 59.505087 
L 119.884944 55.157087 
L 120.338448 53.924939 
L 120.791951 49.757569 
L 121.698958 39.713304 
L 123.059469 30.997952 
L 123.512972 26.804778 
L 123.966476 23.759888 
L 124.419979 22.734173 
L 124.873483 24.804956 
L 125.326986 29.127151 
L 125.780489 35.113714 
L 126.233993 43.242021 
L 128.50151 94.211668 
L 133.036545 178.17192 
L 133.943552 191.332036 
L 135.304062 208.220852 
L 135.757566 212.523694 
L 136.211069 215.54923 
L 136.664573 216.516886 
L 137.118076 214.652536 
L 137.57158 209.788454 
L 138.025083 202.047209 
L 138.93209 178.159017 
L 140.746104 121.873716 
L 141.653111 101.849696 
L 142.106614 95.327697 
L 142.560118 90.695852 
L 143.013621 87.463883 
L 143.467125 85.109254 
L 143.920628 85.625337 
L 144.374132 87.470334 
L 145.281139 92.985971 
L 145.734642 96.804985 
L 146.188146 99.604735 
L 146.641649 105.397767 
L 147.095153 108.242674 
L 147.548656 110.281202 
L 148.00216 111.661724 
L 148.455663 111.048875 
L 148.909166 108.442656 
L 149.36267 103.810811 
L 150.72318 78.664668 
L 151.630187 68.291399 
L 152.083691 66.098047 
L 152.537194 66.827014 
L 152.990698 68.755874 
L 153.444201 72.065256 
L 153.897705 73.678016 
L 154.351208 76.755161 
L 154.804712 77.613149 
L 155.258215 77.503481 
L 155.711719 76.368098 
L 156.618725 70.052533 
L 157.072229 66.465756 
L 158.432739 52.918577 
L 158.886243 49.32535 
L 159.339746 47.938376 
L 159.79325 47.209409 
L 160.246753 50.680067 
L 161.15376 64.665916 
L 162.967774 98.708041 
L 163.421278 104.397856 
L 163.874781 108.636187 
L 164.781788 114.113118 
L 165.235291 114.854987 
L 166.595802 123.421965 
L 167.956312 139.014123 
L 169.770326 163.986088 
L 170.22383 170.256497 
L 170.677333 174.469024 
L 171.130837 175.43668 
L 171.58434 173.275582 
L 172.037843 170.52744 
L 172.94485 155.586838 
L 173.851857 131.511566 
L 176.572878 76.419707 
L 177.479885 61.975834 
L 177.933389 55.802191 
L 179.293899 44.719309 
L 179.747402 43.616181 
L 180.200906 45.119273 
L 180.654409 45.751475 
L 181.107913 49.570489 
L 181.561416 48.041593 
L 182.01492 52.079943 
L 182.468423 49.609195 
L 182.921927 48.125457 
L 184.282437 37.526402 
L 184.735941 34.875026 
L 185.189444 33.59772 
L 185.642948 36.76518 
L 186.096451 42.106639 
L 186.549954 49.112465 
L 187.003458 58.021348 
L 188.363968 94.102 
L 189.270975 116.977379 
L 189.724479 128.569893 
L 191.084989 153.664428 
L 192.4455 170.391968 
L 192.899003 174.043256 
L 193.80601 186.119598 
L 194.259513 190.886914 
L 194.713017 194.383377 
L 195.16652 200.266723 
L 195.620024 202.060111 
L 196.073527 206.730662 
L 196.527031 209.07884 
L 196.980534 209.665884 
L 197.434038 205.646888 
L 197.887541 200.111898 
L 198.794548 175.630211 
L 200.155059 131.614783 
L 201.062066 109.732864 
L 201.969072 96.605003 
L 202.422576 92.121532 
L 202.876079 89.037936 
L 203.329583 88.721835 
L 203.783086 86.160773 
L 204.23659 86.689758 
L 204.690093 87.76063 
L 205.143597 87.928357 
L 205.5971 92.831146 
L 206.050604 94.889027 
L 207.411114 103.281826 
L 207.864618 105.146176 
L 208.318121 104.230129 
L 208.771625 100.88204 
L 209.678631 89.515313 
L 210.585638 73.381268 
L 211.039142 65.569062 
L 211.492645 63.091863 
L 211.946149 62.937038 
L 212.399652 62.362896 
L 212.853156 64.485287 
L 213.760163 70.923423 
L 214.213666 72.761968 
L 214.66717 76.290686 
L 215.120673 78.096976 
L 215.574177 78.625961 
L 216.481184 76.510021 
L 217.38819 70.28477 
L 217.841694 67.665649 
L 218.748701 60.434036 
L 219.202204 60.485644 
L 219.655708 62.362896 
L 220.109211 65.214255 
L 220.562715 70.646028 
L 221.016218 77.471226 
L 221.923225 99.127358 
L 222.830232 113.06805 
L 223.737239 124.228345 
L 224.190743 125.744339 
L 225.097749 129.879454 
L 225.551253 128.369911 
L 226.004756 129.253703 
L 226.45826 129.60851 
L 226.911763 130.60197 
L 228.272274 139.568912 
L 229.632784 152.767734 
L 230.086288 156.051312 
L 230.539791 157.599561 
L 230.993295 156.760926 
L 231.446798 153.232209 
L 232.353805 133.388818 
L 232.807308 118.712708 
L 233.260812 109.27484 
L 234.167819 94.024588 
L 235.074826 75.690739 
L 235.528329 67.291489 
L 236.435336 55.976369 
L 236.88884 49.867237 
L 237.342343 45.886947 
L 237.795847 39.842325 
L 238.24935 36.236195 
L 238.702854 35.83623 
L 239.156357 34.739554 
L 240.516867 28.159496 
L 240.970371 28.475597 
L 241.423874 29.043288 
L 241.877378 28.191751 
L 243.237888 22.921253 
L 243.691392 22.08907 
L 244.144895 24.385639 
L 244.598399 30.088356 
L 245.958909 64.169187 
L 248.226426 124.815389 
L 249.586937 158.070487 
L 250.947447 182.59088 
L 251.854454 195.512308 
L 254.575475 223.161454 
L 255.028979 224.670997 
L 255.482482 225 
L 255.935985 221.651912 
L 256.389489 215.071853 
L 256.842992 205.04049 
L 257.749999 175.00446 
L 258.657006 143.562104 
L 259.564013 120.951218 
L 260.924524 101.31426 
L 261.378027 103.591476 
L 261.831531 97.372676 
L 262.738538 105.133274 
L 263.192041 107.507256 
L 263.645544 108.952288 
L 264.099048 114.584044 
L 264.552551 116.306471 
L 265.006055 122.228523 
L 265.913062 127.692552 
L 266.366565 128.982759 
L 266.820069 128.873092 
L 267.273572 126.737798 
L 267.727076 122.557526 
L 268.634083 107.094389 
L 269.54109 86.257539 
L 269.994593 79.000122 
L 270.9016 69.420331 
L 272.715614 59.879247 
L 273.169117 58.092309 
L 273.622621 54.208785 
L 274.076124 51.454192 
L 274.529628 46.235303 
L 274.983131 43.229119 
L 275.890138 35.410462 
L 277.250649 25.056547 
L 278.157656 21.889087 
L 278.611159 21.514927 
L 279.064662 24.1405 
L 279.518166 27.985318 
L 279.971669 35.223382 
L 284.506704 135.253168 
L 287.227725 183.726263 
L 288.134732 197.137969 
L 289.495242 214.020334 
L 289.948746 217.690975 
L 290.402249 219.677894 
L 290.855753 219.613384 
L 291.309256 216.613651 
L 291.76276 210.743207 
L 292.669767 189.622511 
L 294.937284 118.525628 
L 295.844291 101.385221 
L 296.297794 95.934095 
L 296.751298 92.140885 
L 297.658305 88.947621 
L 298.565312 93.153698 
L 299.472319 99.249928 
L 300.832829 111.681077 
L 301.286333 115.18399 
L 301.739836 117.035438 
L 302.193339 117.532168 
L 302.646843 116.577414 
L 303.100346 113.371249 
L 303.55385 106.584757 
L 304.91436 81.251534 
L 305.821367 69.839648 
L 306.274871 67.452765 
L 306.728374 67.897886 
L 307.181878 68.904248 
L 307.635381 70.646028 
L 308.088885 71.426604 
L 308.542388 71.871725 
L 308.995892 71.104052 
L 309.449395 68.955856 
L 310.356402 62.401602 
L 312.623919 41.132532 
L 313.077423 39.274633 
L 313.530926 36.158782 
L 313.98443 37.319969 
L 314.437933 39.913286 
L 315.34494 53.93139 
L 316.705451 82.135326 
L 317.158954 90.876481 
L 318.519464 108.674894 
L 318.972968 112.087492 
L 320.333478 127.499021 
L 320.786982 134.350022 
L 321.240485 139.039927 
L 321.693989 148.645521 
L 322.600996 162.270112 
L 323.961506 182.52637 
L 324.868513 192.906089 
L 325.322016 195.312326 
L 325.77552 194.757537 
L 326.229023 191.396546 
L 326.682527 186.106696 
L 327.13603 177.726798 
L 328.496541 144.645878 
L 329.857051 109.436116 
L 330.764058 90.289437 
L 331.671065 74.619867 
L 332.124569 68.452675 
L 333.031575 61.524261 
L 333.485079 60.240505 
L 333.938582 60.672724 
L 334.845589 68.839738 
L 335.299093 70.149298 
L 335.752596 74.484395 
L 336.2061 75.729446 
L 336.659603 77.316401 
L 337.113107 78.000211 
L 337.56661 75.400443 
L 338.020114 71.226622 
L 339.380624 54.099117 
L 339.834128 51.376779 
L 340.287631 49.544685 
L 340.741134 49.970453 
L 341.194638 55.324814 
L 342.101645 70.762147 
L 343.008652 90.863579 
L 343.915659 108.610383 
L 344.822666 121.841461 
L 345.276169 125.866908 
L 345.729673 127.686101 
L 346.183176 127.795768 
L 346.63668 129.724629 
L 347.090183 129.776237 
L 347.543687 129.311762 
L 348.450693 135.227364 
L 348.904197 138.949612 
L 349.811204 149.793806 
L 350.718211 163.057139 
L 351.625218 170.572597 
L 352.078721 170.940307 
L 352.532225 167.463197 
L 353.892735 140.381742 
L 355.253246 104.230129 
L 356.160252 88.560559 
L 356.613756 76.774514 
L 357.520763 64.575602 
L 359.334777 44.525778 
L 359.78828 42.209855 
L 360.241784 41.893754 
L 360.695287 40.119719 
L 361.148791 39.964894 
L 362.055798 46.751386 
L 362.509301 45.061214 
L 362.962805 44.467718 
L 363.416308 42.377582 
L 364.323315 35.204029 
L 364.776818 32.952617 
L 365.230322 32.120433 
L 365.683825 34.578278 
L 366.137329 38.784354 
L 366.590832 44.72576 
L 367.951343 75.806858 
L 370.672364 146.723112 
L 372.486377 175.514092 
L 372.939881 182.203818 
L 375.207398 205.988793 
L 375.660902 212.678519 
L 376.114405 214.007432 
L 376.567909 216.762025 
L 377.021412 217.542601 
L 377.474916 215.6718 
L 378.381923 198.202391 
L 379.288929 171.70798 
L 380.195936 139.646324 
L 381.102943 116.4871 
L 381.556447 108.0943 
L 382.463454 97.946818 
L 383.370461 92.315063 
L 383.823964 91.618351 
L 384.277468 93.360131 
L 384.730971 92.36022 
L 385.184475 96.101822 
L 386.091482 101.12718 
L 386.998488 109.984454 
L 387.451992 112.680988 
L 387.905495 114.042157 
L 388.358999 113.545427 
L 388.812502 112.597124 
L 389.266006 108.365244 
L 389.719509 102.217405 
L 390.626516 85.14796 
L 391.08002 76.071351 
L 391.533523 69.962218 
L 392.44053 65.252961 
L 392.894034 64.304658 
L 393.347537 64.62721 
L 393.801041 64.427228 
L 394.254544 65.981928 
L 394.708047 64.575602 
L 395.161551 64.433679 
L 395.615054 63.298297 
L 396.068558 61.388789 
L 396.522061 58.924493 
L 397.882572 48.286733 
L 398.789579 38.971435 
L 399.243082 37.907013 
L 399.696586 38.577921 
L 400.603593 44.667701 
L 401.5106 56.440844 
L 402.417606 79.716187 
L 402.87111 87.160684 
L 403.324613 97.908112 
L 403.778117 105.804182 
L 403.778117 105.804182 
" style="fill:none;stroke:#0000ff;stroke-dasharray:5.55,2.4;stroke-dashoffset:0;stroke-width:1.5;"/>
   </g>
   <g id="patch_3">
    <path d="M 47.120313 235.2 
L 47.120313 10.8 
" style="fill:none;stroke:#000000;stroke-linecap:square;stroke-linejoin:miter;stroke-width:0.8;"/>
   </g>
   <g id="patch_4">
    <path d="M 420.761822 235.2 
L 420.761822 10.8 
" style="fill:none;stroke:#000000;stroke-linecap:square;stroke-linejoin:miter;stroke-width:0.8;"/>
   </g>
   <g id="patch_5">
    <path d="M 47.120312 235.2 
L 420.761822 235.2 
" style="fill:none;stroke:#000000;stroke-linecap:square;stroke-linejoin:miter;stroke-width:0.8;"/>
   </g>
   <g id="patch_6">
    <path d="M 47.120312 10.8 
L 420.761822 10.8 
" style="fill:none;stroke:#000000;stroke-linecap:square;stroke-linejoin:miter;stroke-width:0.8;"/>
   </g>
   <g id="legend_1">
    <g id="patch_7">
     <path d="M 306.289947 228.2 
L 410.961822 228.2 
Q 413.761822 228.2 413.761822 225.4 
L 413.761822 185.675 
Q 413.761822 182.875 410.961822 182.875 
L 306.289947 182.875 
Q 303.489947 182.875 303.489947 185.675 
L 303.489947 225.4 
Q 303.489947 228.2 306.289947 228.2 
z
" style="fill:#ffffff;opacity:0.8;stroke:#cccccc;stroke-linejoin:miter;"/>
    </g>
    <g id="line2d_16">
     <path d="M 309.089947 194.212812 
L 337.089947 194.212812 
" style="fill:none;stroke:#ff0000;stroke-linecap:square;stroke-width:1.5;"/>
    </g>
    <g id="line2d_17"/>
    <g id="text_16">
     <!-- Real -->
     <g transform="translate(348.289947 199.112812)scale(0.14 -0.14)">
      <defs>
       <path d="M 2841 2188 
Q 3044 2119 3236 1894 
Q 3428 1669 3622 1275 
L 4263 0 
L 3584 0 
L 2988 1197 
Q 2756 1666 2539 1819 
Q 2322 1972 1947 1972 
L 1259 1972 
L 1259 0 
L 628 0 
L 628 4666 
L 2053 4666 
Q 2853 4666 3247 4331 
Q 3641 3997 3641 3322 
Q 3641 2881 3436 2590 
Q 3231 2300 2841 2188 
z
M 1259 4147 
L 1259 2491 
L 2053 2491 
Q 2509 2491 2742 2702 
Q 2975 2913 2975 3322 
Q 2975 3731 2742 3939 
Q 2509 4147 2053 4147 
L 1259 4147 
z
" id="DejaVuSans-52" transform="scale(0.015625)"/>
       <path d="M 3597 1894 
L 3597 1613 
L 953 1613 
Q 991 1019 1311 708 
Q 1631 397 2203 397 
Q 2534 397 2845 478 
Q 3156 559 3463 722 
L 3463 178 
Q 3153 47 2828 -22 
Q 2503 -91 2169 -91 
Q 1331 -91 842 396 
Q 353 884 353 1716 
Q 353 2575 817 3079 
Q 1281 3584 2069 3584 
Q 2775 3584 3186 3129 
Q 3597 2675 3597 1894 
z
M 3022 2063 
Q 3016 2534 2758 2815 
Q 2500 3097 2075 3097 
Q 1594 3097 1305 2825 
Q 1016 2553 972 2059 
L 3022 2063 
z
" id="DejaVuSans-65" transform="scale(0.015625)"/>
       <path d="M 2194 1759 
Q 1497 1759 1228 1600 
Q 959 1441 959 1056 
Q 959 750 1161 570 
Q 1363 391 1709 391 
Q 2188 391 2477 730 
Q 2766 1069 2766 1631 
L 2766 1759 
L 2194 1759 
z
M 3341 1997 
L 3341 0 
L 2766 0 
L 2766 531 
Q 2569 213 2275 61 
Q 1981 -91 1556 -91 
Q 1019 -91 701 211 
Q 384 513 384 1019 
Q 384 1609 779 1909 
Q 1175 2209 1959 2209 
L 2766 2209 
L 2766 2266 
Q 2766 2663 2505 2880 
Q 2244 3097 1772 3097 
Q 1472 3097 1187 3025 
Q 903 2953 641 2809 
L 641 3341 
Q 956 3463 1253 3523 
Q 1550 3584 1831 3584 
Q 2591 3584 2966 3190 
Q 3341 2797 3341 1997 
z
" id="DejaVuSans-61" transform="scale(0.015625)"/>
       <path d="M 603 4863 
L 1178 4863 
L 1178 0 
L 603 0 
L 603 4863 
z
" id="DejaVuSans-6c" transform="scale(0.015625)"/>
      </defs>
      <use xlink:href="#DejaVuSans-52"/>
      <use x="64.982422" xlink:href="#DejaVuSans-65"/>
      <use x="126.505859" xlink:href="#DejaVuSans-61"/>
      <use x="187.785156" xlink:href="#DejaVuSans-6c"/>
     </g>
    </g>
    <g id="line2d_18">
     <path d="M 309.089947 214.788437 
L 337.089947 214.788437 
" style="fill:none;stroke:#0000ff;stroke-dasharray:5.55,2.4;stroke-dashoffset:0;stroke-width:1.5;"/>
    </g>
    <g id="line2d_19"/>
    <g id="text_17">
     <!-- Predição -->
     <g transform="translate(348.289947 219.688437)scale(0.14 -0.14)">
      <defs>
       <path d="M 1259 4147 
L 1259 2394 
L 2053 2394 
Q 2494 2394 2734 2622 
Q 2975 2850 2975 3272 
Q 2975 3691 2734 3919 
Q 2494 4147 2053 4147 
L 1259 4147 
z
M 628 4666 
L 2053 4666 
Q 2838 4666 3239 4311 
Q 3641 3956 3641 3272 
Q 3641 2581 3239 2228 
Q 2838 1875 2053 1875 
L 1259 1875 
L 1259 0 
L 628 0 
L 628 4666 
z
" id="DejaVuSans-50" transform="scale(0.015625)"/>
       <path d="M 2631 2963 
Q 2534 3019 2420 3045 
Q 2306 3072 2169 3072 
Q 1681 3072 1420 2755 
Q 1159 2438 1159 1844 
L 1159 0 
L 581 0 
L 581 3500 
L 1159 3500 
L 1159 2956 
Q 1341 3275 1631 3429 
Q 1922 3584 2338 3584 
Q 2397 3584 2469 3576 
Q 2541 3569 2628 3553 
L 2631 2963 
z
" id="DejaVuSans-72" transform="scale(0.015625)"/>
       <path d="M 2906 2969 
L 2906 4863 
L 3481 4863 
L 3481 0 
L 2906 0 
L 2906 525 
Q 2725 213 2448 61 
Q 2172 -91 1784 -91 
Q 1150 -91 751 415 
Q 353 922 353 1747 
Q 353 2572 751 3078 
Q 1150 3584 1784 3584 
Q 2172 3584 2448 3432 
Q 2725 3281 2906 2969 
z
M 947 1747 
Q 947 1113 1208 752 
Q 1469 391 1925 391 
Q 2381 391 2643 752 
Q 2906 1113 2906 1747 
Q 2906 2381 2643 2742 
Q 2381 3103 1925 3103 
Q 1469 3103 1208 2742 
Q 947 2381 947 1747 
z
" id="DejaVuSans-64" transform="scale(0.015625)"/>
       <path d="M 603 3500 
L 1178 3500 
L 1178 0 
L 603 0 
L 603 3500 
z
M 603 4863 
L 1178 4863 
L 1178 4134 
L 603 4134 
L 603 4863 
z
" id="DejaVuSans-69" transform="scale(0.015625)"/>
       <path d="M 3122 3366 
L 3122 2828 
Q 2878 2963 2633 3030 
Q 2388 3097 2138 3097 
Q 1578 3097 1268 2742 
Q 959 2388 959 1747 
Q 959 1106 1268 751 
Q 1578 397 2138 397 
Q 2388 397 2633 464 
Q 2878 531 3122 666 
L 3122 134 
Q 2881 22 2623 -34 
Q 2366 -91 2075 -91 
Q 1284 -91 818 406 
Q 353 903 353 1747 
Q 353 2603 823 3093 
Q 1294 3584 2113 3584 
Q 2378 3584 2631 3529 
Q 2884 3475 3122 3366 
z
M 2309 0 
Q 2481 -194 2565 -358 
Q 2650 -522 2650 -672 
Q 2650 -950 2462 -1092 
Q 2275 -1234 1906 -1234 
Q 1763 -1234 1627 -1215 
Q 1491 -1197 1356 -1159 
L 1356 -750 
Q 1463 -803 1578 -826 
Q 1694 -850 1841 -850 
Q 2025 -850 2119 -775 
Q 2213 -700 2213 -556 
Q 2213 -463 2145 -327 
Q 2078 -191 1938 0 
L 2309 0 
z
" id="DejaVuSans-e7" transform="scale(0.015625)"/>
       <path d="M 2194 1759 
Q 1497 1759 1228 1600 
Q 959 1441 959 1056 
Q 959 750 1161 570 
Q 1363 391 1709 391 
Q 2188 391 2477 730 
Q 2766 1069 2766 1631 
L 2766 1759 
L 2194 1759 
z
M 3341 1997 
L 3341 0 
L 2766 0 
L 2766 531 
Q 2569 213 2275 61 
Q 1981 -91 1556 -91 
Q 1019 -91 701 211 
Q 384 513 384 1019 
Q 384 1609 779 1909 
Q 1175 2209 1959 2209 
L 2766 2209 
L 2766 2266 
Q 2766 2663 2505 2880 
Q 2244 3097 1772 3097 
Q 1472 3097 1187 3025 
Q 903 2953 641 2809 
L 641 3341 
Q 956 3463 1253 3523 
Q 1550 3584 1831 3584 
Q 2591 3584 2966 3190 
Q 3341 2797 3341 1997 
z
M 1844 4281 
L 1666 4453 
Q 1597 4516 1545 4545 
Q 1494 4575 1453 4575 
Q 1334 4575 1278 4461 
Q 1222 4347 1216 4091 
L 825 4091 
Q 831 4513 990 4742 
Q 1150 4972 1434 4972 
Q 1553 4972 1653 4928 
Q 1753 4884 1869 4781 
L 2047 4609 
Q 2116 4547 2167 4517 
Q 2219 4488 2259 4488 
Q 2378 4488 2434 4602 
Q 2491 4716 2497 4972 
L 2888 4972 
Q 2881 4550 2722 4320 
Q 2563 4091 2278 4091 
Q 2159 4091 2059 4134 
Q 1959 4178 1844 4281 
z
" id="DejaVuSans-e3" transform="scale(0.015625)"/>
       <path d="M 1959 3097 
Q 1497 3097 1228 2736 
Q 959 2375 959 1747 
Q 959 1119 1226 758 
Q 1494 397 1959 397 
Q 2419 397 2687 759 
Q 2956 1122 2956 1747 
Q 2956 2369 2687 2733 
Q 2419 3097 1959 3097 
z
M 1959 3584 
Q 2709 3584 3137 3096 
Q 3566 2609 3566 1747 
Q 3566 888 3137 398 
Q 2709 -91 1959 -91 
Q 1206 -91 779 398 
Q 353 888 353 1747 
Q 353 2609 779 3096 
Q 1206 3584 1959 3584 
z
" id="DejaVuSans-6f" transform="scale(0.015625)"/>
      </defs>
      <use xlink:href="#DejaVuSans-50"/>
      <use x="58.552734" xlink:href="#DejaVuSans-72"/>
      <use x="97.416016" xlink:href="#DejaVuSans-65"/>
      <use x="158.939453" xlink:href="#DejaVuSans-64"/>
      <use x="222.416016" xlink:href="#DejaVuSans-69"/>
      <use x="250.199219" xlink:href="#DejaVuSans-e7"/>
      <use x="305.179688" xlink:href="#DejaVuSans-e3"/>
      <use x="366.458984" xlink:href="#DejaVuSans-6f"/>
     </g>
    </g>
   </g>
  </g>
 </g>
 <defs>
  <clipPath id="p46d871e0d1">
   <rect height="224.4" width="373.641509" x="47.120313" y="10.8"/>
  </clipPath>
 </defs>
</svg>
